<?xml version="1.0" encoding="utf-8"?>
<!-- Generator: Adobe Illustrator 22.1.0, SVG Export Plug-In . SVG Version: 6.00 Build 0)  -->
<svg version="1.1" xmlns="http://www.w3.org/2000/svg" xmlns:xlink="http://www.w3.org/1999/xlink" x="0px" y="0px"
	 viewBox="0 0 83.2 31" style="enable-background:new 0 0 83.2 31;" xml:space="preserve">
<style type="text/css">
	.st0{display:none;}
	.st1{display:inline;}
	.st2{fill:#F2C860;}
	.st3{fill:none;stroke:#A88734;stroke-miterlimit:10;}
	.st4{fill:#FF9900;}
	.st5{font-family:'BubblegumSans-Regular';}
	.st6{font-size:12px;}
	.st7{fill:url(#SVGID_1_);}
	.st8{fill:none;stroke:#FF6600;stroke-miterlimit:10;}
	.st9{fill:#FFFFFF;}
	.st10{fill:#F9F9F9;}
	.st11{font-family:'Aller-Bold';}
	.st12{font-size:31px;}
	.st13{fill:url(#SVGID_2_);}
	.st14{fill:#E21E26;}
	.st15{display:inline;fill:#FFFFFF;}
	.st16{fill:url(#SVGID_3_);}
	.st17{fill:#FCFCFC;}
	.st18{font-family:'DiavloMedium-Regular';}
	.st19{font-size:25px;}
	.st20{fill:#7F8084;}
	.st21{enable-background:new    ;}
	.st22{fill:#A8C4CB;}
	.st23{fill:url(#SVGID_4_);}
	.st24{fill:url(#SVGID_5_);}
	.st25{fill:url(#SVGID_6_);}
	.st26{fill:url(#SVGID_7_);}
	.st27{display:inline;enable-background:new    ;}
	.st28{fill:#DCE1E2;}
	.st29{fill:url(#SVGID_8_);}
	.st30{fill:url(#SVGID_9_);}
	.st31{fill:url(#SVGID_10_);}
	.st32{fill:url(#SVGID_11_);}
	.st33{fill:#6B6B6B;}
	.st34{fill:url(#SVGID_12_);}
	.st35{fill:url(#SVGID_13_);}
</style>
<g id="shop" class="st0">
	<g id="Layer_2_1_" class="st1">
		<title>Artboard 1</title>
		<g>
			<g>
				<path class="st2" d="M82.7,29.1c0,0.8-0.6,1.4-1.4,1.4H1.9c-0.8,0-1.4-0.6-1.4-1.4V1.9c0-0.8,0.6-1.4,1.4-1.4h79.3
					c0.8,0,1.4,0.6,1.4,1.4L82.7,29.1L82.7,29.1z"/>
				<path class="st3" d="M82.7,29.1c0,0.8-0.6,1.4-1.4,1.4H1.9c-0.8,0-1.4-0.6-1.4-1.4V1.9c0-0.8,0.6-1.4,1.4-1.4h79.3
					c0.8,0,1.4,0.6,1.4,1.4L82.7,29.1L82.7,29.1z"/>
			</g>
			<g>
				<g>
					<path d="M28.5,26.9c0,0.8-0.6,1.4-1.4,1.4H4.4c-0.8,0-1.4-0.6-1.4-1.4V4.2c0-0.8,0.6-1.4,1.4-1.4h22.7c0.8,0,1.4,0.6,1.4,1.4
						V26.9z"/>
				</g>
				<g>
					<g>
						<path class="st4" d="M15.7,26.8c-3,0-5.6-1-8-2.8c-0.8-0.6-1.6-1.4-2.3-2.2l-0.1-0.1c0-0.1,0-0.2,0-0.3c0.1,0,0.2,0,0.3,0
							c0.6,0.4,1.2,0.8,1.9,1.2c1.9,1.1,3.9,1.7,6,2.1c1.1,0.2,2.2,0.2,3.4,0.2c2.1-0.1,4.2-0.7,6.1-1.6c0.3-0.1,0.6-0.3,0.9-0.5
							c0.1-0.1,0.3-0.1,0.4,0s0.1,0.3,0,0.5c-0.1,0.1-0.1,0.2-0.2,0.2c-1.7,1.5-3.8,2.5-6,2.9C17.3,26.7,16.5,26.8,15.7,26.8
							L15.7,26.8 M24.1,22c-0.4,0-0.9,0.1-1.4,0.1c-0.1,0-0.2,0-0.3,0c-0.1,0-0.1-0.1-0.1-0.2l0.2-0.1c0.5-0.3,1.1-0.5,1.7-0.6
							s1.1-0.1,1.7,0.1c0.4,0.1,0.5,0.1,0.4,0.6c-0.1,1.1-0.4,2.2-1.3,3L24.8,25h-0.2v-0.2c0.2-0.6,0.4-1.2,0.6-1.8
							c0-0.1,0.1-0.2,0.1-0.4c0-0.4-0.1-0.6-0.5-0.7C24.5,22,24.3,22,24.1,22 M17.6,13.1c-0.8,0-1.6,0-2.3,0.3
							c-0.4,0.1-0.7,0.3-1.1,0.5c-0.9,0.6-1.1,1.5-1,2.5c0,0.5,0.2,1,0.6,1.4c0.6,0.5,1.5,0.6,2.2,0.2c0.7-0.4,1-1,1.3-1.7
							C17.7,15.2,17.5,14.2,17.6,13.1 M18.2,19.1c-0.3,0.3-0.6,0.5-0.8,0.8c-1.1,0.9-2.3,1.4-3.7,1.4c-0.8,0-1.5,0-2.2-0.3
							c-1.3-0.5-2.1-1.4-2.4-2.7c-0.4-1.6-0.3-3.2,0.7-4.6c0.7-1.1,1.7-1.7,2.9-2.1c1-0.3,2.1-0.5,3.1-0.6c0.6-0.1,1.2-0.1,1.8-0.2
							c0-0.7,0.1-1.5-0.2-2.2c-0.2-0.6-0.7-0.9-1.3-1.1c-1-0.2-2,0.1-2.5,0.9c-0.2,0.3-0.3,0.6-0.4,0.9c-0.1,0.4-0.3,0.6-0.8,0.5
							c-0.9-0.2-1.7-0.3-2.6-0.4c-0.4,0-0.6-0.3-0.5-0.7c0.4-1.9,1.5-3.2,3.2-3.9C14.6,4,16.7,4,18.8,4.7c1.7,0.6,2.7,1.9,2.8,3.8
							c0,0.6,0,1.3,0.1,1.9c0,1.6,0,3.3,0,4.9c0,0.9,0.2,1.7,0.8,2.4c0.1,0.2,0.3,0.3,0.4,0.5c0.2,0.3,0.1,0.5-0.1,0.8
							c-0.7,0.6-1.4,1.2-2.1,1.8c-0.4,0.3-0.6,0.3-1,0c-0.5-0.4-0.9-0.9-1.3-1.5C18.3,19.3,18.2,19.2,18.2,19.1"/>
					</g>
				</g>
				<text transform="matrix(1 0 0 1 30.3977 18.2264)" class="st5 st6">shopping</text>
			</g>
		</g>
	</g>
	<g id="Layer_4">
		<g class="st1">
			<g>
				
					<linearGradient id="SVGID_1_" gradientUnits="userSpaceOnUse" x1="41.6" y1="39.4927" x2="41.6" y2="2.4927" gradientTransform="matrix(1 0 0 -1 0 31.4806)">
					<stop  offset="0" style="stop-color:#FFFFFF"/>
					<stop  offset="1" style="stop-color:#E21E26"/>
				</linearGradient>
				<path class="st7" d="M82.7,29.1c0,0.8-0.6,1.4-1.4,1.4H1.9c-0.8,0-1.4-0.6-1.4-1.4V1.9c0-0.8,0.6-1.4,1.4-1.4h79.3
					c0.8,0,1.4,0.6,1.4,1.4L82.7,29.1L82.7,29.1z"/>
				<path class="st8" d="M82.7,29.1c0,0.8-0.6,1.4-1.4,1.4H1.9c-0.8,0-1.4-0.6-1.4-1.4V1.9c0-0.8,0.6-1.4,1.4-1.4h79.3
					c0.8,0,1.4,0.6,1.4,1.4L82.7,29.1L82.7,29.1z"/>
			</g>
			<g>
				<text transform="matrix(1 0 0 1 30.3977 18.2264)" class="st9 st5 st6">more ...</text>
			</g>
			<g>
				<g>
					<path d="M28.5,26.9c0,0.8-0.6,1.4-1.4,1.4H4.4c-0.8,0-1.4-0.6-1.4-1.4V4.2c0-0.8,0.6-1.4,1.4-1.4h22.7c0.8,0,1.4,0.6,1.4,1.4
						V26.9z"/>
				</g>
				<text transform="matrix(1 0 0 1 6.5219 26.8595)" class="st10 st11 st12">B</text>
			</g>
		</g>
	</g>
</g>
<g id="more" class="st0">
	<title>Artboard 1</title>
	<g class="st1">
		<linearGradient id="SVGID_2_" gradientUnits="userSpaceOnUse" x1="41.6" y1="-3.0195" x2="41.6" y2="30.4814">
			<stop  offset="0" style="stop-color:#FFFFFF"/>
			<stop  offset="1" style="stop-color:#E21E26"/>
			<stop  offset="1" style="stop-color:#000000"/>
		</linearGradient>
		<path class="st13" d="M82.7,29.1c0,0.8-0.6,1.4-1.4,1.4H1.9c-0.8,0-1.4-0.6-1.4-1.4V1.9c0-0.8,0.6-1.4,1.4-1.4h79.3
			c0.8,0,1.4,0.6,1.4,1.4L82.7,29.1L82.7,29.1z"/>
		<path class="st14" d="M81.3,31H1.9C0.8,31,0,30.2,0,29.1V1.9C0,0.8,0.8,0,1.9,0h79.3c1.1,0,1.9,0.8,1.9,1.9v26.7h0.1v0.5
			C83.2,30.2,82.4,31,81.3,31z M1.9,1C1.4,1,1,1.4,1,1.9v27.2C1,29.6,1.4,30,1.9,30h79.4c0.4,0,0.7-0.2,0.8-0.5V1.9
			c0-0.5-0.4-0.9-0.9-0.9H1.9z"/>
	</g>
	<text transform="matrix(1 0 0 1 30.3977 18.2264)" class="st15 st5 st6">more ...</text>
	<g id="Layer_4_1_">
		<g class="st1">
			<g>
				
					<linearGradient id="SVGID_3_" gradientUnits="userSpaceOnUse" x1="41.6" y1="39.4927" x2="41.6" y2="2.4927" gradientTransform="matrix(1 0 0 -1 0 31.4806)">
					<stop  offset="0" style="stop-color:#FFFFFF"/>
					<stop  offset="1" style="stop-color:#E21E26"/>
				</linearGradient>
				<path class="st16" d="M82.7,29.1c0,0.8-0.6,1.4-1.4,1.4H1.9c-0.8,0-1.4-0.6-1.4-1.4V1.9c0-0.8,0.6-1.4,1.4-1.4h79.3
					c0.8,0,1.4,0.6,1.4,1.4L82.7,29.1L82.7,29.1z"/>
				<path class="st8" d="M82.7,29.1c0,0.8-0.6,1.4-1.4,1.4H1.9c-0.8,0-1.4-0.6-1.4-1.4V1.9c0-0.8,0.6-1.4,1.4-1.4h79.3
					c0.8,0,1.4,0.6,1.4,1.4L82.7,29.1L82.7,29.1z"/>
			</g>
			<g>
				<text transform="matrix(1 0 0 1 30.3977 18.2264)" class="st9 st5 st6">more ...</text>
			</g>
			<g>
				<g>
					<path d="M28.5,26.9c0,0.8-0.6,1.4-1.4,1.4H4.4c-0.8,0-1.4-0.6-1.4-1.4V4.2c0-0.8,0.6-1.4,1.4-1.4h22.7c0.8,0,1.4,0.6,1.4,1.4
						V26.9z"/>
				</g>
				<text transform="matrix(1 0 0 1 6.5219 26.8595)" class="st10 st11 st12">B</text>
			</g>
		</g>
	</g>
	<g class="st1">
		<g>
			<path d="M28.5,26.9c0,0.8-0.6,1.4-1.4,1.4H4.4c-0.8,0-1.4-0.6-1.4-1.4V4.2c0-0.8,0.6-1.4,1.4-1.4h22.7c0.8,0,1.4,0.6,1.4,1.4
				V26.9z"/>
		</g>
		<text transform="matrix(1 0 0 1 8.6249 24.5267)" class="st17 st18 st19">B</text>
	</g>
</g>
<g id="_x3D__x3D__x3D__x3D__x3D__x3D__x3D__x3D__x3D__x3D__x3D__x3D__x3D__x3D__1_">
</g>
<g id="shop_unselected" class="st0">
	<g id="Layer_2_3_" class="st1">
		<title>Artboard 1</title>
		<g>
			<g>
				<path class="st2" d="M82.7,29.1c0,0.8-0.6,1.4-1.4,1.4H1.9c-0.8,0-1.4-0.6-1.4-1.4V1.9c0-0.8,0.6-1.4,1.4-1.4h79.3
					c0.8,0,1.4,0.6,1.4,1.4L82.7,29.1L82.7,29.1z"/>
				<path class="st3" d="M82.7,29.1c0,0.8-0.6,1.4-1.4,1.4H1.9c-0.8,0-1.4-0.6-1.4-1.4V1.9c0-0.8,0.6-1.4,1.4-1.4h79.3
					c0.8,0,1.4,0.6,1.4,1.4L82.7,29.1L82.7,29.1z"/>
			</g>
			<g>
				<g>
					<path class="st20" d="M28.5,26.9c0,0.8-0.6,1.4-1.4,1.4H4.4c-0.8,0-1.4-0.6-1.4-1.4V4.2c0-0.8,0.6-1.4,1.4-1.4h22.7
						c0.8,0,1.4,0.6,1.4,1.4V26.9z"/>
				</g>
				<g>
					<g>
						<path class="st4" d="M15.7,26.8c-3,0-5.6-1-8-2.8c-0.8-0.6-1.6-1.4-2.3-2.2l-0.1-0.1c0-0.1,0-0.2,0-0.3c0.1,0,0.2,0,0.3,0
							c0.6,0.4,1.2,0.8,1.9,1.2c1.9,1.1,3.9,1.7,6,2.1c1.1,0.2,2.2,0.2,3.4,0.2c2.1-0.1,4.2-0.7,6.1-1.6c0.3-0.1,0.6-0.3,0.9-0.5
							c0.1-0.1,0.3-0.1,0.4,0s0.1,0.3,0,0.5c-0.1,0.1-0.1,0.2-0.2,0.2c-1.7,1.5-3.8,2.5-6,2.9C17.3,26.7,16.5,26.8,15.7,26.8
							L15.7,26.8 M24.1,22c-0.4,0-0.9,0.1-1.4,0.1c-0.1,0-0.2,0-0.3,0c-0.1,0-0.1-0.1-0.1-0.2l0.2-0.1c0.5-0.3,1.1-0.5,1.7-0.6
							s1.1-0.1,1.7,0.1c0.4,0.1,0.5,0.1,0.4,0.6c-0.1,1.1-0.4,2.2-1.3,3L24.8,25h-0.2v-0.2c0.2-0.6,0.4-1.2,0.6-1.8
							c0-0.1,0.1-0.2,0.1-0.4c0-0.4-0.1-0.6-0.5-0.7C24.5,22,24.3,22,24.1,22 M17.6,13.1c-0.8,0-1.6,0-2.3,0.3
							c-0.4,0.1-0.7,0.3-1.1,0.5c-0.9,0.6-1.1,1.5-1,2.5c0,0.5,0.2,1,0.6,1.4c0.6,0.5,1.5,0.6,2.2,0.2c0.7-0.4,1-1,1.3-1.7
							C17.7,15.2,17.5,14.2,17.6,13.1 M18.2,19.1c-0.3,0.3-0.6,0.5-0.8,0.8c-1.1,0.9-2.3,1.4-3.7,1.4c-0.8,0-1.5,0-2.2-0.3
							c-1.3-0.5-2.1-1.4-2.4-2.7c-0.4-1.6-0.3-3.2,0.7-4.6c0.7-1.1,1.7-1.7,2.9-2.1c1-0.3,2.1-0.5,3.1-0.6c0.6-0.1,1.2-0.1,1.8-0.2
							c0-0.7,0.1-1.5-0.2-2.2c-0.2-0.6-0.7-0.9-1.3-1.1c-1-0.2-2,0.1-2.5,0.9c-0.2,0.3-0.3,0.6-0.4,0.9c-0.1,0.4-0.3,0.6-0.8,0.5
							c-0.9-0.2-1.7-0.3-2.6-0.4c-0.4,0-0.6-0.3-0.5-0.7c0.4-1.9,1.5-3.2,3.2-3.9C14.6,4,16.7,4,18.8,4.7c1.7,0.6,2.7,1.9,2.8,3.8
							c0,0.6,0,1.3,0.1,1.9c0,1.6,0,3.3,0,4.9c0,0.9,0.2,1.7,0.8,2.4c0.1,0.2,0.3,0.3,0.4,0.5c0.2,0.3,0.1,0.5-0.1,0.8
							c-0.7,0.6-1.4,1.2-2.1,1.8c-0.4,0.3-0.6,0.3-1,0c-0.5-0.4-0.9-0.9-1.3-1.5C18.3,19.3,18.2,19.2,18.2,19.1"/>
					</g>
				</g>
				<g class="st21">
					<path class="st20" d="M34.4,16.8c0,0.4-0.2,0.8-0.6,1.2s-0.8,0.6-1.3,0.7C32,18.9,31.6,19,31.2,19c0,0-0.1,0-0.2-0.1
						c-0.2-0.3-0.3-0.6-0.3-0.9v-0.1c0.6,0,1.1-0.1,1.4-0.3s0.5-0.4,0.5-0.7c0-0.2-0.1-0.3-0.3-0.5c-0.2-0.2-0.4-0.3-0.7-0.4
						s-0.5-0.3-0.7-0.5s-0.3-0.4-0.3-0.7c0-0.5,0.3-0.9,0.9-1.3c0.6-0.4,1.3-0.6,1.9-0.6c0.1,0,0.2,0.1,0.3,0.3
						c0.1,0.2,0.2,0.4,0.2,0.7c-0.2,0-0.4,0-0.7,0.1c-0.6,0.2-0.9,0.4-0.9,0.7c0,0.2,0.3,0.5,0.9,0.9c0.2,0.1,0.5,0.3,0.7,0.6
						S34.4,16.6,34.4,16.8z"/>
					<path class="st20" d="M36.2,15.9l0-4.2c0-0.8,0-1.2,0.1-1.2c0.1-0.1,0.3-0.2,0.5-0.3c0.2-0.1,0.4-0.1,0.6-0.1s0.3,0,0.3,0
						c0,0.1,0,0.6,0,1.6c0,1,0,1.6,0,1.9v0.1c0,0,0,0.1,0,0.1l0.2-0.2c0.1-0.1,0.3-0.2,0.5-0.3c0.3-0.1,0.5-0.2,0.8-0.2
						s0.4,0,0.6,0.1s0.3,0.2,0.4,0.3c0.1,0.1,0.2,0.3,0.3,0.5s0.1,0.4,0.2,0.6s0.1,0.4,0.1,0.7c0,0.4,0,1,0,1.6l0,1.6
						c0,0.1-0.2,0.1-0.4,0.2c-0.2,0-0.5,0.1-0.6,0.1l-0.4-0.1c0.1-0.7,0.1-1.4,0.1-2.1s0-1.2-0.1-1.5s-0.3-0.5-0.6-0.5
						c-0.2,0-0.4,0.1-0.5,0.2c-0.2,0.2-0.3,0.3-0.3,0.5l-0.1,0.2c0,0.6,0,1.1,0,1.8s0,1-0.1,1c-0.2,0.2-0.7,0.3-1.3,0.3
						c-0.1,0-0.1,0-0.1,0C36.2,18.2,36.2,17.3,36.2,15.9z"/>
					<path class="st20" d="M46.9,17.7c-0.5,0.6-1.1,0.8-1.9,0.8s-1.4-0.2-1.9-0.7c-0.4-0.5-0.7-1.1-0.7-1.9c0-0.8,0.3-1.5,0.8-2.1
						c0.6-0.6,1.3-0.9,2.3-0.9c0.4,0,0.6,0,0.6,0.1c0,0,0,0.1,0,0.2s0,0.3,0,0.4c0.1,0,0.3,0.1,0.5,0.2c0.2,0.1,0.3,0.3,0.5,0.4
						c0.1,0.1,0.2,0.3,0.3,0.6c0.1,0.3,0.1,0.6,0.1,0.9C47.6,16.5,47.4,17.1,46.9,17.7z M45.8,14.9c-0.2-0.1-0.4-0.2-0.5-0.2h-0.1
						c0,0,0-0.1,0-0.2c0-0.1,0-0.2,0-0.3c-0.3,0-0.6,0.1-0.9,0.4c-0.3,0.3-0.4,0.7-0.4,1.2c0,0.6,0.2,1.1,0.6,1.3
						c0.2,0.1,0.4,0.1,0.6,0.1c0.3,0,0.5-0.1,0.8-0.4c0.2-0.2,0.4-0.6,0.4-1.1S46.1,15,45.8,14.9z"/>
					<path class="st20" d="M50.9,12.4l0,0.6c2.1,0,3.2,0.8,3.2,2.5c0,0.4-0.1,0.9-0.3,1.2c-0.2,0.4-0.4,0.7-0.7,0.9
						s-0.6,0.4-0.9,0.5c-0.5,0.2-1,0.4-1.4,0.4v0.2c0,1.2,0,2,0.1,2.4c-0.1,0.1-0.3,0.2-0.5,0.2c-0.3,0.1-0.5,0.1-0.6,0.1
						s-0.2,0-0.2,0c0-0.3,0-0.8,0-1.6l0.1-5.6c0-0.7,0-1.1,0-1.4c0.1-0.1,0.3-0.2,0.5-0.3c0.2-0.1,0.4-0.1,0.6-0.1
						S50.9,12.4,50.9,12.4z M50.8,16.5l0,0.6c0.5,0,0.9-0.1,1.3-0.4s0.6-0.7,0.6-1.2c0-0.9-0.6-1.3-1.8-1.3l0,0.2c0,0.1,0,0.2,0,0.4
						L50.8,16.5z"/>
					<path class="st20" d="M57.4,12.4l0,0.6c2.1,0,3.2,0.8,3.2,2.5c0,0.4-0.1,0.9-0.3,1.2c-0.2,0.4-0.4,0.7-0.7,0.9
						c-0.3,0.2-0.6,0.4-0.9,0.5c-0.5,0.2-1,0.4-1.4,0.4v0.2c0,1.2,0,2,0.1,2.4c-0.1,0.1-0.3,0.2-0.5,0.2c-0.3,0.1-0.5,0.1-0.6,0.1
						c-0.2,0-0.2,0-0.2,0c0-0.3,0-0.8,0-1.6l0.1-5.6c0-0.7,0-1.1,0-1.4c0.1-0.1,0.3-0.2,0.5-0.3c0.2-0.1,0.4-0.1,0.6-0.1
						S57.4,12.4,57.4,12.4z M57.3,16.5l0,0.6c0.5,0,0.9-0.1,1.3-0.4s0.6-0.7,0.6-1.2c0-0.9-0.6-1.3-1.8-1.3l0,0.2c0,0.1,0,0.2,0,0.4
						L57.3,16.5z"/>
					<path class="st20" d="M63.4,11.1c0.2,0,0.4,0.1,0.5,0.2c0.1,0.1,0.2,0.3,0.2,0.6c0,0.2-0.1,0.4-0.3,0.6s-0.4,0.2-0.6,0.2
						c-0.2,0-0.4-0.1-0.5-0.2s-0.2-0.3-0.2-0.6c0-0.2,0.1-0.4,0.3-0.6C63,11.1,63.2,11.1,63.4,11.1z M64,14.1l0,1.9
						c0,0.6,0,1.1,0.1,1.4c0,0.3,0.1,0.6,0.3,0.8c0,0.1-0.2,0.2-0.5,0.4c-0.3,0.2-0.6,0.3-0.8,0.3c-0.1,0-0.1-0.1-0.2-0.4
						s-0.1-0.5-0.1-0.7c0-0.2,0-0.9,0-2.2c0-1.2,0-1.9,0.1-2c0.2-0.1,0.5-0.2,1-0.2c0.2,0,0.3,0,0.3,0.1L64,14.1z"/>
					<path class="st20" d="M67.6,15.5l0,0.4v0.9c0,0.9,0,1.3,0,1.3c-0.1,0.1-0.3,0.2-0.5,0.2c-0.3,0.1-0.5,0.1-0.6,0.1s-0.2,0-0.2,0
						c0.1-0.4,0.1-1,0.1-1.8l0-2.7c0-0.5,0-0.8,0.1-0.8c0.1-0.1,0.2-0.2,0.5-0.2c0.2-0.1,0.4-0.1,0.6-0.1c0.2,0,0.3,0,0.3,0.1
						c0,0.2,0,0.4,0,0.6s0,0.3,0,0.3l0,0c0-0.1,0.1-0.1,0.2-0.2s0.3-0.2,0.5-0.3c0.3-0.1,0.5-0.2,0.7-0.2c0.2,0,0.4,0,0.6,0.1
						c0.2,0.1,0.3,0.2,0.4,0.3c0.1,0.1,0.2,0.3,0.3,0.5s0.1,0.4,0.2,0.6s0.1,0.4,0.1,0.8c0,0.4,0,1,0,1.7l0,1.4
						c0,0.1-0.1,0.1-0.4,0.2c-0.3,0.1-0.5,0.1-0.6,0.1l-0.4-0.1c0.1-0.7,0.1-1.4,0.1-2.1c0-0.7,0-1.2-0.1-1.5
						c-0.1-0.3-0.3-0.5-0.5-0.5s-0.5,0.1-0.6,0.2c-0.2,0.1-0.3,0.3-0.3,0.4l-0.1,0.2V15.5z"/>
					<path class="st20" d="M77.1,15.3l0,2.8c0,0.6-0.1,1.2-0.3,1.7c-0.2,0.5-0.4,0.9-0.6,1.1c-0.2,0.3-0.5,0.5-0.8,0.7
						c-0.5,0.3-1,0.4-1.5,0.4c0,0-0.1-0.1-0.1-0.2s-0.1-0.3-0.2-0.5s-0.1-0.4-0.1-0.6h0.2c0.2,0,0.3,0,0.5,0c0.1,0,0.3-0.1,0.5-0.2
						c0.2-0.1,0.4-0.3,0.6-0.5c0.2-0.2,0.3-0.5,0.4-0.9s0.2-0.9,0.2-1.4c0,0,0,0,0,0l0,0c-0.3,0.5-0.9,0.8-1.6,0.8
						c-0.5,0-1-0.2-1.3-0.6c-0.3-0.4-0.5-0.9-0.5-1.4c0-1,0.3-1.8,0.9-2.4S74.9,13,76,13c0.3,0,0.4,0,0.4,0.1c0,0.1,0,0.3,0,0.4
						l0,0.2h0.1c0.3,0,0.4,0,0.5,0.1V15.3z M75.8,14.2l-0.3,0c-0.5,0-0.9,0.2-1.2,0.5c-0.3,0.3-0.4,0.7-0.4,1.2
						c0,0.2,0.1,0.5,0.2,0.6c0.1,0.2,0.4,0.3,0.6,0.3c0.3,0,0.5-0.1,0.7-0.3c0.2-0.2,0.3-0.4,0.3-0.5C75.8,15.1,75.8,14.5,75.8,14.2
						z"/>
				</g>
			</g>
		</g>
	</g>
</g>
<g id="_x32__over">
	<g id="Layer_2_2_">
		<title>Artboard 1</title>
		<g>
			<g>
				<path class="st2" d="M82.7,29.1c0,0.8-0.6,1.4-1.4,1.4H1.9c-0.8,0-1.4-0.6-1.4-1.4V1.9c0-0.8,0.6-1.4,1.4-1.4h79.3
					c0.8,0,1.4,0.6,1.4,1.4L82.7,29.1L82.7,29.1z"/>
				<path class="st3" d="M82.7,29.1c0,0.8-0.6,1.4-1.4,1.4H1.9c-0.8,0-1.4-0.6-1.4-1.4V1.9c0-0.8,0.6-1.4,1.4-1.4h79.3
					c0.8,0,1.4,0.6,1.4,1.4L82.7,29.1L82.7,29.1z"/>
			</g>
			<g>
				<g>
					<path class="st22" d="M28.5,26.9c0,0.8-0.6,1.4-1.4,1.4H4.4c-0.8,0-1.4-0.6-1.4-1.4V4.2c0-0.8,0.6-1.4,1.4-1.4h22.7
						c0.8,0,1.4,0.6,1.4,1.4V26.9z"/>
				</g>
				<g>
					<g>
						<path class="st4" d="M15.7,26.8c-3,0-5.6-1-8-2.8c-0.8-0.6-1.6-1.4-2.3-2.2l-0.1-0.1c0-0.1,0-0.2,0-0.3c0.1,0,0.2,0,0.3,0
							c0.6,0.4,1.2,0.8,1.9,1.2c1.9,1.1,3.9,1.7,6,2.1c1.1,0.2,2.2,0.2,3.4,0.2c2.1-0.1,4.2-0.7,6.1-1.6c0.3-0.1,0.6-0.3,0.9-0.5
							c0.1-0.1,0.3-0.1,0.4,0s0.1,0.3,0,0.5c-0.1,0.1-0.1,0.2-0.2,0.2c-1.7,1.5-3.8,2.5-6,2.9C17.3,26.7,16.5,26.8,15.7,26.8
							L15.7,26.8 M24.1,22c-0.4,0-0.9,0.1-1.4,0.1c-0.1,0-0.2,0-0.3,0c-0.1,0-0.1-0.1-0.1-0.2l0.2-0.1c0.5-0.3,1.1-0.5,1.7-0.6
							s1.1-0.1,1.7,0.1c0.4,0.1,0.5,0.1,0.4,0.6c-0.1,1.1-0.4,2.2-1.3,3L24.8,25h-0.2v-0.2c0.2-0.6,0.4-1.2,0.6-1.8
							c0-0.1,0.1-0.2,0.1-0.4c0-0.4-0.1-0.6-0.5-0.7C24.5,22,24.3,22,24.1,22 M17.6,13.1c-0.8,0-1.6,0-2.3,0.3
							c-0.4,0.1-0.7,0.3-1.1,0.5c-0.9,0.6-1.1,1.5-1,2.5c0,0.5,0.2,1,0.6,1.4c0.6,0.5,1.5,0.6,2.2,0.2c0.7-0.4,1-1,1.3-1.7
							C17.7,15.2,17.5,14.2,17.6,13.1 M18.2,19.1c-0.3,0.3-0.6,0.5-0.8,0.8c-1.1,0.9-2.3,1.4-3.7,1.4c-0.8,0-1.5,0-2.2-0.3
							c-1.3-0.5-2.1-1.4-2.4-2.7c-0.4-1.6-0.3-3.2,0.7-4.6c0.7-1.1,1.7-1.7,2.9-2.1c1-0.3,2.1-0.5,3.1-0.6c0.6-0.1,1.2-0.1,1.8-0.2
							c0-0.7,0.1-1.5-0.2-2.2c-0.2-0.6-0.7-0.9-1.3-1.1c-1-0.2-2,0.1-2.5,0.9c-0.2,0.3-0.3,0.6-0.4,0.9c-0.1,0.4-0.3,0.6-0.8,0.5
							c-0.9-0.2-1.7-0.3-2.6-0.4c-0.4,0-0.6-0.3-0.5-0.7c0.4-1.9,1.5-3.2,3.2-3.9C14.6,4,16.7,4,18.8,4.7c1.7,0.6,2.7,1.9,2.8,3.8
							c0,0.6,0,1.3,0.1,1.9c0,1.6,0,3.3,0,4.9c0,0.9,0.2,1.7,0.8,2.4c0.1,0.2,0.3,0.3,0.4,0.5c0.2,0.3,0.1,0.5-0.1,0.8
							c-0.7,0.6-1.4,1.2-2.1,1.8c-0.4,0.3-0.6,0.3-1,0c-0.5-0.4-0.9-0.9-1.3-1.5C18.3,19.3,18.2,19.2,18.2,19.1"/>
					</g>
				</g>
				<g class="st21">
					<path class="st20" d="M34.4,16.8c0,0.4-0.2,0.8-0.6,1.2s-0.8,0.6-1.3,0.7C32,18.9,31.6,19,31.2,19c0,0-0.1,0-0.2-0.1
						c-0.2-0.3-0.3-0.6-0.3-0.9v-0.1c0.6,0,1.1-0.1,1.4-0.3s0.5-0.4,0.5-0.7c0-0.2-0.1-0.3-0.3-0.5c-0.2-0.2-0.4-0.3-0.7-0.4
						s-0.5-0.3-0.7-0.5s-0.3-0.4-0.3-0.7c0-0.5,0.3-0.9,0.9-1.3c0.6-0.4,1.3-0.6,1.9-0.6c0.1,0,0.2,0.1,0.3,0.3
						c0.1,0.2,0.2,0.4,0.2,0.7c-0.2,0-0.4,0-0.7,0.1c-0.6,0.2-0.9,0.4-0.9,0.7c0,0.2,0.3,0.5,0.9,0.9c0.2,0.1,0.5,0.3,0.7,0.6
						S34.4,16.6,34.4,16.8z"/>
					<path class="st20" d="M36.2,15.9l0-4.2c0-0.8,0-1.2,0.1-1.2c0.1-0.1,0.3-0.2,0.5-0.3c0.2-0.1,0.4-0.1,0.6-0.1s0.3,0,0.3,0
						c0,0.1,0,0.6,0,1.6c0,1,0,1.6,0,1.9v0.1c0,0,0,0.1,0,0.1l0.2-0.2c0.1-0.1,0.3-0.2,0.5-0.3c0.3-0.1,0.5-0.2,0.8-0.2
						s0.4,0,0.6,0.1s0.3,0.2,0.4,0.3c0.1,0.1,0.2,0.3,0.3,0.5s0.1,0.4,0.2,0.6s0.1,0.4,0.1,0.7c0,0.4,0,1,0,1.6l0,1.6
						c0,0.1-0.2,0.1-0.4,0.2c-0.2,0-0.5,0.1-0.6,0.1l-0.4-0.1c0.1-0.7,0.1-1.4,0.1-2.1s0-1.2-0.1-1.5s-0.3-0.5-0.6-0.5
						c-0.2,0-0.4,0.1-0.5,0.2c-0.2,0.2-0.3,0.3-0.3,0.5l-0.1,0.2c0,0.6,0,1.1,0,1.8s0,1-0.1,1c-0.2,0.2-0.7,0.3-1.3,0.3
						c-0.1,0-0.1,0-0.1,0C36.2,18.2,36.2,17.3,36.2,15.9z"/>
					<path class="st20" d="M46.9,17.7c-0.5,0.6-1.1,0.8-1.9,0.8s-1.4-0.2-1.9-0.7c-0.4-0.5-0.7-1.1-0.7-1.9c0-0.8,0.3-1.5,0.8-2.1
						c0.6-0.6,1.3-0.9,2.3-0.9c0.4,0,0.6,0,0.6,0.1c0,0,0,0.1,0,0.2s0,0.3,0,0.4c0.1,0,0.3,0.1,0.5,0.2c0.2,0.1,0.3,0.3,0.5,0.4
						c0.1,0.1,0.2,0.3,0.3,0.6c0.1,0.3,0.1,0.6,0.1,0.9C47.6,16.5,47.4,17.1,46.9,17.7z M45.8,14.9c-0.2-0.1-0.4-0.2-0.5-0.2h-0.1
						c0,0,0-0.1,0-0.2c0-0.1,0-0.2,0-0.3c-0.3,0-0.6,0.1-0.9,0.4c-0.3,0.3-0.4,0.7-0.4,1.2c0,0.6,0.2,1.1,0.6,1.3
						c0.2,0.1,0.4,0.1,0.6,0.1c0.3,0,0.5-0.1,0.8-0.4c0.2-0.2,0.4-0.6,0.4-1.1S46.1,15,45.8,14.9z"/>
					<path class="st20" d="M50.9,12.4l0,0.6c2.1,0,3.2,0.8,3.2,2.5c0,0.4-0.1,0.9-0.3,1.2c-0.2,0.4-0.4,0.7-0.7,0.9
						s-0.6,0.4-0.9,0.5c-0.5,0.2-1,0.4-1.4,0.4v0.2c0,1.2,0,2,0.1,2.4c-0.1,0.1-0.3,0.2-0.5,0.2c-0.3,0.1-0.5,0.1-0.6,0.1
						s-0.2,0-0.2,0c0-0.3,0-0.8,0-1.6l0.1-5.6c0-0.7,0-1.1,0-1.4c0.1-0.1,0.3-0.2,0.5-0.3c0.2-0.1,0.4-0.1,0.6-0.1
						S50.9,12.4,50.9,12.4z M50.8,16.5l0,0.6c0.5,0,0.9-0.1,1.3-0.4s0.6-0.7,0.6-1.2c0-0.9-0.6-1.3-1.8-1.3l0,0.2c0,0.1,0,0.2,0,0.4
						L50.8,16.5z"/>
					<path class="st20" d="M57.4,12.4l0,0.6c2.1,0,3.2,0.8,3.2,2.5c0,0.4-0.1,0.9-0.3,1.2c-0.2,0.4-0.4,0.7-0.7,0.9
						c-0.3,0.2-0.6,0.4-0.9,0.5c-0.5,0.2-1,0.4-1.4,0.4v0.2c0,1.2,0,2,0.1,2.4c-0.1,0.1-0.3,0.2-0.5,0.2c-0.3,0.1-0.5,0.1-0.6,0.1
						c-0.2,0-0.2,0-0.2,0c0-0.3,0-0.8,0-1.6l0.1-5.6c0-0.7,0-1.1,0-1.4c0.1-0.1,0.3-0.2,0.5-0.3c0.2-0.1,0.4-0.1,0.6-0.1
						S57.4,12.4,57.4,12.4z M57.3,16.5l0,0.6c0.5,0,0.9-0.1,1.3-0.4s0.6-0.7,0.6-1.2c0-0.9-0.6-1.3-1.8-1.3l0,0.2c0,0.1,0,0.2,0,0.4
						L57.3,16.5z"/>
					<path class="st20" d="M63.4,11.1c0.2,0,0.4,0.1,0.5,0.2c0.1,0.1,0.2,0.3,0.2,0.6c0,0.2-0.1,0.4-0.3,0.6s-0.4,0.2-0.6,0.2
						c-0.2,0-0.4-0.1-0.5-0.2s-0.2-0.3-0.2-0.6c0-0.2,0.1-0.4,0.3-0.6C63,11.1,63.2,11.1,63.4,11.1z M64,14.1l0,1.9
						c0,0.6,0,1.1,0.1,1.4c0,0.3,0.1,0.6,0.3,0.8c0,0.1-0.2,0.2-0.5,0.4c-0.3,0.2-0.6,0.3-0.8,0.3c-0.1,0-0.1-0.1-0.2-0.4
						s-0.1-0.5-0.1-0.7c0-0.2,0-0.9,0-2.2c0-1.2,0-1.9,0.1-2c0.2-0.1,0.5-0.2,1-0.2c0.2,0,0.3,0,0.3,0.1L64,14.1z"/>
					<path class="st20" d="M67.6,15.5l0,0.4v0.9c0,0.9,0,1.3,0,1.3c-0.1,0.1-0.3,0.2-0.5,0.2c-0.3,0.1-0.5,0.1-0.6,0.1s-0.2,0-0.2,0
						c0.1-0.4,0.1-1,0.1-1.8l0-2.7c0-0.5,0-0.8,0.1-0.8c0.1-0.1,0.2-0.2,0.5-0.2c0.2-0.1,0.4-0.1,0.6-0.1c0.2,0,0.3,0,0.3,0.1
						c0,0.2,0,0.4,0,0.6s0,0.3,0,0.3l0,0c0-0.1,0.1-0.1,0.2-0.2s0.3-0.2,0.5-0.3c0.3-0.1,0.5-0.2,0.7-0.2c0.2,0,0.4,0,0.6,0.1
						c0.2,0.1,0.3,0.2,0.4,0.3c0.1,0.1,0.2,0.3,0.3,0.5s0.1,0.4,0.2,0.6s0.1,0.4,0.1,0.8c0,0.4,0,1,0,1.7l0,1.4
						c0,0.1-0.1,0.1-0.4,0.2c-0.3,0.1-0.5,0.1-0.6,0.1l-0.4-0.1c0.1-0.7,0.1-1.4,0.1-2.1c0-0.7,0-1.2-0.1-1.5
						c-0.1-0.3-0.3-0.5-0.5-0.5s-0.5,0.1-0.6,0.2c-0.2,0.1-0.3,0.3-0.3,0.4l-0.1,0.2V15.5z"/>
					<path class="st20" d="M77.1,15.3l0,2.8c0,0.6-0.1,1.2-0.3,1.7c-0.2,0.5-0.4,0.9-0.6,1.1c-0.2,0.3-0.5,0.5-0.8,0.7
						c-0.5,0.3-1,0.4-1.5,0.4c0,0-0.1-0.1-0.1-0.2s-0.1-0.3-0.2-0.5s-0.1-0.4-0.1-0.6h0.2c0.2,0,0.3,0,0.5,0c0.1,0,0.3-0.1,0.5-0.2
						c0.2-0.1,0.4-0.3,0.6-0.5c0.2-0.2,0.3-0.5,0.4-0.9s0.2-0.9,0.2-1.4c0,0,0,0,0,0l0,0c-0.3,0.5-0.9,0.8-1.6,0.8
						c-0.5,0-1-0.2-1.3-0.6c-0.3-0.4-0.5-0.9-0.5-1.4c0-1,0.3-1.8,0.9-2.4S74.9,13,76,13c0.3,0,0.4,0,0.4,0.1c0,0.1,0,0.3,0,0.4
						l0,0.2h0.1c0.3,0,0.4,0,0.5,0.1V15.3z M75.8,14.2l-0.3,0c-0.5,0-0.9,0.2-1.2,0.5c-0.3,0.3-0.4,0.7-0.4,1.2
						c0,0.2,0.1,0.5,0.2,0.6c0.1,0.2,0.4,0.3,0.6,0.3c0.3,0,0.5-0.1,0.7-0.3c0.2-0.2,0.3-0.4,0.3-0.5C75.8,15.1,75.8,14.5,75.8,14.2
						z"/>
				</g>
			</g>
		</g>
	</g>
	<g id="Layer_4_5_" class="st0">
		<g class="st1">
			<g>
				
					<linearGradient id="SVGID_4_" gradientUnits="userSpaceOnUse" x1="41.6" y1="39.4927" x2="41.6" y2="2.4927" gradientTransform="matrix(1 0 0 -1 0 31.4806)">
					<stop  offset="0" style="stop-color:#FFFFFF"/>
					<stop  offset="1" style="stop-color:#E21E26"/>
				</linearGradient>
				<path class="st23" d="M82.7,29.1c0,0.8-0.6,1.4-1.4,1.4H1.9c-0.8,0-1.4-0.6-1.4-1.4V1.9c0-0.8,0.6-1.4,1.4-1.4h79.3
					c0.8,0,1.4,0.6,1.4,1.4L82.7,29.1L82.7,29.1z"/>
				<path class="st8" d="M82.7,29.1c0,0.8-0.6,1.4-1.4,1.4H1.9c-0.8,0-1.4-0.6-1.4-1.4V1.9c0-0.8,0.6-1.4,1.4-1.4h79.3
					c0.8,0,1.4,0.6,1.4,1.4L82.7,29.1L82.7,29.1z"/>
			</g>
			<g>
				<text transform="matrix(1 0 0 1 30.3977 18.2264)" class="st9 st5 st6">more ...</text>
			</g>
			<g>
				<g>
					<path d="M28.5,26.9c0,0.8-0.6,1.4-1.4,1.4H4.4c-0.8,0-1.4-0.6-1.4-1.4V4.2c0-0.8,0.6-1.4,1.4-1.4h22.7c0.8,0,1.4,0.6,1.4,1.4
						V26.9z"/>
				</g>
				<text transform="matrix(1 0 0 1 6.5219 26.8595)" class="st10 st11 st12">B</text>
			</g>
		</g>
	</g>
</g>
<g id="_x33__down_1_" class="st0">
	<g id="Layer_2_4_" class="st1">
		<title>Artboard 1</title>
		<g>
			<g>
				<path class="st2" d="M82.7,29.1c0,0.8-0.6,1.4-1.4,1.4H1.9c-0.8,0-1.4-0.6-1.4-1.4V1.9c0-0.8,0.6-1.4,1.4-1.4h79.3
					c0.8,0,1.4,0.6,1.4,1.4L82.7,29.1L82.7,29.1z"/>
				<path class="st3" d="M82.7,29.1c0,0.8-0.6,1.4-1.4,1.4H1.9c-0.8,0-1.4-0.6-1.4-1.4V1.9c0-0.8,0.6-1.4,1.4-1.4h79.3
					c0.8,0,1.4,0.6,1.4,1.4L82.7,29.1L82.7,29.1z"/>
			</g>
			<g>
				<g>
					<path class="st20" d="M28.5,26.9c0,0.8-0.6,1.4-1.4,1.4H4.4c-0.8,0-1.4-0.6-1.4-1.4V4.2c0-0.8,0.6-1.4,1.4-1.4h22.7
						c0.8,0,1.4,0.6,1.4,1.4V26.9z"/>
				</g>
				<g>
					<g>
						<path class="st4" d="M15.7,26.8c-3,0-5.6-1-8-2.8c-0.8-0.6-1.6-1.4-2.3-2.2l-0.1-0.1c0-0.1,0-0.2,0-0.3c0.1,0,0.2,0,0.3,0
							c0.6,0.4,1.2,0.8,1.9,1.2c1.9,1.1,3.9,1.7,6,2.1c1.1,0.2,2.2,0.2,3.4,0.2c2.1-0.1,4.2-0.7,6.1-1.6c0.3-0.1,0.6-0.3,0.9-0.5
							c0.1-0.1,0.3-0.1,0.4,0s0.1,0.3,0,0.5c-0.1,0.1-0.1,0.2-0.2,0.2c-1.7,1.5-3.8,2.5-6,2.9C17.3,26.7,16.5,26.8,15.7,26.8
							L15.7,26.8 M24.1,22c-0.4,0-0.9,0.1-1.4,0.1c-0.1,0-0.2,0-0.3,0c-0.1,0-0.1-0.1-0.1-0.2l0.2-0.1c0.5-0.3,1.1-0.5,1.7-0.6
							s1.1-0.1,1.7,0.1c0.4,0.1,0.5,0.1,0.4,0.6c-0.1,1.1-0.4,2.2-1.3,3L24.8,25h-0.2v-0.2c0.2-0.6,0.4-1.2,0.6-1.8
							c0-0.1,0.1-0.2,0.1-0.4c0-0.4-0.1-0.6-0.5-0.7C24.5,22,24.3,22,24.1,22 M17.6,13.1c-0.8,0-1.6,0-2.3,0.3
							c-0.4,0.1-0.7,0.3-1.1,0.5c-0.9,0.6-1.1,1.5-1,2.5c0,0.5,0.2,1,0.6,1.4c0.6,0.5,1.5,0.6,2.2,0.2c0.7-0.4,1-1,1.3-1.7
							C17.7,15.2,17.5,14.2,17.6,13.1 M18.2,19.1c-0.3,0.3-0.6,0.5-0.8,0.8c-1.1,0.9-2.3,1.4-3.7,1.4c-0.8,0-1.5,0-2.2-0.3
							c-1.3-0.5-2.1-1.4-2.4-2.7c-0.4-1.6-0.3-3.2,0.7-4.6c0.7-1.1,1.7-1.7,2.9-2.1c1-0.3,2.1-0.5,3.1-0.6c0.6-0.1,1.2-0.1,1.8-0.2
							c0-0.7,0.1-1.5-0.2-2.2c-0.2-0.6-0.7-0.9-1.3-1.1c-1-0.2-2,0.1-2.5,0.9c-0.2,0.3-0.3,0.6-0.4,0.9c-0.1,0.4-0.3,0.6-0.8,0.5
							c-0.9-0.2-1.7-0.3-2.6-0.4c-0.4,0-0.6-0.3-0.5-0.7c0.4-1.9,1.5-3.2,3.2-3.9C14.6,4,16.7,4,18.8,4.7c1.7,0.6,2.7,1.9,2.8,3.8
							c0,0.6,0,1.3,0.1,1.9c0,1.6,0,3.3,0,4.9c0,0.9,0.2,1.7,0.8,2.4c0.1,0.2,0.3,0.3,0.4,0.5c0.2,0.3,0.1,0.5-0.1,0.8
							c-0.7,0.6-1.4,1.2-2.1,1.8c-0.4,0.3-0.6,0.3-1,0c-0.5-0.4-0.9-0.9-1.3-1.5C18.3,19.3,18.2,19.2,18.2,19.1"/>
					</g>
				</g>
				<g class="st21">
					<path d="M34.4,16.8c0,0.4-0.2,0.8-0.6,1.2s-0.8,0.6-1.3,0.7C32,18.9,31.6,19,31.2,19c0,0-0.1,0-0.2-0.1
						c-0.2-0.3-0.3-0.6-0.3-0.9v-0.1c0.6,0,1.1-0.1,1.4-0.3s0.5-0.4,0.5-0.7c0-0.2-0.1-0.3-0.3-0.5c-0.2-0.2-0.4-0.3-0.7-0.4
						s-0.5-0.3-0.7-0.5s-0.3-0.4-0.3-0.7c0-0.5,0.3-0.9,0.9-1.3c0.6-0.4,1.3-0.6,1.9-0.6c0.1,0,0.2,0.1,0.3,0.3
						c0.1,0.2,0.2,0.4,0.2,0.7c-0.2,0-0.4,0-0.7,0.1c-0.6,0.2-0.9,0.4-0.9,0.7c0,0.2,0.3,0.5,0.9,0.9c0.2,0.1,0.5,0.3,0.7,0.6
						S34.4,16.6,34.4,16.8z"/>
					<path d="M36.2,15.9l0-4.2c0-0.8,0-1.2,0.1-1.2c0.1-0.1,0.3-0.2,0.5-0.3c0.2-0.1,0.4-0.1,0.6-0.1s0.3,0,0.3,0c0,0.1,0,0.6,0,1.6
						c0,1,0,1.6,0,1.9v0.1c0,0,0,0.1,0,0.1l0.2-0.2c0.1-0.1,0.3-0.2,0.5-0.3c0.3-0.1,0.5-0.2,0.8-0.2s0.4,0,0.6,0.1s0.3,0.2,0.4,0.3
						c0.1,0.1,0.2,0.3,0.3,0.5s0.1,0.4,0.2,0.6s0.1,0.4,0.1,0.7c0,0.4,0,1,0,1.6l0,1.6c0,0.1-0.2,0.1-0.4,0.2
						c-0.2,0-0.5,0.1-0.6,0.1l-0.4-0.1c0.1-0.7,0.1-1.4,0.1-2.1s0-1.2-0.1-1.5s-0.3-0.5-0.6-0.5c-0.2,0-0.4,0.1-0.5,0.2
						c-0.2,0.2-0.3,0.3-0.3,0.5l-0.1,0.2c0,0.6,0,1.1,0,1.8s0,1-0.1,1c-0.2,0.2-0.7,0.3-1.3,0.3c-0.1,0-0.1,0-0.1,0
						C36.2,18.2,36.2,17.3,36.2,15.9z"/>
					<path d="M46.9,17.7c-0.5,0.6-1.1,0.8-1.9,0.8s-1.4-0.2-1.9-0.7c-0.4-0.5-0.7-1.1-0.7-1.9c0-0.8,0.3-1.5,0.8-2.1
						c0.6-0.6,1.3-0.9,2.3-0.9c0.4,0,0.6,0,0.6,0.1c0,0,0,0.1,0,0.2s0,0.3,0,0.4c0.1,0,0.3,0.1,0.5,0.2c0.2,0.1,0.3,0.3,0.5,0.4
						c0.1,0.1,0.2,0.3,0.3,0.6c0.1,0.3,0.1,0.6,0.1,0.9C47.6,16.5,47.4,17.1,46.9,17.7z M45.8,14.9c-0.2-0.1-0.4-0.2-0.5-0.2h-0.1
						c0,0,0-0.1,0-0.2c0-0.1,0-0.2,0-0.3c-0.3,0-0.6,0.1-0.9,0.4c-0.3,0.3-0.4,0.7-0.4,1.2c0,0.6,0.2,1.1,0.6,1.3
						c0.2,0.1,0.4,0.1,0.6,0.1c0.3,0,0.5-0.1,0.8-0.4c0.2-0.2,0.4-0.6,0.4-1.1S46.1,15,45.8,14.9z"/>
					<path d="M50.9,12.4l0,0.6c2.1,0,3.2,0.8,3.2,2.5c0,0.4-0.1,0.9-0.3,1.2c-0.2,0.4-0.4,0.7-0.7,0.9s-0.6,0.4-0.9,0.5
						c-0.5,0.2-1,0.4-1.4,0.4v0.2c0,1.2,0,2,0.1,2.4c-0.1,0.1-0.3,0.2-0.5,0.2c-0.3,0.1-0.5,0.1-0.6,0.1s-0.2,0-0.2,0
						c0-0.3,0-0.8,0-1.6l0.1-5.6c0-0.7,0-1.1,0-1.4c0.1-0.1,0.3-0.2,0.5-0.3c0.2-0.1,0.4-0.1,0.6-0.1S50.9,12.4,50.9,12.4z
						 M50.8,16.5l0,0.6c0.5,0,0.9-0.1,1.3-0.4s0.6-0.7,0.6-1.2c0-0.9-0.6-1.3-1.8-1.3l0,0.2c0,0.1,0,0.2,0,0.4L50.8,16.5z"/>
					<path d="M57.4,12.4l0,0.6c2.1,0,3.2,0.8,3.2,2.5c0,0.4-0.1,0.9-0.3,1.2c-0.2,0.4-0.4,0.7-0.7,0.9c-0.3,0.2-0.6,0.4-0.9,0.5
						c-0.5,0.2-1,0.4-1.4,0.4v0.2c0,1.2,0,2,0.1,2.4c-0.1,0.1-0.3,0.2-0.5,0.2c-0.3,0.1-0.5,0.1-0.6,0.1c-0.2,0-0.2,0-0.2,0
						c0-0.3,0-0.8,0-1.6l0.1-5.6c0-0.7,0-1.1,0-1.4c0.1-0.1,0.3-0.2,0.5-0.3c0.2-0.1,0.4-0.1,0.6-0.1S57.4,12.4,57.4,12.4z
						 M57.3,16.5l0,0.6c0.5,0,0.9-0.1,1.3-0.4s0.6-0.7,0.6-1.2c0-0.9-0.6-1.3-1.8-1.3l0,0.2c0,0.1,0,0.2,0,0.4L57.3,16.5z"/>
					<path d="M63.4,11.1c0.2,0,0.4,0.1,0.5,0.2c0.1,0.1,0.2,0.3,0.2,0.6c0,0.2-0.1,0.4-0.3,0.6s-0.4,0.2-0.6,0.2
						c-0.2,0-0.4-0.1-0.5-0.2s-0.2-0.3-0.2-0.6c0-0.2,0.1-0.4,0.3-0.6C63,11.1,63.2,11.1,63.4,11.1z M64,14.1l0,1.9
						c0,0.6,0,1.1,0.1,1.4c0,0.3,0.1,0.6,0.3,0.8c0,0.1-0.2,0.2-0.5,0.4c-0.3,0.2-0.6,0.3-0.8,0.3c-0.1,0-0.1-0.1-0.2-0.4
						s-0.1-0.5-0.1-0.7c0-0.2,0-0.9,0-2.2c0-1.2,0-1.9,0.1-2c0.2-0.1,0.5-0.2,1-0.2c0.2,0,0.3,0,0.3,0.1L64,14.1z"/>
					<path d="M67.6,15.5l0,0.4v0.9c0,0.9,0,1.3,0,1.3c-0.1,0.1-0.3,0.2-0.5,0.2c-0.3,0.1-0.5,0.1-0.6,0.1s-0.2,0-0.2,0
						c0.1-0.4,0.1-1,0.1-1.8l0-2.7c0-0.5,0-0.8,0.1-0.8c0.1-0.1,0.2-0.2,0.5-0.2c0.2-0.1,0.4-0.1,0.6-0.1c0.2,0,0.3,0,0.3,0.1
						c0,0.2,0,0.4,0,0.6s0,0.3,0,0.3l0,0c0-0.1,0.1-0.1,0.2-0.2s0.3-0.2,0.5-0.3c0.3-0.1,0.5-0.2,0.7-0.2c0.2,0,0.4,0,0.6,0.1
						c0.2,0.1,0.3,0.2,0.4,0.3c0.1,0.1,0.2,0.3,0.3,0.5s0.1,0.4,0.2,0.6s0.1,0.4,0.1,0.8c0,0.4,0,1,0,1.7l0,1.4
						c0,0.1-0.1,0.1-0.4,0.2c-0.3,0.1-0.5,0.1-0.6,0.1l-0.4-0.1c0.1-0.7,0.1-1.4,0.1-2.1c0-0.7,0-1.2-0.1-1.5
						c-0.1-0.3-0.3-0.5-0.5-0.5s-0.5,0.1-0.6,0.2c-0.2,0.1-0.3,0.3-0.3,0.4l-0.1,0.2V15.5z"/>
					<path d="M77.1,15.3l0,2.8c0,0.6-0.1,1.2-0.3,1.7c-0.2,0.5-0.4,0.9-0.6,1.1c-0.2,0.3-0.5,0.5-0.8,0.7c-0.5,0.3-1,0.4-1.5,0.4
						c0,0-0.1-0.1-0.1-0.2s-0.1-0.3-0.2-0.5s-0.1-0.4-0.1-0.6h0.2c0.2,0,0.3,0,0.5,0c0.1,0,0.3-0.1,0.5-0.2c0.2-0.1,0.4-0.3,0.6-0.5
						c0.2-0.2,0.3-0.5,0.4-0.9s0.2-0.9,0.2-1.4c0,0,0,0,0,0l0,0c-0.3,0.5-0.9,0.8-1.6,0.8c-0.5,0-1-0.2-1.3-0.6
						c-0.3-0.4-0.5-0.9-0.5-1.4c0-1,0.3-1.8,0.9-2.4S74.9,13,76,13c0.3,0,0.4,0,0.4,0.1c0,0.1,0,0.3,0,0.4l0,0.2h0.1
						c0.3,0,0.4,0,0.5,0.1V15.3z M75.8,14.2l-0.3,0c-0.5,0-0.9,0.2-1.2,0.5c-0.3,0.3-0.4,0.7-0.4,1.2c0,0.2,0.1,0.5,0.2,0.6
						c0.1,0.2,0.4,0.3,0.6,0.3c0.3,0,0.5-0.1,0.7-0.3c0.2-0.2,0.3-0.4,0.3-0.5C75.8,15.1,75.8,14.5,75.8,14.2z"/>
				</g>
			</g>
		</g>
	</g>
	<g id="Layer_4_6_">
		<g class="st1">
			<g>
				
					<linearGradient id="SVGID_5_" gradientUnits="userSpaceOnUse" x1="41.6" y1="39.4927" x2="41.6" y2="2.4927" gradientTransform="matrix(1 0 0 -1 0 31.4806)">
					<stop  offset="0" style="stop-color:#FFFFFF"/>
					<stop  offset="1" style="stop-color:#E21E26"/>
				</linearGradient>
				<path class="st24" d="M82.7,29.1c0,0.8-0.6,1.4-1.4,1.4H1.9c-0.8,0-1.4-0.6-1.4-1.4V1.9c0-0.8,0.6-1.4,1.4-1.4h79.3
					c0.8,0,1.4,0.6,1.4,1.4L82.7,29.1L82.7,29.1z"/>
				<path class="st8" d="M82.7,29.1c0,0.8-0.6,1.4-1.4,1.4H1.9c-0.8,0-1.4-0.6-1.4-1.4V1.9c0-0.8,0.6-1.4,1.4-1.4h79.3
					c0.8,0,1.4,0.6,1.4,1.4L82.7,29.1L82.7,29.1z"/>
			</g>
			<g>
				<text transform="matrix(1 0 0 1 30.3977 18.2264)" class="st9 st5 st6">more ...</text>
			</g>
			<g>
				<g>
					<path d="M28.5,26.9c0,0.8-0.6,1.4-1.4,1.4H4.4c-0.8,0-1.4-0.6-1.4-1.4V4.2c0-0.8,0.6-1.4,1.4-1.4h22.7c0.8,0,1.4,0.6,1.4,1.4
						V26.9z"/>
				</g>
				<text transform="matrix(1 0 0 1 6.5219 26.8595)" class="st10 st11 st12">B</text>
			</g>
		</g>
	</g>
</g>
<g id="_x34__active" class="st0">
	<g id="Layer_2_5_" class="st1">
		<title>Artboard 1</title>
		<g>
			<g>
				<path class="st2" d="M82.7,29.1c0,0.8-0.6,1.4-1.4,1.4H1.9c-0.8,0-1.4-0.6-1.4-1.4V1.9c0-0.8,0.6-1.4,1.4-1.4h79.3
					c0.8,0,1.4,0.6,1.4,1.4L82.7,29.1L82.7,29.1z"/>
				<path class="st3" d="M82.7,29.1c0,0.8-0.6,1.4-1.4,1.4H1.9c-0.8,0-1.4-0.6-1.4-1.4V1.9c0-0.8,0.6-1.4,1.4-1.4h79.3
					c0.8,0,1.4,0.6,1.4,1.4L82.7,29.1L82.7,29.1z"/>
			</g>
			<g>
				<g>
					<path d="M28.5,26.9c0,0.8-0.6,1.4-1.4,1.4H4.4c-0.8,0-1.4-0.6-1.4-1.4V4.2c0-0.8,0.6-1.4,1.4-1.4h22.7c0.8,0,1.4,0.6,1.4,1.4
						V26.9z"/>
				</g>
				<g>
					<g>
						<path class="st4" d="M15.7,26.8c-3,0-5.6-1-8-2.8c-0.8-0.6-1.6-1.4-2.3-2.2l-0.1-0.1c0-0.1,0-0.2,0-0.3c0.1,0,0.2,0,0.3,0
							c0.6,0.4,1.2,0.8,1.9,1.2c1.9,1.1,3.9,1.7,6,2.1c1.1,0.2,2.2,0.2,3.4,0.2c2.1-0.1,4.2-0.7,6.1-1.6c0.3-0.1,0.6-0.3,0.9-0.5
							c0.1-0.1,0.3-0.1,0.4,0s0.1,0.3,0,0.5c-0.1,0.1-0.1,0.2-0.2,0.2c-1.7,1.5-3.8,2.5-6,2.9C17.3,26.7,16.5,26.8,15.7,26.8
							L15.7,26.8 M24.1,22c-0.4,0-0.9,0.1-1.4,0.1c-0.1,0-0.2,0-0.3,0c-0.1,0-0.1-0.1-0.1-0.2l0.2-0.1c0.5-0.3,1.1-0.5,1.7-0.6
							s1.1-0.1,1.7,0.1c0.4,0.1,0.5,0.1,0.4,0.6c-0.1,1.1-0.4,2.2-1.3,3L24.8,25h-0.2v-0.2c0.2-0.6,0.4-1.2,0.6-1.8
							c0-0.1,0.1-0.2,0.1-0.4c0-0.4-0.1-0.6-0.5-0.7C24.5,22,24.3,22,24.1,22 M17.6,13.1c-0.8,0-1.6,0-2.3,0.3
							c-0.4,0.1-0.7,0.3-1.1,0.5c-0.9,0.6-1.1,1.5-1,2.5c0,0.5,0.2,1,0.6,1.4c0.6,0.5,1.5,0.6,2.2,0.2c0.7-0.4,1-1,1.3-1.7
							C17.7,15.2,17.5,14.2,17.6,13.1 M18.2,19.1c-0.3,0.3-0.6,0.5-0.8,0.8c-1.1,0.9-2.3,1.4-3.7,1.4c-0.8,0-1.5,0-2.2-0.3
							c-1.3-0.5-2.1-1.4-2.4-2.7c-0.4-1.6-0.3-3.2,0.7-4.6c0.7-1.1,1.7-1.7,2.9-2.1c1-0.3,2.1-0.5,3.1-0.6c0.6-0.1,1.2-0.1,1.8-0.2
							c0-0.7,0.1-1.5-0.2-2.2c-0.2-0.6-0.7-0.9-1.3-1.1c-1-0.2-2,0.1-2.5,0.9c-0.2,0.3-0.3,0.6-0.4,0.9c-0.1,0.4-0.3,0.6-0.8,0.5
							c-0.9-0.2-1.7-0.3-2.6-0.4c-0.4,0-0.6-0.3-0.5-0.7c0.4-1.9,1.5-3.2,3.2-3.9C14.6,4,16.7,4,18.8,4.7c1.7,0.6,2.7,1.9,2.8,3.8
							c0,0.6,0,1.3,0.1,1.9c0,1.6,0,3.3,0,4.9c0,0.9,0.2,1.7,0.8,2.4c0.1,0.2,0.3,0.3,0.4,0.5c0.2,0.3,0.1,0.5-0.1,0.8
							c-0.7,0.6-1.4,1.2-2.1,1.8c-0.4,0.3-0.6,0.3-1,0c-0.5-0.4-0.9-0.9-1.3-1.5C18.3,19.3,18.2,19.2,18.2,19.1"/>
					</g>
				</g>
				<g class="st21">
					<path d="M34.4,16.8c0,0.4-0.2,0.8-0.6,1.2s-0.8,0.6-1.3,0.7C32,18.9,31.6,19,31.2,19c0,0-0.1,0-0.2-0.1
						c-0.2-0.3-0.3-0.6-0.3-0.9v-0.1c0.6,0,1.1-0.1,1.4-0.3s0.5-0.4,0.5-0.7c0-0.2-0.1-0.3-0.3-0.5c-0.2-0.2-0.4-0.3-0.7-0.4
						s-0.5-0.3-0.7-0.5s-0.3-0.4-0.3-0.7c0-0.5,0.3-0.9,0.9-1.3c0.6-0.4,1.3-0.6,1.9-0.6c0.1,0,0.2,0.1,0.3,0.3
						c0.1,0.2,0.2,0.4,0.2,0.7c-0.2,0-0.4,0-0.7,0.1c-0.6,0.2-0.9,0.4-0.9,0.7c0,0.2,0.3,0.5,0.9,0.9c0.2,0.1,0.5,0.3,0.7,0.6
						S34.4,16.6,34.4,16.8z"/>
					<path d="M36.2,15.9l0-4.2c0-0.8,0-1.2,0.1-1.2c0.1-0.1,0.3-0.2,0.5-0.3c0.2-0.1,0.4-0.1,0.6-0.1s0.3,0,0.3,0c0,0.1,0,0.6,0,1.6
						c0,1,0,1.6,0,1.9v0.1c0,0,0,0.1,0,0.1l0.2-0.2c0.1-0.1,0.3-0.2,0.5-0.3c0.3-0.1,0.5-0.2,0.8-0.2s0.4,0,0.6,0.1s0.3,0.2,0.4,0.3
						c0.1,0.1,0.2,0.3,0.3,0.5s0.1,0.4,0.2,0.6s0.1,0.4,0.1,0.7c0,0.4,0,1,0,1.6l0,1.6c0,0.1-0.2,0.1-0.4,0.2
						c-0.2,0-0.5,0.1-0.6,0.1l-0.4-0.1c0.1-0.7,0.1-1.4,0.1-2.1s0-1.2-0.1-1.5s-0.3-0.5-0.6-0.5c-0.2,0-0.4,0.1-0.5,0.2
						c-0.2,0.2-0.3,0.3-0.3,0.5l-0.1,0.2c0,0.6,0,1.1,0,1.8s0,1-0.1,1c-0.2,0.2-0.7,0.3-1.3,0.3c-0.1,0-0.1,0-0.1,0
						C36.2,18.2,36.2,17.3,36.2,15.9z"/>
					<path d="M46.9,17.7c-0.5,0.6-1.1,0.8-1.9,0.8s-1.4-0.2-1.9-0.7c-0.4-0.5-0.7-1.1-0.7-1.9c0-0.8,0.3-1.5,0.8-2.1
						c0.6-0.6,1.3-0.9,2.3-0.9c0.4,0,0.6,0,0.6,0.1c0,0,0,0.1,0,0.2s0,0.3,0,0.4c0.1,0,0.3,0.1,0.5,0.2c0.2,0.1,0.3,0.3,0.5,0.4
						c0.1,0.1,0.2,0.3,0.3,0.6c0.1,0.3,0.1,0.6,0.1,0.9C47.6,16.5,47.4,17.1,46.9,17.7z M45.8,14.9c-0.2-0.1-0.4-0.2-0.5-0.2h-0.1
						c0,0,0-0.1,0-0.2c0-0.1,0-0.2,0-0.3c-0.3,0-0.6,0.1-0.9,0.4c-0.3,0.3-0.4,0.7-0.4,1.2c0,0.6,0.2,1.1,0.6,1.3
						c0.2,0.1,0.4,0.1,0.6,0.1c0.3,0,0.5-0.1,0.8-0.4c0.2-0.2,0.4-0.6,0.4-1.1S46.1,15,45.8,14.9z"/>
					<path d="M50.9,12.4l0,0.6c2.1,0,3.2,0.8,3.2,2.5c0,0.4-0.1,0.9-0.3,1.2c-0.2,0.4-0.4,0.7-0.7,0.9s-0.6,0.4-0.9,0.5
						c-0.5,0.2-1,0.4-1.4,0.4v0.2c0,1.2,0,2,0.1,2.4c-0.1,0.1-0.3,0.2-0.5,0.2c-0.3,0.1-0.5,0.1-0.6,0.1s-0.2,0-0.2,0
						c0-0.3,0-0.8,0-1.6l0.1-5.6c0-0.7,0-1.1,0-1.4c0.1-0.1,0.3-0.2,0.5-0.3c0.2-0.1,0.4-0.1,0.6-0.1S50.9,12.4,50.9,12.4z
						 M50.8,16.5l0,0.6c0.5,0,0.9-0.1,1.3-0.4s0.6-0.7,0.6-1.2c0-0.9-0.6-1.3-1.8-1.3l0,0.2c0,0.1,0,0.2,0,0.4L50.8,16.5z"/>
					<path d="M57.4,12.4l0,0.6c2.1,0,3.2,0.8,3.2,2.5c0,0.4-0.1,0.9-0.3,1.2c-0.2,0.4-0.4,0.7-0.7,0.9c-0.3,0.2-0.6,0.4-0.9,0.5
						c-0.5,0.2-1,0.4-1.4,0.4v0.2c0,1.2,0,2,0.1,2.4c-0.1,0.1-0.3,0.2-0.5,0.2c-0.3,0.1-0.5,0.1-0.6,0.1c-0.2,0-0.2,0-0.2,0
						c0-0.3,0-0.8,0-1.6l0.1-5.6c0-0.7,0-1.1,0-1.4c0.1-0.1,0.3-0.2,0.5-0.3c0.2-0.1,0.4-0.1,0.6-0.1S57.4,12.4,57.4,12.4z
						 M57.3,16.5l0,0.6c0.5,0,0.9-0.1,1.3-0.4s0.6-0.7,0.6-1.2c0-0.9-0.6-1.3-1.8-1.3l0,0.2c0,0.1,0,0.2,0,0.4L57.3,16.5z"/>
					<path d="M63.4,11.1c0.2,0,0.4,0.1,0.5,0.2c0.1,0.1,0.2,0.3,0.2,0.6c0,0.2-0.1,0.4-0.3,0.6s-0.4,0.2-0.6,0.2
						c-0.2,0-0.4-0.1-0.5-0.2s-0.2-0.3-0.2-0.6c0-0.2,0.1-0.4,0.3-0.6C63,11.1,63.2,11.1,63.4,11.1z M64,14.1l0,1.9
						c0,0.6,0,1.1,0.1,1.4c0,0.3,0.1,0.6,0.3,0.8c0,0.1-0.2,0.2-0.5,0.4c-0.3,0.2-0.6,0.3-0.8,0.3c-0.1,0-0.1-0.1-0.2-0.4
						s-0.1-0.5-0.1-0.7c0-0.2,0-0.9,0-2.2c0-1.2,0-1.9,0.1-2c0.2-0.1,0.5-0.2,1-0.2c0.2,0,0.3,0,0.3,0.1L64,14.1z"/>
					<path d="M67.6,15.5l0,0.4v0.9c0,0.9,0,1.3,0,1.3c-0.1,0.1-0.3,0.2-0.5,0.2c-0.3,0.1-0.5,0.1-0.6,0.1s-0.2,0-0.2,0
						c0.1-0.4,0.1-1,0.1-1.8l0-2.7c0-0.5,0-0.8,0.1-0.8c0.1-0.1,0.2-0.2,0.5-0.2c0.2-0.1,0.4-0.1,0.6-0.1c0.2,0,0.3,0,0.3,0.1
						c0,0.2,0,0.4,0,0.6s0,0.3,0,0.3l0,0c0-0.1,0.1-0.1,0.2-0.2s0.3-0.2,0.5-0.3c0.3-0.1,0.5-0.2,0.7-0.2c0.2,0,0.4,0,0.6,0.1
						c0.2,0.1,0.3,0.2,0.4,0.3c0.1,0.1,0.2,0.3,0.3,0.5s0.1,0.4,0.2,0.6s0.1,0.4,0.1,0.8c0,0.4,0,1,0,1.7l0,1.4
						c0,0.1-0.1,0.1-0.4,0.2c-0.3,0.1-0.5,0.1-0.6,0.1l-0.4-0.1c0.1-0.7,0.1-1.4,0.1-2.1c0-0.7,0-1.2-0.1-1.5
						c-0.1-0.3-0.3-0.5-0.5-0.5s-0.5,0.1-0.6,0.2c-0.2,0.1-0.3,0.3-0.3,0.4l-0.1,0.2V15.5z"/>
					<path d="M77.1,15.3l0,2.8c0,0.6-0.1,1.2-0.3,1.7c-0.2,0.5-0.4,0.9-0.6,1.1c-0.2,0.3-0.5,0.5-0.8,0.7c-0.5,0.3-1,0.4-1.5,0.4
						c0,0-0.1-0.1-0.1-0.2s-0.1-0.3-0.2-0.5s-0.1-0.4-0.1-0.6h0.2c0.2,0,0.3,0,0.5,0c0.1,0,0.3-0.1,0.5-0.2c0.2-0.1,0.4-0.3,0.6-0.5
						c0.2-0.2,0.3-0.5,0.4-0.9s0.2-0.9,0.2-1.4c0,0,0,0,0,0l0,0c-0.3,0.5-0.9,0.8-1.6,0.8c-0.5,0-1-0.2-1.3-0.6
						c-0.3-0.4-0.5-0.9-0.5-1.4c0-1,0.3-1.8,0.9-2.4S74.9,13,76,13c0.3,0,0.4,0,0.4,0.1c0,0.1,0,0.3,0,0.4l0,0.2h0.1
						c0.3,0,0.4,0,0.5,0.1V15.3z M75.8,14.2l-0.3,0c-0.5,0-0.9,0.2-1.2,0.5c-0.3,0.3-0.4,0.7-0.4,1.2c0,0.2,0.1,0.5,0.2,0.6
						c0.1,0.2,0.4,0.3,0.6,0.3c0.3,0,0.5-0.1,0.7-0.3c0.2-0.2,0.3-0.4,0.3-0.5C75.8,15.1,75.8,14.5,75.8,14.2z"/>
				</g>
			</g>
		</g>
	</g>
	<g id="Layer_4_7_">
		<g class="st1">
			<g>
				
					<linearGradient id="SVGID_6_" gradientUnits="userSpaceOnUse" x1="41.6" y1="39.4927" x2="41.6" y2="2.4927" gradientTransform="matrix(1 0 0 -1 0 31.4806)">
					<stop  offset="0" style="stop-color:#FFFFFF"/>
					<stop  offset="1" style="stop-color:#E21E26"/>
				</linearGradient>
				<path class="st25" d="M82.7,29.1c0,0.8-0.6,1.4-1.4,1.4H1.9c-0.8,0-1.4-0.6-1.4-1.4V1.9c0-0.8,0.6-1.4,1.4-1.4h79.3
					c0.8,0,1.4,0.6,1.4,1.4L82.7,29.1L82.7,29.1z"/>
				<path class="st8" d="M82.7,29.1c0,0.8-0.6,1.4-1.4,1.4H1.9c-0.8,0-1.4-0.6-1.4-1.4V1.9c0-0.8,0.6-1.4,1.4-1.4h79.3
					c0.8,0,1.4,0.6,1.4,1.4L82.7,29.1L82.7,29.1z"/>
			</g>
			<g>
				<text transform="matrix(1 0 0 1 30.3977 18.2264)" class="st9 st5 st6">more ...</text>
			</g>
			<g>
				<g>
					<path d="M28.5,26.9c0,0.8-0.6,1.4-1.4,1.4H4.4c-0.8,0-1.4-0.6-1.4-1.4V4.2c0-0.8,0.6-1.4,1.4-1.4h22.7c0.8,0,1.4,0.6,1.4,1.4
						V26.9z"/>
				</g>
				<text transform="matrix(1 0 0 1 6.5219 26.8595)" class="st10 st11 st12">B</text>
			</g>
		</g>
	</g>
</g>
<g id="_x3D__x3D__x3D__x3D__x3D__x3D__x3D__x3D__x3D__x3D__x3D__x3D__x3D__x3D_">
</g>
<g id="unselcted" class="st0">
	<g class="st1">
		<linearGradient id="SVGID_7_" gradientUnits="userSpaceOnUse" x1="41.6" y1="-3.0195" x2="41.6" y2="30.4814">
			<stop  offset="0" style="stop-color:#FFFFFF"/>
			<stop  offset="0.1" style="stop-color:#FCE8E9;stop-opacity:0.5"/>
			<stop  offset="1" style="stop-color:#E21E26"/>
			<stop  offset="1" style="stop-color:#000000;stop-opacity:0.5"/>
		</linearGradient>
		<path class="st26" d="M82.7,29.1c0,0.8-0.6,1.4-1.4,1.4H1.9c-0.8,0-1.4-0.6-1.4-1.4V1.9c0-0.8,0.6-1.4,1.4-1.4h79.3
			c0.8,0,1.4,0.6,1.4,1.4L82.7,29.1L82.7,29.1z"/>
		<path class="st14" d="M81.3,31H1.9C0.8,31,0,30.2,0,29.1V1.9C0,0.8,0.8,0,1.9,0h79.3c1.1,0,1.9,0.8,1.9,1.9v26.7h0.1v0.5
			C83.2,30.2,82.4,31,81.3,31z M1.9,1C1.4,1,1,1.4,1,1.9v27.2C1,29.6,1.4,30,1.9,30h79.4c0.4,0,0.7-0.2,0.8-0.5V1.9
			c0-0.5-0.4-0.9-0.9-0.9H1.9z"/>
	</g>
	<g class="st27">
		<path class="st28" d="M31.1,16.7l0-2.8c0-0.5,0-0.8,0.1-0.8c0.1-0.1,0.2-0.2,0.4-0.2s0.4-0.1,0.6-0.1c0.2,0,0.3,0,0.3,0
			c0,0.4,0,0.6,0,0.8c0,0.2,0,0.3,0,0.3c0,0,0,0,0.1-0.1c0,0,0.1-0.1,0.2-0.2s0.2-0.2,0.5-0.3c0.2-0.1,0.4-0.2,0.6-0.2
			c0.5,0,0.9,0.2,1.2,0.7c0.5-0.6,1-1,1.5-1c0.5,0,0.9,0.2,1.1,0.6c0.2,0.5,0.4,0.9,0.4,1.4c0,0.7,0.1,1.4,0.1,2.1l0,1.4
			c0,0.1-0.1,0.1-0.4,0.2c-0.3,0.1-0.5,0.1-0.6,0.1l-0.4-0.1c0.1-0.8,0.1-1.4,0.1-1.9c0-0.5,0-0.8,0-1s0-0.4-0.1-0.6
			s-0.1-0.4-0.2-0.5c-0.1-0.1-0.2-0.1-0.4-0.1c-0.2,0-0.3,0-0.4,0.1s-0.2,0.2-0.3,0.2c-0.1,0.1-0.1,0.1-0.1,0.2c0,0.3,0,0.8,0,1.8
			l0,0.9c0,0.1-0.1,0.1-0.4,0.2s-0.5,0.1-0.6,0.1l-0.4-0.1c0.1-0.6,0.1-1.3,0.1-1.8c0-0.6,0-1-0.1-1.2c-0.1-0.2-0.2-0.3-0.5-0.3
			s-0.5,0.1-0.6,0.4s-0.3,0.5-0.3,0.6v0.3l0,1.3c0,0.8,0,1.2,0,1.2c-0.2,0.2-0.6,0.3-1.3,0.3c-0.1,0-0.1,0-0.1,0
			C31.1,18.2,31.1,17.6,31.1,16.7z"/>
		<path class="st28" d="M44.2,17.7c-0.5,0.6-1.1,0.8-1.9,0.8s-1.4-0.2-1.9-0.7c-0.4-0.5-0.7-1.1-0.7-1.9c0-0.8,0.3-1.5,0.8-2.1
			c0.6-0.6,1.3-0.9,2.3-0.9c0.4,0,0.6,0,0.6,0.1c0,0,0,0.1,0,0.2s0,0.3,0,0.4c0.1,0,0.3,0.1,0.5,0.2c0.2,0.1,0.3,0.3,0.5,0.4
			c0.1,0.1,0.2,0.3,0.3,0.6c0.1,0.3,0.1,0.6,0.1,0.9C44.9,16.5,44.6,17.1,44.2,17.7z M43.1,14.9c-0.2-0.1-0.4-0.2-0.5-0.2h-0.1
			c0,0,0-0.1,0-0.2c0-0.1,0-0.2,0-0.3c-0.3,0-0.6,0.1-0.9,0.4c-0.3,0.3-0.4,0.7-0.4,1.2c0,0.6,0.2,1.1,0.6,1.3
			c0.2,0.1,0.4,0.1,0.6,0.1c0.3,0,0.5-0.1,0.8-0.4c0.2-0.2,0.4-0.6,0.4-1.1S43.4,15,43.1,14.9z"/>
		<path class="st28" d="M46.8,16.6l0-2.7c0-0.5,0-0.7,0-0.8c0.1-0.1,0.2-0.2,0.5-0.2s0.4-0.1,0.6-0.1c0.2,0,0.3,0,0.3,0.1
			c0,0.2,0,0.5,0,0.7c0,0.3,0,0.4,0,0.4c0,0,0,0,0,0c0,0,0-0.1,0.1-0.1s0.1-0.1,0.2-0.2c0.1-0.1,0.2-0.2,0.4-0.3
			c0.3-0.2,0.7-0.3,1.1-0.3c0.1,0.1,0.1,0.3,0.1,0.5c0,0.5-0.1,0.8-0.2,1l0,0.1l-0.2,0c-0.6,0-1,0.2-1.4,0.7
			c-0.1,0.2-0.2,0.3-0.2,0.4v1.1c0,1,0,1.5,0,1.5c-0.2,0.2-0.7,0.3-1.3,0.3c-0.1,0-0.1,0-0.1,0C46.8,18.2,46.8,17.6,46.8,16.6z"/>
		<path class="st28" d="M55.5,18.2c-0.3,0.2-0.8,0.3-1.6,0.3s-1.4-0.2-1.8-0.7c-0.4-0.5-0.6-1.1-0.6-1.9s0.3-1.5,0.8-2.1
			c0.5-0.6,1.2-0.9,2.1-0.9c0.4,0,0.7,0.1,1,0.3c0.3,0.2,0.5,0.6,0.5,1.1s-0.2,1-0.7,1.5c-0.4,0.5-1,0.9-1.8,1.1
			c0,0.1,0.1,0.2,0.3,0.2c0.2,0.1,0.4,0.1,0.6,0.1c0.6,0,1.1-0.1,1.4-0.3c0,0,0,0,0,0c0,0,0,0.1,0,0.2C55.8,17.6,55.7,18,55.5,18.2z
			 M54.5,14.4c0-0.2-0.1-0.3-0.4-0.3c-0.3,0-0.6,0.2-0.9,0.5s-0.4,0.7-0.4,1.2c0,0.1,0,0.2,0,0.2c0.3,0,0.6-0.2,1-0.5
			C54.3,15.1,54.5,14.8,54.5,14.4z"/>
		<path class="st28" d="M62.2,17.1c0.1,0.1,0.2,0.3,0.2,0.5c0,0.2-0.1,0.4-0.2,0.5c-0.1,0.1-0.3,0.2-0.5,0.2s-0.4-0.1-0.5-0.2
			S61,17.8,61,17.6s0.1-0.4,0.2-0.5c0.1-0.1,0.3-0.2,0.5-0.2C61.9,16.9,62.1,16.9,62.2,17.1z"/>
		<path class="st28" d="M65.5,17.1c0.1,0.1,0.2,0.3,0.2,0.5c0,0.2-0.1,0.4-0.2,0.5c-0.1,0.1-0.3,0.2-0.5,0.2c-0.2,0-0.4-0.1-0.5-0.2
			s-0.2-0.3-0.2-0.5s0.1-0.4,0.2-0.5c0.1-0.1,0.3-0.2,0.5-0.2C65.2,16.9,65.3,16.9,65.5,17.1z"/>
		<path class="st28" d="M68.7,17.1c0.1,0.1,0.2,0.3,0.2,0.5c0,0.2-0.1,0.4-0.2,0.5c-0.1,0.1-0.3,0.2-0.5,0.2c-0.2,0-0.4-0.1-0.5-0.2
			s-0.2-0.3-0.2-0.5s0.1-0.4,0.2-0.5c0.1-0.1,0.3-0.2,0.5-0.2C68.4,16.9,68.6,16.9,68.7,17.1z"/>
	</g>
	<g class="st1">
		<g>
			<path class="st20" d="M28.5,26.9c0,0.8-0.6,1.4-1.4,1.4H4.4c-0.8,0-1.4-0.6-1.4-1.4V4.2c0-0.8,0.6-1.4,1.4-1.4h22.7
				c0.8,0,1.4,0.6,1.4,1.4V26.9z"/>
		</g>
	</g>
	<g class="st1">
		<path class="st17" d="M10.5,6.9h5.4c3.6,0,6.2,1.1,6.2,4.4v0.7c0,1.6-0.8,3.1-2,3.6c1.4,0.6,2.3,2.1,2.3,3.8V20
			c0,3.1-2.6,4.5-6.5,4.5h-3.1c0,0-2.4,0-2.4-1.4V6.9z M13.2,9v5.6h2.9c2.4,0,3.3-1,3.3-3c0-2-1.1-2.6-3.5-2.6H13.2z M13.2,16.6v5.8
			h2.7c2.6,0,3.7-0.8,3.7-2.8c0-1.9-1.1-3-3.5-3H13.2z"/>
	</g>
</g>
<g id="_x32__over_1_" class="st0">
	<title>Artboard 1</title>
	<g class="st1">
		<linearGradient id="SVGID_8_" gradientUnits="userSpaceOnUse" x1="41.6" y1="-3.0195" x2="41.6" y2="30.4814">
			<stop  offset="0" style="stop-color:#FFFFFF"/>
			<stop  offset="1" style="stop-color:#E21E26"/>
			<stop  offset="1" style="stop-color:#000000"/>
		</linearGradient>
		<path class="st29" d="M82.7,29.1c0,0.8-0.6,1.4-1.4,1.4H1.9c-0.8,0-1.4-0.6-1.4-1.4V1.9c0-0.8,0.6-1.4,1.4-1.4h79.3
			c0.8,0,1.4,0.6,1.4,1.4L82.7,29.1L82.7,29.1z"/>
		<path class="st14" d="M81.3,31H1.9C0.8,31,0,30.2,0,29.1V1.9C0,0.8,0.8,0,1.9,0h79.3c1.1,0,1.9,0.8,1.9,1.9v26.7h0.1v0.5
			C83.2,30.2,82.4,31,81.3,31z M1.9,1C1.4,1,1,1.4,1,1.9v27.2C1,29.6,1.4,30,1.9,30h79.4c0.4,0,0.7-0.2,0.8-0.5V1.9
			c0-0.5-0.4-0.9-0.9-0.9H1.9z"/>
	</g>
	<g class="st27">
		<path class="st28" d="M31.1,16.7l0-2.8c0-0.5,0-0.8,0.1-0.8c0.1-0.1,0.2-0.2,0.4-0.2s0.4-0.1,0.6-0.1c0.2,0,0.3,0,0.3,0
			c0,0.4,0,0.6,0,0.8c0,0.2,0,0.3,0,0.3c0,0,0,0,0.1-0.1c0,0,0.1-0.1,0.2-0.2s0.2-0.2,0.5-0.3c0.2-0.1,0.4-0.2,0.6-0.2
			c0.5,0,0.9,0.2,1.2,0.7c0.5-0.6,1-1,1.5-1c0.5,0,0.9,0.2,1.1,0.6c0.2,0.5,0.4,0.9,0.4,1.4c0,0.7,0.1,1.4,0.1,2.1l0,1.4
			c0,0.1-0.1,0.1-0.4,0.2c-0.3,0.1-0.5,0.1-0.6,0.1l-0.4-0.1c0.1-0.8,0.1-1.4,0.1-1.9c0-0.5,0-0.8,0-1s0-0.4-0.1-0.6
			s-0.1-0.4-0.2-0.5c-0.1-0.1-0.2-0.1-0.4-0.1c-0.2,0-0.3,0-0.4,0.1s-0.2,0.2-0.3,0.2c-0.1,0.1-0.1,0.1-0.1,0.2c0,0.3,0,0.8,0,1.8
			l0,0.9c0,0.1-0.1,0.1-0.4,0.2s-0.5,0.1-0.6,0.1l-0.4-0.1c0.1-0.6,0.1-1.3,0.1-1.8c0-0.6,0-1-0.1-1.2c-0.1-0.2-0.2-0.3-0.5-0.3
			s-0.5,0.1-0.6,0.4s-0.3,0.5-0.3,0.6v0.3l0,1.3c0,0.8,0,1.2,0,1.2c-0.2,0.2-0.6,0.3-1.3,0.3c-0.1,0-0.1,0-0.1,0
			C31.1,18.2,31.1,17.6,31.1,16.7z"/>
		<path class="st28" d="M44.2,17.7c-0.5,0.6-1.1,0.8-1.9,0.8s-1.4-0.2-1.9-0.7c-0.4-0.5-0.7-1.1-0.7-1.9c0-0.8,0.3-1.5,0.8-2.1
			c0.6-0.6,1.3-0.9,2.3-0.9c0.4,0,0.6,0,0.6,0.1c0,0,0,0.1,0,0.2s0,0.3,0,0.4c0.1,0,0.3,0.1,0.5,0.2c0.2,0.1,0.3,0.3,0.5,0.4
			c0.1,0.1,0.2,0.3,0.3,0.6c0.1,0.3,0.1,0.6,0.1,0.9C44.9,16.5,44.6,17.1,44.2,17.7z M43.1,14.9c-0.2-0.1-0.4-0.2-0.5-0.2h-0.1
			c0,0,0-0.1,0-0.2c0-0.1,0-0.2,0-0.3c-0.3,0-0.6,0.1-0.9,0.4c-0.3,0.3-0.4,0.7-0.4,1.2c0,0.6,0.2,1.1,0.6,1.3
			c0.2,0.1,0.4,0.1,0.6,0.1c0.3,0,0.5-0.1,0.8-0.4c0.2-0.2,0.4-0.6,0.4-1.1S43.4,15,43.1,14.9z"/>
		<path class="st28" d="M46.8,16.6l0-2.7c0-0.5,0-0.7,0-0.8c0.1-0.1,0.2-0.2,0.5-0.2s0.4-0.1,0.6-0.1c0.2,0,0.3,0,0.3,0.1
			c0,0.2,0,0.5,0,0.7c0,0.3,0,0.4,0,0.4c0,0,0,0,0,0c0,0,0-0.1,0.1-0.1s0.1-0.1,0.2-0.2c0.1-0.1,0.2-0.2,0.4-0.3
			c0.3-0.2,0.7-0.3,1.1-0.3c0.1,0.1,0.1,0.3,0.1,0.5c0,0.5-0.1,0.8-0.2,1l0,0.1l-0.2,0c-0.6,0-1,0.2-1.4,0.7
			c-0.1,0.2-0.2,0.3-0.2,0.4v1.1c0,1,0,1.5,0,1.5c-0.2,0.2-0.7,0.3-1.3,0.3c-0.1,0-0.1,0-0.1,0C46.8,18.2,46.8,17.6,46.8,16.6z"/>
		<path class="st28" d="M55.5,18.2c-0.3,0.2-0.8,0.3-1.6,0.3s-1.4-0.2-1.8-0.7c-0.4-0.5-0.6-1.1-0.6-1.9s0.3-1.5,0.8-2.1
			c0.5-0.6,1.2-0.9,2.1-0.9c0.4,0,0.7,0.1,1,0.3c0.3,0.2,0.5,0.6,0.5,1.1s-0.2,1-0.7,1.5c-0.4,0.5-1,0.9-1.8,1.1
			c0,0.1,0.1,0.2,0.3,0.2c0.2,0.1,0.4,0.1,0.6,0.1c0.6,0,1.1-0.1,1.4-0.3c0,0,0,0,0,0c0,0,0,0.1,0,0.2C55.8,17.6,55.7,18,55.5,18.2z
			 M54.5,14.4c0-0.2-0.1-0.3-0.4-0.3c-0.3,0-0.6,0.2-0.9,0.5s-0.4,0.7-0.4,1.2c0,0.1,0,0.2,0,0.2c0.3,0,0.6-0.2,1-0.5
			C54.3,15.1,54.5,14.8,54.5,14.4z"/>
		<path class="st28" d="M62.2,17.1c0.1,0.1,0.2,0.3,0.2,0.5c0,0.2-0.1,0.4-0.2,0.5c-0.1,0.1-0.3,0.2-0.5,0.2s-0.4-0.1-0.5-0.2
			S61,17.8,61,17.6s0.1-0.4,0.2-0.5c0.1-0.1,0.3-0.2,0.5-0.2C61.9,16.9,62.1,16.9,62.2,17.1z"/>
		<path class="st28" d="M65.5,17.1c0.1,0.1,0.2,0.3,0.2,0.5c0,0.2-0.1,0.4-0.2,0.5c-0.1,0.1-0.3,0.2-0.5,0.2c-0.2,0-0.4-0.1-0.5-0.2
			s-0.2-0.3-0.2-0.5s0.1-0.4,0.2-0.5c0.1-0.1,0.3-0.2,0.5-0.2C65.2,16.9,65.3,16.9,65.5,17.1z"/>
		<path class="st28" d="M68.7,17.1c0.1,0.1,0.2,0.3,0.2,0.5c0,0.2-0.1,0.4-0.2,0.5c-0.1,0.1-0.3,0.2-0.5,0.2c-0.2,0-0.4-0.1-0.5-0.2
			s-0.2-0.3-0.2-0.5s0.1-0.4,0.2-0.5c0.1-0.1,0.3-0.2,0.5-0.2C68.4,16.9,68.6,16.9,68.7,17.1z"/>
	</g>
	<g id="Layer_4_3_">
		<g class="st1">
			<g>
				
					<linearGradient id="SVGID_9_" gradientUnits="userSpaceOnUse" x1="41.6" y1="39.4927" x2="41.6" y2="2.4927" gradientTransform="matrix(1 0 0 -1 0 31.4806)">
					<stop  offset="0" style="stop-color:#FFFFFF"/>
					<stop  offset="1" style="stop-color:#E21E26"/>
				</linearGradient>
				<path class="st30" d="M82.7,29.1c0,0.8-0.6,1.4-1.4,1.4H1.9c-0.8,0-1.4-0.6-1.4-1.4V1.9c0-0.8,0.6-1.4,1.4-1.4h79.3
					c0.8,0,1.4,0.6,1.4,1.4L82.7,29.1L82.7,29.1z"/>
				<path class="st8" d="M82.7,29.1c0,0.8-0.6,1.4-1.4,1.4H1.9c-0.8,0-1.4-0.6-1.4-1.4V1.9c0-0.8,0.6-1.4,1.4-1.4h79.3
					c0.8,0,1.4,0.6,1.4,1.4L82.7,29.1L82.7,29.1z"/>
			</g>
			<g>
				<text transform="matrix(1 0 0 1 30.3977 18.2264)" class="st9 st5 st6">more ...</text>
			</g>
			<g>
				<g>
					<path d="M28.5,26.9c0,0.8-0.6,1.4-1.4,1.4H4.4c-0.8,0-1.4-0.6-1.4-1.4V4.2c0-0.8,0.6-1.4,1.4-1.4h22.7c0.8,0,1.4,0.6,1.4,1.4
						V26.9z"/>
				</g>
				<text transform="matrix(1 0 0 1 6.5219 26.8595)" class="st10 st11 st12">B</text>
			</g>
		</g>
	</g>
	<g class="st1">
		<g>
			<path class="st22" d="M28.5,26.9c0,0.8-0.6,1.4-1.4,1.4H4.4c-0.8,0-1.4-0.6-1.4-1.4V4.2c0-0.8,0.6-1.4,1.4-1.4h22.7
				c0.8,0,1.4,0.6,1.4,1.4V26.9z"/>
		</g>
	</g>
	<g class="st1">
		<path class="st17" d="M10.5,6.9h5.4c3.6,0,6.2,1.1,6.2,4.4v0.7c0,1.6-0.8,3.1-2,3.6c1.4,0.6,2.3,2.1,2.3,3.8V20
			c0,3.1-2.6,4.5-6.5,4.5h-3.1c0,0-2.4,0-2.4-1.4V6.9z M13.2,9v5.6h2.9c2.4,0,3.3-1,3.3-3c0-2-1.1-2.6-3.5-2.6H13.2z M13.2,16.6v5.8
			h2.7c2.6,0,3.7-0.8,3.7-2.8c0-1.9-1.1-3-3.5-3H13.2z"/>
	</g>
</g>
<g id="_x33__down" class="st0">
	<title>Artboard 1</title>
	<g class="st1">
		<linearGradient id="SVGID_10_" gradientUnits="userSpaceOnUse" x1="41.6" y1="-3.0195" x2="41.6" y2="30.4814">
			<stop  offset="0" style="stop-color:#FFFFFF"/>
			<stop  offset="0.1" style="stop-color:#FCE8E9;stop-opacity:0.5"/>
			<stop  offset="1" style="stop-color:#E21E26"/>
			<stop  offset="1" style="stop-color:#000000;stop-opacity:0.5"/>
		</linearGradient>
		<path class="st31" d="M82.7,29.1c0,0.8-0.6,1.4-1.4,1.4H1.9c-0.8,0-1.4-0.6-1.4-1.4V1.9c0-0.8,0.6-1.4,1.4-1.4h79.3
			c0.8,0,1.4,0.6,1.4,1.4L82.7,29.1L82.7,29.1z"/>
		<path class="st14" d="M81.3,31H1.9C0.8,31,0,30.2,0,29.1V1.9C0,0.8,0.8,0,1.9,0h79.3c1.1,0,1.9,0.8,1.9,1.9v26.7h0.1v0.5
			C83.2,30.2,82.4,31,81.3,31z M1.9,1C1.4,1,1,1.4,1,1.9v27.2C1,29.6,1.4,30,1.9,30h79.4c0.4,0,0.7-0.2,0.8-0.5V1.9
			c0-0.5-0.4-0.9-0.9-0.9H1.9z"/>
	</g>
	<g class="st27">
		<path class="st28" d="M31.1,16.7l0-2.8c0-0.5,0-0.8,0.1-0.8c0.1-0.1,0.2-0.2,0.4-0.2s0.4-0.1,0.6-0.1c0.2,0,0.3,0,0.3,0
			c0,0.4,0,0.6,0,0.8c0,0.2,0,0.3,0,0.3c0,0,0,0,0.1-0.1c0,0,0.1-0.1,0.2-0.2s0.2-0.2,0.5-0.3c0.2-0.1,0.4-0.2,0.6-0.2
			c0.5,0,0.9,0.2,1.2,0.7c0.5-0.6,1-1,1.5-1c0.5,0,0.9,0.2,1.1,0.6c0.2,0.5,0.4,0.9,0.4,1.4c0,0.7,0.1,1.4,0.1,2.1l0,1.4
			c0,0.1-0.1,0.1-0.4,0.2c-0.3,0.1-0.5,0.1-0.6,0.1l-0.4-0.1c0.1-0.8,0.1-1.4,0.1-1.9c0-0.5,0-0.8,0-1s0-0.4-0.1-0.6
			s-0.1-0.4-0.2-0.5c-0.1-0.1-0.2-0.1-0.4-0.1c-0.2,0-0.3,0-0.4,0.1s-0.2,0.2-0.3,0.2c-0.1,0.1-0.1,0.1-0.1,0.2c0,0.3,0,0.8,0,1.8
			l0,0.9c0,0.1-0.1,0.1-0.4,0.2s-0.5,0.1-0.6,0.1l-0.4-0.1c0.1-0.6,0.1-1.3,0.1-1.8c0-0.6,0-1-0.1-1.2c-0.1-0.2-0.2-0.3-0.5-0.3
			s-0.5,0.1-0.6,0.4s-0.3,0.5-0.3,0.6v0.3l0,1.3c0,0.8,0,1.2,0,1.2c-0.2,0.2-0.6,0.3-1.3,0.3c-0.1,0-0.1,0-0.1,0
			C31.1,18.2,31.1,17.6,31.1,16.7z"/>
		<path class="st28" d="M44.2,17.7c-0.5,0.6-1.1,0.8-1.9,0.8s-1.4-0.2-1.9-0.7c-0.4-0.5-0.7-1.1-0.7-1.9c0-0.8,0.3-1.5,0.8-2.1
			c0.6-0.6,1.3-0.9,2.3-0.9c0.4,0,0.6,0,0.6,0.1c0,0,0,0.1,0,0.2s0,0.3,0,0.4c0.1,0,0.3,0.1,0.5,0.2c0.2,0.1,0.3,0.3,0.5,0.4
			c0.1,0.1,0.2,0.3,0.3,0.6c0.1,0.3,0.1,0.6,0.1,0.9C44.9,16.5,44.6,17.1,44.2,17.7z M43.1,14.9c-0.2-0.1-0.4-0.2-0.5-0.2h-0.1
			c0,0,0-0.1,0-0.2c0-0.1,0-0.2,0-0.3c-0.3,0-0.6,0.1-0.9,0.4c-0.3,0.3-0.4,0.7-0.4,1.2c0,0.6,0.2,1.1,0.6,1.3
			c0.2,0.1,0.4,0.1,0.6,0.1c0.3,0,0.5-0.1,0.8-0.4c0.2-0.2,0.4-0.6,0.4-1.1S43.4,15,43.1,14.9z"/>
		<path class="st28" d="M46.8,16.6l0-2.7c0-0.5,0-0.7,0-0.8c0.1-0.1,0.2-0.2,0.5-0.2s0.4-0.1,0.6-0.1c0.2,0,0.3,0,0.3,0.1
			c0,0.2,0,0.5,0,0.7c0,0.3,0,0.4,0,0.4c0,0,0,0,0,0c0,0,0-0.1,0.1-0.1s0.1-0.1,0.2-0.2c0.1-0.1,0.2-0.2,0.4-0.3
			c0.3-0.2,0.7-0.3,1.1-0.3c0.1,0.1,0.1,0.3,0.1,0.5c0,0.5-0.1,0.8-0.2,1l0,0.1l-0.2,0c-0.6,0-1,0.2-1.4,0.7
			c-0.1,0.2-0.2,0.3-0.2,0.4v1.1c0,1,0,1.5,0,1.5c-0.2,0.2-0.7,0.3-1.3,0.3c-0.1,0-0.1,0-0.1,0C46.8,18.2,46.8,17.6,46.8,16.6z"/>
		<path class="st28" d="M55.5,18.2c-0.3,0.2-0.8,0.3-1.6,0.3s-1.4-0.2-1.8-0.7c-0.4-0.5-0.6-1.1-0.6-1.9s0.3-1.5,0.8-2.1
			c0.5-0.6,1.2-0.9,2.1-0.9c0.4,0,0.7,0.1,1,0.3c0.3,0.2,0.5,0.6,0.5,1.1s-0.2,1-0.7,1.5c-0.4,0.5-1,0.9-1.8,1.1
			c0,0.1,0.1,0.2,0.3,0.2c0.2,0.1,0.4,0.1,0.6,0.1c0.6,0,1.1-0.1,1.4-0.3c0,0,0,0,0,0c0,0,0,0.1,0,0.2C55.8,17.6,55.7,18,55.5,18.2z
			 M54.5,14.4c0-0.2-0.1-0.3-0.4-0.3c-0.3,0-0.6,0.2-0.9,0.5s-0.4,0.7-0.4,1.2c0,0.1,0,0.2,0,0.2c0.3,0,0.6-0.2,1-0.5
			C54.3,15.1,54.5,14.8,54.5,14.4z"/>
		<path class="st28" d="M62.2,17.1c0.1,0.1,0.2,0.3,0.2,0.5c0,0.2-0.1,0.4-0.2,0.5c-0.1,0.1-0.3,0.2-0.5,0.2s-0.4-0.1-0.5-0.2
			S61,17.8,61,17.6s0.1-0.4,0.2-0.5c0.1-0.1,0.3-0.2,0.5-0.2C61.9,16.9,62.1,16.9,62.2,17.1z"/>
		<path class="st28" d="M65.5,17.1c0.1,0.1,0.2,0.3,0.2,0.5c0,0.2-0.1,0.4-0.2,0.5c-0.1,0.1-0.3,0.2-0.5,0.2c-0.2,0-0.4-0.1-0.5-0.2
			s-0.2-0.3-0.2-0.5s0.1-0.4,0.2-0.5c0.1-0.1,0.3-0.2,0.5-0.2C65.2,16.9,65.3,16.9,65.5,17.1z"/>
		<path class="st28" d="M68.7,17.1c0.1,0.1,0.2,0.3,0.2,0.5c0,0.2-0.1,0.4-0.2,0.5c-0.1,0.1-0.3,0.2-0.5,0.2c-0.2,0-0.4-0.1-0.5-0.2
			s-0.2-0.3-0.2-0.5s0.1-0.4,0.2-0.5c0.1-0.1,0.3-0.2,0.5-0.2C68.4,16.9,68.6,16.9,68.7,17.1z"/>
	</g>
	<g id="Layer_4_4_">
		<g class="st1">
			<g>
				
					<linearGradient id="SVGID_11_" gradientUnits="userSpaceOnUse" x1="41.6" y1="39.4927" x2="41.6" y2="2.4927" gradientTransform="matrix(1 0 0 -1 0 31.4806)">
					<stop  offset="0" style="stop-color:#FFFFFF"/>
					<stop  offset="1" style="stop-color:#E21E26"/>
				</linearGradient>
				<path class="st32" d="M82.7,29.1c0,0.8-0.6,1.4-1.4,1.4H1.9c-0.8,0-1.4-0.6-1.4-1.4V1.9c0-0.8,0.6-1.4,1.4-1.4h79.3
					c0.8,0,1.4,0.6,1.4,1.4L82.7,29.1L82.7,29.1z"/>
				<path class="st8" d="M82.7,29.1c0,0.8-0.6,1.4-1.4,1.4H1.9c-0.8,0-1.4-0.6-1.4-1.4V1.9c0-0.8,0.6-1.4,1.4-1.4h79.3
					c0.8,0,1.4,0.6,1.4,1.4L82.7,29.1L82.7,29.1z"/>
			</g>
			<g>
				<text transform="matrix(1 0 0 1 30.3977 18.2264)" class="st9 st5 st6">more ...</text>
			</g>
			<g>
				<g>
					<path d="M28.5,26.9c0,0.8-0.6,1.4-1.4,1.4H4.4c-0.8,0-1.4-0.6-1.4-1.4V4.2c0-0.8,0.6-1.4,1.4-1.4h22.7c0.8,0,1.4,0.6,1.4,1.4
						V26.9z"/>
				</g>
				<text transform="matrix(1 0 0 1 6.5219 26.8595)" class="st10 st11 st12">B</text>
			</g>
		</g>
	</g>
	<g class="st1">
		<g>
			<path class="st33" d="M28.5,26.9c0,0.8-0.6,1.4-1.4,1.4H4.4c-0.8,0-1.4-0.6-1.4-1.4V4.2c0-0.8,0.6-1.4,1.4-1.4h22.7
				c0.8,0,1.4,0.6,1.4,1.4V26.9z"/>
		</g>
	</g>
	<g class="st1">
		<path class="st17" d="M10.5,6.9h5.4c3.6,0,6.2,1.1,6.2,4.4v0.7c0,1.6-0.8,3.1-2,3.6c1.4,0.6,2.3,2.1,2.3,3.8V20
			c0,3.1-2.6,4.5-6.5,4.5h-3.1c0,0-2.4,0-2.4-1.4V6.9z M13.2,9v5.6h2.9c2.4,0,3.3-1,3.3-3c0-2-1.1-2.6-3.5-2.6H13.2z M13.2,16.6v5.8
			h2.7c2.6,0,3.7-0.8,3.7-2.8c0-1.9-1.1-3-3.5-3H13.2z"/>
	</g>
</g>
<g id="_x34__active_1_" class="st0">
	<title>Artboard 1</title>
	<g id="Layer_4_8_" class="st1">
		<g>
			<g>
				
					<linearGradient id="SVGID_12_" gradientUnits="userSpaceOnUse" x1="41.6" y1="39.4927" x2="41.6" y2="2.4927" gradientTransform="matrix(1 0 0 -1 0 31.4806)">
					<stop  offset="0" style="stop-color:#FFFFFF"/>
					<stop  offset="1" style="stop-color:#E21E26"/>
				</linearGradient>
				<path class="st34" d="M82.7,29.1c0,0.8-0.6,1.4-1.4,1.4H1.9c-0.8,0-1.4-0.6-1.4-1.4V1.9c0-0.8,0.6-1.4,1.4-1.4h79.3
					c0.8,0,1.4,0.6,1.4,1.4L82.7,29.1L82.7,29.1z"/>
				<path class="st8" d="M82.7,29.1c0,0.8-0.6,1.4-1.4,1.4H1.9c-0.8,0-1.4-0.6-1.4-1.4V1.9c0-0.8,0.6-1.4,1.4-1.4h79.3
					c0.8,0,1.4,0.6,1.4,1.4L82.7,29.1L82.7,29.1z"/>
			</g>
			<g>
				<text transform="matrix(1 0 0 1 30.3977 18.2264)" class="st9 st5 st6">more ...</text>
			</g>
			<g>
				<g>
					<path d="M28.5,26.9c0,0.8-0.6,1.4-1.4,1.4H4.4c-0.8,0-1.4-0.6-1.4-1.4V4.2c0-0.8,0.6-1.4,1.4-1.4h22.7c0.8,0,1.4,0.6,1.4,1.4
						V26.9z"/>
				</g>
			</g>
		</g>
	</g>
	<g id="Layer_4_2_" class="st1">
		<g>
			<g>
				
					<linearGradient id="SVGID_13_" gradientUnits="userSpaceOnUse" x1="41.6" y1="39.4927" x2="41.6" y2="2.4927" gradientTransform="matrix(1 0 0 -1 0 31.4806)">
					<stop  offset="0" style="stop-color:#FFFFFF"/>
					<stop  offset="1" style="stop-color:#E21E26"/>
				</linearGradient>
				<path class="st35" d="M82.7,29.1c0,0.8-0.6,1.4-1.4,1.4H1.9c-0.8,0-1.4-0.6-1.4-1.4V1.9c0-0.8,0.6-1.4,1.4-1.4h79.3
					c0.8,0,1.4,0.6,1.4,1.4L82.7,29.1L82.7,29.1z"/>
				<path class="st8" d="M82.7,29.1c0,0.8-0.6,1.4-1.4,1.4H1.9c-0.8,0-1.4-0.6-1.4-1.4V1.9c0-0.8,0.6-1.4,1.4-1.4h79.3
					c0.8,0,1.4,0.6,1.4,1.4L82.7,29.1L82.7,29.1z"/>
			</g>
			<g>
				<text transform="matrix(1 0 0 1 30.3977 18.2264)" class="st9 st5 st6">more ...</text>
			</g>
			<g>
				<g>
					<path d="M28.5,26.9c0,0.8-0.6,1.4-1.4,1.4H4.4c-0.8,0-1.4-0.6-1.4-1.4V4.2c0-0.8,0.6-1.4,1.4-1.4h22.7c0.8,0,1.4,0.6,1.4,1.4
						V26.9z"/>
				</g>
			</g>
		</g>
	</g>
	<g class="st1">
		<path class="st17" d="M10.5,6.9h5.4c3.6,0,6.2,1.1,6.2,4.4v0.7c0,1.6-0.8,3.1-2,3.6c1.4,0.6,2.3,2.1,2.3,3.8V20
			c0,3.1-2.6,4.5-6.5,4.5h-3.1c0,0-2.4,0-2.4-1.4V6.9z M13.2,9v5.6h2.9c2.4,0,3.3-1,3.3-3c0-2-1.1-2.6-3.5-2.6H13.2z M13.2,16.6v5.8
			h2.7c2.6,0,3.7-0.8,3.7-2.8c0-1.9-1.1-3-3.5-3H13.2z"/>
	</g>
</g>
</svg>
