<?xml version="1.0" encoding="utf-8"?>
<!-- Generator: Adobe Illustrator 22.1.0, SVG Export Plug-In . SVG Version: 6.00 Build 0)  -->
<svg version="1.1" xmlns="http://www.w3.org/2000/svg" xmlns:xlink="http://www.w3.org/1999/xlink" x="0px" y="0px"
	 viewBox="0 0 73 74.3" style="enable-background:new 0 0 73 74.3;" xml:space="preserve">
<style type="text/css">
	.st0{fill:none;stroke:#808080;stroke-width:3.31;stroke-miterlimit:10;}
	.st1{display:none;}
	.st2{display:inline;fill:none;stroke:#CCCCCC;stroke-width:3.31;stroke-miterlimit:10;}
	.st3{display:inline;fill:none;stroke:#808080;stroke-width:3.31;stroke-miterlimit:10;}
	.st4{display:inline;fill:none;stroke:#000000;stroke-width:3.31;stroke-miterlimit:10;}
	.st5{display:inline;}
	.st6{fill:#FFFFFF;stroke:#B3B3B3;stroke-width:3.4652;stroke-miterlimit:10;}
	.st7{fill:none;stroke:#B3B3B3;stroke-width:2.8684;stroke-miterlimit:10;}
	.st8{fill:none;stroke:#FF99FF;stroke-width:2.8684;stroke-miterlimit:10;}
	.st9{fill:none;stroke:#B3B3B3;stroke-width:3.4652;stroke-miterlimit:10;}
	.st10{fill:#FFFFFF;stroke:#E6E6E6;stroke-width:3.4652;stroke-miterlimit:10;}
	.st11{fill:none;stroke:#E6E6E6;stroke-width:2.8684;stroke-miterlimit:10;}
	.st12{fill:none;stroke:#FFCCCC;stroke-width:2.8684;stroke-miterlimit:10;}
	.st13{fill:none;stroke:#E6E6E6;stroke-width:3.4652;stroke-miterlimit:10;}
	.st14{fill:#FFFFFF;stroke:#999999;stroke-width:3.4652;stroke-miterlimit:10;}
	.st15{fill:none;stroke:#999999;stroke-width:2.8684;stroke-miterlimit:10;}
	.st16{fill:none;stroke:#FF99CC;stroke-width:2.8684;stroke-miterlimit:10;}
	.st17{fill:none;stroke:#999999;stroke-width:3.4652;stroke-miterlimit:10;}
	.st18{fill:#FFFFFF;stroke:#000000;stroke-width:3.4652;stroke-miterlimit:10;}
	.st19{fill:none;stroke:#000000;stroke-width:2.8684;stroke-miterlimit:10;}
	.st20{fill:none;stroke:#EE0000;stroke-width:2.8684;stroke-miterlimit:10;}
	.st21{fill:none;stroke:#000000;stroke-width:3.4652;stroke-miterlimit:10;}
</style>
<g id="bundle_unselected">
	<title>Artboard 1</title>
	<rect x="1.7" y="1.7" class="st0" width="69.5" height="70.9"/>
	<line class="st0" x1="1.1" y1="72.6" x2="63.6" y2="72.6"/>
	<line class="st0" x1="9.4" y1="65" x2="71.9" y2="65"/>
	<line class="st0" x1="1.1" y1="57.3" x2="63.6" y2="57.3"/>
	<line class="st0" x1="9.4" y1="49.7" x2="71.9" y2="49.7"/>
	<line class="st0" x1="1.1" y1="42.1" x2="63.6" y2="42.1"/>
	<line class="st0" x1="9.4" y1="34.5" x2="71.9" y2="34.5"/>
	<line class="st0" x1="1.1" y1="26.9" x2="63.6" y2="26.9"/>
	<rect x="1.7" y="1.7" class="st0" width="69.5" height="70.9"/>
</g>
<g id="_x32__over" class="st1">
	<title>Artboard 1</title>
	<rect x="1.7" y="1.7" class="st2" width="69.5" height="70.9"/>
	<line class="st2" x1="1.1" y1="72.6" x2="63.6" y2="72.6"/>
	<line class="st2" x1="9.4" y1="65" x2="71.9" y2="65"/>
	<line class="st2" x1="1.1" y1="57.3" x2="63.6" y2="57.3"/>
	<line class="st2" x1="9.4" y1="49.7" x2="71.9" y2="49.7"/>
	<line class="st2" x1="1.1" y1="42.1" x2="63.6" y2="42.1"/>
	<line class="st2" x1="9.4" y1="34.5" x2="71.9" y2="34.5"/>
	<line class="st2" x1="1.1" y1="26.9" x2="63.6" y2="26.9"/>
	<rect x="1.7" y="1.7" class="st2" width="69.5" height="70.9"/>
</g>
<g id="_x33__down" class="st1">
	<title>Artboard 1</title>
	<rect x="1.7" y="1.7" class="st3" width="69.5" height="70.9"/>
	<line class="st3" x1="1.1" y1="72.6" x2="63.6" y2="72.6"/>
	<line class="st3" x1="9.4" y1="65" x2="71.9" y2="65"/>
	<line class="st3" x1="1.1" y1="57.3" x2="63.6" y2="57.3"/>
	<line class="st3" x1="9.4" y1="49.7" x2="71.9" y2="49.7"/>
	<line class="st3" x1="1.1" y1="42.1" x2="63.6" y2="42.1"/>
	<line class="st3" x1="9.4" y1="34.5" x2="71.9" y2="34.5"/>
	<line class="st3" x1="1.1" y1="26.9" x2="63.6" y2="26.9"/>
	<rect x="1.7" y="1.7" class="st3" width="69.5" height="70.9"/>
</g>
<g id="_x34__selected" class="st1">
	<title>Artboard 1</title>
	<rect x="1.7" y="1.7" class="st4" width="69.5" height="70.9"/>
	<line class="st4" x1="1.1" y1="72.6" x2="63.6" y2="72.6"/>
	<line class="st4" x1="9.4" y1="65" x2="71.9" y2="65"/>
	<line class="st4" x1="1.1" y1="57.3" x2="63.6" y2="57.3"/>
	<line class="st4" x1="9.4" y1="49.7" x2="71.9" y2="49.7"/>
	<line class="st4" x1="1.1" y1="42.1" x2="63.6" y2="42.1"/>
	<line class="st4" x1="9.4" y1="34.5" x2="71.9" y2="34.5"/>
	<line class="st4" x1="1.1" y1="26.9" x2="63.6" y2="26.9"/>
	<rect x="1.7" y="1.7" class="st4" width="69.5" height="70.9"/>
</g>
<g id="_x3D__x3D__x3D__x3D__x3D__x3D__x3D__x3D__x3D__x3D__x3D_">
</g>
<g id="plus_unselected" class="st1">
	<g class="st5">
		<rect x="1.8" y="1.7" class="st6" width="69.5" height="70.9"/>
		<line class="st7" x1="1.1" y1="72.6" x2="63.6" y2="72.6"/>
		<line class="st7" x1="9.4" y1="65" x2="71.9" y2="65"/>
		<line class="st7" x1="1.1" y1="57.3" x2="63.6" y2="57.3"/>
		<line class="st7" x1="9.4" y1="49.7" x2="71.9" y2="49.7"/>
		<line class="st7" x1="1.1" y1="42.1" x2="63.6" y2="42.1"/>
		<line class="st7" x1="9.4" y1="34.5" x2="71.9" y2="34.5"/>
		<line class="st7" x1="1.1" y1="26.8" x2="63.6" y2="26.8"/>
		<line class="st8" x1="9.4" y1="18.5" x2="71.9" y2="18.5"/>
		<line class="st8" x1="1.1" y1="10.9" x2="63.6" y2="10.9"/>
		<rect x="1.8" y="1.7" class="st9" width="69.5" height="70.9"/>
	</g>
</g>
<g id="_x32__over_1_" class="st1">
	<g class="st5">
		<rect x="1.8" y="1.7" class="st10" width="69.5" height="70.9"/>
		<line class="st11" x1="1.1" y1="72.6" x2="63.6" y2="72.6"/>
		<line class="st11" x1="9.4" y1="65" x2="71.9" y2="65"/>
		<line class="st11" x1="1.1" y1="57.3" x2="63.6" y2="57.3"/>
		<line class="st11" x1="9.4" y1="49.7" x2="71.9" y2="49.7"/>
		<line class="st11" x1="1.1" y1="42.1" x2="63.6" y2="42.1"/>
		<line class="st11" x1="9.4" y1="34.5" x2="71.9" y2="34.5"/>
		<line class="st11" x1="1.1" y1="26.8" x2="63.6" y2="26.8"/>
		<line class="st12" x1="9.4" y1="18.5" x2="71.9" y2="18.5"/>
		<line class="st12" x1="1.1" y1="10.9" x2="63.6" y2="10.9"/>
		<rect x="1.8" y="1.7" class="st13" width="69.5" height="70.9"/>
	</g>
</g>
<g id="_x33__down_1_" class="st1">
	<g class="st5">
		<rect x="1.8" y="1.7" class="st14" width="69.5" height="70.9"/>
		<line class="st15" x1="1.1" y1="72.6" x2="63.6" y2="72.6"/>
		<line class="st15" x1="9.4" y1="65" x2="71.9" y2="65"/>
		<line class="st15" x1="1.1" y1="57.3" x2="63.6" y2="57.3"/>
		<line class="st15" x1="9.4" y1="49.7" x2="71.9" y2="49.7"/>
		<line class="st15" x1="1.1" y1="42.1" x2="63.6" y2="42.1"/>
		<line class="st15" x1="9.4" y1="34.5" x2="71.9" y2="34.5"/>
		<line class="st15" x1="1.1" y1="26.8" x2="63.6" y2="26.8"/>
		<line class="st16" x1="9.4" y1="18.5" x2="71.9" y2="18.5"/>
		<line class="st16" x1="1.1" y1="10.9" x2="63.6" y2="10.9"/>
		<rect x="1.8" y="1.7" class="st17" width="69.5" height="70.9"/>
	</g>
</g>
<g id="plus_selected" class="st1">
	<g class="st5">
		<rect x="1.8" y="1.7" class="st18" width="69.5" height="70.9"/>
		<line class="st19" x1="1.1" y1="72.6" x2="63.6" y2="72.6"/>
		<line class="st19" x1="9.4" y1="65" x2="71.9" y2="65"/>
		<line class="st19" x1="1.1" y1="57.3" x2="63.6" y2="57.3"/>
		<line class="st19" x1="9.4" y1="49.7" x2="71.9" y2="49.7"/>
		<line class="st19" x1="1.1" y1="42.1" x2="63.6" y2="42.1"/>
		<line class="st19" x1="9.4" y1="34.5" x2="71.9" y2="34.5"/>
		<line class="st19" x1="1.1" y1="26.8" x2="63.6" y2="26.8"/>
		<line class="st20" x1="9.4" y1="18.5" x2="71.9" y2="18.5"/>
		<line class="st20" x1="1.1" y1="10.9" x2="63.6" y2="10.9"/>
		<rect x="1.8" y="1.7" class="st21" width="69.5" height="70.9"/>
	</g>
</g>
</svg>
