<?xml version="1.0" encoding="utf-8"?>
<!-- Generator: Adobe Illustrator 22.1.0, SVG Export Plug-In . SVG Version: 6.00 Build 0)  -->
<svg version="1.1" xmlns="http://www.w3.org/2000/svg" xmlns:xlink="http://www.w3.org/1999/xlink" x="0px" y="0px"
	 viewBox="0 0 25.5 25.5" style="enable-background:new 0 0 25.5 25.5;" xml:space="preserve">
<style type="text/css">
	.st0{display:none;}
	.st1{display:inline;}
	.st2{fill:#F2C860;}
	.st3{fill:none;stroke:#A88734;stroke-miterlimit:10;}
	.st4{fill:#FF9900;}
	.st5{fill:url(#SVGID_1_);}
	.st6{fill:none;stroke:#FF6600;stroke-miterlimit:10;}
	.st7{fill:#F9F9F9;}
	.st8{font-family:'Aller-Bold';}
	.st9{font-size:31px;}
	.st10{fill:url(#SVGID_2_);}
	.st11{fill:#E21E26;}
	.st12{fill:url(#SVGID_3_);}
	.st13{fill:#FCFCFC;}
	.st14{font-family:'DiavloMedium-Regular';}
	.st15{font-size:25px;}
	.st16{fill:#7F8084;}
	.st17{enable-background:new    ;}
	.st18{fill:#A8C4CB;}
	.st19{fill:url(#SVGID_4_);}
	.st20{fill:url(#SVGID_5_);}
	.st21{fill:url(#SVGID_6_);}
	.st22{fill:#FFFFFF;}
	.st23{fill:url(#SVGID_7_);}
	.st24{display:inline;enable-background:new    ;}
	.st25{fill:#DCE1E2;}
	.st26{fill:url(#SVGID_8_);}
	.st27{fill:url(#SVGID_9_);}
	.st28{fill:url(#SVGID_10_);}
	.st29{fill:#6B6B6B;}
	.st30{fill:url(#SVGID_11_);}
	.st31{fill:url(#SVGID_12_);}
</style>
<g id="shop" class="st0">
	<g id="Layer_2_1_" class="st1">
		<title>Artboard 1</title>
		<g>
			<g>
				<path class="st2" d="M79.7,26.3c0,0.8-0.6,1.4-1.4,1.4H-1.1c-0.8,0-1.4-0.6-1.4-1.4V-0.9c0-0.8,0.6-1.4,1.4-1.4h79.3
					c0.8,0,1.4,0.6,1.4,1.4L79.7,26.3L79.7,26.3z"/>
				<path class="st3" d="M79.7,26.3c0,0.8-0.6,1.4-1.4,1.4H-1.1c-0.8,0-1.4-0.6-1.4-1.4V-0.9c0-0.8,0.6-1.4,1.4-1.4h79.3
					c0.8,0,1.4,0.6,1.4,1.4L79.7,26.3L79.7,26.3z"/>
			</g>
			<g>
				<g>
					<path d="M25.5,24.1c0,0.8-0.6,1.4-1.4,1.4H1.4c-0.8,0-1.4-0.6-1.4-1.4V1.4C0,0.6,0.6,0,1.4,0h22.7c0.8,0,1.4,0.6,1.4,1.4V24.1z
						"/>
				</g>
				<g>
					<g>
						<path class="st4" d="M12.7,24c-3,0-5.6-1-8-2.8c-0.8-0.6-1.6-1.4-2.3-2.2l-0.1-0.1c0-0.1,0-0.2,0-0.3c0.1,0,0.2,0,0.3,0
							c0.6,0.4,1.2,0.8,1.9,1.2c1.9,1.1,3.9,1.7,6,2.1c1.1,0.2,2.2,0.2,3.4,0.2c2.1-0.1,4.2-0.7,6.1-1.6c0.3-0.1,0.6-0.3,0.9-0.5
							c0.1-0.1,0.3-0.1,0.4,0s0.1,0.3,0,0.5c-0.1,0.1-0.1,0.2-0.2,0.2c-1.7,1.5-3.8,2.5-6,2.9C14.3,23.9,13.5,24,12.7,24L12.7,24
							 M21.1,19.2c-0.4,0-0.9,0.1-1.4,0.1c-0.1,0-0.2,0-0.3,0c-0.1,0-0.1-0.1-0.1-0.2l0.2-0.1c0.5-0.3,1.1-0.5,1.7-0.6
							s1.1-0.1,1.7,0.1c0.4,0.1,0.5,0.1,0.4,0.6c-0.1,1.1-0.4,2.2-1.3,3l-0.2,0.1h-0.2V22c0.2-0.6,0.4-1.2,0.6-1.8
							c0-0.1,0.1-0.2,0.1-0.4c0-0.4-0.1-0.6-0.5-0.7C21.5,19.2,21.3,19.2,21.1,19.2 M14.6,10.3c-0.8,0-1.6,0-2.3,0.3
							c-0.4,0.1-0.7,0.3-1.1,0.5c-0.9,0.6-1.1,1.5-1,2.5c0,0.5,0.2,1,0.6,1.4c0.6,0.5,1.5,0.6,2.2,0.2c0.7-0.4,1-1,1.3-1.7
							C14.7,12.4,14.5,11.4,14.6,10.3 M15.2,16.3c-0.3,0.3-0.6,0.5-0.8,0.8c-1.1,0.9-2.3,1.4-3.7,1.4c-0.8,0-1.5,0-2.2-0.3
							c-1.3-0.5-2.1-1.4-2.4-2.7c-0.4-1.6-0.3-3.2,0.7-4.6c0.7-1.1,1.7-1.7,2.9-2.1c1-0.3,2.1-0.5,3.1-0.6C13.4,8.1,14,8.1,14.6,8
							c0-0.7,0.1-1.5-0.2-2.2c-0.2-0.6-0.7-0.9-1.3-1.1c-1-0.2-2,0.1-2.5,0.9c-0.2,0.3-0.3,0.6-0.4,0.9C10.1,6.9,9.9,7.1,9.4,7
							C8.5,6.8,7.7,6.7,6.8,6.6c-0.4,0-0.6-0.3-0.5-0.7C6.7,4,7.8,2.7,9.5,2c2.1-0.8,4.2-0.8,6.3-0.1c1.7,0.6,2.7,1.9,2.8,3.8
							c0,0.6,0,1.3,0.1,1.9c0,1.6,0,3.3,0,4.9c0,0.9,0.2,1.7,0.8,2.4c0.1,0.2,0.3,0.3,0.4,0.5c0.2,0.3,0.1,0.5-0.1,0.8
							c-0.7,0.6-1.4,1.2-2.1,1.8c-0.4,0.3-0.6,0.3-1,0c-0.5-0.4-0.9-0.9-1.3-1.5C15.3,16.5,15.2,16.4,15.2,16.3"/>
					</g>
				</g>
				<text transform="matrix(1 0 0 1 27.3977 15.4263)" style="font-family:'BubblegumSans-Regular'; font-size:12px;">shopping</text>
			</g>
		</g>
	</g>
	<g id="Layer_4">
		<g class="st1">
			<g>
				
					<linearGradient id="SVGID_1_" gradientUnits="userSpaceOnUse" x1="38.6" y1="36.6925" x2="38.6" y2="-0.3075" gradientTransform="matrix(1 0 0 -1 0 25.8803)">
					<stop  offset="0" style="stop-color:#FFFFFF"/>
					<stop  offset="1" style="stop-color:#E21E26"/>
				</linearGradient>
				<path class="st5" d="M79.7,26.3c0,0.8-0.6,1.4-1.4,1.4H-1.1c-0.8,0-1.4-0.6-1.4-1.4V-0.9c0-0.8,0.6-1.4,1.4-1.4h79.3
					c0.8,0,1.4,0.6,1.4,1.4L79.7,26.3L79.7,26.3z"/>
				<path class="st6" d="M79.7,26.3c0,0.8-0.6,1.4-1.4,1.4H-1.1c-0.8,0-1.4-0.6-1.4-1.4V-0.9c0-0.8,0.6-1.4,1.4-1.4h79.3
					c0.8,0,1.4,0.6,1.4,1.4L79.7,26.3L79.7,26.3z"/>
			</g>
			<g>
				<text transform="matrix(1 0 0 1 27.3977 15.4263)" class="st22" style="font-family:'BubblegumSans-Regular'; font-size:12px;">more ...</text>
			</g>
			<g>
				<g>
					<path d="M25.5,24.1c0,0.8-0.6,1.4-1.4,1.4H1.4c-0.8,0-1.4-0.6-1.4-1.4V1.4C0,0.6,0.6,0,1.4,0h22.7c0.8,0,1.4,0.6,1.4,1.4V24.1z
						"/>
				</g>
				<text transform="matrix(1 0 0 1 3.5219 24.0594)" class="st7 st8 st9">B</text>
			</g>
		</g>
	</g>
</g>
<g id="more" class="st0">
	<title>Artboard 1</title>
	<g class="st1">
		<linearGradient id="SVGID_2_" gradientUnits="userSpaceOnUse" x1="38.6" y1="-5.8197" x2="38.6" y2="27.6813">
			<stop  offset="0" style="stop-color:#FFFFFF"/>
			<stop  offset="1" style="stop-color:#E21E26"/>
			<stop  offset="1" style="stop-color:#000000"/>
		</linearGradient>
		<path class="st10" d="M79.7,26.3c0,0.8-0.6,1.4-1.4,1.4H-1.1c-0.8,0-1.4-0.6-1.4-1.4V-0.9c0-0.8,0.6-1.4,1.4-1.4h79.3
			c0.8,0,1.4,0.6,1.4,1.4L79.7,26.3L79.7,26.3z"/>
		<path class="st11" d="M78.3,28.2H-1.1c-1.1,0-1.9-0.8-1.9-1.9V-0.9C-3-2-2.2-2.8-1.1-2.8h79.3c1.1,0,1.9,0.8,1.9,1.9v26.7h0.1v0.5
			C80.2,27.4,79.4,28.2,78.3,28.2z M-1.1-1.8C-1.6-1.8-2-1.4-2-0.9v27.2c0,0.5,0.4,0.9,0.9,0.9h79.4c0.4,0,0.7-0.2,0.8-0.5V-0.9
			c0-0.5-0.4-0.9-0.9-0.9H-1.1z"/>
	</g>
	
		<text transform="matrix(1 0 0 1 27.3977 15.4263)" style="display:inline;fill:#FFFFFF; font-family:'BubblegumSans-Regular'; font-size:12px;">more ...</text>
	<g id="Layer_4_1_">
		<g class="st1">
			<g>
				
					<linearGradient id="SVGID_3_" gradientUnits="userSpaceOnUse" x1="38.6" y1="36.6925" x2="38.6" y2="-0.3075" gradientTransform="matrix(1 0 0 -1 0 25.8803)">
					<stop  offset="0" style="stop-color:#FFFFFF"/>
					<stop  offset="1" style="stop-color:#E21E26"/>
				</linearGradient>
				<path class="st12" d="M79.7,26.3c0,0.8-0.6,1.4-1.4,1.4H-1.1c-0.8,0-1.4-0.6-1.4-1.4V-0.9c0-0.8,0.6-1.4,1.4-1.4h79.3
					c0.8,0,1.4,0.6,1.4,1.4L79.7,26.3L79.7,26.3z"/>
				<path class="st6" d="M79.7,26.3c0,0.8-0.6,1.4-1.4,1.4H-1.1c-0.8,0-1.4-0.6-1.4-1.4V-0.9c0-0.8,0.6-1.4,1.4-1.4h79.3
					c0.8,0,1.4,0.6,1.4,1.4L79.7,26.3L79.7,26.3z"/>
			</g>
			<g>
				<text transform="matrix(1 0 0 1 27.3977 15.4263)" class="st22" style="font-family:'BubblegumSans-Regular'; font-size:12px;">more ...</text>
			</g>
			<g>
				<g>
					<path d="M25.5,24.1c0,0.8-0.6,1.4-1.4,1.4H1.4c-0.8,0-1.4-0.6-1.4-1.4V1.4C0,0.6,0.6,0,1.4,0h22.7c0.8,0,1.4,0.6,1.4,1.4V24.1z
						"/>
				</g>
				<text transform="matrix(1 0 0 1 3.5219 24.0594)" class="st7 st8 st9">B</text>
			</g>
		</g>
	</g>
	<g class="st1">
		<g>
			<path d="M25.5,24.1c0,0.8-0.6,1.4-1.4,1.4H1.4c-0.8,0-1.4-0.6-1.4-1.4V1.4C0,0.6,0.6,0,1.4,0h22.7c0.8,0,1.4,0.6,1.4,1.4V24.1z"
				/>
		</g>
		<text transform="matrix(1 0 0 1 5.6249 21.7265)" class="st13 st14 st15">B</text>
	</g>
</g>
<g id="_x3D__x3D__x3D__x3D__x3D__x3D__x3D__x3D__x3D__x3D__x3D__x3D__x3D__x3D__1_" class="st0">
</g>
<g id="shop_unselected" class="st0">
	<g id="Layer_2_3_" class="st1">
		<title>Artboard 1</title>
		<g>
			<g>
				<path class="st2" d="M79.7,26.3c0,0.8-0.6,1.4-1.4,1.4H-1.1c-0.8,0-1.4-0.6-1.4-1.4V-0.9c0-0.8,0.6-1.4,1.4-1.4h79.3
					c0.8,0,1.4,0.6,1.4,1.4L79.7,26.3L79.7,26.3z"/>
				<path class="st3" d="M79.7,26.3c0,0.8-0.6,1.4-1.4,1.4H-1.1c-0.8,0-1.4-0.6-1.4-1.4V-0.9c0-0.8,0.6-1.4,1.4-1.4h79.3
					c0.8,0,1.4,0.6,1.4,1.4L79.7,26.3L79.7,26.3z"/>
			</g>
			<g>
				<g>
					<path class="st16" d="M25.5,24.1c0,0.8-0.6,1.4-1.4,1.4H1.4c-0.8,0-1.4-0.6-1.4-1.4V1.4C0,0.6,0.6,0,1.4,0h22.7
						c0.8,0,1.4,0.6,1.4,1.4V24.1z"/>
				</g>
				<g>
					<g>
						<path class="st4" d="M12.7,24c-3,0-5.6-1-8-2.8c-0.8-0.6-1.6-1.4-2.3-2.2l-0.1-0.1c0-0.1,0-0.2,0-0.3c0.1,0,0.2,0,0.3,0
							c0.6,0.4,1.2,0.8,1.9,1.2c1.9,1.1,3.9,1.7,6,2.1c1.1,0.2,2.2,0.2,3.4,0.2c2.1-0.1,4.2-0.7,6.1-1.6c0.3-0.1,0.6-0.3,0.9-0.5
							c0.1-0.1,0.3-0.1,0.4,0s0.1,0.3,0,0.5c-0.1,0.1-0.1,0.2-0.2,0.2c-1.7,1.5-3.8,2.5-6,2.9C14.3,23.9,13.5,24,12.7,24L12.7,24
							 M21.1,19.2c-0.4,0-0.9,0.1-1.4,0.1c-0.1,0-0.2,0-0.3,0c-0.1,0-0.1-0.1-0.1-0.2l0.2-0.1c0.5-0.3,1.1-0.5,1.7-0.6
							s1.1-0.1,1.7,0.1c0.4,0.1,0.5,0.1,0.4,0.6c-0.1,1.1-0.4,2.2-1.3,3l-0.2,0.1h-0.2V22c0.2-0.6,0.4-1.2,0.6-1.8
							c0-0.1,0.1-0.2,0.1-0.4c0-0.4-0.1-0.6-0.5-0.7C21.5,19.2,21.3,19.2,21.1,19.2 M14.6,10.3c-0.8,0-1.6,0-2.3,0.3
							c-0.4,0.1-0.7,0.3-1.1,0.5c-0.9,0.6-1.1,1.5-1,2.5c0,0.5,0.2,1,0.6,1.4c0.6,0.5,1.5,0.6,2.2,0.2c0.7-0.4,1-1,1.3-1.7
							C14.7,12.4,14.5,11.4,14.6,10.3 M15.2,16.3c-0.3,0.3-0.6,0.5-0.8,0.8c-1.1,0.9-2.3,1.4-3.7,1.4c-0.8,0-1.5,0-2.2-0.3
							c-1.3-0.5-2.1-1.4-2.4-2.7c-0.4-1.6-0.3-3.2,0.7-4.6c0.7-1.1,1.7-1.7,2.9-2.1c1-0.3,2.1-0.5,3.1-0.6C13.4,8.1,14,8.1,14.6,8
							c0-0.7,0.1-1.5-0.2-2.2c-0.2-0.6-0.7-0.9-1.3-1.1c-1-0.2-2,0.1-2.5,0.9c-0.2,0.3-0.3,0.6-0.4,0.9C10.1,6.9,9.9,7.1,9.4,7
							C8.5,6.8,7.7,6.7,6.8,6.6c-0.4,0-0.6-0.3-0.5-0.7C6.7,4,7.8,2.7,9.5,2c2.1-0.8,4.2-0.8,6.3-0.1c1.7,0.6,2.7,1.9,2.8,3.8
							c0,0.6,0,1.3,0.1,1.9c0,1.6,0,3.3,0,4.9c0,0.9,0.2,1.7,0.8,2.4c0.1,0.2,0.3,0.3,0.4,0.5c0.2,0.3,0.1,0.5-0.1,0.8
							c-0.7,0.6-1.4,1.2-2.1,1.8c-0.4,0.3-0.6,0.3-1,0c-0.5-0.4-0.9-0.9-1.3-1.5C15.3,16.5,15.2,16.4,15.2,16.3"/>
					</g>
				</g>
				<g class="st17">
					<path class="st16" d="M31.4,14c0,0.4-0.2,0.8-0.6,1.2s-0.8,0.6-1.3,0.7c-0.5,0.1-0.9,0.2-1.2,0.2c0,0-0.1,0-0.2-0.1
						c-0.2-0.3-0.3-0.6-0.3-0.9V15c0.6,0,1.1-0.1,1.4-0.3s0.5-0.4,0.5-0.7c0-0.2-0.1-0.3-0.3-0.5c-0.2-0.2-0.4-0.3-0.7-0.4
						s-0.5-0.3-0.7-0.5s-0.3-0.4-0.3-0.7c0-0.5,0.3-0.9,0.9-1.3c0.6-0.4,1.3-0.6,1.9-0.6c0.1,0,0.2,0.1,0.3,0.3
						c0.1,0.2,0.2,0.4,0.2,0.7c-0.2,0-0.4,0-0.7,0.1c-0.6,0.2-0.9,0.4-0.9,0.7c0,0.2,0.3,0.5,0.9,0.9c0.2,0.1,0.5,0.3,0.7,0.6
						S31.4,13.8,31.4,14z"/>
					<path class="st16" d="M33.2,13.1l0-4.2c0-0.8,0-1.2,0.1-1.2c0.1-0.1,0.3-0.2,0.5-0.3c0.2-0.1,0.4-0.1,0.6-0.1s0.3,0,0.3,0
						c0,0.1,0,0.6,0,1.6c0,1,0,1.6,0,1.9V11c0,0,0,0.1,0,0.1l0.2-0.2c0.1-0.1,0.3-0.2,0.5-0.3c0.3-0.1,0.5-0.2,0.8-0.2
						s0.4,0,0.6,0.1s0.3,0.2,0.4,0.3c0.1,0.1,0.2,0.3,0.3,0.5s0.1,0.4,0.2,0.6s0.1,0.4,0.1,0.7c0,0.4,0,1,0,1.6l0,1.6
						c0,0.1-0.2,0.1-0.4,0.2c-0.2,0-0.5,0.1-0.6,0.1l-0.4-0.1c0.1-0.7,0.1-1.4,0.1-2.1s0-1.2-0.1-1.5s-0.3-0.5-0.6-0.5
						c-0.2,0-0.4,0.1-0.5,0.2c-0.2,0.2-0.3,0.3-0.3,0.5l-0.1,0.2c0,0.6,0,1.1,0,1.8s0,1-0.1,1c-0.2,0.2-0.7,0.3-1.3,0.3
						c-0.1,0-0.1,0-0.1,0C33.2,15.4,33.2,14.5,33.2,13.1z"/>
					<path class="st16" d="M43.9,14.9c-0.5,0.6-1.1,0.8-1.9,0.8s-1.4-0.2-1.9-0.7c-0.4-0.5-0.7-1.1-0.7-1.9c0-0.8,0.3-1.5,0.8-2.1
						c0.6-0.6,1.3-0.9,2.3-0.9c0.4,0,0.6,0,0.6,0.1c0,0,0,0.1,0,0.2s0,0.3,0,0.4c0.1,0,0.3,0.1,0.5,0.2c0.2,0.1,0.3,0.3,0.5,0.4
						c0.1,0.1,0.2,0.3,0.3,0.6c0.1,0.3,0.1,0.6,0.1,0.9C44.6,13.7,44.4,14.3,43.9,14.9z M42.8,12.1c-0.2-0.1-0.4-0.2-0.5-0.2h-0.1
						c0,0,0-0.1,0-0.2c0-0.1,0-0.2,0-0.3c-0.3,0-0.6,0.1-0.9,0.4c-0.3,0.3-0.4,0.7-0.4,1.2c0,0.6,0.2,1.1,0.6,1.3
						c0.2,0.1,0.4,0.1,0.6,0.1c0.3,0,0.5-0.1,0.8-0.4c0.2-0.2,0.4-0.6,0.4-1.1S43.1,12.2,42.8,12.1z"/>
					<path class="st16" d="M47.9,9.6l0,0.6c2.1,0,3.2,0.8,3.2,2.5c0,0.4-0.1,0.9-0.3,1.2c-0.2,0.4-0.4,0.7-0.7,0.9s-0.6,0.4-0.9,0.5
						c-0.5,0.2-1,0.4-1.4,0.4v0.2c0,1.2,0,2,0.1,2.4c-0.1,0.1-0.3,0.2-0.5,0.2c-0.3,0.1-0.5,0.1-0.6,0.1s-0.2,0-0.2,0
						c0-0.3,0-0.8,0-1.6l0.1-5.6c0-0.7,0-1.1,0-1.4c0.1-0.1,0.3-0.2,0.5-0.3c0.2-0.1,0.4-0.1,0.6-0.1S47.9,9.6,47.9,9.6z M47.8,13.7
						l0,0.6c0.5,0,0.9-0.1,1.3-0.4s0.6-0.7,0.6-1.2c0-0.9-0.6-1.3-1.8-1.3l0,0.2c0,0.1,0,0.2,0,0.4L47.8,13.7z"/>
					<path class="st16" d="M54.4,9.6l0,0.6c2.1,0,3.2,0.8,3.2,2.5c0,0.4-0.1,0.9-0.3,1.2c-0.2,0.4-0.4,0.7-0.7,0.9
						c-0.3,0.2-0.6,0.4-0.9,0.5c-0.5,0.2-1,0.4-1.4,0.4v0.2c0,1.2,0,2,0.1,2.4c-0.1,0.1-0.3,0.2-0.5,0.2c-0.3,0.1-0.5,0.1-0.6,0.1
						c-0.2,0-0.2,0-0.2,0c0-0.3,0-0.8,0-1.6l0.1-5.6c0-0.7,0-1.1,0-1.4c0.1-0.1,0.3-0.2,0.5-0.3c0.2-0.1,0.4-0.1,0.6-0.1
						S54.4,9.6,54.4,9.6z M54.3,13.7l0,0.6c0.5,0,0.9-0.1,1.3-0.4s0.6-0.7,0.6-1.2c0-0.9-0.6-1.3-1.8-1.3l0,0.2c0,0.1,0,0.2,0,0.4
						L54.3,13.7z"/>
					<path class="st16" d="M60.4,8.3c0.2,0,0.4,0.1,0.5,0.2c0.1,0.1,0.2,0.3,0.2,0.6c0,0.2-0.1,0.4-0.3,0.6s-0.4,0.2-0.6,0.2
						c-0.2,0-0.4-0.1-0.5-0.2s-0.2-0.3-0.2-0.6c0-0.2,0.1-0.4,0.3-0.6C60,8.3,60.2,8.3,60.4,8.3z M61,11.3l0,1.9
						c0,0.6,0,1.1,0.1,1.4c0,0.3,0.1,0.6,0.3,0.8c0,0.1-0.2,0.2-0.5,0.4C60.5,15.9,60.2,16,60,16c-0.1,0-0.1-0.1-0.2-0.4
						s-0.1-0.5-0.1-0.7c0-0.2,0-0.9,0-2.2c0-1.2,0-1.9,0.1-2c0.2-0.1,0.5-0.2,1-0.2c0.2,0,0.3,0,0.3,0.1L61,11.3z"/>
					<path class="st16" d="M64.6,12.7l0,0.4v0.9c0,0.9,0,1.3,0,1.3c-0.1,0.1-0.3,0.2-0.5,0.2c-0.3,0.1-0.5,0.1-0.6,0.1s-0.2,0-0.2,0
						c0.1-0.4,0.1-1,0.1-1.8l0-2.7c0-0.5,0-0.8,0.1-0.8c0.1-0.1,0.2-0.2,0.5-0.2c0.2-0.1,0.4-0.1,0.6-0.1c0.2,0,0.3,0,0.3,0.1
						c0,0.2,0,0.4,0,0.6s0,0.3,0,0.3l0,0c0-0.1,0.1-0.1,0.2-0.2s0.3-0.2,0.5-0.3c0.3-0.1,0.5-0.2,0.7-0.2c0.2,0,0.4,0,0.6,0.1
						c0.2,0.1,0.3,0.2,0.4,0.3c0.1,0.1,0.2,0.3,0.3,0.5s0.1,0.4,0.2,0.6s0.1,0.4,0.1,0.8c0,0.4,0,1,0,1.7l0,1.4
						c0,0.1-0.1,0.1-0.4,0.2c-0.3,0.1-0.5,0.1-0.6,0.1l-0.4-0.1c0.1-0.7,0.1-1.4,0.1-2.1c0-0.7,0-1.2-0.1-1.5
						c-0.1-0.3-0.3-0.5-0.5-0.5s-0.5,0.1-0.6,0.2c-0.2,0.1-0.3,0.3-0.3,0.4l-0.1,0.2V12.7z"/>
					<path class="st16" d="M74.1,12.5l0,2.8c0,0.6-0.1,1.2-0.3,1.7c-0.2,0.5-0.4,0.9-0.6,1.1c-0.2,0.3-0.5,0.5-0.8,0.7
						c-0.5,0.3-1,0.4-1.5,0.4c0,0-0.1-0.1-0.1-0.2s-0.1-0.3-0.2-0.5s-0.1-0.4-0.1-0.6h0.2c0.2,0,0.3,0,0.5,0c0.1,0,0.3-0.1,0.5-0.2
						c0.2-0.1,0.4-0.3,0.6-0.5c0.2-0.2,0.3-0.5,0.4-0.9s0.2-0.9,0.2-1.4c0,0,0,0,0,0l0,0c-0.3,0.5-0.9,0.8-1.6,0.8
						c-0.5,0-1-0.2-1.3-0.6c-0.3-0.4-0.5-0.9-0.5-1.4c0-1,0.3-1.8,0.9-2.4s1.5-0.9,2.7-0.9c0.3,0,0.4,0,0.4,0.1c0,0.1,0,0.3,0,0.4
						l0,0.2h0.1c0.3,0,0.4,0,0.5,0.1V12.5z M72.8,11.4l-0.3,0c-0.5,0-0.9,0.2-1.2,0.5c-0.3,0.3-0.4,0.7-0.4,1.2
						c0,0.2,0.1,0.5,0.2,0.6c0.1,0.2,0.4,0.3,0.6,0.3c0.3,0,0.5-0.1,0.7-0.3c0.2-0.2,0.3-0.4,0.3-0.5C72.8,12.3,72.8,11.7,72.8,11.4
						z"/>
				</g>
			</g>
		</g>
	</g>
</g>
<g id="_x32__over" class="st0">
	<g id="Layer_2_2_" class="st1">
		<title>Artboard 1</title>
		<g>
			<g>
				<path class="st2" d="M79.7,26.3c0,0.8-0.6,1.4-1.4,1.4H-1.1c-0.8,0-1.4-0.6-1.4-1.4V-0.9c0-0.8,0.6-1.4,1.4-1.4h79.3
					c0.8,0,1.4,0.6,1.4,1.4L79.7,26.3L79.7,26.3z"/>
				<path class="st3" d="M79.7,26.3c0,0.8-0.6,1.4-1.4,1.4H-1.1c-0.8,0-1.4-0.6-1.4-1.4V-0.9c0-0.8,0.6-1.4,1.4-1.4h79.3
					c0.8,0,1.4,0.6,1.4,1.4L79.7,26.3L79.7,26.3z"/>
			</g>
			<g>
				<g>
					<path class="st18" d="M25.5,24.1c0,0.8-0.6,1.4-1.4,1.4H1.4c-0.8,0-1.4-0.6-1.4-1.4V1.4C0,0.6,0.6,0,1.4,0h22.7
						c0.8,0,1.4,0.6,1.4,1.4V24.1z"/>
				</g>
				<g>
					<g>
						<path class="st4" d="M12.7,24c-3,0-5.6-1-8-2.8c-0.8-0.6-1.6-1.4-2.3-2.2l-0.1-0.1c0-0.1,0-0.2,0-0.3c0.1,0,0.2,0,0.3,0
							c0.6,0.4,1.2,0.8,1.9,1.2c1.9,1.1,3.9,1.7,6,2.1c1.1,0.2,2.2,0.2,3.4,0.2c2.1-0.1,4.2-0.7,6.1-1.6c0.3-0.1,0.6-0.3,0.9-0.5
							c0.1-0.1,0.3-0.1,0.4,0s0.1,0.3,0,0.5c-0.1,0.1-0.1,0.2-0.2,0.2c-1.7,1.5-3.8,2.5-6,2.9C14.3,23.9,13.5,24,12.7,24L12.7,24
							 M21.1,19.2c-0.4,0-0.9,0.1-1.4,0.1c-0.1,0-0.2,0-0.3,0c-0.1,0-0.1-0.1-0.1-0.2l0.2-0.1c0.5-0.3,1.1-0.5,1.7-0.6
							s1.1-0.1,1.7,0.1c0.4,0.1,0.5,0.1,0.4,0.6c-0.1,1.1-0.4,2.2-1.3,3l-0.2,0.1h-0.2V22c0.2-0.6,0.4-1.2,0.6-1.8
							c0-0.1,0.1-0.2,0.1-0.4c0-0.4-0.1-0.6-0.5-0.7C21.5,19.2,21.3,19.2,21.1,19.2 M14.6,10.3c-0.8,0-1.6,0-2.3,0.3
							c-0.4,0.1-0.7,0.3-1.1,0.5c-0.9,0.6-1.1,1.5-1,2.5c0,0.5,0.2,1,0.6,1.4c0.6,0.5,1.5,0.6,2.2,0.2c0.7-0.4,1-1,1.3-1.7
							C14.7,12.4,14.5,11.4,14.6,10.3 M15.2,16.3c-0.3,0.3-0.6,0.5-0.8,0.8c-1.1,0.9-2.3,1.4-3.7,1.4c-0.8,0-1.5,0-2.2-0.3
							c-1.3-0.5-2.1-1.4-2.4-2.7c-0.4-1.6-0.3-3.2,0.7-4.6c0.7-1.1,1.7-1.7,2.9-2.1c1-0.3,2.1-0.5,3.1-0.6C13.4,8.1,14,8.1,14.6,8
							c0-0.7,0.1-1.5-0.2-2.2c-0.2-0.6-0.7-0.9-1.3-1.1c-1-0.2-2,0.1-2.5,0.9c-0.2,0.3-0.3,0.6-0.4,0.9C10.1,6.9,9.9,7.1,9.4,7
							C8.5,6.8,7.7,6.7,6.8,6.6c-0.4,0-0.6-0.3-0.5-0.7C6.7,4,7.8,2.7,9.5,2c2.1-0.8,4.2-0.8,6.3-0.1c1.7,0.6,2.7,1.9,2.8,3.8
							c0,0.6,0,1.3,0.1,1.9c0,1.6,0,3.3,0,4.9c0,0.9,0.2,1.7,0.8,2.4c0.1,0.2,0.3,0.3,0.4,0.5c0.2,0.3,0.1,0.5-0.1,0.8
							c-0.7,0.6-1.4,1.2-2.1,1.8c-0.4,0.3-0.6,0.3-1,0c-0.5-0.4-0.9-0.9-1.3-1.5C15.3,16.5,15.2,16.4,15.2,16.3"/>
					</g>
				</g>
				<g class="st17">
					<path class="st16" d="M31.4,14c0,0.4-0.2,0.8-0.6,1.2s-0.8,0.6-1.3,0.7c-0.5,0.1-0.9,0.2-1.2,0.2c0,0-0.1,0-0.2-0.1
						c-0.2-0.3-0.3-0.6-0.3-0.9V15c0.6,0,1.1-0.1,1.4-0.3s0.5-0.4,0.5-0.7c0-0.2-0.1-0.3-0.3-0.5c-0.2-0.2-0.4-0.3-0.7-0.4
						s-0.5-0.3-0.7-0.5s-0.3-0.4-0.3-0.7c0-0.5,0.3-0.9,0.9-1.3c0.6-0.4,1.3-0.6,1.9-0.6c0.1,0,0.2,0.1,0.3,0.3
						c0.1,0.2,0.2,0.4,0.2,0.7c-0.2,0-0.4,0-0.7,0.1c-0.6,0.2-0.9,0.4-0.9,0.7c0,0.2,0.3,0.5,0.9,0.9c0.2,0.1,0.5,0.3,0.7,0.6
						S31.4,13.8,31.4,14z"/>
					<path class="st16" d="M33.2,13.1l0-4.2c0-0.8,0-1.2,0.1-1.2c0.1-0.1,0.3-0.2,0.5-0.3c0.2-0.1,0.4-0.1,0.6-0.1s0.3,0,0.3,0
						c0,0.1,0,0.6,0,1.6c0,1,0,1.6,0,1.9V11c0,0,0,0.1,0,0.1l0.2-0.2c0.1-0.1,0.3-0.2,0.5-0.3c0.3-0.1,0.5-0.2,0.8-0.2
						s0.4,0,0.6,0.1s0.3,0.2,0.4,0.3c0.1,0.1,0.2,0.3,0.3,0.5s0.1,0.4,0.2,0.6s0.1,0.4,0.1,0.7c0,0.4,0,1,0,1.6l0,1.6
						c0,0.1-0.2,0.1-0.4,0.2c-0.2,0-0.5,0.1-0.6,0.1l-0.4-0.1c0.1-0.7,0.1-1.4,0.1-2.1s0-1.2-0.1-1.5s-0.3-0.5-0.6-0.5
						c-0.2,0-0.4,0.1-0.5,0.2c-0.2,0.2-0.3,0.3-0.3,0.5l-0.1,0.2c0,0.6,0,1.1,0,1.8s0,1-0.1,1c-0.2,0.2-0.7,0.3-1.3,0.3
						c-0.1,0-0.1,0-0.1,0C33.2,15.4,33.2,14.5,33.2,13.1z"/>
					<path class="st16" d="M43.9,14.9c-0.5,0.6-1.1,0.8-1.9,0.8s-1.4-0.2-1.9-0.7c-0.4-0.5-0.7-1.1-0.7-1.9c0-0.8,0.3-1.5,0.8-2.1
						c0.6-0.6,1.3-0.9,2.3-0.9c0.4,0,0.6,0,0.6,0.1c0,0,0,0.1,0,0.2s0,0.3,0,0.4c0.1,0,0.3,0.1,0.5,0.2c0.2,0.1,0.3,0.3,0.5,0.4
						c0.1,0.1,0.2,0.3,0.3,0.6c0.1,0.3,0.1,0.6,0.1,0.9C44.6,13.7,44.4,14.3,43.9,14.9z M42.8,12.1c-0.2-0.1-0.4-0.2-0.5-0.2h-0.1
						c0,0,0-0.1,0-0.2c0-0.1,0-0.2,0-0.3c-0.3,0-0.6,0.1-0.9,0.4c-0.3,0.3-0.4,0.7-0.4,1.2c0,0.6,0.2,1.1,0.6,1.3
						c0.2,0.1,0.4,0.1,0.6,0.1c0.3,0,0.5-0.1,0.8-0.4c0.2-0.2,0.4-0.6,0.4-1.1S43.1,12.2,42.8,12.1z"/>
					<path class="st16" d="M47.9,9.6l0,0.6c2.1,0,3.2,0.8,3.2,2.5c0,0.4-0.1,0.9-0.3,1.2c-0.2,0.4-0.4,0.7-0.7,0.9s-0.6,0.4-0.9,0.5
						c-0.5,0.2-1,0.4-1.4,0.4v0.2c0,1.2,0,2,0.1,2.4c-0.1,0.1-0.3,0.2-0.5,0.2c-0.3,0.1-0.5,0.1-0.6,0.1s-0.2,0-0.2,0
						c0-0.3,0-0.8,0-1.6l0.1-5.6c0-0.7,0-1.1,0-1.4c0.1-0.1,0.3-0.2,0.5-0.3c0.2-0.1,0.4-0.1,0.6-0.1S47.9,9.6,47.9,9.6z M47.8,13.7
						l0,0.6c0.5,0,0.9-0.1,1.3-0.4s0.6-0.7,0.6-1.2c0-0.9-0.6-1.3-1.8-1.3l0,0.2c0,0.1,0,0.2,0,0.4L47.8,13.7z"/>
					<path class="st16" d="M54.4,9.6l0,0.6c2.1,0,3.2,0.8,3.2,2.5c0,0.4-0.1,0.9-0.3,1.2c-0.2,0.4-0.4,0.7-0.7,0.9
						c-0.3,0.2-0.6,0.4-0.9,0.5c-0.5,0.2-1,0.4-1.4,0.4v0.2c0,1.2,0,2,0.1,2.4c-0.1,0.1-0.3,0.2-0.5,0.2c-0.3,0.1-0.5,0.1-0.6,0.1
						c-0.2,0-0.2,0-0.2,0c0-0.3,0-0.8,0-1.6l0.1-5.6c0-0.7,0-1.1,0-1.4c0.1-0.1,0.3-0.2,0.5-0.3c0.2-0.1,0.4-0.1,0.6-0.1
						S54.4,9.6,54.4,9.6z M54.3,13.7l0,0.6c0.5,0,0.9-0.1,1.3-0.4s0.6-0.7,0.6-1.2c0-0.9-0.6-1.3-1.8-1.3l0,0.2c0,0.1,0,0.2,0,0.4
						L54.3,13.7z"/>
					<path class="st16" d="M60.4,8.3c0.2,0,0.4,0.1,0.5,0.2c0.1,0.1,0.2,0.3,0.2,0.6c0,0.2-0.1,0.4-0.3,0.6s-0.4,0.2-0.6,0.2
						c-0.2,0-0.4-0.1-0.5-0.2s-0.2-0.3-0.2-0.6c0-0.2,0.1-0.4,0.3-0.6C60,8.3,60.2,8.3,60.4,8.3z M61,11.3l0,1.9
						c0,0.6,0,1.1,0.1,1.4c0,0.3,0.1,0.6,0.3,0.8c0,0.1-0.2,0.2-0.5,0.4C60.5,15.9,60.2,16,60,16c-0.1,0-0.1-0.1-0.2-0.4
						s-0.1-0.5-0.1-0.7c0-0.2,0-0.9,0-2.2c0-1.2,0-1.9,0.1-2c0.2-0.1,0.5-0.2,1-0.2c0.2,0,0.3,0,0.3,0.1L61,11.3z"/>
					<path class="st16" d="M64.6,12.7l0,0.4v0.9c0,0.9,0,1.3,0,1.3c-0.1,0.1-0.3,0.2-0.5,0.2c-0.3,0.1-0.5,0.1-0.6,0.1s-0.2,0-0.2,0
						c0.1-0.4,0.1-1,0.1-1.8l0-2.7c0-0.5,0-0.8,0.1-0.8c0.1-0.1,0.2-0.2,0.5-0.2c0.2-0.1,0.4-0.1,0.6-0.1c0.2,0,0.3,0,0.3,0.1
						c0,0.2,0,0.4,0,0.6s0,0.3,0,0.3l0,0c0-0.1,0.1-0.1,0.2-0.2s0.3-0.2,0.5-0.3c0.3-0.1,0.5-0.2,0.7-0.2c0.2,0,0.4,0,0.6,0.1
						c0.2,0.1,0.3,0.2,0.4,0.3c0.1,0.1,0.2,0.3,0.3,0.5s0.1,0.4,0.2,0.6s0.1,0.4,0.1,0.8c0,0.4,0,1,0,1.7l0,1.4
						c0,0.1-0.1,0.1-0.4,0.2c-0.3,0.1-0.5,0.1-0.6,0.1l-0.4-0.1c0.1-0.7,0.1-1.4,0.1-2.1c0-0.7,0-1.2-0.1-1.5
						c-0.1-0.3-0.3-0.5-0.5-0.5s-0.5,0.1-0.6,0.2c-0.2,0.1-0.3,0.3-0.3,0.4l-0.1,0.2V12.7z"/>
					<path class="st16" d="M74.1,12.5l0,2.8c0,0.6-0.1,1.2-0.3,1.7c-0.2,0.5-0.4,0.9-0.6,1.1c-0.2,0.3-0.5,0.5-0.8,0.7
						c-0.5,0.3-1,0.4-1.5,0.4c0,0-0.1-0.1-0.1-0.2s-0.1-0.3-0.2-0.5s-0.1-0.4-0.1-0.6h0.2c0.2,0,0.3,0,0.5,0c0.1,0,0.3-0.1,0.5-0.2
						c0.2-0.1,0.4-0.3,0.6-0.5c0.2-0.2,0.3-0.5,0.4-0.9s0.2-0.9,0.2-1.4c0,0,0,0,0,0l0,0c-0.3,0.5-0.9,0.8-1.6,0.8
						c-0.5,0-1-0.2-1.3-0.6c-0.3-0.4-0.5-0.9-0.5-1.4c0-1,0.3-1.8,0.9-2.4s1.5-0.9,2.7-0.9c0.3,0,0.4,0,0.4,0.1c0,0.1,0,0.3,0,0.4
						l0,0.2h0.1c0.3,0,0.4,0,0.5,0.1V12.5z M72.8,11.4l-0.3,0c-0.5,0-0.9,0.2-1.2,0.5c-0.3,0.3-0.4,0.7-0.4,1.2
						c0,0.2,0.1,0.5,0.2,0.6c0.1,0.2,0.4,0.3,0.6,0.3c0.3,0,0.5-0.1,0.7-0.3c0.2-0.2,0.3-0.4,0.3-0.5C72.8,12.3,72.8,11.7,72.8,11.4
						z"/>
				</g>
			</g>
		</g>
	</g>
	<g id="Layer_4_5_">
		<g class="st1">
			<g>
				
					<linearGradient id="SVGID_4_" gradientUnits="userSpaceOnUse" x1="38.6" y1="36.6925" x2="38.6" y2="-0.3075" gradientTransform="matrix(1 0 0 -1 0 25.8803)">
					<stop  offset="0" style="stop-color:#FFFFFF"/>
					<stop  offset="1" style="stop-color:#E21E26"/>
				</linearGradient>
				<path class="st19" d="M79.7,26.3c0,0.8-0.6,1.4-1.4,1.4H-1.1c-0.8,0-1.4-0.6-1.4-1.4V-0.9c0-0.8,0.6-1.4,1.4-1.4h79.3
					c0.8,0,1.4,0.6,1.4,1.4L79.7,26.3L79.7,26.3z"/>
				<path class="st6" d="M79.7,26.3c0,0.8-0.6,1.4-1.4,1.4H-1.1c-0.8,0-1.4-0.6-1.4-1.4V-0.9c0-0.8,0.6-1.4,1.4-1.4h79.3
					c0.8,0,1.4,0.6,1.4,1.4L79.7,26.3L79.7,26.3z"/>
			</g>
			<g>
				<text transform="matrix(1 0 0 1 27.3977 15.4263)" class="st22" style="font-family:'BubblegumSans-Regular'; font-size:12px;">more ...</text>
			</g>
			<g>
				<g>
					<path d="M25.5,24.1c0,0.8-0.6,1.4-1.4,1.4H1.4c-0.8,0-1.4-0.6-1.4-1.4V1.4C0,0.6,0.6,0,1.4,0h22.7c0.8,0,1.4,0.6,1.4,1.4V24.1z
						"/>
				</g>
				<text transform="matrix(1 0 0 1 3.5219 24.0594)" class="st7 st8 st9">B</text>
			</g>
		</g>
	</g>
</g>
<g id="_x33__down_1_" class="st0">
	<g id="Layer_2_4_" class="st1">
		<title>Artboard 1</title>
		<g>
			<g>
				<path class="st2" d="M79.7,26.3c0,0.8-0.6,1.4-1.4,1.4H-1.1c-0.8,0-1.4-0.6-1.4-1.4V-0.9c0-0.8,0.6-1.4,1.4-1.4h79.3
					c0.8,0,1.4,0.6,1.4,1.4L79.7,26.3L79.7,26.3z"/>
				<path class="st3" d="M79.7,26.3c0,0.8-0.6,1.4-1.4,1.4H-1.1c-0.8,0-1.4-0.6-1.4-1.4V-0.9c0-0.8,0.6-1.4,1.4-1.4h79.3
					c0.8,0,1.4,0.6,1.4,1.4L79.7,26.3L79.7,26.3z"/>
			</g>
			<g>
				<g>
					<path class="st16" d="M25.5,24.1c0,0.8-0.6,1.4-1.4,1.4H1.4c-0.8,0-1.4-0.6-1.4-1.4V1.4C0,0.6,0.6,0,1.4,0h22.7
						c0.8,0,1.4,0.6,1.4,1.4V24.1z"/>
				</g>
				<g>
					<g>
						<path class="st4" d="M12.7,24c-3,0-5.6-1-8-2.8c-0.8-0.6-1.6-1.4-2.3-2.2l-0.1-0.1c0-0.1,0-0.2,0-0.3c0.1,0,0.2,0,0.3,0
							c0.6,0.4,1.2,0.8,1.9,1.2c1.9,1.1,3.9,1.7,6,2.1c1.1,0.2,2.2,0.2,3.4,0.2c2.1-0.1,4.2-0.7,6.1-1.6c0.3-0.1,0.6-0.3,0.9-0.5
							c0.1-0.1,0.3-0.1,0.4,0s0.1,0.3,0,0.5c-0.1,0.1-0.1,0.2-0.2,0.2c-1.7,1.5-3.8,2.5-6,2.9C14.3,23.9,13.5,24,12.7,24L12.7,24
							 M21.1,19.2c-0.4,0-0.9,0.1-1.4,0.1c-0.1,0-0.2,0-0.3,0c-0.1,0-0.1-0.1-0.1-0.2l0.2-0.1c0.5-0.3,1.1-0.5,1.7-0.6
							s1.1-0.1,1.7,0.1c0.4,0.1,0.5,0.1,0.4,0.6c-0.1,1.1-0.4,2.2-1.3,3l-0.2,0.1h-0.2V22c0.2-0.6,0.4-1.2,0.6-1.8
							c0-0.1,0.1-0.2,0.1-0.4c0-0.4-0.1-0.6-0.5-0.7C21.5,19.2,21.3,19.2,21.1,19.2 M14.6,10.3c-0.8,0-1.6,0-2.3,0.3
							c-0.4,0.1-0.7,0.3-1.1,0.5c-0.9,0.6-1.1,1.5-1,2.5c0,0.5,0.2,1,0.6,1.4c0.6,0.5,1.5,0.6,2.2,0.2c0.7-0.4,1-1,1.3-1.7
							C14.7,12.4,14.5,11.4,14.6,10.3 M15.2,16.3c-0.3,0.3-0.6,0.5-0.8,0.8c-1.1,0.9-2.3,1.4-3.7,1.4c-0.8,0-1.5,0-2.2-0.3
							c-1.3-0.5-2.1-1.4-2.4-2.7c-0.4-1.6-0.3-3.2,0.7-4.6c0.7-1.1,1.7-1.7,2.9-2.1c1-0.3,2.1-0.5,3.1-0.6C13.4,8.1,14,8.1,14.6,8
							c0-0.7,0.1-1.5-0.2-2.2c-0.2-0.6-0.7-0.9-1.3-1.1c-1-0.2-2,0.1-2.5,0.9c-0.2,0.3-0.3,0.6-0.4,0.9C10.1,6.9,9.9,7.1,9.4,7
							C8.5,6.8,7.7,6.7,6.8,6.6c-0.4,0-0.6-0.3-0.5-0.7C6.7,4,7.8,2.7,9.5,2c2.1-0.8,4.2-0.8,6.3-0.1c1.7,0.6,2.7,1.9,2.8,3.8
							c0,0.6,0,1.3,0.1,1.9c0,1.6,0,3.3,0,4.9c0,0.9,0.2,1.7,0.8,2.4c0.1,0.2,0.3,0.3,0.4,0.5c0.2,0.3,0.1,0.5-0.1,0.8
							c-0.7,0.6-1.4,1.2-2.1,1.8c-0.4,0.3-0.6,0.3-1,0c-0.5-0.4-0.9-0.9-1.3-1.5C15.3,16.5,15.2,16.4,15.2,16.3"/>
					</g>
				</g>
				<g class="st17">
					<path d="M31.4,14c0,0.4-0.2,0.8-0.6,1.2s-0.8,0.6-1.3,0.7c-0.5,0.1-0.9,0.2-1.2,0.2c0,0-0.1,0-0.2-0.1
						c-0.2-0.3-0.3-0.6-0.3-0.9V15c0.6,0,1.1-0.1,1.4-0.3s0.5-0.4,0.5-0.7c0-0.2-0.1-0.3-0.3-0.5c-0.2-0.2-0.4-0.3-0.7-0.4
						s-0.5-0.3-0.7-0.5s-0.3-0.4-0.3-0.7c0-0.5,0.3-0.9,0.9-1.3c0.6-0.4,1.3-0.6,1.9-0.6c0.1,0,0.2,0.1,0.3,0.3
						c0.1,0.2,0.2,0.4,0.2,0.7c-0.2,0-0.4,0-0.7,0.1c-0.6,0.2-0.9,0.4-0.9,0.7c0,0.2,0.3,0.5,0.9,0.9c0.2,0.1,0.5,0.3,0.7,0.6
						S31.4,13.8,31.4,14z"/>
					<path d="M33.2,13.1l0-4.2c0-0.8,0-1.2,0.1-1.2c0.1-0.1,0.3-0.2,0.5-0.3c0.2-0.1,0.4-0.1,0.6-0.1s0.3,0,0.3,0c0,0.1,0,0.6,0,1.6
						c0,1,0,1.6,0,1.9V11c0,0,0,0.1,0,0.1l0.2-0.2c0.1-0.1,0.3-0.2,0.5-0.3c0.3-0.1,0.5-0.2,0.8-0.2s0.4,0,0.6,0.1s0.3,0.2,0.4,0.3
						c0.1,0.1,0.2,0.3,0.3,0.5s0.1,0.4,0.2,0.6s0.1,0.4,0.1,0.7c0,0.4,0,1,0,1.6l0,1.6c0,0.1-0.2,0.1-0.4,0.2
						c-0.2,0-0.5,0.1-0.6,0.1l-0.4-0.1c0.1-0.7,0.1-1.4,0.1-2.1s0-1.2-0.1-1.5s-0.3-0.5-0.6-0.5c-0.2,0-0.4,0.1-0.5,0.2
						c-0.2,0.2-0.3,0.3-0.3,0.5l-0.1,0.2c0,0.6,0,1.1,0,1.8s0,1-0.1,1c-0.2,0.2-0.7,0.3-1.3,0.3c-0.1,0-0.1,0-0.1,0
						C33.2,15.4,33.2,14.5,33.2,13.1z"/>
					<path d="M43.9,14.9c-0.5,0.6-1.1,0.8-1.9,0.8s-1.4-0.2-1.9-0.7c-0.4-0.5-0.7-1.1-0.7-1.9c0-0.8,0.3-1.5,0.8-2.1
						c0.6-0.6,1.3-0.9,2.3-0.9c0.4,0,0.6,0,0.6,0.1c0,0,0,0.1,0,0.2s0,0.3,0,0.4c0.1,0,0.3,0.1,0.5,0.2c0.2,0.1,0.3,0.3,0.5,0.4
						c0.1,0.1,0.2,0.3,0.3,0.6c0.1,0.3,0.1,0.6,0.1,0.9C44.6,13.7,44.4,14.3,43.9,14.9z M42.8,12.1c-0.2-0.1-0.4-0.2-0.5-0.2h-0.1
						c0,0,0-0.1,0-0.2c0-0.1,0-0.2,0-0.3c-0.3,0-0.6,0.1-0.9,0.4c-0.3,0.3-0.4,0.7-0.4,1.2c0,0.6,0.2,1.1,0.6,1.3
						c0.2,0.1,0.4,0.1,0.6,0.1c0.3,0,0.5-0.1,0.8-0.4c0.2-0.2,0.4-0.6,0.4-1.1S43.1,12.2,42.8,12.1z"/>
					<path d="M47.9,9.6l0,0.6c2.1,0,3.2,0.8,3.2,2.5c0,0.4-0.1,0.9-0.3,1.2c-0.2,0.4-0.4,0.7-0.7,0.9s-0.6,0.4-0.9,0.5
						c-0.5,0.2-1,0.4-1.4,0.4v0.2c0,1.2,0,2,0.1,2.4c-0.1,0.1-0.3,0.2-0.5,0.2c-0.3,0.1-0.5,0.1-0.6,0.1s-0.2,0-0.2,0
						c0-0.3,0-0.8,0-1.6l0.1-5.6c0-0.7,0-1.1,0-1.4c0.1-0.1,0.3-0.2,0.5-0.3c0.2-0.1,0.4-0.1,0.6-0.1S47.9,9.6,47.9,9.6z M47.8,13.7
						l0,0.6c0.5,0,0.9-0.1,1.3-0.4s0.6-0.7,0.6-1.2c0-0.9-0.6-1.3-1.8-1.3l0,0.2c0,0.1,0,0.2,0,0.4L47.8,13.7z"/>
					<path d="M54.4,9.6l0,0.6c2.1,0,3.2,0.8,3.2,2.5c0,0.4-0.1,0.9-0.3,1.2c-0.2,0.4-0.4,0.7-0.7,0.9c-0.3,0.2-0.6,0.4-0.9,0.5
						c-0.5,0.2-1,0.4-1.4,0.4v0.2c0,1.2,0,2,0.1,2.4c-0.1,0.1-0.3,0.2-0.5,0.2c-0.3,0.1-0.5,0.1-0.6,0.1c-0.2,0-0.2,0-0.2,0
						c0-0.3,0-0.8,0-1.6l0.1-5.6c0-0.7,0-1.1,0-1.4c0.1-0.1,0.3-0.2,0.5-0.3c0.2-0.1,0.4-0.1,0.6-0.1S54.4,9.6,54.4,9.6z M54.3,13.7
						l0,0.6c0.5,0,0.9-0.1,1.3-0.4s0.6-0.7,0.6-1.2c0-0.9-0.6-1.3-1.8-1.3l0,0.2c0,0.1,0,0.2,0,0.4L54.3,13.7z"/>
					<path d="M60.4,8.3c0.2,0,0.4,0.1,0.5,0.2c0.1,0.1,0.2,0.3,0.2,0.6c0,0.2-0.1,0.4-0.3,0.6s-0.4,0.2-0.6,0.2
						c-0.2,0-0.4-0.1-0.5-0.2s-0.2-0.3-0.2-0.6c0-0.2,0.1-0.4,0.3-0.6C60,8.3,60.2,8.3,60.4,8.3z M61,11.3l0,1.9
						c0,0.6,0,1.1,0.1,1.4c0,0.3,0.1,0.6,0.3,0.8c0,0.1-0.2,0.2-0.5,0.4C60.5,15.9,60.2,16,60,16c-0.1,0-0.1-0.1-0.2-0.4
						s-0.1-0.5-0.1-0.7c0-0.2,0-0.9,0-2.2c0-1.2,0-1.9,0.1-2c0.2-0.1,0.5-0.2,1-0.2c0.2,0,0.3,0,0.3,0.1L61,11.3z"/>
					<path d="M64.6,12.7l0,0.4v0.9c0,0.9,0,1.3,0,1.3c-0.1,0.1-0.3,0.2-0.5,0.2c-0.3,0.1-0.5,0.1-0.6,0.1s-0.2,0-0.2,0
						c0.1-0.4,0.1-1,0.1-1.8l0-2.7c0-0.5,0-0.8,0.1-0.8c0.1-0.1,0.2-0.2,0.5-0.2c0.2-0.1,0.4-0.1,0.6-0.1c0.2,0,0.3,0,0.3,0.1
						c0,0.2,0,0.4,0,0.6s0,0.3,0,0.3l0,0c0-0.1,0.1-0.1,0.2-0.2s0.3-0.2,0.5-0.3c0.3-0.1,0.5-0.2,0.7-0.2c0.2,0,0.4,0,0.6,0.1
						c0.2,0.1,0.3,0.2,0.4,0.3c0.1,0.1,0.2,0.3,0.3,0.5s0.1,0.4,0.2,0.6s0.1,0.4,0.1,0.8c0,0.4,0,1,0,1.7l0,1.4
						c0,0.1-0.1,0.1-0.4,0.2c-0.3,0.1-0.5,0.1-0.6,0.1l-0.4-0.1c0.1-0.7,0.1-1.4,0.1-2.1c0-0.7,0-1.2-0.1-1.5
						c-0.1-0.3-0.3-0.5-0.5-0.5s-0.5,0.1-0.6,0.2c-0.2,0.1-0.3,0.3-0.3,0.4l-0.1,0.2V12.7z"/>
					<path d="M74.1,12.5l0,2.8c0,0.6-0.1,1.2-0.3,1.7c-0.2,0.5-0.4,0.9-0.6,1.1c-0.2,0.3-0.5,0.5-0.8,0.7c-0.5,0.3-1,0.4-1.5,0.4
						c0,0-0.1-0.1-0.1-0.2s-0.1-0.3-0.2-0.5s-0.1-0.4-0.1-0.6h0.2c0.2,0,0.3,0,0.5,0c0.1,0,0.3-0.1,0.5-0.2c0.2-0.1,0.4-0.3,0.6-0.5
						c0.2-0.2,0.3-0.5,0.4-0.9s0.2-0.9,0.2-1.4c0,0,0,0,0,0l0,0c-0.3,0.5-0.9,0.8-1.6,0.8c-0.5,0-1-0.2-1.3-0.6
						c-0.3-0.4-0.5-0.9-0.5-1.4c0-1,0.3-1.8,0.9-2.4s1.5-0.9,2.7-0.9c0.3,0,0.4,0,0.4,0.1c0,0.1,0,0.3,0,0.4l0,0.2h0.1
						c0.3,0,0.4,0,0.5,0.1V12.5z M72.8,11.4l-0.3,0c-0.5,0-0.9,0.2-1.2,0.5c-0.3,0.3-0.4,0.7-0.4,1.2c0,0.2,0.1,0.5,0.2,0.6
						c0.1,0.2,0.4,0.3,0.6,0.3c0.3,0,0.5-0.1,0.7-0.3c0.2-0.2,0.3-0.4,0.3-0.5C72.8,12.3,72.8,11.7,72.8,11.4z"/>
				</g>
			</g>
		</g>
	</g>
	<g id="Layer_4_6_">
		<g class="st1">
			<g>
				
					<linearGradient id="SVGID_5_" gradientUnits="userSpaceOnUse" x1="38.6" y1="36.6925" x2="38.6" y2="-0.3075" gradientTransform="matrix(1 0 0 -1 0 25.8803)">
					<stop  offset="0" style="stop-color:#FFFFFF"/>
					<stop  offset="1" style="stop-color:#E21E26"/>
				</linearGradient>
				<path class="st20" d="M79.7,26.3c0,0.8-0.6,1.4-1.4,1.4H-1.1c-0.8,0-1.4-0.6-1.4-1.4V-0.9c0-0.8,0.6-1.4,1.4-1.4h79.3
					c0.8,0,1.4,0.6,1.4,1.4L79.7,26.3L79.7,26.3z"/>
				<path class="st6" d="M79.7,26.3c0,0.8-0.6,1.4-1.4,1.4H-1.1c-0.8,0-1.4-0.6-1.4-1.4V-0.9c0-0.8,0.6-1.4,1.4-1.4h79.3
					c0.8,0,1.4,0.6,1.4,1.4L79.7,26.3L79.7,26.3z"/>
			</g>
			<g>
				<text transform="matrix(1 0 0 1 27.3977 15.4263)" class="st22" style="font-family:'BubblegumSans-Regular'; font-size:12px;">more ...</text>
			</g>
			<g>
				<g>
					<path d="M25.5,24.1c0,0.8-0.6,1.4-1.4,1.4H1.4c-0.8,0-1.4-0.6-1.4-1.4V1.4C0,0.6,0.6,0,1.4,0h22.7c0.8,0,1.4,0.6,1.4,1.4V24.1z
						"/>
				</g>
				<text transform="matrix(1 0 0 1 3.5219 24.0594)" class="st7 st8 st9">B</text>
			</g>
		</g>
	</g>
</g>
<g id="_x34__active" class="st0">
	<g id="Layer_2_5_" class="st1">
		<title>Artboard 1</title>
		<g>
			<g>
				<path class="st2" d="M79.7,26.3c0,0.8-0.6,1.4-1.4,1.4H-1.1c-0.8,0-1.4-0.6-1.4-1.4V-0.9c0-0.8,0.6-1.4,1.4-1.4h79.3
					c0.8,0,1.4,0.6,1.4,1.4L79.7,26.3L79.7,26.3z"/>
				<path class="st3" d="M79.7,26.3c0,0.8-0.6,1.4-1.4,1.4H-1.1c-0.8,0-1.4-0.6-1.4-1.4V-0.9c0-0.8,0.6-1.4,1.4-1.4h79.3
					c0.8,0,1.4,0.6,1.4,1.4L79.7,26.3L79.7,26.3z"/>
			</g>
			<g>
				<g>
					<path d="M25.5,24.1c0,0.8-0.6,1.4-1.4,1.4H1.4c-0.8,0-1.4-0.6-1.4-1.4V1.4C0,0.6,0.6,0,1.4,0h22.7c0.8,0,1.4,0.6,1.4,1.4V24.1z
						"/>
				</g>
				<g>
					<g>
						<path class="st4" d="M12.7,24c-3,0-5.6-1-8-2.8c-0.8-0.6-1.6-1.4-2.3-2.2l-0.1-0.1c0-0.1,0-0.2,0-0.3c0.1,0,0.2,0,0.3,0
							c0.6,0.4,1.2,0.8,1.9,1.2c1.9,1.1,3.9,1.7,6,2.1c1.1,0.2,2.2,0.2,3.4,0.2c2.1-0.1,4.2-0.7,6.1-1.6c0.3-0.1,0.6-0.3,0.9-0.5
							c0.1-0.1,0.3-0.1,0.4,0s0.1,0.3,0,0.5c-0.1,0.1-0.1,0.2-0.2,0.2c-1.7,1.5-3.8,2.5-6,2.9C14.3,23.9,13.5,24,12.7,24L12.7,24
							 M21.1,19.2c-0.4,0-0.9,0.1-1.4,0.1c-0.1,0-0.2,0-0.3,0c-0.1,0-0.1-0.1-0.1-0.2l0.2-0.1c0.5-0.3,1.1-0.5,1.7-0.6
							s1.1-0.1,1.7,0.1c0.4,0.1,0.5,0.1,0.4,0.6c-0.1,1.1-0.4,2.2-1.3,3l-0.2,0.1h-0.2V22c0.2-0.6,0.4-1.2,0.6-1.8
							c0-0.1,0.1-0.2,0.1-0.4c0-0.4-0.1-0.6-0.5-0.7C21.5,19.2,21.3,19.2,21.1,19.2 M14.6,10.3c-0.8,0-1.6,0-2.3,0.3
							c-0.4,0.1-0.7,0.3-1.1,0.5c-0.9,0.6-1.1,1.5-1,2.5c0,0.5,0.2,1,0.6,1.4c0.6,0.5,1.5,0.6,2.2,0.2c0.7-0.4,1-1,1.3-1.7
							C14.7,12.4,14.5,11.4,14.6,10.3 M15.2,16.3c-0.3,0.3-0.6,0.5-0.8,0.8c-1.1,0.9-2.3,1.4-3.7,1.4c-0.8,0-1.5,0-2.2-0.3
							c-1.3-0.5-2.1-1.4-2.4-2.7c-0.4-1.6-0.3-3.2,0.7-4.6c0.7-1.1,1.7-1.7,2.9-2.1c1-0.3,2.1-0.5,3.1-0.6C13.4,8.1,14,8.1,14.6,8
							c0-0.7,0.1-1.5-0.2-2.2c-0.2-0.6-0.7-0.9-1.3-1.1c-1-0.2-2,0.1-2.5,0.9c-0.2,0.3-0.3,0.6-0.4,0.9C10.1,6.9,9.9,7.1,9.4,7
							C8.5,6.8,7.7,6.7,6.8,6.6c-0.4,0-0.6-0.3-0.5-0.7C6.7,4,7.8,2.7,9.5,2c2.1-0.8,4.2-0.8,6.3-0.1c1.7,0.6,2.7,1.9,2.8,3.8
							c0,0.6,0,1.3,0.1,1.9c0,1.6,0,3.3,0,4.9c0,0.9,0.2,1.7,0.8,2.4c0.1,0.2,0.3,0.3,0.4,0.5c0.2,0.3,0.1,0.5-0.1,0.8
							c-0.7,0.6-1.4,1.2-2.1,1.8c-0.4,0.3-0.6,0.3-1,0c-0.5-0.4-0.9-0.9-1.3-1.5C15.3,16.5,15.2,16.4,15.2,16.3"/>
					</g>
				</g>
				<g class="st17">
					<path d="M31.4,14c0,0.4-0.2,0.8-0.6,1.2s-0.8,0.6-1.3,0.7c-0.5,0.1-0.9,0.2-1.2,0.2c0,0-0.1,0-0.2-0.1
						c-0.2-0.3-0.3-0.6-0.3-0.9V15c0.6,0,1.1-0.1,1.4-0.3s0.5-0.4,0.5-0.7c0-0.2-0.1-0.3-0.3-0.5c-0.2-0.2-0.4-0.3-0.7-0.4
						s-0.5-0.3-0.7-0.5s-0.3-0.4-0.3-0.7c0-0.5,0.3-0.9,0.9-1.3c0.6-0.4,1.3-0.6,1.9-0.6c0.1,0,0.2,0.1,0.3,0.3
						c0.1,0.2,0.2,0.4,0.2,0.7c-0.2,0-0.4,0-0.7,0.1c-0.6,0.2-0.9,0.4-0.9,0.7c0,0.2,0.3,0.5,0.9,0.9c0.2,0.1,0.5,0.3,0.7,0.6
						S31.4,13.8,31.4,14z"/>
					<path d="M33.2,13.1l0-4.2c0-0.8,0-1.2,0.1-1.2c0.1-0.1,0.3-0.2,0.5-0.3c0.2-0.1,0.4-0.1,0.6-0.1s0.3,0,0.3,0c0,0.1,0,0.6,0,1.6
						c0,1,0,1.6,0,1.9V11c0,0,0,0.1,0,0.1l0.2-0.2c0.1-0.1,0.3-0.2,0.5-0.3c0.3-0.1,0.5-0.2,0.8-0.2s0.4,0,0.6,0.1s0.3,0.2,0.4,0.3
						c0.1,0.1,0.2,0.3,0.3,0.5s0.1,0.4,0.2,0.6s0.1,0.4,0.1,0.7c0,0.4,0,1,0,1.6l0,1.6c0,0.1-0.2,0.1-0.4,0.2
						c-0.2,0-0.5,0.1-0.6,0.1l-0.4-0.1c0.1-0.7,0.1-1.4,0.1-2.1s0-1.2-0.1-1.5s-0.3-0.5-0.6-0.5c-0.2,0-0.4,0.1-0.5,0.2
						c-0.2,0.2-0.3,0.3-0.3,0.5l-0.1,0.2c0,0.6,0,1.1,0,1.8s0,1-0.1,1c-0.2,0.2-0.7,0.3-1.3,0.3c-0.1,0-0.1,0-0.1,0
						C33.2,15.4,33.2,14.5,33.2,13.1z"/>
					<path d="M43.9,14.9c-0.5,0.6-1.1,0.8-1.9,0.8s-1.4-0.2-1.9-0.7c-0.4-0.5-0.7-1.1-0.7-1.9c0-0.8,0.3-1.5,0.8-2.1
						c0.6-0.6,1.3-0.9,2.3-0.9c0.4,0,0.6,0,0.6,0.1c0,0,0,0.1,0,0.2s0,0.3,0,0.4c0.1,0,0.3,0.1,0.5,0.2c0.2,0.1,0.3,0.3,0.5,0.4
						c0.1,0.1,0.2,0.3,0.3,0.6c0.1,0.3,0.1,0.6,0.1,0.9C44.6,13.7,44.4,14.3,43.9,14.9z M42.8,12.1c-0.2-0.1-0.4-0.2-0.5-0.2h-0.1
						c0,0,0-0.1,0-0.2c0-0.1,0-0.2,0-0.3c-0.3,0-0.6,0.1-0.9,0.4c-0.3,0.3-0.4,0.7-0.4,1.2c0,0.6,0.2,1.1,0.6,1.3
						c0.2,0.1,0.4,0.1,0.6,0.1c0.3,0,0.5-0.1,0.8-0.4c0.2-0.2,0.4-0.6,0.4-1.1S43.1,12.2,42.8,12.1z"/>
					<path d="M47.9,9.6l0,0.6c2.1,0,3.2,0.8,3.2,2.5c0,0.4-0.1,0.9-0.3,1.2c-0.2,0.4-0.4,0.7-0.7,0.9s-0.6,0.4-0.9,0.5
						c-0.5,0.2-1,0.4-1.4,0.4v0.2c0,1.2,0,2,0.1,2.4c-0.1,0.1-0.3,0.2-0.5,0.2c-0.3,0.1-0.5,0.1-0.6,0.1s-0.2,0-0.2,0
						c0-0.3,0-0.8,0-1.6l0.1-5.6c0-0.7,0-1.1,0-1.4c0.1-0.1,0.3-0.2,0.5-0.3c0.2-0.1,0.4-0.1,0.6-0.1S47.9,9.6,47.9,9.6z M47.8,13.7
						l0,0.6c0.5,0,0.9-0.1,1.3-0.4s0.6-0.7,0.6-1.2c0-0.9-0.6-1.3-1.8-1.3l0,0.2c0,0.1,0,0.2,0,0.4L47.8,13.7z"/>
					<path d="M54.4,9.6l0,0.6c2.1,0,3.2,0.8,3.2,2.5c0,0.4-0.1,0.9-0.3,1.2c-0.2,0.4-0.4,0.7-0.7,0.9c-0.3,0.2-0.6,0.4-0.9,0.5
						c-0.5,0.2-1,0.4-1.4,0.4v0.2c0,1.2,0,2,0.1,2.4c-0.1,0.1-0.3,0.2-0.5,0.2c-0.3,0.1-0.5,0.1-0.6,0.1c-0.2,0-0.2,0-0.2,0
						c0-0.3,0-0.8,0-1.6l0.1-5.6c0-0.7,0-1.1,0-1.4c0.1-0.1,0.3-0.2,0.5-0.3c0.2-0.1,0.4-0.1,0.6-0.1S54.4,9.6,54.4,9.6z M54.3,13.7
						l0,0.6c0.5,0,0.9-0.1,1.3-0.4s0.6-0.7,0.6-1.2c0-0.9-0.6-1.3-1.8-1.3l0,0.2c0,0.1,0,0.2,0,0.4L54.3,13.7z"/>
					<path d="M60.4,8.3c0.2,0,0.4,0.1,0.5,0.2c0.1,0.1,0.2,0.3,0.2,0.6c0,0.2-0.1,0.4-0.3,0.6s-0.4,0.2-0.6,0.2
						c-0.2,0-0.4-0.1-0.5-0.2s-0.2-0.3-0.2-0.6c0-0.2,0.1-0.4,0.3-0.6C60,8.3,60.2,8.3,60.4,8.3z M61,11.3l0,1.9
						c0,0.6,0,1.1,0.1,1.4c0,0.3,0.1,0.6,0.3,0.8c0,0.1-0.2,0.2-0.5,0.4C60.5,15.9,60.2,16,60,16c-0.1,0-0.1-0.1-0.2-0.4
						s-0.1-0.5-0.1-0.7c0-0.2,0-0.9,0-2.2c0-1.2,0-1.9,0.1-2c0.2-0.1,0.5-0.2,1-0.2c0.2,0,0.3,0,0.3,0.1L61,11.3z"/>
					<path d="M64.6,12.7l0,0.4v0.9c0,0.9,0,1.3,0,1.3c-0.1,0.1-0.3,0.2-0.5,0.2c-0.3,0.1-0.5,0.1-0.6,0.1s-0.2,0-0.2,0
						c0.1-0.4,0.1-1,0.1-1.8l0-2.7c0-0.5,0-0.8,0.1-0.8c0.1-0.1,0.2-0.2,0.5-0.2c0.2-0.1,0.4-0.1,0.6-0.1c0.2,0,0.3,0,0.3,0.1
						c0,0.2,0,0.4,0,0.6s0,0.3,0,0.3l0,0c0-0.1,0.1-0.1,0.2-0.2s0.3-0.2,0.5-0.3c0.3-0.1,0.5-0.2,0.7-0.2c0.2,0,0.4,0,0.6,0.1
						c0.2,0.1,0.3,0.2,0.4,0.3c0.1,0.1,0.2,0.3,0.3,0.5s0.1,0.4,0.2,0.6s0.1,0.4,0.1,0.8c0,0.4,0,1,0,1.7l0,1.4
						c0,0.1-0.1,0.1-0.4,0.2c-0.3,0.1-0.5,0.1-0.6,0.1l-0.4-0.1c0.1-0.7,0.1-1.4,0.1-2.1c0-0.7,0-1.2-0.1-1.5
						c-0.1-0.3-0.3-0.5-0.5-0.5s-0.5,0.1-0.6,0.2c-0.2,0.1-0.3,0.3-0.3,0.4l-0.1,0.2V12.7z"/>
					<path d="M74.1,12.5l0,2.8c0,0.6-0.1,1.2-0.3,1.7c-0.2,0.5-0.4,0.9-0.6,1.1c-0.2,0.3-0.5,0.5-0.8,0.7c-0.5,0.3-1,0.4-1.5,0.4
						c0,0-0.1-0.1-0.1-0.2s-0.1-0.3-0.2-0.5s-0.1-0.4-0.1-0.6h0.2c0.2,0,0.3,0,0.5,0c0.1,0,0.3-0.1,0.5-0.2c0.2-0.1,0.4-0.3,0.6-0.5
						c0.2-0.2,0.3-0.5,0.4-0.9s0.2-0.9,0.2-1.4c0,0,0,0,0,0l0,0c-0.3,0.5-0.9,0.8-1.6,0.8c-0.5,0-1-0.2-1.3-0.6
						c-0.3-0.4-0.5-0.9-0.5-1.4c0-1,0.3-1.8,0.9-2.4s1.5-0.9,2.7-0.9c0.3,0,0.4,0,0.4,0.1c0,0.1,0,0.3,0,0.4l0,0.2h0.1
						c0.3,0,0.4,0,0.5,0.1V12.5z M72.8,11.4l-0.3,0c-0.5,0-0.9,0.2-1.2,0.5c-0.3,0.3-0.4,0.7-0.4,1.2c0,0.2,0.1,0.5,0.2,0.6
						c0.1,0.2,0.4,0.3,0.6,0.3c0.3,0,0.5-0.1,0.7-0.3c0.2-0.2,0.3-0.4,0.3-0.5C72.8,12.3,72.8,11.7,72.8,11.4z"/>
				</g>
			</g>
		</g>
	</g>
	<g id="Layer_4_7_">
		<g class="st1">
			<g>
				
					<linearGradient id="SVGID_6_" gradientUnits="userSpaceOnUse" x1="38.6" y1="36.6925" x2="38.6" y2="-0.3075" gradientTransform="matrix(1 0 0 -1 0 25.8803)">
					<stop  offset="0" style="stop-color:#FFFFFF"/>
					<stop  offset="1" style="stop-color:#E21E26"/>
				</linearGradient>
				<path class="st21" d="M79.7,26.3c0,0.8-0.6,1.4-1.4,1.4H-1.1c-0.8,0-1.4-0.6-1.4-1.4V-0.9c0-0.8,0.6-1.4,1.4-1.4h79.3
					c0.8,0,1.4,0.6,1.4,1.4L79.7,26.3L79.7,26.3z"/>
				<path class="st6" d="M79.7,26.3c0,0.8-0.6,1.4-1.4,1.4H-1.1c-0.8,0-1.4-0.6-1.4-1.4V-0.9c0-0.8,0.6-1.4,1.4-1.4h79.3
					c0.8,0,1.4,0.6,1.4,1.4L79.7,26.3L79.7,26.3z"/>
			</g>
			<g>
				<text transform="matrix(1 0 0 1 27.3977 15.4263)" class="st22" style="font-family:'BubblegumSans-Regular'; font-size:12px;">more ...</text>
			</g>
			<g>
				<g>
					<path d="M25.5,24.1c0,0.8-0.6,1.4-1.4,1.4H1.4c-0.8,0-1.4-0.6-1.4-1.4V1.4C0,0.6,0.6,0,1.4,0h22.7c0.8,0,1.4,0.6,1.4,1.4V24.1z
						"/>
				</g>
				<text transform="matrix(1 0 0 1 3.5219 24.0594)" class="st7 st8 st9">B</text>
			</g>
		</g>
	</g>
</g>
<g id="_x3D__x3D__x3D__x3D__x3D__x3D__x3D__x3D__x3D__x3D__x3D__x3D__x3D__x3D_">
</g>
<g id="unselcted">
	<g>
		<g>
			<g>
				<g>
					<path class="st11" d="M25.5,24.1c0,0.8-0.6,1.4-1.4,1.4H1.4c-0.8,0-1.4-0.6-1.4-1.4V1.4C0,0.6,0.6,0,1.4,0h22.7
						c0.8,0,1.4,0.6,1.4,1.4V24.1z"/>
				</g>
			</g>
		</g>
		<g>
			<g>
				<g>
					<g>
						<path class="st22" d="M8.9,13.5C8.9,13.6,8.9,13.6,8.9,13.5c0.1,0,0.2,0,0.2,0c0,0,0.1,0,0.1,0c0,0,0.1,0,0.1,0
							c0,0,0.1,0,0.1,0c0,0,0.1,0,0.1,0c0,0,0.1,0,0.1,0c0,0,0.1,0,0.1,0c0.2,0,0.4,0,0.6,0c0.2,0,0.3-0.1,0.5-0.1
							c0.2,0,0.3-0.1,0.4-0.3c0.1-0.1,0.1-0.3,0.1-0.5c0-0.2-0.1-0.4-0.2-0.6c-0.1-0.2-0.3-0.3-0.6-0.5c-0.2-0.1-0.5-0.3-0.8-0.4
							c-0.3-0.1-0.7-0.2-1-0.3c0,0-0.1,0-0.1,0c0,0-0.1,0-0.1,0c-0.1,0-0.1,0-0.2,0c0,0-0.1,0-0.1,0c-0.1,0-0.2-0.1-0.3-0.1
							c-0.1,0-0.2-0.1-0.3-0.1c-0.5-0.1-1-0.3-1.4-0.5C5.5,9.8,5.1,9.5,4.8,9.3C4.5,9,4.3,8.7,4.1,8.3C4,7.9,3.9,7.5,3.9,7
							c0-0.7,0.1-1.2,0.3-1.7c0.2-0.4,0.6-0.7,1-0.9c0.5-0.2,1-0.3,1.5-0.4C7.3,4,7.9,4,8.5,4l4.4,0v1.9H8.3C8,5.9,7.8,5.9,7.5,5.9
							C7.2,6,7,6,6.8,6.1C6.6,6.1,6.4,6.2,6.3,6.4C6.2,6.5,6.2,6.7,6.2,6.9c0,0.2,0.1,0.4,0.2,0.6c0.1,0.2,0.3,0.3,0.5,0.4
							C7,8,7.3,8.1,7.5,8.2C7.7,8.3,8,8.3,8.2,8.4c0.1,0,0.2,0,0.2,0c0.1,0,0.1,0,0.2,0c0,0,0.1,0,0.1,0c0,0,0.1,0,0.1,0
							c0,0,0.1,0,0.1,0c0,0,0.1,0,0.1,0c0,0,0.1,0,0.1,0c0,0,0.1,0,0.1,0c0,0,0.1,0,0.1,0c0,0,0,0,0.1,0c0,0,0,0,0.1,0
							c0,0,0,0,0.1,0C10.4,9,11,9.3,11.5,9.5c0.5,0.3,0.9,0.5,1.2,0.8c0.3,0.3,0.5,0.6,0.6,1c0.1,0.4,0.2,0.8,0.2,1.3
							c0,0.5-0.1,1-0.3,1.4c-0.2,0.4-0.4,0.7-0.6,0.9c-0.3,0.2-0.5,0.4-0.8,0.5c-0.3,0.1-0.6,0.2-0.9,0.3c-0.1,0-0.2,0-0.3,0
							c-0.1,0-0.2,0-0.3,0c0,0-0.1,0-0.1,0c0,0-0.1,0-0.1,0c0,0-0.1,0-0.1,0c0,0-0.1,0-0.1,0c0,0-0.1,0-0.1,0c0,0-0.1,0-0.1,0
							c0,0-0.1,0-0.1,0c0,0-0.1,0-0.1,0c0,0-0.1,0-0.1,0c0,0-0.1,0-0.1,0c0,0-0.1,0-0.1,0c0,0-0.1,0-0.1,0H3.9v-2.1H8.9z"/>
					</g>
				</g>
			</g>
			<g>
				<g>
					<g>
						<path class="st22" d="M17,19.4C17,19.5,17,19.5,17,19.4c0.1,0,0.2,0,0.2,0c0,0,0.1,0,0.1,0c0,0,0.1,0,0.1,0c0,0,0.1,0,0.1,0
							c0,0,0.1,0,0.1,0c0,0,0.1,0,0.1,0c0,0,0.1,0,0.1,0c0.2,0,0.4,0,0.6,0c0.2,0,0.3-0.1,0.5-0.1c0.2,0,0.3-0.1,0.4-0.3
							c0.1-0.1,0.1-0.3,0.1-0.5c0-0.2-0.1-0.4-0.2-0.6c-0.1-0.2-0.3-0.3-0.6-0.5c-0.2-0.1-0.5-0.3-0.8-0.4c-0.3-0.1-0.7-0.2-1-0.3
							c0,0-0.1,0-0.1,0c0,0-0.1,0-0.1,0c-0.1,0-0.1,0-0.2,0c0,0-0.1,0-0.1,0c-0.1,0-0.2-0.1-0.3-0.1c-0.1,0-0.2-0.1-0.3-0.1
							c-0.5-0.1-1-0.3-1.4-0.5c-0.4-0.2-0.8-0.4-1.1-0.7c-0.3-0.3-0.5-0.6-0.7-1c-0.2-0.4-0.2-0.8-0.2-1.3c0-0.7,0.1-1.2,0.3-1.7
							c0.2-0.4,0.6-0.7,1-0.9c0.5-0.2,1-0.3,1.5-0.4c0.5-0.1,1.1-0.1,1.8-0.1l4.4,0v1.9h-4.6c-0.3,0-0.6,0.1-0.8,0.1
							c-0.3,0-0.5,0.1-0.7,0.1c-0.2,0.1-0.4,0.2-0.5,0.3c-0.1,0.1-0.1,0.3-0.1,0.5c0,0.2,0.1,0.4,0.2,0.6c0.1,0.2,0.3,0.3,0.5,0.4
							c0.2,0.1,0.4,0.2,0.7,0.3c0.2,0.1,0.5,0.2,0.7,0.3c0.1,0,0.2,0,0.2,0c0.1,0,0.1,0,0.2,0c0,0,0.1,0,0.1,0c0,0,0.1,0,0.1,0
							c0,0,0.1,0,0.1,0c0,0,0.1,0,0.1,0c0,0,0.1,0,0.1,0c0,0,0.1,0,0.1,0c0,0,0.1,0,0.1,0c0,0,0,0,0.1,0c0,0,0,0,0.1,0
							c0,0,0,0,0.1,0c0.7,0.2,1.3,0.5,1.8,0.8c0.5,0.3,0.9,0.5,1.2,0.8c0.3,0.3,0.5,0.6,0.6,1c0.1,0.4,0.2,0.8,0.2,1.3
							c0,0.5-0.1,1-0.3,1.4c-0.2,0.4-0.4,0.7-0.6,0.9c-0.3,0.2-0.5,0.4-0.8,0.5c-0.3,0.1-0.6,0.2-0.9,0.3c-0.1,0-0.2,0-0.3,0
							c-0.1,0-0.2,0-0.3,0c0,0-0.1,0-0.1,0c0,0-0.1,0-0.1,0c0,0-0.1,0-0.1,0c0,0-0.1,0-0.1,0c0,0-0.1,0-0.1,0c0,0-0.1,0-0.1,0
							c0,0-0.1,0-0.1,0c0,0-0.1,0-0.1,0c0,0-0.1,0-0.1,0c0,0-0.1,0-0.1,0c0,0-0.1,0-0.1,0c0,0-0.1,0-0.1,0H12v-2.1H17z"/>
					</g>
				</g>
			</g>
		</g>
	</g>
</g>
<g id="_x32__over_1_" class="st0">
	<title>Artboard 1</title>
	<g class="st1">
		<linearGradient id="SVGID_7_" gradientUnits="userSpaceOnUse" x1="38.6" y1="-5.8197" x2="38.6" y2="27.6813">
			<stop  offset="0" style="stop-color:#FFFFFF"/>
			<stop  offset="1" style="stop-color:#E21E26"/>
			<stop  offset="1" style="stop-color:#000000"/>
		</linearGradient>
		<path class="st23" d="M79.7,26.3c0,0.8-0.6,1.4-1.4,1.4H-1.1c-0.8,0-1.4-0.6-1.4-1.4V-0.9c0-0.8,0.6-1.4,1.4-1.4h79.3
			c0.8,0,1.4,0.6,1.4,1.4L79.7,26.3L79.7,26.3z"/>
		<path class="st11" d="M78.3,28.2H-1.1c-1.1,0-1.9-0.8-1.9-1.9V-0.9C-3-2-2.2-2.8-1.1-2.8h79.3c1.1,0,1.9,0.8,1.9,1.9v26.7h0.1v0.5
			C80.2,27.4,79.4,28.2,78.3,28.2z M-1.1-1.8C-1.6-1.8-2-1.4-2-0.9v27.2c0,0.5,0.4,0.9,0.9,0.9h79.4c0.4,0,0.7-0.2,0.8-0.5V-0.9
			c0-0.5-0.4-0.9-0.9-0.9H-1.1z"/>
	</g>
	<g class="st24">
		<path class="st25" d="M28.1,13.9l0-2.8c0-0.5,0-0.8,0.1-0.8c0.1-0.1,0.2-0.2,0.4-0.2s0.4-0.1,0.6-0.1c0.2,0,0.3,0,0.3,0
			c0,0.4,0,0.6,0,0.8c0,0.2,0,0.3,0,0.3c0,0,0,0,0.1-0.1c0,0,0.1-0.1,0.2-0.2s0.2-0.2,0.5-0.3c0.2-0.1,0.4-0.2,0.6-0.2
			c0.5,0,0.9,0.2,1.2,0.7c0.5-0.6,1-1,1.5-1c0.5,0,0.9,0.2,1.1,0.6c0.2,0.5,0.4,0.9,0.4,1.4c0,0.7,0.1,1.4,0.1,2.1l0,1.4
			c0,0.1-0.1,0.1-0.4,0.2c-0.3,0.1-0.5,0.1-0.6,0.1l-0.4-0.1c0.1-0.8,0.1-1.4,0.1-1.9c0-0.5,0-0.8,0-1s0-0.4-0.1-0.6
			s-0.1-0.4-0.2-0.5c-0.1-0.1-0.2-0.1-0.4-0.1c-0.2,0-0.3,0-0.4,0.1s-0.2,0.2-0.3,0.2c-0.1,0.1-0.1,0.1-0.1,0.2c0,0.3,0,0.8,0,1.8
			l0,0.9c0,0.1-0.1,0.1-0.4,0.2s-0.5,0.1-0.6,0.1l-0.4-0.1c0.1-0.6,0.1-1.3,0.1-1.8c0-0.6,0-1-0.1-1.2c-0.1-0.2-0.2-0.3-0.5-0.3
			s-0.5,0.1-0.6,0.4s-0.3,0.5-0.3,0.6v0.3l0,1.3c0,0.8,0,1.2,0,1.2c-0.2,0.2-0.6,0.3-1.3,0.3c-0.1,0-0.1,0-0.1,0
			C28.1,15.4,28.1,14.8,28.1,13.9z"/>
		<path class="st25" d="M41.2,14.9c-0.5,0.6-1.1,0.8-1.9,0.8s-1.4-0.2-1.9-0.7c-0.4-0.5-0.7-1.1-0.7-1.9c0-0.8,0.3-1.5,0.8-2.1
			c0.6-0.6,1.3-0.9,2.3-0.9c0.4,0,0.6,0,0.6,0.1c0,0,0,0.1,0,0.2s0,0.3,0,0.4c0.1,0,0.3,0.1,0.5,0.2c0.2,0.1,0.3,0.3,0.5,0.4
			c0.1,0.1,0.2,0.3,0.3,0.6c0.1,0.3,0.1,0.6,0.1,0.9C41.9,13.7,41.6,14.3,41.2,14.9z M40.1,12.1c-0.2-0.1-0.4-0.2-0.5-0.2h-0.1
			c0,0,0-0.1,0-0.2c0-0.1,0-0.2,0-0.3c-0.3,0-0.6,0.1-0.9,0.4c-0.3,0.3-0.4,0.7-0.4,1.2c0,0.6,0.2,1.1,0.6,1.3
			c0.2,0.1,0.4,0.1,0.6,0.1c0.3,0,0.5-0.1,0.8-0.4c0.2-0.2,0.4-0.6,0.4-1.1S40.4,12.2,40.1,12.1z"/>
		<path class="st25" d="M43.8,13.8l0-2.7c0-0.5,0-0.7,0-0.8c0.1-0.1,0.2-0.2,0.5-0.2s0.4-0.1,0.6-0.1c0.2,0,0.3,0,0.3,0.1
			c0,0.2,0,0.5,0,0.7c0,0.3,0,0.4,0,0.4c0,0,0,0,0,0c0,0,0-0.1,0.1-0.1s0.1-0.1,0.2-0.2c0.1-0.1,0.2-0.2,0.4-0.3
			c0.3-0.2,0.7-0.3,1.1-0.3c0.1,0.1,0.1,0.3,0.1,0.5c0,0.5-0.1,0.8-0.2,1l0,0.1l-0.2,0c-0.6,0-1,0.2-1.4,0.7
			c-0.1,0.2-0.2,0.3-0.2,0.4v1.1c0,1,0,1.5,0,1.5c-0.2,0.2-0.7,0.3-1.3,0.3c-0.1,0-0.1,0-0.1,0C43.8,15.4,43.8,14.8,43.8,13.8z"/>
		<path class="st25" d="M52.5,15.4c-0.3,0.2-0.8,0.3-1.6,0.3s-1.4-0.2-1.8-0.7c-0.4-0.5-0.6-1.1-0.6-1.9s0.3-1.5,0.8-2.1
			c0.5-0.6,1.2-0.9,2.1-0.9c0.4,0,0.7,0.1,1,0.3c0.3,0.2,0.5,0.6,0.5,1.1s-0.2,1-0.7,1.5c-0.4,0.5-1,0.9-1.8,1.1
			c0,0.1,0.1,0.2,0.3,0.2c0.2,0.1,0.4,0.1,0.6,0.1c0.6,0,1.1-0.1,1.4-0.3c0,0,0,0,0,0c0,0,0,0.1,0,0.2
			C52.8,14.8,52.7,15.2,52.5,15.4z M51.5,11.6c0-0.2-0.1-0.3-0.4-0.3c-0.3,0-0.6,0.2-0.9,0.5s-0.4,0.7-0.4,1.2c0,0.1,0,0.2,0,0.2
			c0.3,0,0.6-0.2,1-0.5C51.3,12.3,51.5,12,51.5,11.6z"/>
		<path class="st25" d="M59.2,14.3c0.1,0.1,0.2,0.3,0.2,0.5c0,0.2-0.1,0.4-0.2,0.5c-0.1,0.1-0.3,0.2-0.5,0.2s-0.4-0.1-0.5-0.2
			S58,15,58,14.8s0.1-0.4,0.2-0.5c0.1-0.1,0.3-0.2,0.5-0.2C58.9,14.1,59.1,14.1,59.2,14.3z"/>
		<path class="st25" d="M62.5,14.3c0.1,0.1,0.2,0.3,0.2,0.5c0,0.2-0.1,0.4-0.2,0.5c-0.1,0.1-0.3,0.2-0.5,0.2c-0.2,0-0.4-0.1-0.5-0.2
			s-0.2-0.3-0.2-0.5s0.1-0.4,0.2-0.5c0.1-0.1,0.3-0.2,0.5-0.2C62.2,14.1,62.3,14.1,62.5,14.3z"/>
		<path class="st25" d="M65.7,14.3c0.1,0.1,0.2,0.3,0.2,0.5c0,0.2-0.1,0.4-0.2,0.5c-0.1,0.1-0.3,0.2-0.5,0.2c-0.2,0-0.4-0.1-0.5-0.2
			s-0.2-0.3-0.2-0.5s0.1-0.4,0.2-0.5c0.1-0.1,0.3-0.2,0.5-0.2C65.4,14.1,65.6,14.1,65.7,14.3z"/>
	</g>
	<g id="Layer_4_3_">
		<g class="st1">
			<g>
				
					<linearGradient id="SVGID_8_" gradientUnits="userSpaceOnUse" x1="38.6" y1="36.6925" x2="38.6" y2="-0.3075" gradientTransform="matrix(1 0 0 -1 0 25.8803)">
					<stop  offset="0" style="stop-color:#FFFFFF"/>
					<stop  offset="1" style="stop-color:#E21E26"/>
				</linearGradient>
				<path class="st26" d="M79.7,26.3c0,0.8-0.6,1.4-1.4,1.4H-1.1c-0.8,0-1.4-0.6-1.4-1.4V-0.9c0-0.8,0.6-1.4,1.4-1.4h79.3
					c0.8,0,1.4,0.6,1.4,1.4L79.7,26.3L79.7,26.3z"/>
				<path class="st6" d="M79.7,26.3c0,0.8-0.6,1.4-1.4,1.4H-1.1c-0.8,0-1.4-0.6-1.4-1.4V-0.9c0-0.8,0.6-1.4,1.4-1.4h79.3
					c0.8,0,1.4,0.6,1.4,1.4L79.7,26.3L79.7,26.3z"/>
			</g>
			<g>
				<text transform="matrix(1 0 0 1 27.3977 15.4263)" class="st22" style="font-family:'BubblegumSans-Regular'; font-size:12px;">more ...</text>
			</g>
			<g>
				<g>
					<path d="M25.5,24.1c0,0.8-0.6,1.4-1.4,1.4H1.4c-0.8,0-1.4-0.6-1.4-1.4V1.4C0,0.6,0.6,0,1.4,0h22.7c0.8,0,1.4,0.6,1.4,1.4V24.1z
						"/>
				</g>
				<text transform="matrix(1 0 0 1 3.5219 24.0594)" class="st7 st8 st9">B</text>
			</g>
		</g>
	</g>
	<g class="st1">
		<g>
			<path class="st18" d="M25.5,24.1c0,0.8-0.6,1.4-1.4,1.4H1.4c-0.8,0-1.4-0.6-1.4-1.4V1.4C0,0.6,0.6,0,1.4,0h22.7
				c0.8,0,1.4,0.6,1.4,1.4V24.1z"/>
		</g>
	</g>
	<g class="st1">
		<path class="st13" d="M7.5,4.1h5.4c3.6,0,6.2,1.1,6.2,4.4v0.7c0,1.6-0.8,3.1-2,3.6c1.4,0.6,2.3,2.1,2.3,3.8v0.7
			c0,3.1-2.6,4.5-6.5,4.5H9.9c0,0-2.4,0-2.4-1.4V4.1z M10.2,6.2v5.6h2.9c2.4,0,3.3-1,3.3-3c0-2-1.1-2.6-3.5-2.6H10.2z M10.2,13.8
			v5.8h2.7c2.6,0,3.7-0.8,3.7-2.8c0-1.9-1.1-3-3.5-3H10.2z"/>
	</g>
</g>
<g id="_x33__down" class="st0">
	<title>Artboard 1</title>
	<g class="st1">
		<linearGradient id="SVGID_9_" gradientUnits="userSpaceOnUse" x1="38.6" y1="-5.8197" x2="38.6" y2="27.6813">
			<stop  offset="0" style="stop-color:#FFFFFF"/>
			<stop  offset="0.1" style="stop-color:#FCE8E9;stop-opacity:0.5"/>
			<stop  offset="1" style="stop-color:#E21E26"/>
			<stop  offset="1" style="stop-color:#000000;stop-opacity:0.5"/>
		</linearGradient>
		<path class="st27" d="M79.7,26.3c0,0.8-0.6,1.4-1.4,1.4H-1.1c-0.8,0-1.4-0.6-1.4-1.4V-0.9c0-0.8,0.6-1.4,1.4-1.4h79.3
			c0.8,0,1.4,0.6,1.4,1.4L79.7,26.3L79.7,26.3z"/>
		<path class="st11" d="M78.3,28.2H-1.1c-1.1,0-1.9-0.8-1.9-1.9V-0.9C-3-2-2.2-2.8-1.1-2.8h79.3c1.1,0,1.9,0.8,1.9,1.9v26.7h0.1v0.5
			C80.2,27.4,79.4,28.2,78.3,28.2z M-1.1-1.8C-1.6-1.8-2-1.4-2-0.9v27.2c0,0.5,0.4,0.9,0.9,0.9h79.4c0.4,0,0.7-0.2,0.8-0.5V-0.9
			c0-0.5-0.4-0.9-0.9-0.9H-1.1z"/>
	</g>
	<g class="st24">
		<path class="st25" d="M28.1,13.9l0-2.8c0-0.5,0-0.8,0.1-0.8c0.1-0.1,0.2-0.2,0.4-0.2s0.4-0.1,0.6-0.1c0.2,0,0.3,0,0.3,0
			c0,0.4,0,0.6,0,0.8c0,0.2,0,0.3,0,0.3c0,0,0,0,0.1-0.1c0,0,0.1-0.1,0.2-0.2s0.2-0.2,0.5-0.3c0.2-0.1,0.4-0.2,0.6-0.2
			c0.5,0,0.9,0.2,1.2,0.7c0.5-0.6,1-1,1.5-1c0.5,0,0.9,0.2,1.1,0.6c0.2,0.5,0.4,0.9,0.4,1.4c0,0.7,0.1,1.4,0.1,2.1l0,1.4
			c0,0.1-0.1,0.1-0.4,0.2c-0.3,0.1-0.5,0.1-0.6,0.1l-0.4-0.1c0.1-0.8,0.1-1.4,0.1-1.9c0-0.5,0-0.8,0-1s0-0.4-0.1-0.6
			s-0.1-0.4-0.2-0.5c-0.1-0.1-0.2-0.1-0.4-0.1c-0.2,0-0.3,0-0.4,0.1s-0.2,0.2-0.3,0.2c-0.1,0.1-0.1,0.1-0.1,0.2c0,0.3,0,0.8,0,1.8
			l0,0.9c0,0.1-0.1,0.1-0.4,0.2s-0.5,0.1-0.6,0.1l-0.4-0.1c0.1-0.6,0.1-1.3,0.1-1.8c0-0.6,0-1-0.1-1.2c-0.1-0.2-0.2-0.3-0.5-0.3
			s-0.5,0.1-0.6,0.4s-0.3,0.5-0.3,0.6v0.3l0,1.3c0,0.8,0,1.2,0,1.2c-0.2,0.2-0.6,0.3-1.3,0.3c-0.1,0-0.1,0-0.1,0
			C28.1,15.4,28.1,14.8,28.1,13.9z"/>
		<path class="st25" d="M41.2,14.9c-0.5,0.6-1.1,0.8-1.9,0.8s-1.4-0.2-1.9-0.7c-0.4-0.5-0.7-1.1-0.7-1.9c0-0.8,0.3-1.5,0.8-2.1
			c0.6-0.6,1.3-0.9,2.3-0.9c0.4,0,0.6,0,0.6,0.1c0,0,0,0.1,0,0.2s0,0.3,0,0.4c0.1,0,0.3,0.1,0.5,0.2c0.2,0.1,0.3,0.3,0.5,0.4
			c0.1,0.1,0.2,0.3,0.3,0.6c0.1,0.3,0.1,0.6,0.1,0.9C41.9,13.7,41.6,14.3,41.2,14.9z M40.1,12.1c-0.2-0.1-0.4-0.2-0.5-0.2h-0.1
			c0,0,0-0.1,0-0.2c0-0.1,0-0.2,0-0.3c-0.3,0-0.6,0.1-0.9,0.4c-0.3,0.3-0.4,0.7-0.4,1.2c0,0.6,0.2,1.1,0.6,1.3
			c0.2,0.1,0.4,0.1,0.6,0.1c0.3,0,0.5-0.1,0.8-0.4c0.2-0.2,0.4-0.6,0.4-1.1S40.4,12.2,40.1,12.1z"/>
		<path class="st25" d="M43.8,13.8l0-2.7c0-0.5,0-0.7,0-0.8c0.1-0.1,0.2-0.2,0.5-0.2s0.4-0.1,0.6-0.1c0.2,0,0.3,0,0.3,0.1
			c0,0.2,0,0.5,0,0.7c0,0.3,0,0.4,0,0.4c0,0,0,0,0,0c0,0,0-0.1,0.1-0.1s0.1-0.1,0.2-0.2c0.1-0.1,0.2-0.2,0.4-0.3
			c0.3-0.2,0.7-0.3,1.1-0.3c0.1,0.1,0.1,0.3,0.1,0.5c0,0.5-0.1,0.8-0.2,1l0,0.1l-0.2,0c-0.6,0-1,0.2-1.4,0.7
			c-0.1,0.2-0.2,0.3-0.2,0.4v1.1c0,1,0,1.5,0,1.5c-0.2,0.2-0.7,0.3-1.3,0.3c-0.1,0-0.1,0-0.1,0C43.8,15.4,43.8,14.8,43.8,13.8z"/>
		<path class="st25" d="M52.5,15.4c-0.3,0.2-0.8,0.3-1.6,0.3s-1.4-0.2-1.8-0.7c-0.4-0.5-0.6-1.1-0.6-1.9s0.3-1.5,0.8-2.1
			c0.5-0.6,1.2-0.9,2.1-0.9c0.4,0,0.7,0.1,1,0.3c0.3,0.2,0.5,0.6,0.5,1.1s-0.2,1-0.7,1.5c-0.4,0.5-1,0.9-1.8,1.1
			c0,0.1,0.1,0.2,0.3,0.2c0.2,0.1,0.4,0.1,0.6,0.1c0.6,0,1.1-0.1,1.4-0.3c0,0,0,0,0,0c0,0,0,0.1,0,0.2
			C52.8,14.8,52.7,15.2,52.5,15.4z M51.5,11.6c0-0.2-0.1-0.3-0.4-0.3c-0.3,0-0.6,0.2-0.9,0.5s-0.4,0.7-0.4,1.2c0,0.1,0,0.2,0,0.2
			c0.3,0,0.6-0.2,1-0.5C51.3,12.3,51.5,12,51.5,11.6z"/>
		<path class="st25" d="M59.2,14.3c0.1,0.1,0.2,0.3,0.2,0.5c0,0.2-0.1,0.4-0.2,0.5c-0.1,0.1-0.3,0.2-0.5,0.2s-0.4-0.1-0.5-0.2
			S58,15,58,14.8s0.1-0.4,0.2-0.5c0.1-0.1,0.3-0.2,0.5-0.2C58.9,14.1,59.1,14.1,59.2,14.3z"/>
		<path class="st25" d="M62.5,14.3c0.1,0.1,0.2,0.3,0.2,0.5c0,0.2-0.1,0.4-0.2,0.5c-0.1,0.1-0.3,0.2-0.5,0.2c-0.2,0-0.4-0.1-0.5-0.2
			s-0.2-0.3-0.2-0.5s0.1-0.4,0.2-0.5c0.1-0.1,0.3-0.2,0.5-0.2C62.2,14.1,62.3,14.1,62.5,14.3z"/>
		<path class="st25" d="M65.7,14.3c0.1,0.1,0.2,0.3,0.2,0.5c0,0.2-0.1,0.4-0.2,0.5c-0.1,0.1-0.3,0.2-0.5,0.2c-0.2,0-0.4-0.1-0.5-0.2
			s-0.2-0.3-0.2-0.5s0.1-0.4,0.2-0.5c0.1-0.1,0.3-0.2,0.5-0.2C65.4,14.1,65.6,14.1,65.7,14.3z"/>
	</g>
	<g id="Layer_4_4_">
		<g class="st1">
			<g>
				
					<linearGradient id="SVGID_10_" gradientUnits="userSpaceOnUse" x1="38.6" y1="36.6925" x2="38.6" y2="-0.3075" gradientTransform="matrix(1 0 0 -1 0 25.8803)">
					<stop  offset="0" style="stop-color:#FFFFFF"/>
					<stop  offset="1" style="stop-color:#E21E26"/>
				</linearGradient>
				<path class="st28" d="M79.7,26.3c0,0.8-0.6,1.4-1.4,1.4H-1.1c-0.8,0-1.4-0.6-1.4-1.4V-0.9c0-0.8,0.6-1.4,1.4-1.4h79.3
					c0.8,0,1.4,0.6,1.4,1.4L79.7,26.3L79.7,26.3z"/>
				<path class="st6" d="M79.7,26.3c0,0.8-0.6,1.4-1.4,1.4H-1.1c-0.8,0-1.4-0.6-1.4-1.4V-0.9c0-0.8,0.6-1.4,1.4-1.4h79.3
					c0.8,0,1.4,0.6,1.4,1.4L79.7,26.3L79.7,26.3z"/>
			</g>
			<g>
				<text transform="matrix(1 0 0 1 27.3977 15.4263)" class="st22" style="font-family:'BubblegumSans-Regular'; font-size:12px;">more ...</text>
			</g>
			<g>
				<g>
					<path d="M25.5,24.1c0,0.8-0.6,1.4-1.4,1.4H1.4c-0.8,0-1.4-0.6-1.4-1.4V1.4C0,0.6,0.6,0,1.4,0h22.7c0.8,0,1.4,0.6,1.4,1.4V24.1z
						"/>
				</g>
				<text transform="matrix(1 0 0 1 3.5219 24.0594)" class="st7 st8 st9">B</text>
			</g>
		</g>
	</g>
	<g class="st1">
		<g>
			<path class="st29" d="M25.5,24.1c0,0.8-0.6,1.4-1.4,1.4H1.4c-0.8,0-1.4-0.6-1.4-1.4V1.4C0,0.6,0.6,0,1.4,0h22.7
				c0.8,0,1.4,0.6,1.4,1.4V24.1z"/>
		</g>
	</g>
	<g class="st1">
		<path class="st13" d="M7.5,4.1h5.4c3.6,0,6.2,1.1,6.2,4.4v0.7c0,1.6-0.8,3.1-2,3.6c1.4,0.6,2.3,2.1,2.3,3.8v0.7
			c0,3.1-2.6,4.5-6.5,4.5H9.9c0,0-2.4,0-2.4-1.4V4.1z M10.2,6.2v5.6h2.9c2.4,0,3.3-1,3.3-3c0-2-1.1-2.6-3.5-2.6H10.2z M10.2,13.8
			v5.8h2.7c2.6,0,3.7-0.8,3.7-2.8c0-1.9-1.1-3-3.5-3H10.2z"/>
	</g>
</g>
<g id="_x34__active_1_" class="st0">
	<title>Artboard 1</title>
	<g id="Layer_4_8_" class="st1">
		<g>
			<g>
				
					<linearGradient id="SVGID_11_" gradientUnits="userSpaceOnUse" x1="38.6" y1="36.6925" x2="38.6" y2="-0.3075" gradientTransform="matrix(1 0 0 -1 0 25.8803)">
					<stop  offset="0" style="stop-color:#FFFFFF"/>
					<stop  offset="1" style="stop-color:#E21E26"/>
				</linearGradient>
				<path class="st30" d="M79.7,26.3c0,0.8-0.6,1.4-1.4,1.4H-1.1c-0.8,0-1.4-0.6-1.4-1.4V-0.9c0-0.8,0.6-1.4,1.4-1.4h79.3
					c0.8,0,1.4,0.6,1.4,1.4L79.7,26.3L79.7,26.3z"/>
				<path class="st6" d="M79.7,26.3c0,0.8-0.6,1.4-1.4,1.4H-1.1c-0.8,0-1.4-0.6-1.4-1.4V-0.9c0-0.8,0.6-1.4,1.4-1.4h79.3
					c0.8,0,1.4,0.6,1.4,1.4L79.7,26.3L79.7,26.3z"/>
			</g>
			<g>
				<text transform="matrix(1 0 0 1 27.3977 15.4263)" class="st22" style="font-family:'BubblegumSans-Regular'; font-size:12px;">more ...</text>
			</g>
			<g>
				<g>
					<path d="M25.5,24.1c0,0.8-0.6,1.4-1.4,1.4H1.4c-0.8,0-1.4-0.6-1.4-1.4V1.4C0,0.6,0.6,0,1.4,0h22.7c0.8,0,1.4,0.6,1.4,1.4V24.1z
						"/>
				</g>
			</g>
		</g>
	</g>
	<g id="Layer_4_2_" class="st1">
		<g>
			<g>
				
					<linearGradient id="SVGID_12_" gradientUnits="userSpaceOnUse" x1="38.6" y1="36.6925" x2="38.6" y2="-0.3075" gradientTransform="matrix(1 0 0 -1 0 25.8803)">
					<stop  offset="0" style="stop-color:#FFFFFF"/>
					<stop  offset="1" style="stop-color:#E21E26"/>
				</linearGradient>
				<path class="st31" d="M79.7,26.3c0,0.8-0.6,1.4-1.4,1.4H-1.1c-0.8,0-1.4-0.6-1.4-1.4V-0.9c0-0.8,0.6-1.4,1.4-1.4h79.3
					c0.8,0,1.4,0.6,1.4,1.4L79.7,26.3L79.7,26.3z"/>
				<path class="st6" d="M79.7,26.3c0,0.8-0.6,1.4-1.4,1.4H-1.1c-0.8,0-1.4-0.6-1.4-1.4V-0.9c0-0.8,0.6-1.4,1.4-1.4h79.3
					c0.8,0,1.4,0.6,1.4,1.4L79.7,26.3L79.7,26.3z"/>
			</g>
			<g>
				<text transform="matrix(1 0 0 1 27.3977 15.4263)" class="st22" style="font-family:'BubblegumSans-Regular'; font-size:12px;">more ...</text>
			</g>
			<g>
				<g>
					<path d="M25.5,24.1c0,0.8-0.6,1.4-1.4,1.4H1.4c-0.8,0-1.4-0.6-1.4-1.4V1.4C0,0.6,0.6,0,1.4,0h22.7c0.8,0,1.4,0.6,1.4,1.4V24.1z
						"/>
				</g>
			</g>
		</g>
	</g>
	<g class="st1">
		<path class="st13" d="M7.5,4.1h5.4c3.6,0,6.2,1.1,6.2,4.4v0.7c0,1.6-0.8,3.1-2,3.6c1.4,0.6,2.3,2.1,2.3,3.8v0.7
			c0,3.1-2.6,4.5-6.5,4.5H9.9c0,0-2.4,0-2.4-1.4V4.1z M10.2,6.2v5.6h2.9c2.4,0,3.3-1,3.3-3c0-2-1.1-2.6-3.5-2.6H10.2z M10.2,13.8
			v5.8h2.7c2.6,0,3.7-0.8,3.7-2.8c0-1.9-1.1-3-3.5-3H10.2z"/>
	</g>
</g>
</svg>
