<?xml version="1.0" encoding="utf-8"?>
<!-- Generator: Adobe Illustrator 22.1.0, SVG Export Plug-In . SVG Version: 6.00 Build 0)  -->
<svg version="1.0" xmlns="http://www.w3.org/2000/svg" xmlns:xlink="http://www.w3.org/1999/xlink" x="0px" y="0px"
	 viewBox="0 0 40.9 40.9" style="enable-background:new 0 0 40.9 40.9;" xml:space="preserve">
<style type="text/css">
	.st0{fill:#FBFBFB;}
	.st1{fill:#0C0B0B;}
	.st2{display:none;}
	.st3{display:inline;}
	.st4{fill:#FFFFFF;}
	.st5{fill:#4D4D4D;}
	.st6{clip-path:url(#SVGID_2_);}
	.st7{fill:none;stroke:#0C0B0B;stroke-miterlimit:10;}
	.st8{fill:#E6E6E6;}
	.st9{clip-path:url(#SVGID_4_);}
	.st10{fill:#F9F8D4;}
	.st11{clip-path:url(#SVGID_6_);}
</style>
<g id="base">
	<g id="BORDER_copy_4">
		<g>
			<circle class="st0" cx="20.4" cy="20.4" r="20"/>
			<path class="st1" d="M20.4,1.2c10.6,0,19.3,8.6,19.3,19.3s-8.6,19.2-19.3,19.2S1.2,31.1,1.2,20.4S9.8,1.2,20.4,1.2 M20.4,0.4
				c-11,0-20,9-20,20c0,11,9,20,20,20s20-9,20-20C40.4,9.4,31.5,0.4,20.4,0.4L20.4,0.4z"/>
		</g>
	</g>
	<g id="Layer_1" class="st2">
		<g class="st3">
			<g>
				<g>
					<g>
						<rect x="7.1" y="7.3" class="st4" width="26.5" height="26.5"/>
						<g>
							<path class="st1" d="M31.5,6.3h-4c-0.5,0-0.8,0.4-0.8,0.8S27.1,8,27.6,8h4c0.8,0,1.4,0.6,1.4,1.4v4c0,0.5,0.4,0.8,0.8,0.8
								c0.5,0,0.8-0.4,0.8-0.8v-4C34.6,7.7,33.2,6.3,31.5,6.3z"/>
							<path class="st1" d="M7.1,14.1c0.5,0,0.8-0.4,0.8-0.8v-4C8,8.6,8.6,8,9.4,8h4c0.5,0,0.8-0.4,0.8-0.8c0-0.5-0.4-0.8-0.8-0.8
								h-4c-1.7,0-3.1,1.4-3.1,3.1v4C6.3,13.8,6.7,14.1,7.1,14.1z"/>
							<path class="st1" d="M13.3,32.9h-4c-0.8,0-1.4-0.6-1.4-1.4v-4c0-0.5-0.4-0.8-0.8-0.8c-0.5,0-0.8,0.4-0.8,0.8v4
								c0,1.7,1.4,3.1,3.1,3.1h4c0.5,0,0.8-0.4,0.8-0.8C14.1,33.3,13.8,32.9,13.3,32.9z"/>
							<path class="st1" d="M33.7,26.7c-0.5,0-0.8,0.4-0.8,0.8v4c0,0.8-0.6,1.4-1.4,1.4h-4c-0.5,0-0.8,0.4-0.8,0.8
								c0,0.5,0.4,0.8,0.8,0.8h4c1.7,0,3.1-1.4,3.1-3.1v-4C34.6,27.1,34.2,26.7,33.7,26.7z"/>
							<path class="st1" d="M25.2,12.4h2.6c0.4,0,0.7,0.3,0.7,0.7v2.6c0,0.5,0.4,0.8,0.8,0.8s0.8-0.4,0.8-0.8V13
								c0-1.3-1-2.3-2.3-2.3h-2.6c-0.5,0-0.8,0.4-0.8,0.8S24.7,12.4,25.2,12.4z"/>
							<path class="st1" d="M10.8,13v2.6c0,0.5,0.4,0.8,0.8,0.8c0.5,0,0.8-0.4,0.8-0.8V13c0-0.4,0.3-0.7,0.7-0.7h2.6
								c0.5,0,0.8-0.4,0.8-0.8s-0.4-0.8-0.8-0.8h-2.6C11.8,10.7,10.8,11.8,10.8,13z"/>
							<path class="st1" d="M15.7,28.4h-2.6c-0.4,0-0.7-0.3-0.7-0.7v-2.6c0-0.5-0.4-0.8-0.8-0.8c-0.5,0-0.8,0.4-0.8,0.8v2.6
								c0,1.3,1,2.3,2.3,2.3h2.6c0.5,0,0.8-0.4,0.8-0.8C16.5,28.8,16.2,28.4,15.7,28.4z"/>
							<path class="st1" d="M30.1,27.7v-2.6c0-0.5-0.4-0.8-0.8-0.8s-0.8,0.4-0.8,0.8v2.6c0,0.4-0.3,0.7-0.7,0.7h-2.6
								c-0.5,0-0.8,0.4-0.8,0.8c0,0.5,0.4,0.8,0.8,0.8h2.6C29.1,30,30.1,29,30.1,27.7z"/>
							<path class="st1" d="M6.4,20.4c0,0.5,0.4,0.8,0.8,0.8h26.5c0.5,0,0.8-0.4,0.8-0.8c0-0.5-0.4-0.8-0.8-0.8H7.2
								C6.7,19.6,6.4,20,6.4,20.4z"/>
						</g>
					</g>
				</g>
			</g>
		</g>
	</g>
	<g id="Layer_2" class="st2">
		<g class="st3">
			<g>
				<path class="st5" d="M4.7,11.5l13.7-6.4l10.7,3.8l8,17c0.4,0.9,0,2-0.9,2.4l-19.4,9.1c-0.9,0.4-2,0-2.4-0.9L3.8,13.9
					C3.4,13,3.8,11.9,4.7,11.5z"/>
				<path class="st1" d="M29.1,8.9l-5.6,2.6c-0.9,0.4-2,0-2.4-0.9l-2.6-5.6L29.1,8.9z"/>
				<path class="st4" d="M25.4,16.8c0.3-0.1,0.3-0.4,0.2-0.7c-0.1-0.2-0.4-0.4-0.6-0.3l-1.5,0.7c-0.3,0.1-0.4,0.5-0.2,0.7l1.8,3.8
					c0.2,0.3,0.4,0.4,0.7,0.3c0.3-0.1,0.4-0.4,0.2-0.7l-0.5-1l0.9-0.4c0.3-0.1,0.3-0.4,0.2-0.7c-0.1-0.2-0.4-0.4-0.6-0.3l-0.9,0.4
					l-0.7-1.4L25.4,16.8z M19.7,18.3l-1.1,0.5c-0.3,0.1-0.4,0.5-0.3,0.8l1.8,3.8c0.2,0.4,0.6,0.4,0.8,0.3l1.2-0.6
					c1.4-0.7,1.9-2,1.2-3.4C22.6,18.1,21.3,17.6,19.7,18.3z M21.6,22.1l-0.7,0.3l-1.4-3l0.6-0.3c0.9-0.4,1.6,0,2.1,0.9
					C22.6,20.9,22.5,21.7,21.6,22.1z M15.6,20.2l-1.1,0.5c-0.3,0.1-0.4,0.4-0.2,0.8l1.8,3.8c0.2,0.3,0.4,0.4,0.7,0.3
					s0.4-0.4,0.2-0.7l-0.5-1.1l0.7-0.3C18.1,23,18.5,22,18,21C17.6,20.1,16.6,19.8,15.6,20.2z M16.7,22.5l-0.6,0.3l-0.7-1.4l0.6-0.3
					c0.4-0.2,0.8,0,1,0.4C17.2,21.9,17.1,22.3,16.7,22.5z"/>
			</g>
		</g>
	</g>
	<g id="Layer_3" class="st2">
		<g class="st3">
			<defs>
				<circle id="SVGID_1_" cx="20.4" cy="20.4" r="20"/>
			</defs>
			<clipPath id="SVGID_2_">
				<use xlink:href="#SVGID_1_"  style="overflow:visible;"/>
			</clipPath>
			<g class="st6">
				<g>
					<g>
						<g>
							<path class="st4" d="M28.8,6.4c-0.2,0-16.7,0-16.7,0s0,0,0,0c-1.1,0-2.2,0.4-2.9,1.2s-1.2,1.8-1.2,2.9v1.7c0,0,0,0,0,0
								c0,0,0,0,0,0v28.4c0,2.3,1.9,4.2,4.2,4.2h16.7c2.3,0,4.2-1.9,4.2-4.2v-30C33,8.3,31.1,6.4,28.8,6.4z"/>
							<g>
								<g>
									<g>
										<circle class="st1" cx="20.4" cy="38.1" r="1.7"/>
									</g>
								</g>
								<g>
									<g>
										<path class="st1" d="M17.7,21.7l-3.3-3.3c-0.3-0.3-0.9-0.3-1.2,0c-0.3,0.3-0.3,0.9,0,1.2l2.7,2.7L13.2,25
											c-0.3,0.3-0.3,0.9,0,1.2c0.2,0.2,0.4,0.2,0.6,0.2s0.4-0.1,0.6-0.2l3.3-3.3C18,22.5,18,22,17.7,21.7z"/>
									</g>
								</g>
								<g>
									<g>
										<path class="st1" d="M27.1,24.8h-6.7c-0.5,0-0.8,0.4-0.8,0.8c0,0.5,0.4,0.8,0.8,0.8h6.7c0.5,0,0.8-0.4,0.8-0.8
											C27.9,25.2,27.6,24.8,27.1,24.8z"/>
									</g>
								</g>
								<g>
									<g>
										<path class="st1" d="M27.1,19.8h-5c-0.5,0-0.8,0.4-0.8,0.8s0.4,0.8,0.8,0.8h5c0.5,0,0.8-0.4,0.8-0.8S27.6,19.8,27.1,19.8z
											"/>
									</g>
								</g>
								<g>
									<g>
										<path class="st1" d="M27.1,29.8H13.8c-0.5,0-0.8,0.4-0.8,0.8c0,0.5,0.4,0.8,0.8,0.8h13.3c0.5,0,0.8-0.4,0.8-0.8
											C27.9,30.2,27.6,29.8,27.1,29.8z"/>
									</g>
								</g>
								<g>
									<g>
										<path class="st1" d="M28.8,6.4c-0.2,0-16.7,0-16.7,0s0,0,0,0c-1.1,0-2.2,0.4-2.9,1.2s-1.2,1.8-1.2,2.9v1.7c0,0,0,0,0,0
											c0,0,0,0,0,0v28.4c0,2.3,1.9,4.2,4.2,4.2h16.7c2.3,0,4.2-1.9,4.2-4.2v-30C33,8.3,31.1,6.4,28.8,6.4z M9.6,10.6
											c0-0.7,0.3-1.3,0.7-1.8c0.5-0.5,1.1-0.7,1.8-0.7h8.3c5.5,0,7.6,0,8.3-0.1v0.1c1.4,0,2.5,1.1,2.5,2.5v0.8H9.6V10.6z
											 M31.3,40.6c0,1.4-1.1,2.5-2.5,2.5H12.1c-1.4,0-2.5-1.1-2.5-2.5V13.1h21.7V40.6z"/>
									</g>
								</g>
							</g>
						</g>
					</g>
				</g>
			</g>
		</g>
	</g>
	<g id="Layer_3_copy">
		<g>
			<g>
				<g>
					<path class="st1" d="M19.6,8.7c-0.5-0.3-1.1-0.3-1.6,0c0,0,0,0-0.1,0l-7.1,6H5.2c-0.3,0-0.5,0.2-0.5,0.5v10
						c0,0.1,0.1,0.3,0.2,0.4c0.1,0.1,0.2,0.2,0.4,0.2l5.6,0l7.1,6.6c0,0,0.1,0,0.1,0.1c0.3,0.2,0.5,0.2,0.8,0.2
						c0.3,0,0.5-0.1,0.8-0.2c0.5-0.3,0.8-0.8,0.8-1.5V10.2C20.4,9.6,20.1,9,19.6,8.7z"/>
					<path class="st1" d="M32,20.4c0-4.4-2.8-8.3-7-9.7c-0.3-0.1-0.6,0.1-0.7,0.3c-0.1,0.3,0.1,0.6,0.3,0.7c3.7,1.3,6.3,4.8,6.3,8.7
						c0,3.9-2.5,7.4-6.2,8.7c-0.3,0.1-0.4,0.4-0.3,0.7c0.1,0.2,0.3,0.4,0.5,0.4c0.1,0,0.1,0,0.2,0C29.2,28.7,32,24.8,32,20.4z"/>
					<path class="st1" d="M28.1,8c-0.3-0.1-0.6,0-0.7,0.3c-0.1,0.3,0,0.6,0.3,0.7c4.6,1.9,7.5,6.4,7.5,11.4c0,5.1-3.1,9.7-7.9,11.5
						C27,32,26.9,32.3,27,32.6c0.1,0.2,0.3,0.3,0.5,0.3c0.1,0,0.1,0,0.2,0c5.2-2,8.6-6.9,8.6-12.5C36.2,15,33,10.1,28.1,8z"/>
					<path class="st1" d="M27.3,20.4c0-3.1-2.1-6-5.1-6.8c-0.3-0.1-0.6,0.1-0.7,0.4c-0.1,0.3,0.1,0.6,0.4,0.7
						c2.6,0.7,4.4,3.1,4.4,5.8s-1.8,5.1-4.4,5.8c-0.3,0.1-0.4,0.4-0.4,0.7c0.1,0.2,0.3,0.4,0.5,0.4c0,0,0.1,0,0.1,0
						C25.2,26.3,27.3,23.5,27.3,20.4z"/>
				</g>
			</g>
			<g>
				<path class="st4" d="M10.4,14.5V18c0,0.3,0.2,0.5,0.5,0.5s0.5-0.2,0.5-0.5v-4L10.4,14.5z"/>
				<path class="st4" d="M11.5,26.8v-4c0-0.3-0.2-0.5-0.5-0.5s-0.5,0.2-0.5,0.5v3.7L11.5,26.8z"/>
			</g>
		</g>
	</g>
	<g id="BORDER">
		<circle class="st7" cx="20.4" cy="20.4" r="20"/>
	</g>
</g>
<g id="over" class="st2">
	<g id="BORDER_copy_2" class="st3">
		<g>
			<circle class="st8" cx="20.4" cy="20.4" r="20"/>
			<path class="st1" d="M20.4,1.2c10.6,0,19.3,8.6,19.3,19.3s-8.6,19.2-19.3,19.2S1.2,31.1,1.2,20.4S9.8,1.2,20.4,1.2 M20.4,0.4
				c-11,0-20,9-20,20c0,11,9,20,20,20s20-9,20-20C40.4,9.4,31.5,0.4,20.4,0.4L20.4,0.4z"/>
		</g>
	</g>
	<g id="Layer_1_copy">
		<g class="st3">
			<g>
				<g>
					<g>
						<rect x="7.1" y="7.3" class="st8" width="26.5" height="26.5"/>
						<g>
							<path class="st1" d="M31.5,6.3h-4c-0.5,0-0.8,0.4-0.8,0.8S27.1,8,27.6,8h4c0.8,0,1.4,0.6,1.4,1.4v4c0,0.5,0.4,0.8,0.8,0.8
								c0.5,0,0.8-0.4,0.8-0.8v-4C34.6,7.7,33.2,6.3,31.5,6.3z"/>
							<path class="st1" d="M7.1,14.1c0.5,0,0.8-0.4,0.8-0.8v-4C8,8.6,8.6,8,9.4,8h4c0.5,0,0.8-0.4,0.8-0.8c0-0.5-0.4-0.8-0.8-0.8
								h-4c-1.7,0-3.1,1.4-3.1,3.1v4C6.3,13.8,6.7,14.1,7.1,14.1z"/>
							<path class="st1" d="M13.3,32.9h-4c-0.8,0-1.4-0.6-1.4-1.4v-4c0-0.5-0.4-0.8-0.8-0.8c-0.5,0-0.8,0.4-0.8,0.8v4
								c0,1.7,1.4,3.1,3.1,3.1h4c0.5,0,0.8-0.4,0.8-0.8C14.1,33.3,13.8,32.9,13.3,32.9z"/>
							<path class="st1" d="M33.7,26.7c-0.5,0-0.8,0.4-0.8,0.8v4c0,0.8-0.6,1.4-1.4,1.4h-4c-0.5,0-0.8,0.4-0.8,0.8
								c0,0.5,0.4,0.8,0.8,0.8h4c1.7,0,3.1-1.4,3.1-3.1v-4C34.6,27.1,34.2,26.7,33.7,26.7z"/>
							<path class="st1" d="M25.2,12.4h2.6c0.4,0,0.7,0.3,0.7,0.7v2.6c0,0.5,0.4,0.8,0.8,0.8s0.8-0.4,0.8-0.8V13
								c0-1.3-1-2.3-2.3-2.3h-2.6c-0.5,0-0.8,0.4-0.8,0.8S24.7,12.4,25.2,12.4z"/>
							<path class="st1" d="M10.8,13v2.6c0,0.5,0.4,0.8,0.8,0.8c0.5,0,0.8-0.4,0.8-0.8V13c0-0.4,0.3-0.7,0.7-0.7h2.6
								c0.5,0,0.8-0.4,0.8-0.8s-0.4-0.8-0.8-0.8h-2.6C11.8,10.7,10.8,11.8,10.8,13z"/>
							<path class="st1" d="M15.7,28.4h-2.6c-0.4,0-0.7-0.3-0.7-0.7v-2.6c0-0.5-0.4-0.8-0.8-0.8c-0.5,0-0.8,0.4-0.8,0.8v2.6
								c0,1.3,1,2.3,2.3,2.3h2.6c0.5,0,0.8-0.4,0.8-0.8C16.5,28.8,16.2,28.4,15.7,28.4z"/>
							<path class="st1" d="M30.1,27.7v-2.6c0-0.5-0.4-0.8-0.8-0.8s-0.8,0.4-0.8,0.8v2.6c0,0.4-0.3,0.7-0.7,0.7h-2.6
								c-0.5,0-0.8,0.4-0.8,0.8c0,0.5,0.4,0.8,0.8,0.8h2.6C29.1,30,30.1,29,30.1,27.7z"/>
							<path class="st1" d="M6.4,20.4c0,0.5,0.4,0.8,0.8,0.8h26.5c0.5,0,0.8-0.4,0.8-0.8c0-0.5-0.4-0.8-0.8-0.8H7.2
								C6.7,19.6,6.4,20,6.4,20.4z"/>
						</g>
					</g>
				</g>
			</g>
		</g>
	</g>
	<g id="Layer_2_copy">
		<g class="st3">
			<g>
				<path class="st5" d="M4.7,11.5l13.7-6.4l10.7,3.8l8,17c0.4,0.9,0,2-0.9,2.4l-19.4,9.1c-0.9,0.4-2,0-2.4-0.9L3.8,13.9
					C3.4,13,3.8,11.9,4.7,11.5z"/>
				<path class="st1" d="M29.1,8.9l-5.6,2.6c-0.9,0.4-2,0-2.4-0.9l-2.6-5.6L29.1,8.9z"/>
				<path class="st8" d="M25.4,16.8c0.3-0.1,0.3-0.4,0.2-0.7c-0.1-0.2-0.4-0.4-0.6-0.3l-1.5,0.7c-0.3,0.1-0.4,0.5-0.2,0.7l1.8,3.8
					c0.2,0.3,0.4,0.4,0.7,0.3c0.3-0.1,0.4-0.4,0.2-0.7l-0.5-1l0.9-0.4c0.3-0.1,0.3-0.4,0.2-0.7c-0.1-0.2-0.4-0.4-0.6-0.3l-0.9,0.4
					l-0.7-1.4L25.4,16.8z M19.7,18.3l-1.1,0.5c-0.3,0.1-0.4,0.5-0.3,0.8l1.8,3.8c0.2,0.4,0.6,0.4,0.8,0.3l1.2-0.6
					c1.4-0.7,1.9-2,1.2-3.4C22.6,18.1,21.3,17.6,19.7,18.3z M21.6,22.1l-0.7,0.3l-1.4-3l0.6-0.3c0.9-0.4,1.6,0,2.1,0.9
					C22.6,20.9,22.5,21.7,21.6,22.1z M15.6,20.2l-1.1,0.5c-0.3,0.1-0.4,0.4-0.2,0.8l1.8,3.8c0.2,0.3,0.4,0.4,0.7,0.3
					s0.4-0.4,0.2-0.7l-0.5-1.1l0.7-0.3C18.1,23,18.5,22,18,21C17.6,20.1,16.6,19.8,15.6,20.2z M16.7,22.5l-0.6,0.3l-0.7-1.4l0.6-0.3
					c0.4-0.2,0.8,0,1,0.4C17.2,21.9,17.1,22.3,16.7,22.5z"/>
			</g>
		</g>
	</g>
	<g id="Layer_3_copy_2_1_">
		<g class="st3">
			<defs>
				<circle id="SVGID_3_" cx="20.4" cy="20.4" r="20"/>
			</defs>
			<clipPath id="SVGID_4_">
				<use xlink:href="#SVGID_3_"  style="overflow:visible;"/>
			</clipPath>
			<g class="st9">
				<g>
					<g>
						<g>
							<path class="st8" d="M28.8,6.4c-0.2,0-16.7,0-16.7,0s0,0,0,0c-1.1,0-2.2,0.4-2.9,1.2s-1.2,1.8-1.2,2.9v1.7c0,0,0,0,0,0
								c0,0,0,0,0,0v28.4c0,2.3,1.9,4.2,4.2,4.2h16.7c2.3,0,4.2-1.9,4.2-4.2v-30C33,8.3,31.1,6.4,28.8,6.4z"/>
							<g>
								<g>
									<g>
										<circle class="st1" cx="20.4" cy="38.1" r="1.7"/>
									</g>
								</g>
								<g>
									<g>
										<path class="st1" d="M17.7,21.7l-3.3-3.3c-0.3-0.3-0.9-0.3-1.2,0c-0.3,0.3-0.3,0.9,0,1.2l2.7,2.7L13.2,25
											c-0.3,0.3-0.3,0.9,0,1.2c0.2,0.2,0.4,0.2,0.6,0.2s0.4-0.1,0.6-0.2l3.3-3.3C18,22.5,18,22,17.7,21.7z"/>
									</g>
								</g>
								<g>
									<g>
										<path class="st1" d="M27.1,24.8h-6.7c-0.5,0-0.8,0.4-0.8,0.8c0,0.5,0.4,0.8,0.8,0.8h6.7c0.5,0,0.8-0.4,0.8-0.8
											C27.9,25.2,27.6,24.8,27.1,24.8z"/>
									</g>
								</g>
								<g>
									<g>
										<path class="st1" d="M27.1,19.8h-5c-0.5,0-0.8,0.4-0.8,0.8s0.4,0.8,0.8,0.8h5c0.5,0,0.8-0.4,0.8-0.8S27.6,19.8,27.1,19.8z
											"/>
									</g>
								</g>
								<g>
									<g>
										<path class="st1" d="M27.1,29.8H13.8c-0.5,0-0.8,0.4-0.8,0.8c0,0.5,0.4,0.8,0.8,0.8h13.3c0.5,0,0.8-0.4,0.8-0.8
											C27.9,30.2,27.6,29.8,27.1,29.8z"/>
									</g>
								</g>
								<g>
									<g>
										<path class="st1" d="M28.8,6.4c-0.2,0-16.7,0-16.7,0s0,0,0,0c-1.1,0-2.2,0.4-2.9,1.2s-1.2,1.8-1.2,2.9v1.7c0,0,0,0,0,0
											c0,0,0,0,0,0v28.4c0,2.3,1.9,4.2,4.2,4.2h16.7c2.3,0,4.2-1.9,4.2-4.2v-30C33,8.3,31.1,6.4,28.8,6.4z M9.6,10.6
											c0-0.7,0.3-1.3,0.7-1.8c0.5-0.5,1.1-0.7,1.8-0.7h8.3c5.5,0,7.6,0,8.3-0.1v0.1c1.4,0,2.5,1.1,2.5,2.5v0.8H9.6V10.6z
											 M31.3,40.6c0,1.4-1.1,2.5-2.5,2.5H12.1c-1.4,0-2.5-1.1-2.5-2.5V13.1h21.7V40.6z"/>
									</g>
								</g>
							</g>
						</g>
					</g>
				</g>
			</g>
		</g>
	</g>
	<g id="Layer_3_copy_2" class="st3">
		<g>
			<g>
				<g>
					<path class="st1" d="M19.6,8.7c-0.5-0.3-1.1-0.3-1.6,0c0,0,0,0-0.1,0l-7.1,6H5.2c-0.3,0-0.5,0.2-0.5,0.5v10
						c0,0.1,0.1,0.3,0.2,0.4c0.1,0.1,0.2,0.2,0.4,0.2l5.6,0l7.1,6.6c0,0,0.1,0,0.1,0.1c0.3,0.2,0.5,0.2,0.8,0.2
						c0.3,0,0.5-0.1,0.8-0.2c0.5-0.3,0.8-0.8,0.8-1.5V10.2C20.4,9.6,20.1,9,19.6,8.7z"/>
					<path class="st1" d="M32,20.4c0-4.4-2.8-8.3-7-9.7c-0.3-0.1-0.6,0.1-0.7,0.3c-0.1,0.3,0.1,0.6,0.3,0.7c3.7,1.3,6.3,4.8,6.3,8.7
						c0,3.9-2.5,7.4-6.2,8.7c-0.3,0.1-0.4,0.4-0.3,0.7c0.1,0.2,0.3,0.4,0.5,0.4c0.1,0,0.1,0,0.2,0C29.2,28.7,32,24.8,32,20.4z"/>
					<path class="st1" d="M28.1,8c-0.3-0.1-0.6,0-0.7,0.3c-0.1,0.3,0,0.6,0.3,0.7c4.6,1.9,7.5,6.4,7.5,11.4c0,5.1-3.1,9.7-7.9,11.5
						C27,32,26.9,32.3,27,32.6c0.1,0.2,0.3,0.3,0.5,0.3c0.1,0,0.1,0,0.2,0c5.2-2,8.6-6.9,8.6-12.5C36.2,15,33,10.1,28.1,8z"/>
					<path class="st1" d="M27.3,20.4c0-3.1-2.1-6-5.1-6.8c-0.3-0.1-0.6,0.1-0.7,0.4c-0.1,0.3,0.1,0.6,0.4,0.7
						c2.6,0.7,4.4,3.1,4.4,5.8s-1.8,5.1-4.4,5.8c-0.3,0.1-0.4,0.4-0.4,0.7c0.1,0.2,0.3,0.4,0.5,0.4c0,0,0.1,0,0.1,0
						C25.2,26.3,27.3,23.5,27.3,20.4z"/>
				</g>
			</g>
			<g>
				<path class="st8" d="M10.4,14.5V18c0,0.3,0.2,0.5,0.5,0.5s0.5-0.2,0.5-0.5v-4L10.4,14.5z"/>
				<path class="st8" d="M11.5,26.8v-4c0-0.3-0.2-0.5-0.5-0.5s-0.5,0.2-0.5,0.5v3.7L11.5,26.8z"/>
			</g>
		</g>
	</g>
	<g id="BORDER_copy" class="st3">
		<circle class="st7" cx="20.4" cy="20.4" r="20"/>
	</g>
</g>
<g id="hightlight" class="st2">
	<g id="BORDER_copy_3_1_" class="st3">
		<g>
			<circle class="st10" cx="20.4" cy="20.4" r="20"/>
			<path class="st1" d="M20.4,1.2c10.6,0,19.3,8.6,19.3,19.3s-8.6,19.2-19.3,19.2S1.2,31.1,1.2,20.4S9.8,1.2,20.4,1.2 M20.4,0.4
				c-11,0-20,9-20,20c0,11,9,20,20,20s20-9,20-20C40.4,9.4,31.5,0.4,20.4,0.4L20.4,0.4z"/>
		</g>
	</g>
	<g id="Layer_1_copy_2">
		<g class="st3">
			<g>
				<g>
					<g>
						<rect x="7.1" y="7.3" class="st10" width="26.5" height="26.5"/>
						<g>
							<path class="st1" d="M31.5,6.3h-4c-0.5,0-0.8,0.4-0.8,0.8S27.1,8,27.6,8h4c0.8,0,1.4,0.6,1.4,1.4v4c0,0.5,0.4,0.8,0.8,0.8
								c0.5,0,0.8-0.4,0.8-0.8v-4C34.6,7.7,33.2,6.3,31.5,6.3z"/>
							<path class="st1" d="M7.1,14.1c0.5,0,0.8-0.4,0.8-0.8v-4C8,8.6,8.6,8,9.4,8h4c0.5,0,0.8-0.4,0.8-0.8c0-0.5-0.4-0.8-0.8-0.8
								h-4c-1.7,0-3.1,1.4-3.1,3.1v4C6.3,13.8,6.7,14.1,7.1,14.1z"/>
							<path class="st1" d="M13.3,32.9h-4c-0.8,0-1.4-0.6-1.4-1.4v-4c0-0.5-0.4-0.8-0.8-0.8c-0.5,0-0.8,0.4-0.8,0.8v4
								c0,1.7,1.4,3.1,3.1,3.1h4c0.5,0,0.8-0.4,0.8-0.8C14.1,33.3,13.8,32.9,13.3,32.9z"/>
							<path class="st1" d="M33.7,26.7c-0.5,0-0.8,0.4-0.8,0.8v4c0,0.8-0.6,1.4-1.4,1.4h-4c-0.5,0-0.8,0.4-0.8,0.8
								c0,0.5,0.4,0.8,0.8,0.8h4c1.7,0,3.1-1.4,3.1-3.1v-4C34.6,27.1,34.2,26.7,33.7,26.7z"/>
							<path class="st1" d="M25.2,12.4h2.6c0.4,0,0.7,0.3,0.7,0.7v2.6c0,0.5,0.4,0.8,0.8,0.8s0.8-0.4,0.8-0.8V13
								c0-1.3-1-2.3-2.3-2.3h-2.6c-0.5,0-0.8,0.4-0.8,0.8S24.7,12.4,25.2,12.4z"/>
							<path class="st1" d="M10.8,13v2.6c0,0.5,0.4,0.8,0.8,0.8c0.5,0,0.8-0.4,0.8-0.8V13c0-0.4,0.3-0.7,0.7-0.7h2.6
								c0.5,0,0.8-0.4,0.8-0.8s-0.4-0.8-0.8-0.8h-2.6C11.8,10.7,10.8,11.8,10.8,13z"/>
							<path class="st1" d="M15.7,28.4h-2.6c-0.4,0-0.7-0.3-0.7-0.7v-2.6c0-0.5-0.4-0.8-0.8-0.8c-0.5,0-0.8,0.4-0.8,0.8v2.6
								c0,1.3,1,2.3,2.3,2.3h2.6c0.5,0,0.8-0.4,0.8-0.8C16.5,28.8,16.2,28.4,15.7,28.4z"/>
							<path class="st1" d="M30.1,27.7v-2.6c0-0.5-0.4-0.8-0.8-0.8s-0.8,0.4-0.8,0.8v2.6c0,0.4-0.3,0.7-0.7,0.7h-2.6
								c-0.5,0-0.8,0.4-0.8,0.8c0,0.5,0.4,0.8,0.8,0.8h2.6C29.1,30,30.1,29,30.1,27.7z"/>
							<path class="st1" d="M6.4,20.4c0,0.5,0.4,0.8,0.8,0.8h26.5c0.5,0,0.8-0.4,0.8-0.8c0-0.5-0.4-0.8-0.8-0.8H7.2
								C6.7,19.6,6.4,20,6.4,20.4z"/>
						</g>
					</g>
				</g>
			</g>
		</g>
	</g>
	<g id="Layer_2_copy_2">
		<g class="st3">
			<g>
				<path class="st5" d="M4.7,11.5l13.7-6.4l10.7,3.8l8,17c0.4,0.9,0,2-0.9,2.4l-19.4,9.1c-0.9,0.4-2,0-2.4-0.9L3.8,13.9
					C3.4,13,3.8,11.9,4.7,11.5z"/>
				<path class="st1" d="M29.1,8.9l-5.6,2.6c-0.9,0.4-2,0-2.4-0.9l-2.6-5.6L29.1,8.9z"/>
				<path class="st10" d="M25.4,16.8c0.3-0.1,0.3-0.4,0.2-0.7c-0.1-0.2-0.4-0.4-0.6-0.3l-1.5,0.7c-0.3,0.1-0.4,0.5-0.2,0.7l1.8,3.8
					c0.2,0.3,0.4,0.4,0.7,0.3c0.3-0.1,0.4-0.4,0.2-0.7l-0.5-1l0.9-0.4c0.3-0.1,0.3-0.4,0.2-0.7c-0.1-0.2-0.4-0.4-0.6-0.3l-0.9,0.4
					l-0.7-1.4L25.4,16.8z M19.7,18.3l-1.1,0.5c-0.3,0.1-0.4,0.5-0.3,0.8l1.8,3.8c0.2,0.4,0.6,0.4,0.8,0.3l1.2-0.6
					c1.4-0.7,1.9-2,1.2-3.4C22.6,18.1,21.3,17.6,19.7,18.3z M21.6,22.1l-0.7,0.3l-1.4-3l0.6-0.3c0.9-0.4,1.6,0,2.1,0.9
					C22.6,20.9,22.5,21.7,21.6,22.1z M15.6,20.2l-1.1,0.5c-0.3,0.1-0.4,0.4-0.2,0.8l1.8,3.8c0.2,0.3,0.4,0.4,0.7,0.3
					s0.4-0.4,0.2-0.7l-0.5-1.1l0.7-0.3C18.1,23,18.5,22,18,21C17.6,20.1,16.6,19.8,15.6,20.2z M16.7,22.5l-0.6,0.3l-0.7-1.4l0.6-0.3
					c0.4-0.2,0.8,0,1,0.4C17.2,21.9,17.1,22.3,16.7,22.5z"/>
			</g>
		</g>
	</g>
	<g id="Layer_3_copy_3_1_">
		<g class="st3">
			<defs>
				<circle id="SVGID_5_" cx="20.4" cy="20.4" r="20"/>
			</defs>
			<clipPath id="SVGID_6_">
				<use xlink:href="#SVGID_5_"  style="overflow:visible;"/>
			</clipPath>
			<g class="st11">
				<g>
					<g>
						<g>
							<path class="st10" d="M28.8,6.4c-0.2,0-16.7,0-16.7,0s0,0,0,0c-1.1,0-2.2,0.4-2.9,1.2s-1.2,1.8-1.2,2.9v1.7c0,0,0,0,0,0
								c0,0,0,0,0,0v28.4c0,2.3,1.9,4.2,4.2,4.2h16.7c2.3,0,4.2-1.9,4.2-4.2v-30C33,8.3,31.1,6.4,28.8,6.4z"/>
							<g>
								<g>
									<g>
										<circle class="st1" cx="20.4" cy="38.1" r="1.7"/>
									</g>
								</g>
								<g>
									<g>
										<path class="st1" d="M17.7,21.7l-3.3-3.3c-0.3-0.3-0.9-0.3-1.2,0c-0.3,0.3-0.3,0.9,0,1.2l2.7,2.7L13.2,25
											c-0.3,0.3-0.3,0.9,0,1.2c0.2,0.2,0.4,0.2,0.6,0.2s0.4-0.1,0.6-0.2l3.3-3.3C18,22.5,18,22,17.7,21.7z"/>
									</g>
								</g>
								<g>
									<g>
										<path class="st1" d="M27.1,24.8h-6.7c-0.5,0-0.8,0.4-0.8,0.8c0,0.5,0.4,0.8,0.8,0.8h6.7c0.5,0,0.8-0.4,0.8-0.8
											C27.9,25.2,27.6,24.8,27.1,24.8z"/>
									</g>
								</g>
								<g>
									<g>
										<path class="st1" d="M27.1,19.8h-5c-0.5,0-0.8,0.4-0.8,0.8s0.4,0.8,0.8,0.8h5c0.5,0,0.8-0.4,0.8-0.8S27.6,19.8,27.1,19.8z
											"/>
									</g>
								</g>
								<g>
									<g>
										<path class="st1" d="M27.1,29.8H13.8c-0.5,0-0.8,0.4-0.8,0.8c0,0.5,0.4,0.8,0.8,0.8h13.3c0.5,0,0.8-0.4,0.8-0.8
											C27.9,30.2,27.6,29.8,27.1,29.8z"/>
									</g>
								</g>
								<g>
									<g>
										<path class="st1" d="M28.8,6.4c-0.2,0-16.7,0-16.7,0s0,0,0,0c-1.1,0-2.2,0.4-2.9,1.2s-1.2,1.8-1.2,2.9v1.7c0,0,0,0,0,0
											c0,0,0,0,0,0v28.4c0,2.3,1.9,4.2,4.2,4.2h16.7c2.3,0,4.2-1.9,4.2-4.2v-30C33,8.3,31.1,6.4,28.8,6.4z M9.6,10.6
											c0-0.7,0.3-1.3,0.7-1.8c0.5-0.5,1.1-0.7,1.8-0.7h8.3c5.5,0,7.6,0,8.3-0.1v0.1c1.4,0,2.5,1.1,2.5,2.5v0.8H9.6V10.6z
											 M31.3,40.6c0,1.4-1.1,2.5-2.5,2.5H12.1c-1.4,0-2.5-1.1-2.5-2.5V13.1h21.7V40.6z"/>
									</g>
								</g>
							</g>
						</g>
					</g>
				</g>
			</g>
		</g>
	</g>
	<g id="Layer_3_copy_3" class="st3">
		<g>
			<g>
				<g>
					<path class="st1" d="M19.6,8.7c-0.5-0.3-1.1-0.3-1.6,0c0,0,0,0-0.1,0l-7.1,6H5.2c-0.3,0-0.5,0.2-0.5,0.5v10
						c0,0.1,0.1,0.3,0.2,0.4c0.1,0.1,0.2,0.2,0.4,0.2l5.6,0l7.1,6.6c0,0,0.1,0,0.1,0.1c0.3,0.2,0.5,0.2,0.8,0.2
						c0.3,0,0.5-0.1,0.8-0.2c0.5-0.3,0.8-0.8,0.8-1.5V10.2C20.4,9.6,20.1,9,19.6,8.7z"/>
					<path class="st1" d="M32,20.4c0-4.4-2.8-8.3-7-9.7c-0.3-0.1-0.6,0.1-0.7,0.3c-0.1,0.3,0.1,0.6,0.3,0.7c3.7,1.3,6.3,4.8,6.3,8.7
						c0,3.9-2.5,7.4-6.2,8.7c-0.3,0.1-0.4,0.4-0.3,0.7c0.1,0.2,0.3,0.4,0.5,0.4c0.1,0,0.1,0,0.2,0C29.2,28.7,32,24.8,32,20.4z"/>
					<path class="st1" d="M28.1,8c-0.3-0.1-0.6,0-0.7,0.3c-0.1,0.3,0,0.6,0.3,0.7c4.6,1.9,7.5,6.4,7.5,11.4c0,5.1-3.1,9.7-7.9,11.5
						C27,32,26.9,32.3,27,32.6c0.1,0.2,0.3,0.3,0.5,0.3c0.1,0,0.1,0,0.2,0c5.2-2,8.6-6.9,8.6-12.5C36.2,15,33,10.1,28.1,8z"/>
					<path class="st1" d="M27.3,20.4c0-3.1-2.1-6-5.1-6.8c-0.3-0.1-0.6,0.1-0.7,0.4c-0.1,0.3,0.1,0.6,0.4,0.7
						c2.6,0.7,4.4,3.1,4.4,5.8s-1.8,5.1-4.4,5.8c-0.3,0.1-0.4,0.4-0.4,0.7c0.1,0.2,0.3,0.4,0.5,0.4c0,0,0.1,0,0.1,0
						C25.2,26.3,27.3,23.5,27.3,20.4z"/>
				</g>
			</g>
			<g>
				<path class="st10" d="M10.4,14.5V18c0,0.3,0.2,0.5,0.5,0.5s0.5-0.2,0.5-0.5v-4L10.4,14.5z"/>
				<path class="st10" d="M11.5,26.8v-4c0-0.3-0.2-0.5-0.5-0.5s-0.5,0.2-0.5,0.5v3.7L11.5,26.8z"/>
			</g>
		</g>
	</g>
	<g id="BORDER_copy_3" class="st3">
		<circle class="st7" cx="20.4" cy="20.4" r="20"/>
	</g>
</g>
</svg>
