<svg id="base" xmlns="http://www.w3.org/2000/svg" viewBox="0 0 40.88 40.88"><defs><style>.cls-1{fill:#fbfbfb;}.cls-2{fill:#0c0b0b;}.cls-3{fill:#fff;}.cls-4{fill:none;stroke:#0c0b0b;stroke-miterlimit:10;}</style></defs><title>Artboard 1</title><g id="BORDER_copy_4" data-name="BORDER copy 4"><circle class="cls-1" cx="20.44" cy="20.44" r="20"/><path class="cls-2" d="M20.44,1.19A19.25,19.25,0,1,1,1.19,20.44,19.27,19.27,0,0,1,20.44,1.19m0-.75a20,20,0,1,0,20,20,20,20,0,0,0-20-20Z"/></g><g id="Layer_1" data-name="Layer 1"><rect class="cls-3" x="7.14" y="7.28" width="26.46" height="26.46"/><path class="cls-2" d="M31.52,6.31h-4a.83.83,0,1,0,0,1.66h4a1.4,1.4,0,0,1,1.4,1.39v4a.83.83,0,1,0,1.65,0v-4A3.06,3.06,0,0,0,31.52,6.31Z"/><path class="cls-2" d="M7.14,14.15A.83.83,0,0,0,8,13.32v-4A1.39,1.39,0,0,1,9.36,8h4a.83.83,0,0,0,0-1.66h-4a3.06,3.06,0,0,0-3,3.05v4A.83.83,0,0,0,7.14,14.15Z"/><path class="cls-2" d="M13.32,32.92h-4A1.4,1.4,0,0,1,8,31.52v-4a.83.83,0,0,0-1.66,0v4a3.06,3.06,0,0,0,3.05,3.05h4a.83.83,0,1,0,0-1.65Z"/><path class="cls-2" d="M33.74,26.73a.83.83,0,0,0-.82.83v4a1.4,1.4,0,0,1-1.4,1.4h-4a.83.83,0,1,0,0,1.65h4a3.06,3.06,0,0,0,3.05-3.05v-4A.83.83,0,0,0,33.74,26.73Z"/><path class="cls-2" d="M25.17,12.38h2.62a.65.65,0,0,1,.65.65v2.63a.83.83,0,0,0,1.66,0V13a2.3,2.3,0,0,0-2.31-2.3H25.17a.83.83,0,1,0,0,1.65Z"/><path class="cls-2" d="M10.78,13v2.63a.83.83,0,0,0,1.66,0V13a.65.65,0,0,1,.65-.65h2.62a.83.83,0,1,0,0-1.65H13.09A2.31,2.31,0,0,0,10.78,13Z"/><path class="cls-2" d="M15.71,28.39H13.09a.65.65,0,0,1-.65-.65V25.11a.83.83,0,0,0-1.66,0v2.63a2.32,2.32,0,0,0,2.31,2.31h2.62a.83.83,0,0,0,0-1.66Z"/><path class="cls-2" d="M30.1,27.74V25.11a.83.83,0,0,0-1.66,0v2.63a.65.65,0,0,1-.65.65H25.17a.83.83,0,1,0,0,1.66h2.62A2.31,2.31,0,0,0,30.1,27.74Z"/><path class="cls-2" d="M6.37,20.44a.83.83,0,0,0,.82.83h26.5a.83.83,0,0,0,0-1.66H7.19A.83.83,0,0,0,6.37,20.44Z"/></g><g id="BORDER"><circle class="cls-4" cx="20.44" cy="20.44" r="20"/></g></svg>