<?xml version="1.0" encoding="utf-8"?>
<!-- Generator: Adobe Illustrator 22.1.0, SVG Export Plug-In . SVG Version: 6.00 Build 0)  -->
<svg version="1.1" id="Layer_1" xmlns="http://www.w3.org/2000/svg" xmlns:xlink="http://www.w3.org/1999/xlink" x="0px" y="0px"
	 width="655px" height="109.2px" viewBox="0 0 655 109.2" style="enable-background:new 0 0 655 109.2;" xml:space="preserve">
<style type="text/css">
	.st0{opacity:0.1;fill:#FCEE21;}
</style>
<rect class="st0" width="655" height="109.2"/>
<g>
	<g>
		<g>
			<path d="M32.4,31.6c0.5,0.9,0.7,2,0.7,3.3c0,1.3-0.3,2.4-0.8,3.5c-0.5,1.1-1.2,2-2,2.6c-1.7,1.3-3.6,2-5.6,2s-3.8-0.7-5.2-2
				c-1.5-1.3-2.2-3.1-2.2-5.4c0-1.3,0.2-2.5,0.6-3.6c0.4-1.1,1-1.9,1.7-2.6c1.5-1.3,3.3-2,5.4-2c2.1,0,3.9,0.6,5.5,1.8
				C31.3,29.9,31.9,30.7,32.4,31.6z M18.7,35.7c0,1.9,0.5,3.4,1.6,4.5c1.1,1.1,2.5,1.7,4.3,1.7c2.1,0,3.7-0.6,5-1.9s1.9-2.9,1.9-4.8
				s-0.6-3.5-1.9-4.7c-1.3-1.2-2.8-1.7-4.6-1.7c-1.8,0-3.3,0.6-4.5,1.8C19.3,31.8,18.7,33.5,18.7,35.7z"/>
			<path d="M37,42.8c-0.3,0-0.4-2.2-0.4-6.7c0-1.9,0-3,0-3.4h-0.4c-0.2,0-0.4,0-0.5,0c-0.1,0-0.3,0-0.5,0c-0.2,0-0.3,0-0.4-0.1
				c-0.1,0-0.2-0.1-0.3-0.1c-0.2-0.1-0.3-0.2-0.3-0.5c0-0.3,0.5-0.4,1.4-0.4c0.4,0,0.8,0,1.1,0c0-0.3,0-0.7,0-1.1c0-0.5,0-0.8,0-1.1
				c0-0.3,0-0.6,0.1-0.9c0-0.4,0.1-0.7,0.1-0.9c0.1-0.2,0.1-0.4,0.2-0.7s0.2-0.5,0.4-0.6c0.1-0.1,0.3-0.3,0.5-0.4
				c0.3-0.2,0.9-0.4,1.7-0.4s1.4,0.2,1.7,0.6s0.7,1,1,2c-0.2,0.3-0.5,0.4-0.8,0.4c-0.1,0-0.2,0-0.3,0c-0.3-0.7-0.5-1.2-0.7-1.4
				c-0.2-0.2-0.5-0.4-0.9-0.4c-0.4,0-0.6,0.1-0.8,0.2s-0.3,0.3-0.4,0.5c-0.2,0.4-0.3,1.5-0.3,3.2c0,0.1,0,0.2,0,0.4
				c0,0.2,0,0.4,0,0.5l1.9-0.2c0.7,0,1.1,0.2,1.1,0.5c0,0.2-0.2,0.4-0.5,0.4c-0.4,0.1-0.8,0.1-1.3,0.1c-0.5,0-0.9,0.1-1.1,0.1
				c0,0.4,0,1,0,1.6c0,0.7,0,1.7,0.1,3.2c0.1,1.4,0.1,2.5,0.1,3.3c0,0.8-0.1,1.3-0.2,1.6C37.9,42.6,37.5,42.8,37,42.8z"/>
			<path d="M54.7,34.4c-0.3,0.3-0.6,0.4-0.8,0.4c-0.3,0-0.5-0.1-0.7-0.4c-0.2-0.2-0.3-0.5-0.4-0.8c-0.1-0.3-0.3-0.6-0.6-0.8
				c-0.3-0.2-0.6-0.4-1-0.4c-0.6,0.1-1.1,0.5-1.6,1.2s-0.8,1.6-1,2.5c-0.2,0.9-0.3,1.8-0.3,2.6s0.2,1.5,0.7,2.1
				c0.4,0.6,1.1,0.9,1.8,0.9c0.9,0,1.6-0.3,2.1-0.9c0.2-0.3,0.4-0.5,0.6-0.8c0.5-0.6,0.9-0.9,1.3-0.9c0.1,0,0.3,0,0.6,0.1
				c0,0.5-0.5,1.3-1.5,2.1c-1,0.9-2.1,1.3-3.2,1.3c-1.2,0-2.1-0.4-2.7-1.1s-1-1.7-1-2.9c0-1.5,0.4-3,1.1-4.5
				c0.4-0.7,0.9-1.3,1.5-1.8c0.6-0.5,1.3-0.7,2.1-0.7s1.4,0.3,1.9,0.8C53.9,32.9,54.3,33.6,54.7,34.4z"/>
			<path d="M57.8,33.5c0.7-1.1,1.8-1.7,3.2-1.7s2.5,0.6,3.4,1.7c0.8,1.1,1.3,2.4,1.3,3.9c0,1.5-0.5,2.7-1.4,3.7
				c-0.9,1-2.1,1.5-3.5,1.5s-2.5-0.4-3.1-1.2c-0.6-0.8-1-1.9-1-3.4C56.7,36.2,57.1,34.7,57.8,33.5z M58.8,34.7
				c-0.2,0.6-0.3,1.2-0.4,1.7c-0.1,0.6-0.1,1.1-0.1,1.6s0,0.9,0.1,1.3c0.1,0.4,0.2,0.8,0.4,1.2c0.2,0.4,0.4,0.7,0.8,0.9
				c0.4,0.2,0.8,0.3,1.3,0.3c1,0,1.8-0.4,2.5-1.2c0.7-0.8,1-1.8,1-2.9s-0.3-2.3-0.9-3.3c-0.6-1.1-1.4-1.6-2.2-1.6
				c-0.5,0-1,0.2-1.4,0.5C59.3,33.6,59,34.1,58.8,34.7z"/>
			<path d="M69.7,32.3c-0.4,0.7-0.6,1.8-0.6,3.2c0,2.1,0.4,3.9,1.2,5.1c0.5,0.7,1,1.1,1.7,1.1s1.2-0.3,1.6-1c0.5-0.9,0.7-2,0.7-3.5
				c0-1.9-0.3-3.3-0.8-4.2c-0.2-0.4-0.4-0.7-0.4-0.9c0-0.2,0-0.3,0.1-0.4c0.1-0.1,0.4-0.1,0.7-0.1c0.9,0,1.5,0.9,1.8,2.8
				c0.1,0.5,0.1,1,0.1,1.5c0,1.3-0.3,2.7-0.8,4c-0.7,1.8-1.9,2.8-3.5,2.8c-0.9,0-1.6-0.3-2.2-0.9c-1.1-1.2-1.7-3-1.7-5.4
				c0-1.1,0.1-1.9,0.2-2.4s0.3-0.9,0.4-1.1c0.1-0.2,0.2-0.3,0.4-0.5s0.3-0.2,0.5-0.2C69.2,32.2,69.4,32.2,69.7,32.3z"/>
			<path d="M80.1,40.5l0.1,1.3c0,0.3-0.1,0.5-0.3,0.7c-0.2,0.1-0.4,0.2-0.5,0.2c-0.2,0-0.4,0-0.6-0.1c-0.3-1.7-0.6-3.8-0.7-6.4
				c-0.2-2.5-0.3-4-0.3-4.3c0.2-0.2,0.5-0.3,0.7-0.3s0.5,0,0.6,0.1c0.1,0.4,0.1,1.4,0.1,2.8s0.1,2.4,0.1,2.7
				c0.2-1.2,0.6-2.4,1.1-3.5c0.3-0.6,0.7-1.1,1.2-1.4c0.5-0.4,1-0.5,1.5-0.5c0.6,0,1.1,0.2,1.5,0.7c0.5,0.5,0.7,0.9,0.7,1.3
				c0,0.1-0.1,0.3-0.3,0.3s-0.4,0.1-0.6,0.1S84.1,34.2,84,34c-0.1-0.2-0.2-0.3-0.2-0.5c0-0.2-0.1-0.4-0.3-0.5
				c-0.1-0.2-0.3-0.2-0.6-0.2c-0.7,0-1.2,0.6-1.7,1.8C80.5,36.3,80.1,38.3,80.1,40.5z"/>
			<path d="M92.2,33.9c-0.1-0.3-0.4-0.6-0.7-0.8c-0.4-0.2-0.8-0.3-1.4-0.3c-0.5,0-1.1,0.2-1.5,0.5c-0.5,0.3-0.7,0.8-0.7,1.3
				c0,0.5,0.2,1,0.7,1.3c0.4,0.3,1,0.6,1.6,0.7c0.6,0.2,1.3,0.3,1.9,0.5c0.6,0.2,1.2,0.5,1.6,0.9s0.7,1,0.7,1.6c0,1-0.4,1.7-1.2,2.2
				c-0.8,0.5-1.8,0.8-2.9,0.8c-0.7,0-1.6-0.2-2.7-0.5c-1.1-0.4-1.6-0.8-1.6-1.3c0-0.4,0.3-0.6,1-0.6c0.2,0,0.4,0.1,0.7,0.4
				c0.9,0.7,1.9,1,2.9,1c0.5,0,1-0.1,1.4-0.3c0.7-0.3,1.1-0.9,1.1-1.6c0-0.5-0.2-0.8-0.7-1.1c-0.4-0.3-1-0.5-1.6-0.7
				c-0.6-0.2-1.3-0.3-1.9-0.5s-1.2-0.5-1.6-1s-0.7-1-0.7-1.7c0-0.9,0.4-1.6,1.2-2.2c0.8-0.6,1.8-0.8,3-0.8c0.8,0,1.5,0.2,2.2,0.6
				c0.7,0.4,1,1,1,1.8c0,0.5-0.3,0.8-0.9,0.8c-0.3,0-0.4,0-0.5-0.1s-0.1-0.2-0.1-0.5C92.3,34.1,92.3,34,92.2,33.9z"/>
			<path d="M97.4,38.2c0,0.3,0,0.5,0,0.6c0,0.9,0.3,1.6,0.8,2c0.5,0.5,1.2,0.7,1.9,0.7s1.3-0.1,1.8-0.3c0.5-0.2,0.8-0.4,1-0.7
				c0.5-0.7,1-1,1.5-1c0.2,0,0.4,0,0.6,0.1c-0.1,0.7-0.7,1.4-1.7,2c-1,0.6-2.2,0.9-3.6,0.9c-1,0-1.9-0.3-2.7-1
				c-0.7-0.7-1.1-1.5-1.1-2.7s0.2-2.2,0.7-3.3c0.4-1.1,1.1-2,1.9-2.7s1.7-1.1,2.6-1.1c0.9,0,1.6,0.2,2.1,0.5
				c0.5,0.4,0.8,0.9,0.8,1.6c0,1.3-0.6,2.3-1.7,3.2c-1.1,0.8-2.3,1.2-3.6,1.2C98.3,38.3,97.9,38.3,97.4,38.2z M99.1,37.5
				c0.7,0,1.3-0.2,1.8-0.7c0.5-0.4,0.9-0.9,1.2-1.4c0.2-0.5,0.3-0.9,0.3-1.3s-0.2-0.7-0.5-1c-0.3-0.3-0.7-0.5-1.1-0.5
				c-0.7,0-1.4,0.5-2,1.5c-0.6,1-1.1,2.1-1.3,3.1C98.2,37.4,98.7,37.5,99.1,37.5z"/>
			<path d="M106.8,43.1c0-0.1,0-0.3-0.1-0.6s-0.1-0.5-0.1-0.7c0-0.2,0-0.4,0-0.6c0-0.5,0.3-0.7,0.9-0.7c0.5,0,0.7,0.7,0.7,2.1
				c0,2.4-0.8,4.2-2.4,5.4c-0.2,0.1-0.3,0.2-0.5,0.2s-0.3,0-0.5-0.1c-0.1-0.1-0.2-0.2-0.2-0.3s0.1-0.2,0.3-0.4
				C106.2,46.5,106.8,45.1,106.8,43.1z"/>
			<path d="M121.6,40.1c-0.2,0.7-0.7,1.2-1.4,1.7c-0.7,0.5-1.4,0.7-2.2,0.7c-0.8,0-1.4-0.4-1.8-1.2c-0.4-0.8-0.6-1.9-0.6-3.3
				c0-3.9,0.6-5.9,1.7-5.9c0.1,0,0.3,0,0.5,0.1c0,0.2-0.1,0.7-0.3,1.3c-0.3,1.3-0.5,2.4-0.5,3.4s0.1,2,0.4,3.1
				c0.3,1.1,0.7,1.6,1.2,1.6c0.3,0,0.5-0.2,0.8-0.5c0.2-0.3,0.4-0.7,0.6-1.1s0.3-0.8,0.5-1.3c0.2-0.5,0.3-0.8,0.3-0.9
				c-0.2-0.9-0.3-1.7-0.3-2.6c0,0,0-0.2,0-0.4c0-0.2,0-0.5,0-0.7c0-0.2,0.1-0.5,0.1-0.8c0.1-0.6,0.5-0.9,1.2-0.9
				c0.5,0,0.8,0.8,0.8,2.5c0,0.3,0,0.7-0.1,1.3c-0.1,0.6-0.1,0.9-0.1,1.2c0,0.7,0.3,1.5,1,2.6s1.3,1.6,1.8,1.6c0.6,0,1-0.3,1.2-1
				c0.3-0.6,0.4-1.4,0.4-2.2c0-0.9-0.1-1.6-0.2-2.1c-0.2-0.5-0.2-0.8-0.3-0.9c0-0.1-0.1-0.4-0.3-0.7c-0.2-0.3-0.3-0.5-0.3-0.6
				c0-0.1-0.2-0.3-0.3-0.6c-0.2-0.3-0.3-0.5-0.3-0.6c-0.4-0.7-0.7-1.2-0.7-1.2c0.4-0.3,0.7-0.5,1-0.5c0.9,0.6,1.6,1.7,2.1,3.2
				s0.8,2.8,0.8,4c0,1.2-0.3,2.1-0.8,2.8s-1.3,1-2.4,1c-0.7,0-1.5-0.2-2.1-0.6S121.9,40.8,121.6,40.1z"/>
			<path d="M131.6,38.2c0,0.3,0,0.5,0,0.6c0,0.9,0.3,1.6,0.8,2c0.5,0.5,1.2,0.7,1.9,0.7s1.3-0.1,1.8-0.3c0.5-0.2,0.8-0.4,1-0.7
				c0.5-0.7,1-1,1.5-1c0.2,0,0.4,0,0.6,0.1c-0.1,0.7-0.7,1.4-1.7,2c-1,0.6-2.2,0.9-3.6,0.9c-1,0-1.9-0.3-2.7-1
				c-0.7-0.7-1.1-1.5-1.1-2.7s0.2-2.2,0.7-3.3c0.4-1.1,1.1-2,1.9-2.7s1.7-1.1,2.6-1.1c0.9,0,1.6,0.2,2.1,0.5
				c0.5,0.4,0.8,0.9,0.8,1.6c0,1.3-0.6,2.3-1.7,3.2c-1.1,0.8-2.3,1.2-3.6,1.2C132.5,38.3,132.1,38.3,131.6,38.2z M133.3,37.5
				c0.7,0,1.3-0.2,1.8-0.7c0.5-0.4,0.9-0.9,1.2-1.4c0.2-0.5,0.3-0.9,0.3-1.3s-0.2-0.7-0.5-1c-0.3-0.3-0.7-0.5-1.1-0.5
				c-0.7,0-1.4,0.5-2,1.5c-0.6,1-1.1,2.1-1.3,3.1C132.4,37.4,132.9,37.5,133.3,37.5z"/>
			<path d="M151.8,40.1c-0.2,0.7-0.7,1.2-1.4,1.7c-0.7,0.5-1.4,0.7-2.2,0.7c-0.8,0-1.4-0.4-1.8-1.2c-0.4-0.8-0.6-1.9-0.6-3.3
				c0-3.9,0.6-5.9,1.7-5.9c0.1,0,0.3,0,0.5,0.1c0,0.2-0.1,0.7-0.3,1.3c-0.3,1.3-0.5,2.4-0.5,3.4s0.1,2,0.4,3.1
				c0.3,1.1,0.7,1.6,1.2,1.6c0.3,0,0.5-0.2,0.8-0.5c0.2-0.3,0.4-0.7,0.6-1.1s0.3-0.8,0.5-1.3c0.2-0.5,0.3-0.8,0.3-0.9
				c-0.2-0.9-0.3-1.7-0.3-2.6c0,0,0-0.2,0-0.4c0-0.2,0-0.5,0-0.7c0-0.2,0.1-0.5,0.1-0.8c0.1-0.6,0.5-0.9,1.2-0.9
				c0.5,0,0.8,0.8,0.8,2.5c0,0.3,0,0.7-0.1,1.3c-0.1,0.6-0.1,0.9-0.1,1.2c0,0.7,0.3,1.5,1,2.6s1.3,1.6,1.8,1.6c0.6,0,1-0.3,1.2-1
				c0.3-0.6,0.4-1.4,0.4-2.2c0-0.9-0.1-1.6-0.2-2.1c-0.2-0.5-0.2-0.8-0.3-0.9c0-0.1-0.1-0.4-0.3-0.7c-0.2-0.3-0.3-0.5-0.3-0.6
				c0-0.1-0.2-0.3-0.3-0.6c-0.2-0.3-0.3-0.5-0.3-0.6c-0.4-0.7-0.7-1.2-0.7-1.2c0.4-0.3,0.7-0.5,1-0.5c0.9,0.6,1.6,1.7,2.1,3.2
				s0.8,2.8,0.8,4c0,1.2-0.3,2.1-0.8,2.8s-1.3,1-2.4,1c-0.7,0-1.5-0.2-2.1-0.6S152.1,40.8,151.8,40.1z"/>
			<path d="M162.2,26.5c0,0.3,0,0.7,0,1.1s0,0.8,0.1,1.3c-0.2,0.2-0.5,0.4-0.8,0.4c-0.4,0-0.7-0.4-0.7-1.1c0,0,0-0.1,0-0.3
				c0-0.2,0-0.4,0-0.5c0-0.2,0-0.3,0.1-0.5c0.1-0.4,0.3-0.5,0.7-0.5C161.9,26.2,162.1,26.3,162.2,26.5z M160.8,37.2
				c0-2.9,0.1-4.5,0.4-5c0.1-0.2,0.2-0.2,0.4-0.2s0.4,0.1,0.7,0.2c-0.1,1.2-0.1,2.6-0.1,4.1l0,4.9c0,0.5-0.1,0.8-0.3,1
				c-0.2,0.2-0.4,0.3-0.5,0.3c-0.2,0-0.3,0-0.5-0.1C160.8,40.4,160.8,38.7,160.8,37.2z"/>
			<path d="M165.8,29.5c0-1.5-0.2-2.4-0.6-2.9c0.2-0.3,0.5-0.4,1-0.4c0.1,0,0.2,0,0.3,0c0.4,0.4,0.5,1.4,0.5,3.2c0,1,0,2.1-0.1,3.3
				c-0.2,2.2-0.3,3.8-0.3,4.8c0,2.8,0.5,4.2,1.6,4.2l0.8-0.2c0.1,0,0.2,0.1,0.3,0.2c0,0.5-0.5,0.8-1.3,0.8c-0.8,0-1.4-0.2-1.9-0.7
				c-0.4-0.5-0.7-1.1-0.8-1.8c-0.1-0.7-0.2-1.4-0.2-1.8c0-0.5,0-1,0-1.6c0-0.6,0.1-1.4,0.2-2.5C165.7,31.8,165.8,30.3,165.8,29.5z"
				/>
			<path d="M171,29.5c0-1.5-0.2-2.4-0.6-2.9c0.2-0.3,0.5-0.4,1-0.4c0.1,0,0.2,0,0.3,0c0.4,0.4,0.5,1.4,0.5,3.2c0,1,0,2.1-0.1,3.3
				c-0.2,2.2-0.3,3.8-0.3,4.8c0,2.8,0.5,4.2,1.6,4.2l0.8-0.2c0.1,0,0.2,0.1,0.3,0.2c0,0.5-0.5,0.8-1.3,0.8c-0.8,0-1.4-0.2-1.9-0.7
				c-0.4-0.5-0.7-1.1-0.8-1.8c-0.1-0.7-0.2-1.4-0.2-1.8c0-0.5,0-1,0-1.6c0-0.6,0.1-1.4,0.2-2.5C170.9,31.8,171,30.3,171,29.5z"/>
			<path d="M180.8,26.8c0.2-0.3,0.5-0.5,1-0.5c0.1,0,0.2,0,0.3,0c0,0.8,0,2.9,0,6.5c0,0,0.1-0.1,0.2-0.2s0.2-0.2,0.2-0.2
				c0,0,0.1-0.1,0.2-0.2s0.2-0.2,0.3-0.2c0.1,0,0.2-0.1,0.3-0.2c0.1-0.1,0.2-0.1,0.3-0.2c0.1,0,0.2-0.1,0.3-0.1
				c0.2-0.1,0.5-0.1,0.8-0.1c1.1,0,2,0.5,2.6,1.4c0.7,0.9,1,1.9,1,3s-0.2,2.2-0.5,3.2c-0.3,1-0.9,1.9-1.6,2.6
				c-0.7,0.7-1.5,1.1-2.5,1.1c-0.9,0-1.7-0.3-2.3-1c-0.6-0.7-0.9-1.5-0.9-2.4c0-0.9,0.1-2.5,0.2-4.9s0.2-4.1,0.2-5.2
				C180.8,28.2,180.8,27.4,180.8,26.8z M183.9,41.7c0.6,0,1.1-0.3,1.5-0.8c0.9-1.1,1.4-2.6,1.4-4.6c0-1.1-0.2-2-0.6-2.8
				c-0.4-0.8-1-1.2-1.7-1.2c-0.4,0-0.8,0.2-1.1,0.6c-0.3,0.4-0.6,1-0.7,1.7c-0.3,1.3-0.5,2.8-0.5,4.4c0,1.3,0.3,2.2,0.8,2.5
				C183.2,41.6,183.5,41.7,183.9,41.7z"/>
			<path d="M191.6,38.2c0,0.3,0,0.5,0,0.6c0,0.9,0.3,1.6,0.8,2c0.5,0.5,1.2,0.7,1.9,0.7s1.3-0.1,1.8-0.3c0.5-0.2,0.8-0.4,1-0.7
				c0.5-0.7,1-1,1.5-1c0.2,0,0.4,0,0.6,0.1c-0.1,0.7-0.7,1.4-1.7,2c-1,0.6-2.2,0.9-3.6,0.9c-1,0-1.9-0.3-2.7-1
				c-0.7-0.7-1.1-1.5-1.1-2.7s0.2-2.2,0.7-3.3c0.4-1.1,1.1-2,1.9-2.7s1.7-1.1,2.6-1.1c0.9,0,1.6,0.2,2.1,0.5
				c0.5,0.4,0.8,0.9,0.8,1.6c0,1.3-0.6,2.3-1.7,3.2c-1.1,0.8-2.3,1.2-3.6,1.2C192.4,38.3,192,38.3,191.6,38.2z M193.2,37.5
				c0.7,0,1.3-0.2,1.8-0.7c0.5-0.4,0.9-0.9,1.2-1.4c0.2-0.5,0.3-0.9,0.3-1.3s-0.2-0.7-0.5-1c-0.3-0.3-0.7-0.5-1.1-0.5
				c-0.7,0-1.4,0.5-2,1.5c-0.6,1-1.1,2.1-1.3,3.1C192.3,37.4,192.8,37.5,193.2,37.5z"/>
			<path d="M211.7,40.1c-0.2,0.7-0.7,1.2-1.4,1.7c-0.7,0.5-1.4,0.7-2.2,0.7c-0.8,0-1.4-0.4-1.8-1.2c-0.4-0.8-0.6-1.9-0.6-3.3
				c0-3.9,0.6-5.9,1.7-5.9c0.1,0,0.3,0,0.5,0.1c0,0.2-0.1,0.7-0.3,1.3c-0.3,1.3-0.5,2.4-0.5,3.4s0.1,2,0.4,3.1
				c0.3,1.1,0.7,1.6,1.2,1.6c0.3,0,0.5-0.2,0.8-0.5c0.2-0.3,0.4-0.7,0.6-1.1s0.3-0.8,0.5-1.3c0.2-0.5,0.3-0.8,0.3-0.9
				c-0.2-0.9-0.3-1.7-0.3-2.6c0,0,0-0.2,0-0.4c0-0.2,0-0.5,0-0.7c0-0.2,0.1-0.5,0.1-0.8c0.1-0.6,0.5-0.9,1.2-0.9
				c0.5,0,0.8,0.8,0.8,2.5c0,0.3,0,0.7-0.1,1.3c-0.1,0.6-0.1,0.9-0.1,1.2c0,0.7,0.3,1.5,1,2.6s1.3,1.6,1.8,1.6c0.6,0,1-0.3,1.2-1
				c0.3-0.6,0.4-1.4,0.4-2.2c0-0.9-0.1-1.6-0.2-2.1c-0.2-0.5-0.2-0.8-0.3-0.9c0-0.1-0.1-0.4-0.3-0.7c-0.2-0.3-0.3-0.5-0.3-0.6
				c0-0.1-0.2-0.3-0.3-0.6c-0.2-0.3-0.3-0.5-0.3-0.6c-0.4-0.7-0.7-1.2-0.7-1.2c0.4-0.3,0.7-0.5,1-0.5c0.9,0.6,1.6,1.7,2.1,3.2
				s0.8,2.8,0.8,4c0,1.2-0.3,2.1-0.8,2.8s-1.3,1-2.4,1c-0.7,0-1.5-0.2-2.1-0.6S212,40.8,211.7,40.1z"/>
			<path d="M227.5,36.3l-0.1,2.5c0,1.3,0.1,2.1,0.4,2.6c0.2,0.3,0.4,0.4,0.7,0.4c0.1,0,0.2,0,0.4-0.1c0.3-0.1,0.6,0,0.8,0.1
				c-0.1,0.5-0.6,0.8-1.5,0.8c-0.6,0-1-0.3-1.3-0.8c-0.2-0.4-0.3-0.9-0.4-1.5c-0.1-0.6-0.1-1-0.2-1.2c-1,1.8-1.9,2.9-2.8,3.3
				c-0.5,0.2-1,0.3-1.6,0.3c-0.6,0-1.1-0.3-1.4-0.9s-0.5-1.4-0.5-2.5s0.2-2.3,0.5-3.5c0.4-1.2,0.9-2.3,1.6-3.1
				c0.7-0.8,1.5-1.3,2.3-1.3c1.2,0,2,0.5,2.4,1.5C227.4,33.9,227.5,35,227.5,36.3z M222.2,35.6c-0.2,0.8-0.4,1.6-0.5,2.3
				c-0.1,0.7-0.2,1.3-0.2,1.9c0,0.6,0.1,1,0.3,1.4s0.5,0.6,0.9,0.6c0.8,0,1.6-0.7,2.3-2.2s1.1-2.9,1.1-4.2c0-0.8-0.2-1.5-0.7-2.1
				c-0.3-0.4-0.7-0.5-1.2-0.5s-0.9,0.3-1.3,0.8C222.7,34.1,222.4,34.8,222.2,35.6z"/>
			<path d="M230.5,33.4c-0.7,0-1.1-0.2-1.3-0.5c0-0.2,0.1-0.4,0.3-0.5c0.2-0.1,0.4-0.2,0.6-0.3s0.6-0.1,1.1-0.1
				c0-0.4,0.1-0.9,0.1-1.5c0-0.6,0-1.2,0-1.6c0-1.2,0.2-1.9,0.5-2.1c0.1-0.1,0.3-0.2,0.4-0.2c0.2,0,0.3,0,0.4,0
				c0,1.1,0.1,1.7,0.1,1.9l-0.1,3.3c0,0,0.1,0,0.2,0l1.6-0.1c1.1,0,1.7,0.2,1.7,0.5c0,0.5-0.2,0.8-0.6,0.9c-0.2,0-0.4,0.1-0.7,0.1
				c-0.3,0-0.6,0-1-0.1c-0.4-0.1-0.7-0.1-0.9-0.1s-0.3,0-0.4,0c0,0.4-0.1,0.8-0.1,1.3c0,0.4,0,0.9,0,1.6c0,0.6,0.1,1.4,0.2,2.2
				c0.1,0.9,0.3,1.6,0.6,2.2c0.3,0.6,0.7,0.9,1.2,0.9c0.2,0,0.5-0.1,0.9-0.3c0.3-0.2,0.6-0.3,0.8-0.3s0.3,0,0.5,0.1s0.2,0.2,0.2,0.3
				c0,0.3-0.3,0.6-0.9,0.9c-0.6,0.3-1.2,0.4-1.6,0.4c-1.6,0-2.6-1.5-3-4.6c-0.1-0.9-0.2-2.4-0.3-4.5C231,33.4,230.8,33.4,230.5,33.4
				z"/>
			<path d="M245.7,34.4c-0.3,0.3-0.6,0.4-0.8,0.4c-0.3,0-0.5-0.1-0.7-0.4c-0.2-0.2-0.3-0.5-0.4-0.8c-0.1-0.3-0.3-0.6-0.6-0.8
				c-0.3-0.2-0.6-0.4-1-0.4c-0.6,0.1-1.1,0.5-1.6,1.2s-0.8,1.6-1,2.5c-0.2,0.9-0.3,1.8-0.3,2.6s0.2,1.5,0.7,2.1
				c0.4,0.6,1.1,0.9,1.8,0.9c0.9,0,1.6-0.3,2.1-0.9c0.2-0.3,0.4-0.5,0.6-0.8c0.5-0.6,0.9-0.9,1.3-0.9c0.1,0,0.3,0,0.6,0.1
				c0,0.5-0.5,1.3-1.5,2.1c-1,0.9-2.1,1.3-3.2,1.3c-1.2,0-2.1-0.4-2.7-1.1s-1-1.7-1-2.9c0-1.5,0.4-3,1.1-4.5
				c0.4-0.7,0.9-1.3,1.5-1.8c0.6-0.5,1.3-0.7,2.1-0.7s1.4,0.3,1.9,0.8C245,32.9,245.4,33.6,245.7,34.4z"/>
			<path d="M248.3,38.1l0.2-9.9c0-0.8,0-1.3-0.1-1.6c0.3-0.2,0.7-0.4,1.2-0.4c0.2,1.6,0.3,3.6,0.3,6.1c0,0.7-0.1,2.4-0.2,5.1
				c0.7-3.7,1.9-5.6,3.7-5.6c0.6,0,1.1,0.3,1.5,1s0.6,1.5,0.6,2.4c0.1,1,0.2,1.9,0.2,2.9c0.1,2.3,0.6,3.4,1.2,3.4c0,0,0.2,0,0.4-0.1
				c0.6-0.2,0.9-0.2,1-0.1c0,0.2-0.2,0.4-0.7,0.6c-0.5,0.2-0.9,0.4-1.3,0.4c-0.6,0-1.1-0.3-1.5-1c-0.3-0.7-0.6-1.5-0.6-2.4
				c-0.1-1-0.1-1.9-0.2-2.8c0-0.9-0.1-1.8-0.3-2.4s-0.4-1-0.8-1c-0.5,0-0.9,0.5-1.3,1.5c-0.4,1-0.7,2.1-0.9,3.4s-0.5,2.4-0.8,3.4
				c-0.3,1-0.6,1.5-1,1.5C248.5,42.5,248.3,41,248.3,38.1z"/>
			<path d="M260.5,26.5c0,0.3,0,0.7,0,1.1s0,0.8,0.1,1.3c-0.2,0.2-0.5,0.4-0.8,0.4c-0.4,0-0.7-0.4-0.7-1.1c0,0,0-0.1,0-0.3
				c0-0.2,0-0.4,0-0.5c0-0.2,0-0.3,0.1-0.5c0.1-0.4,0.3-0.5,0.7-0.5C260.1,26.2,260.4,26.3,260.5,26.5z M259,37.2
				c0-2.9,0.1-4.5,0.4-5c0.1-0.2,0.2-0.2,0.4-0.2s0.4,0.1,0.7,0.2c-0.1,1.2-0.1,2.6-0.1,4.1l0,4.9c0,0.5-0.1,0.8-0.3,1
				c-0.2,0.2-0.4,0.3-0.5,0.3c-0.2,0-0.3,0-0.5-0.1C259.1,40.4,259,38.7,259,37.2z"/>
			<path d="M272.3,42c-0.3,0.3-0.6,0.4-0.9,0.4c-0.6,0-1.1-0.3-1.4-1c-0.3-0.7-0.5-1.5-0.5-2.5c-0.1-1-0.1-1.9-0.1-2.9
				c0-1-0.1-1.8-0.2-2.5c-0.1-0.7-0.4-1-0.8-1c-0.5,0-0.9,0.5-1.3,1.4s-0.6,2-0.8,3.1c-0.4,3.2-0.8,4.9-1.2,5.3
				c-0.3,0.1-0.5,0.2-0.7,0.2c-0.2,0-0.4,0-0.5-0.1c-0.3-1.3-0.5-3.7-0.6-7c0-1.6-0.1-2.7-0.1-3.2c0.3-0.2,0.6-0.3,0.8-0.3
				c0.2,0,0.4,0,0.5,0.1c0.1,0.6,0.1,1.9,0.1,3.9s0,3.1,0,3.4c0.1-0.3,0.2-0.8,0.3-1.5c0.1-0.7,0.2-1.3,0.3-1.7
				c0.1-0.4,0.2-1,0.4-1.6c0.2-0.6,0.4-1.1,0.6-1.4c0.2-0.4,0.6-0.7,1-0.9c0.4-0.3,0.9-0.4,1.4-0.4c0.7,0,1.2,0.3,1.5,0.9
				c0.3,0.6,0.5,1.4,0.5,2.3c0,0.9,0,1.9,0.1,2.8c0,1,0.1,1.8,0.4,2.6C271.4,41.3,271.8,41.8,272.3,42z"/>
			<path d="M277.6,31.7c1.3,0,2.3,0.5,2.8,1.6c0.3,0.6,0.5,1.1,0.7,1.6c0.2,0.5,0.3,1.2,0.4,2.1c0.1,1.4,0.1,2.9,0.1,4.7
				s-0.4,3.1-1.2,4.2c-0.8,1-2,1.6-3.6,1.6s-2.9-0.5-4-1.5c0.3-0.3,0.6-0.4,1-0.4c0.3,0,0.8,0.2,1.4,0.5c0.6,0.3,1.3,0.5,1.9,0.5
				s1.3-0.2,1.7-0.5c0.5-0.3,0.8-0.8,1-1.3c0.4-1,0.5-2.3,0.5-3.7c0-0.2,0-1-0.1-2.4c-0.4,1.2-1,2.2-1.7,3c-0.7,0.8-1.6,1.2-2.5,1.2
				c-0.9,0-1.6-0.4-2-1.2s-0.6-1.8-0.6-2.8c0-1.1,0.1-2.1,0.4-3.1c0.3-1,0.8-1.9,1.4-2.6S276.7,31.7,277.6,31.7z M275.3,35
				c-0.2,0.6-0.3,1.3-0.4,1.8c-0.1,0.6-0.1,1.1-0.1,1.7c0,0.6,0.1,1.2,0.4,1.9c0.2,0.7,0.6,1.1,1.1,1.1c0.9,0,1.7-0.7,2.5-2.1
				c0.7-1.4,1.1-2.8,1.1-4.2c0-0.5-0.2-1-0.7-1.6c-0.4-0.6-1-0.9-1.7-0.9c-0.5,0-0.9,0.2-1.2,0.7S275.5,34.4,275.3,35z"/>
			<path d="M290.6,26.5c0,0.3,0,0.7,0,1.1s0,0.8,0.1,1.3c-0.2,0.2-0.5,0.4-0.8,0.4c-0.4,0-0.7-0.4-0.7-1.1c0,0,0-0.1,0-0.3
				c0-0.2,0-0.4,0-0.5c0-0.2,0-0.3,0.1-0.5c0.1-0.4,0.3-0.5,0.7-0.5C290.2,26.2,290.4,26.3,290.6,26.5z M289.1,37.2
				c0-2.9,0.1-4.5,0.4-5c0.1-0.2,0.2-0.2,0.4-0.2s0.4,0.1,0.7,0.2c-0.1,1.2-0.1,2.6-0.1,4.1l0,4.9c0,0.5-0.1,0.8-0.3,1
				c-0.2,0.2-0.4,0.3-0.5,0.3c-0.2,0-0.3,0-0.5-0.1C289.2,40.4,289.1,38.7,289.1,37.2z"/>
			<path d="M295,42.8c-0.3,0-0.4-2.2-0.4-6.7c0-1.9,0-3,0-3.4h-0.4c-0.2,0-0.4,0-0.5,0c-0.1,0-0.3,0-0.5,0c-0.2,0-0.3,0-0.4-0.1
				c-0.1,0-0.2-0.1-0.3-0.1c-0.2-0.1-0.3-0.2-0.3-0.5c0-0.3,0.5-0.4,1.4-0.4c0.4,0,0.8,0,1.1,0c0-0.3,0-0.7,0-1.1c0-0.5,0-0.8,0-1.1
				c0-0.3,0-0.6,0.1-0.9c0-0.4,0.1-0.7,0.1-0.9c0.1-0.2,0.1-0.4,0.2-0.7s0.2-0.5,0.4-0.6c0.1-0.1,0.3-0.3,0.5-0.4
				c0.3-0.2,0.9-0.4,1.7-0.4s1.4,0.2,1.7,0.6s0.7,1,1,2c-0.2,0.3-0.5,0.4-0.8,0.4c-0.1,0-0.2,0-0.3,0c-0.3-0.7-0.5-1.2-0.7-1.4
				c-0.2-0.2-0.5-0.4-0.9-0.4c-0.4,0-0.6,0.1-0.8,0.2s-0.3,0.3-0.4,0.5c-0.2,0.4-0.3,1.5-0.3,3.2c0,0.1,0,0.2,0,0.4
				c0,0.2,0,0.4,0,0.5l1.9-0.2c0.7,0,1.1,0.2,1.1,0.5c0,0.2-0.2,0.4-0.5,0.4c-0.4,0.1-0.8,0.1-1.3,0.1c-0.5,0-0.9,0.1-1.1,0.1
				c0,0.4,0,1,0,1.6c0,0.7,0,1.7,0.1,3.2c0.1,1.4,0.1,2.5,0.1,3.3c0,0.8-0.1,1.3-0.2,1.6C295.8,42.6,295.5,42.8,295,42.8z"/>
			<path d="M305.3,33.4c-0.7,0-1.1-0.2-1.3-0.5c0-0.2,0.1-0.4,0.3-0.5c0.2-0.1,0.4-0.2,0.6-0.3s0.6-0.1,1.1-0.1
				c0-0.4,0.1-0.9,0.1-1.5c0-0.6,0-1.2,0-1.6c0-1.2,0.2-1.9,0.5-2.1c0.1-0.1,0.3-0.2,0.4-0.2c0.2,0,0.3,0,0.4,0
				c0,1.1,0.1,1.7,0.1,1.9l-0.1,3.3c0,0,0.1,0,0.2,0l1.6-0.1c1.1,0,1.7,0.2,1.7,0.5c0,0.5-0.2,0.8-0.6,0.9c-0.2,0-0.4,0.1-0.7,0.1
				c-0.3,0-0.6,0-1-0.1c-0.4-0.1-0.7-0.1-0.9-0.1s-0.3,0-0.4,0c0,0.4-0.1,0.8-0.1,1.3c0,0.4,0,0.9,0,1.6c0,0.6,0.1,1.4,0.2,2.2
				c0.1,0.9,0.3,1.6,0.6,2.2c0.3,0.6,0.7,0.9,1.2,0.9c0.2,0,0.5-0.1,0.9-0.3c0.3-0.2,0.6-0.3,0.8-0.3s0.3,0,0.5,0.1s0.2,0.2,0.2,0.3
				c0,0.3-0.3,0.6-0.9,0.9c-0.6,0.3-1.2,0.4-1.6,0.4c-1.6,0-2.6-1.5-3-4.6c-0.1-0.9-0.2-2.4-0.3-4.5
				C305.8,33.4,305.6,33.4,305.3,33.4z"/>
			<path d="M313.3,38.1l0.2-9.9c0-0.8,0-1.3-0.1-1.6c0.3-0.2,0.7-0.4,1.2-0.4c0.2,1.6,0.3,3.6,0.3,6.1c0,0.7-0.1,2.4-0.2,5.1
				c0.7-3.7,1.9-5.6,3.7-5.6c0.6,0,1.1,0.3,1.5,1s0.6,1.5,0.6,2.4c0.1,1,0.2,1.9,0.2,2.9c0.1,2.3,0.6,3.4,1.2,3.4c0,0,0.2,0,0.4-0.1
				c0.6-0.2,0.9-0.2,1-0.1c0,0.2-0.2,0.4-0.7,0.6c-0.5,0.2-0.9,0.4-1.3,0.4c-0.6,0-1.1-0.3-1.5-1c-0.3-0.7-0.6-1.5-0.6-2.4
				c-0.1-1-0.1-1.9-0.2-2.8c0-0.9-0.1-1.8-0.3-2.4s-0.4-1-0.8-1c-0.5,0-0.9,0.5-1.3,1.5c-0.4,1-0.7,2.1-0.9,3.4s-0.5,2.4-0.8,3.4
				c-0.3,1-0.6,1.5-1,1.5C313.5,42.5,313.3,41,313.3,38.1z"/>
			<path d="M325,38.2c0,0.3,0,0.5,0,0.6c0,0.9,0.3,1.6,0.8,2c0.5,0.5,1.2,0.7,1.9,0.7c0.7,0,1.3-0.1,1.8-0.3c0.5-0.2,0.8-0.4,1-0.7
				c0.5-0.7,1-1,1.5-1c0.2,0,0.4,0,0.6,0.1c-0.1,0.7-0.7,1.4-1.7,2c-1,0.6-2.2,0.9-3.6,0.9c-1,0-1.9-0.3-2.7-1
				c-0.7-0.7-1.1-1.5-1.1-2.7s0.2-2.2,0.7-3.3c0.4-1.1,1.1-2,1.9-2.7s1.7-1.1,2.6-1.1c0.9,0,1.6,0.2,2.1,0.5
				c0.5,0.4,0.8,0.9,0.8,1.6c0,1.3-0.6,2.3-1.7,3.2c-1.1,0.8-2.3,1.2-3.6,1.2C325.9,38.3,325.5,38.3,325,38.2z M326.7,37.5
				c0.7,0,1.3-0.2,1.8-0.7c0.5-0.4,0.9-0.9,1.2-1.4c0.2-0.5,0.3-0.9,0.3-1.3s-0.2-0.7-0.5-1c-0.3-0.3-0.7-0.5-1.1-0.5
				c-0.7,0-1.4,0.5-2,1.5c-0.6,1-1.1,2.1-1.3,3.1C325.8,37.4,326.3,37.5,326.7,37.5z"/>
			<path d="M336.4,40.5l0.1,1.3c0,0.3-0.1,0.5-0.3,0.7c-0.2,0.1-0.4,0.2-0.5,0.2c-0.2,0-0.4,0-0.6-0.1c-0.3-1.7-0.6-3.8-0.7-6.4
				c-0.2-2.5-0.3-4-0.3-4.3c0.2-0.2,0.5-0.3,0.7-0.3s0.5,0,0.6,0.1c0.1,0.4,0.1,1.4,0.1,2.8s0.1,2.4,0.1,2.7
				c0.2-1.2,0.6-2.4,1.1-3.5c0.3-0.6,0.7-1.1,1.2-1.4c0.5-0.4,1-0.5,1.5-0.5c0.6,0,1.1,0.2,1.5,0.7c0.5,0.5,0.7,0.9,0.7,1.3
				c0,0.1-0.1,0.3-0.3,0.3s-0.4,0.1-0.6,0.1s-0.4-0.1-0.5-0.2c-0.1-0.2-0.2-0.3-0.2-0.5c0-0.2-0.1-0.4-0.3-0.5
				c-0.1-0.2-0.3-0.2-0.6-0.2c-0.7,0-1.2,0.6-1.7,1.8C336.8,36.3,336.4,38.3,336.4,40.5z"/>
			<path d="M343.8,38.2c0,0.3,0,0.5,0,0.6c0,0.9,0.3,1.6,0.8,2c0.5,0.5,1.2,0.7,1.9,0.7s1.3-0.1,1.8-0.3c0.5-0.2,0.8-0.4,1-0.7
				c0.5-0.7,1-1,1.5-1c0.2,0,0.4,0,0.6,0.1c-0.1,0.7-0.7,1.4-1.7,2c-1,0.6-2.2,0.9-3.6,0.9c-1,0-1.9-0.3-2.7-1
				c-0.7-0.7-1.1-1.5-1.1-2.7s0.2-2.2,0.7-3.3c0.4-1.1,1.1-2,1.9-2.7s1.7-1.1,2.6-1.1c0.9,0,1.6,0.2,2.1,0.5
				c0.5,0.4,0.8,0.9,0.8,1.6c0,1.3-0.6,2.3-1.7,3.2c-1.1,0.8-2.3,1.2-3.6,1.2C344.7,38.3,344.3,38.3,343.8,38.2z M345.5,37.5
				c0.7,0,1.3-0.2,1.8-0.7c0.5-0.4,0.9-0.9,1.2-1.4c0.2-0.5,0.3-0.9,0.3-1.3s-0.2-0.7-0.5-1c-0.3-0.3-0.7-0.5-1.1-0.5
				c-0.7,0-1.4,0.5-2,1.5c-0.6,1-1.1,2.1-1.3,3.1C344.5,37.4,345.1,37.5,345.5,37.5z"/>
			<path d="M364,40.1c-0.2,0.7-0.7,1.2-1.4,1.7c-0.7,0.5-1.4,0.7-2.2,0.7c-0.8,0-1.4-0.4-1.8-1.2c-0.4-0.8-0.6-1.9-0.6-3.3
				c0-3.9,0.6-5.9,1.7-5.9c0.1,0,0.3,0,0.5,0.1c0,0.2-0.1,0.7-0.3,1.3c-0.3,1.3-0.5,2.4-0.5,3.4s0.1,2,0.4,3.1
				c0.3,1.1,0.7,1.6,1.2,1.6c0.3,0,0.5-0.2,0.8-0.5c0.2-0.3,0.4-0.7,0.6-1.1s0.3-0.8,0.5-1.3c0.2-0.5,0.3-0.8,0.3-0.9
				c-0.2-0.9-0.3-1.7-0.3-2.6c0,0,0-0.2,0-0.4c0-0.2,0-0.5,0-0.7c0-0.2,0.1-0.5,0.1-0.8c0.1-0.6,0.5-0.9,1.2-0.9
				c0.5,0,0.8,0.8,0.8,2.5c0,0.3,0,0.7-0.1,1.3c-0.1,0.6-0.1,0.9-0.1,1.2c0,0.7,0.3,1.5,1,2.6s1.3,1.6,1.8,1.6c0.6,0,1-0.3,1.2-1
				c0.3-0.6,0.4-1.4,0.4-2.2c0-0.9-0.1-1.6-0.2-2.1c-0.2-0.5-0.2-0.8-0.3-0.9c0-0.1-0.1-0.4-0.3-0.7c-0.2-0.3-0.3-0.5-0.3-0.6
				c0-0.1-0.2-0.3-0.3-0.6c-0.2-0.3-0.3-0.5-0.3-0.6c-0.4-0.7-0.7-1.2-0.7-1.2c0.4-0.3,0.7-0.5,1-0.5c0.9,0.6,1.6,1.7,2.1,3.2
				s0.8,2.8,0.8,4c0,1.2-0.3,2.1-0.8,2.8s-1.3,1-2.4,1c-0.7,0-1.5-0.2-2.1-0.6S364.2,40.8,364,40.1z"/>
			<path d="M374.4,26.5c0,0.3,0,0.7,0,1.1s0,0.8,0.1,1.3c-0.2,0.2-0.5,0.4-0.8,0.4c-0.4,0-0.7-0.4-0.7-1.1c0,0,0-0.1,0-0.3
				c0-0.2,0-0.4,0-0.5c0-0.2,0-0.3,0.1-0.5c0.1-0.4,0.3-0.5,0.7-0.5C374.1,26.2,374.3,26.3,374.4,26.5z M373,37.2
				c0-2.9,0.1-4.5,0.4-5c0.1-0.2,0.2-0.2,0.4-0.2s0.4,0.1,0.7,0.2c-0.1,1.2-0.1,2.6-0.1,4.1l0,4.9c0,0.5-0.1,0.8-0.3,1
				c-0.2,0.2-0.4,0.3-0.5,0.3c-0.2,0-0.3,0-0.5-0.1C373,40.4,373,38.7,373,37.2z"/>
			<path d="M378,29.5c0-1.5-0.2-2.4-0.6-2.9c0.2-0.3,0.5-0.4,1-0.4c0.1,0,0.2,0,0.3,0c0.4,0.4,0.5,1.4,0.5,3.2c0,1,0,2.1-0.1,3.3
				c-0.2,2.2-0.3,3.8-0.3,4.8c0,2.8,0.5,4.2,1.6,4.2l0.8-0.2c0.1,0,0.2,0.1,0.3,0.2c0,0.5-0.5,0.8-1.3,0.8c-0.8,0-1.4-0.2-1.9-0.7
				c-0.4-0.5-0.7-1.1-0.8-1.8c-0.1-0.7-0.2-1.4-0.2-1.8c0-0.5,0-1,0-1.6c0-0.6,0.1-1.4,0.2-2.5C377.8,31.8,378,30.3,378,29.5z"/>
			<path d="M383.2,29.5c0-1.5-0.2-2.4-0.6-2.9c0.2-0.3,0.5-0.4,1-0.4c0.1,0,0.2,0,0.3,0c0.4,0.4,0.5,1.4,0.5,3.2c0,1,0,2.1-0.1,3.3
				c-0.2,2.2-0.3,3.8-0.3,4.8c0,2.8,0.5,4.2,1.6,4.2l0.8-0.2c0.1,0,0.2,0.1,0.3,0.2c0,0.5-0.5,0.8-1.3,0.8c-0.8,0-1.4-0.2-1.9-0.7
				c-0.4-0.5-0.7-1.1-0.8-1.8c-0.1-0.7-0.2-1.4-0.2-1.8c0-0.5,0-1,0-1.6c0-0.6,0.1-1.4,0.2-2.5C383.1,31.8,383.2,30.3,383.2,29.5z"
				/>
			<path d="M392.9,26.8c0.2-0.3,0.5-0.5,1-0.5c0.1,0,0.2,0,0.3,0c0,0.8,0,2.9,0,6.5c0,0,0.1-0.1,0.2-0.2s0.2-0.2,0.2-0.2
				c0,0,0.1-0.1,0.2-0.2s0.2-0.2,0.3-0.2c0.1,0,0.2-0.1,0.3-0.2c0.1-0.1,0.2-0.1,0.3-0.2c0.1,0,0.2-0.1,0.3-0.1
				c0.2-0.1,0.5-0.1,0.8-0.1c1.1,0,2,0.5,2.6,1.4c0.7,0.9,1,1.9,1,3S400.3,38,400,39c-0.3,1-0.9,1.9-1.6,2.6
				c-0.7,0.7-1.5,1.1-2.5,1.1c-0.9,0-1.7-0.3-2.3-1c-0.6-0.7-0.9-1.5-0.9-2.4c0-0.9,0.1-2.5,0.2-4.9s0.2-4.1,0.2-5.2
				C393,28.2,393,27.4,392.9,26.8z M396.1,41.7c0.6,0,1.1-0.3,1.5-0.8c0.9-1.1,1.4-2.6,1.4-4.6c0-1.1-0.2-2-0.6-2.8
				c-0.4-0.8-1-1.2-1.7-1.2c-0.4,0-0.8,0.2-1.1,0.6c-0.3,0.4-0.6,1-0.7,1.7c-0.3,1.3-0.5,2.8-0.5,4.4c0,1.3,0.3,2.2,0.8,2.5
				C395.4,41.6,395.7,41.7,396.1,41.7z"/>
			<path d="M403.7,38.2c0,0.3,0,0.5,0,0.6c0,0.9,0.3,1.6,0.8,2c0.5,0.5,1.2,0.7,1.9,0.7s1.3-0.1,1.8-0.3c0.5-0.2,0.8-0.4,1-0.7
				c0.5-0.7,1-1,1.5-1c0.2,0,0.4,0,0.6,0.1c-0.1,0.7-0.7,1.4-1.7,2c-1,0.6-2.2,0.9-3.6,0.9c-1,0-1.9-0.3-2.7-1
				c-0.7-0.7-1.1-1.5-1.1-2.7s0.2-2.2,0.7-3.3c0.4-1.1,1.1-2,1.9-2.7s1.7-1.1,2.6-1.1c0.9,0,1.6,0.2,2.1,0.5
				c0.5,0.4,0.8,0.9,0.8,1.6c0,1.3-0.6,2.3-1.7,3.2c-1.1,0.8-2.3,1.2-3.6,1.2C404.6,38.3,404.2,38.3,403.7,38.2z M405.4,37.5
				c0.7,0,1.3-0.2,1.8-0.7c0.5-0.4,0.9-0.9,1.2-1.4c0.2-0.5,0.3-0.9,0.3-1.3s-0.2-0.7-0.5-1c-0.3-0.3-0.7-0.5-1.1-0.5
				c-0.7,0-1.4,0.5-2,1.5c-0.6,1-1.1,2.1-1.3,3.1C404.5,37.4,405,37.5,405.4,37.5z"/>
			<path d="M418.3,26.8c0.2-0.3,0.5-0.5,1-0.5c0.1,0,0.2,0,0.3,0c0,0.8,0,2.9,0,6.5c0,0,0.1-0.1,0.2-0.2s0.2-0.2,0.2-0.2
				c0,0,0.1-0.1,0.2-0.2s0.2-0.2,0.3-0.2c0.1,0,0.2-0.1,0.3-0.2c0.1-0.1,0.2-0.1,0.3-0.2c0.1,0,0.2-0.1,0.3-0.1
				c0.2-0.1,0.5-0.1,0.8-0.1c1.1,0,2,0.5,2.6,1.4c0.7,0.9,1,1.9,1,3s-0.2,2.2-0.5,3.2c-0.3,1-0.9,1.9-1.6,2.6
				c-0.7,0.7-1.5,1.1-2.5,1.1c-0.9,0-1.7-0.3-2.3-1c-0.6-0.7-0.9-1.5-0.9-2.4c0-0.9,0.1-2.5,0.2-4.9s0.2-4.1,0.2-5.2
				C418.3,28.2,418.3,27.4,418.3,26.8z M421.4,41.7c0.6,0,1.1-0.3,1.5-0.8c0.9-1.1,1.4-2.6,1.4-4.6c0-1.1-0.2-2-0.6-2.8
				c-0.4-0.8-1-1.2-1.7-1.2c-0.4,0-0.8,0.2-1.1,0.6c-0.3,0.4-0.6,1-0.7,1.7c-0.3,1.3-0.5,2.8-0.5,4.4c0,1.3,0.3,2.2,0.8,2.5
				C420.7,41.6,421,41.7,421.4,41.7z"/>
			<path d="M429.1,38.2c0,0.3,0,0.5,0,0.6c0,0.9,0.3,1.6,0.8,2c0.5,0.5,1.2,0.7,1.9,0.7s1.3-0.1,1.8-0.3c0.5-0.2,0.8-0.4,1-0.7
				c0.5-0.7,1-1,1.5-1c0.2,0,0.4,0,0.6,0.1c-0.1,0.7-0.7,1.4-1.7,2c-1,0.6-2.2,0.9-3.6,0.9c-1,0-1.9-0.3-2.7-1
				c-0.7-0.7-1.1-1.5-1.1-2.7s0.2-2.2,0.7-3.3c0.4-1.1,1.1-2,1.9-2.7s1.7-1.1,2.6-1.1c0.9,0,1.6,0.2,2.1,0.5
				c0.5,0.4,0.8,0.9,0.8,1.6c0,1.3-0.6,2.3-1.7,3.2c-1.1,0.8-2.3,1.2-3.6,1.2C429.9,38.3,429.5,38.3,429.1,38.2z M430.7,37.5
				c0.7,0,1.3-0.2,1.8-0.7c0.5-0.4,0.9-0.9,1.2-1.4c0.2-0.5,0.3-0.9,0.3-1.3s-0.2-0.7-0.5-1c-0.3-0.3-0.7-0.5-1.1-0.5
				c-0.7,0-1.4,0.5-2,1.5c-0.6,1-1.1,2.1-1.3,3.1C429.8,37.4,430.3,37.5,430.7,37.5z"/>
			<path d="M438.4,33.4c-0.7,0-1.1-0.2-1.3-0.5c0-0.2,0.1-0.4,0.3-0.5c0.2-0.1,0.4-0.2,0.6-0.3s0.6-0.1,1.1-0.1
				c0-0.4,0.1-0.9,0.1-1.5c0-0.6,0-1.2,0-1.6c0-1.2,0.2-1.9,0.5-2.1c0.1-0.1,0.3-0.2,0.4-0.2c0.2,0,0.3,0,0.4,0
				c0,1.1,0.1,1.7,0.1,1.9l-0.1,3.3c0,0,0.1,0,0.2,0l1.6-0.1c1.1,0,1.7,0.2,1.7,0.5c0,0.5-0.2,0.8-0.6,0.9c-0.2,0-0.4,0.1-0.7,0.1
				c-0.3,0-0.6,0-1-0.1c-0.4-0.1-0.7-0.1-0.9-0.1s-0.3,0-0.4,0c0,0.4-0.1,0.8-0.1,1.3c0,0.4,0,0.9,0,1.6c0,0.6,0.1,1.4,0.2,2.2
				c0.1,0.9,0.3,1.6,0.6,2.2c0.3,0.6,0.7,0.9,1.2,0.9c0.2,0,0.5-0.1,0.9-0.3c0.3-0.2,0.6-0.3,0.8-0.3s0.3,0,0.5,0.1s0.2,0.2,0.2,0.3
				c0,0.3-0.3,0.6-0.9,0.9c-0.6,0.3-1.2,0.4-1.6,0.4c-1.6,0-2.6-1.5-3-4.6c-0.1-0.9-0.2-2.4-0.3-4.5
				C438.9,33.4,438.6,33.4,438.4,33.4z"/>
			<path d="M446.2,33.4c-0.7,0-1.1-0.2-1.3-0.5c0-0.2,0.1-0.4,0.3-0.5c0.2-0.1,0.4-0.2,0.6-0.3s0.6-0.1,1.1-0.1
				c0-0.4,0.1-0.9,0.1-1.5c0-0.6,0-1.2,0-1.6c0-1.2,0.2-1.9,0.5-2.1c0.1-0.1,0.3-0.2,0.4-0.2c0.2,0,0.3,0,0.4,0
				c0,1.1,0.1,1.7,0.1,1.9l-0.1,3.3c0,0,0.1,0,0.2,0l1.6-0.1c1.1,0,1.7,0.2,1.7,0.5c0,0.5-0.2,0.8-0.6,0.9c-0.2,0-0.4,0.1-0.7,0.1
				c-0.3,0-0.6,0-1-0.1c-0.4-0.1-0.7-0.1-0.9-0.1s-0.3,0-0.4,0c0,0.4-0.1,0.8-0.1,1.3c0,0.4,0,0.9,0,1.6c0,0.6,0.1,1.4,0.2,2.2
				c0.1,0.9,0.3,1.6,0.6,2.2c0.3,0.6,0.7,0.9,1.2,0.9c0.2,0,0.5-0.1,0.9-0.3c0.3-0.2,0.6-0.3,0.8-0.3s0.3,0,0.5,0.1s0.2,0.2,0.2,0.3
				c0,0.3-0.3,0.6-0.9,0.9c-0.6,0.3-1.2,0.4-1.6,0.4c-1.6,0-2.6-1.5-3-4.6c-0.1-0.9-0.2-2.4-0.3-4.5
				C446.8,33.4,446.5,33.4,446.2,33.4z"/>
			<path d="M455.2,38.2c0,0.3,0,0.5,0,0.6c0,0.9,0.3,1.6,0.8,2c0.5,0.5,1.2,0.7,1.9,0.7s1.3-0.1,1.8-0.3c0.5-0.2,0.8-0.4,1-0.7
				c0.5-0.7,1-1,1.5-1c0.2,0,0.4,0,0.6,0.1c-0.1,0.7-0.7,1.4-1.7,2c-1,0.6-2.2,0.9-3.6,0.9c-1,0-1.9-0.3-2.7-1
				c-0.7-0.7-1.1-1.5-1.1-2.7s0.2-2.2,0.7-3.3c0.4-1.1,1.1-2,1.9-2.7s1.7-1.1,2.6-1.1c0.9,0,1.6,0.2,2.1,0.5
				c0.5,0.4,0.8,0.9,0.8,1.6c0,1.3-0.6,2.3-1.7,3.2c-1.1,0.8-2.3,1.2-3.6,1.2C456.1,38.3,455.7,38.3,455.2,38.2z M456.9,37.5
				c0.7,0,1.3-0.2,1.8-0.7c0.5-0.4,0.9-0.9,1.2-1.4c0.2-0.5,0.3-0.9,0.3-1.3s-0.2-0.7-0.5-1c-0.3-0.3-0.7-0.5-1.1-0.5
				c-0.7,0-1.4,0.5-2,1.5c-0.6,1-1.1,2.1-1.3,3.1C456,37.4,456.5,37.5,456.9,37.5z"/>
			<path d="M466.7,40.5l0.1,1.3c0,0.3-0.1,0.5-0.3,0.7c-0.2,0.1-0.4,0.2-0.5,0.2c-0.2,0-0.4,0-0.6-0.1c-0.3-1.7-0.6-3.8-0.7-6.4
				c-0.2-2.5-0.3-4-0.3-4.3c0.2-0.2,0.5-0.3,0.7-0.3s0.5,0,0.6,0.1c0.1,0.4,0.1,1.4,0.1,2.8s0.1,2.4,0.1,2.7
				c0.2-1.2,0.6-2.4,1.1-3.5c0.3-0.6,0.7-1.1,1.2-1.4c0.5-0.4,1-0.5,1.5-0.5c0.6,0,1.1,0.2,1.5,0.7c0.5,0.5,0.7,0.9,0.7,1.3
				c0,0.1-0.1,0.3-0.3,0.3s-0.4,0.1-0.6,0.1s-0.4-0.1-0.5-0.2c-0.1-0.2-0.2-0.3-0.2-0.5c0-0.2-0.1-0.4-0.3-0.5
				c-0.1-0.2-0.3-0.2-0.6-0.2c-0.7,0-1.2,0.6-1.7,1.8C467,36.3,466.7,38.3,466.7,40.5z"/>
			<path d="M484.2,40.1c-0.2,0.7-0.7,1.2-1.4,1.7c-0.7,0.5-1.4,0.7-2.2,0.7c-0.8,0-1.4-0.4-1.8-1.2c-0.4-0.8-0.6-1.9-0.6-3.3
				c0-3.9,0.6-5.9,1.7-5.9c0.1,0,0.3,0,0.5,0.1c0,0.2-0.1,0.7-0.3,1.3c-0.3,1.3-0.5,2.4-0.5,3.4s0.1,2,0.4,3.1
				c0.3,1.1,0.7,1.6,1.2,1.6c0.3,0,0.5-0.2,0.8-0.5c0.2-0.3,0.4-0.7,0.6-1.1s0.3-0.8,0.5-1.3c0.2-0.5,0.3-0.8,0.3-0.9
				c-0.2-0.9-0.3-1.7-0.3-2.6c0,0,0-0.2,0-0.4c0-0.2,0-0.5,0-0.7c0-0.2,0.1-0.5,0.1-0.8c0.1-0.6,0.5-0.9,1.2-0.9
				c0.5,0,0.8,0.8,0.8,2.5c0,0.3,0,0.7-0.1,1.3c-0.1,0.6-0.1,0.9-0.1,1.2c0,0.7,0.3,1.5,1,2.6s1.3,1.6,1.8,1.6c0.6,0,1-0.3,1.2-1
				c0.3-0.6,0.4-1.4,0.4-2.2c0-0.9-0.1-1.6-0.2-2.1c-0.2-0.5-0.2-0.8-0.3-0.9c0-0.1-0.1-0.4-0.3-0.7c-0.2-0.3-0.3-0.5-0.3-0.6
				c0-0.1-0.2-0.3-0.3-0.6c-0.2-0.3-0.3-0.5-0.3-0.6c-0.4-0.7-0.7-1.2-0.7-1.2c0.4-0.3,0.7-0.5,1-0.5c0.9,0.6,1.6,1.7,2.1,3.2
				s0.8,2.8,0.8,4c0,1.2-0.3,2.1-0.8,2.8s-1.3,1-2.4,1c-0.7,0-1.5-0.2-2.1-0.6S484.4,40.8,484.2,40.1z"/>
			<path d="M494.1,38.2c0,0.3,0,0.5,0,0.6c0,0.9,0.3,1.6,0.8,2c0.5,0.5,1.2,0.7,1.9,0.7s1.3-0.1,1.8-0.3c0.5-0.2,0.8-0.4,1-0.7
				c0.5-0.7,1-1,1.5-1c0.2,0,0.4,0,0.6,0.1c-0.1,0.7-0.7,1.4-1.7,2c-1,0.6-2.2,0.9-3.6,0.9c-1,0-1.9-0.3-2.7-1
				c-0.7-0.7-1.1-1.5-1.1-2.7s0.2-2.2,0.7-3.3c0.4-1.1,1.1-2,1.9-2.7s1.7-1.1,2.6-1.1c0.9,0,1.6,0.2,2.1,0.5
				c0.5,0.4,0.8,0.9,0.8,1.6c0,1.3-0.6,2.3-1.7,3.2c-1.1,0.8-2.3,1.2-3.6,1.2C495,38.3,494.6,38.3,494.1,38.2z M495.8,37.5
				c0.7,0,1.3-0.2,1.8-0.7c0.5-0.4,0.9-0.9,1.2-1.4c0.2-0.5,0.3-0.9,0.3-1.3s-0.2-0.7-0.5-1c-0.3-0.3-0.7-0.5-1.1-0.5
				c-0.7,0-1.4,0.5-2,1.5c-0.6,1-1.1,2.1-1.3,3.1C494.9,37.4,495.4,37.5,495.8,37.5z"/>
			<path d="M503.7,26.8c0.2-0.3,0.5-0.5,1-0.5c0.1,0,0.2,0,0.3,0c0,0.8,0,2.9,0,6.5c0,0,0.1-0.1,0.2-0.2s0.2-0.2,0.2-0.2
				c0,0,0.1-0.1,0.2-0.2s0.2-0.2,0.3-0.2c0.1,0,0.2-0.1,0.3-0.2c0.1-0.1,0.2-0.1,0.3-0.2c0.1,0,0.2-0.1,0.3-0.1
				c0.2-0.1,0.5-0.1,0.8-0.1c1.1,0,2,0.5,2.6,1.4c0.7,0.9,1,1.9,1,3S511,38,510.7,39c-0.3,1-0.9,1.9-1.6,2.6
				c-0.7,0.7-1.5,1.1-2.5,1.1c-0.9,0-1.7-0.3-2.3-1c-0.6-0.7-0.9-1.5-0.9-2.4c0-0.9,0.1-2.5,0.2-4.9s0.2-4.1,0.2-5.2
				C503.7,28.2,503.7,27.4,503.7,26.8z M506.8,41.7c0.6,0,1.1-0.3,1.5-0.8c0.9-1.1,1.4-2.6,1.4-4.6c0-1.1-0.2-2-0.6-2.8
				c-0.4-0.8-1-1.2-1.7-1.2c-0.4,0-0.8,0.2-1.1,0.6c-0.3,0.4-0.6,1-0.7,1.7c-0.3,1.3-0.5,2.8-0.5,4.4c0,1.3,0.3,2.2,0.8,2.5
				C506.1,41.6,506.4,41.7,506.8,41.7z"/>
			<path d="M520.5,40.5l0.1,1.3c0,0.3-0.1,0.5-0.3,0.7c-0.2,0.1-0.4,0.2-0.5,0.2c-0.2,0-0.4,0-0.6-0.1c-0.3-1.7-0.6-3.8-0.7-6.4
				c-0.2-2.5-0.3-4-0.3-4.3c0.2-0.2,0.5-0.3,0.7-0.3s0.5,0,0.6,0.1c0.1,0.4,0.1,1.4,0.1,2.8s0.1,2.4,0.1,2.7
				c0.2-1.2,0.6-2.4,1.1-3.5c0.3-0.6,0.7-1.1,1.2-1.4c0.5-0.4,1-0.5,1.5-0.5c0.6,0,1.1,0.2,1.5,0.7c0.5,0.5,0.7,0.9,0.7,1.3
				c0,0.1-0.1,0.3-0.3,0.3s-0.4,0.1-0.6,0.1s-0.4-0.1-0.5-0.2c-0.1-0.2-0.2-0.3-0.2-0.5c0-0.2-0.1-0.4-0.3-0.5
				c-0.1-0.2-0.3-0.2-0.6-0.2c-0.7,0-1.2,0.6-1.7,1.8C520.9,36.3,520.5,38.3,520.5,40.5z"/>
			<path d="M527.8,38.2c0,0.3,0,0.5,0,0.6c0,0.9,0.3,1.6,0.8,2c0.5,0.5,1.2,0.7,1.9,0.7s1.3-0.1,1.8-0.3c0.5-0.2,0.8-0.4,1-0.7
				c0.5-0.7,1-1,1.5-1c0.2,0,0.4,0,0.6,0.1c-0.1,0.7-0.7,1.4-1.7,2c-1,0.6-2.2,0.9-3.6,0.9c-1,0-1.9-0.3-2.7-1
				c-0.7-0.7-1.1-1.5-1.1-2.7s0.2-2.2,0.7-3.3c0.4-1.1,1.1-2,1.9-2.7s1.7-1.1,2.6-1.1c0.9,0,1.6,0.2,2.1,0.5
				c0.5,0.4,0.8,0.9,0.8,1.6c0,1.3-0.6,2.3-1.7,3.2c-1.1,0.8-2.3,1.2-3.6,1.2C528.7,38.3,528.3,38.3,527.8,38.2z M529.5,37.5
				c0.7,0,1.3-0.2,1.8-0.7c0.5-0.4,0.9-0.9,1.2-1.4c0.2-0.5,0.3-0.9,0.3-1.3s-0.2-0.7-0.5-1c-0.3-0.3-0.7-0.5-1.1-0.5
				c-0.7,0-1.4,0.5-2,1.5c-0.6,1-1.1,2.1-1.3,3.1C528.6,37.4,529.1,37.5,529.5,37.5z"/>
			<path d="M542.7,33.9c-0.1-0.3-0.4-0.6-0.7-0.8c-0.4-0.2-0.8-0.3-1.4-0.3c-0.5,0-1.1,0.2-1.5,0.5c-0.5,0.3-0.7,0.8-0.7,1.3
				c0,0.5,0.2,1,0.7,1.3c0.4,0.3,1,0.6,1.6,0.7c0.6,0.2,1.3,0.3,1.9,0.5c0.6,0.2,1.2,0.5,1.6,0.9s0.7,1,0.7,1.6c0,1-0.4,1.7-1.2,2.2
				c-0.8,0.5-1.8,0.8-2.9,0.8c-0.7,0-1.6-0.2-2.7-0.5c-1.1-0.4-1.6-0.8-1.6-1.3c0-0.4,0.3-0.6,1-0.6c0.2,0,0.4,0.1,0.7,0.4
				c0.9,0.7,1.9,1,2.9,1c0.5,0,1-0.1,1.4-0.3c0.7-0.3,1.1-0.9,1.1-1.6c0-0.5-0.2-0.8-0.7-1.1c-0.4-0.3-1-0.5-1.6-0.7
				c-0.6-0.2-1.3-0.3-1.9-0.5s-1.2-0.5-1.6-1s-0.7-1-0.7-1.7c0-0.9,0.4-1.6,1.2-2.2c0.8-0.6,1.8-0.8,3-0.8c0.8,0,1.5,0.2,2.2,0.6
				c0.7,0.4,1,1,1,1.8c0,0.5-0.3,0.8-0.9,0.8c-0.3,0-0.4,0-0.5-0.1s-0.1-0.2-0.1-0.5C542.7,34.1,542.7,34,542.7,33.9z"/>
			<path d="M547.5,33.5c0.7-1.1,1.8-1.7,3.2-1.7s2.5,0.6,3.4,1.7c0.8,1.1,1.3,2.4,1.3,3.9c0,1.5-0.5,2.7-1.4,3.7
				c-0.9,1-2.1,1.5-3.5,1.5s-2.5-0.4-3.1-1.2c-0.6-0.8-1-1.9-1-3.4C546.4,36.2,546.7,34.7,547.5,33.5z M548.4,34.7
				c-0.2,0.6-0.3,1.2-0.4,1.7c-0.1,0.6-0.1,1.1-0.1,1.6s0,0.9,0.1,1.3c0.1,0.4,0.2,0.8,0.4,1.2c0.2,0.4,0.4,0.7,0.8,0.9
				c0.4,0.2,0.8,0.3,1.3,0.3c1,0,1.8-0.4,2.5-1.2c0.7-0.8,1-1.8,1-2.9s-0.3-2.3-0.9-3.3c-0.6-1.1-1.4-1.6-2.2-1.6
				c-0.5,0-1,0.2-1.4,0.5C548.9,33.6,548.6,34.1,548.4,34.7z"/>
			<path d="M559.3,32.3c-0.4,0.7-0.6,1.8-0.6,3.2c0,2.1,0.4,3.9,1.2,5.1c0.5,0.7,1,1.1,1.7,1.1s1.2-0.3,1.6-1c0.5-0.9,0.7-2,0.7-3.5
				c0-1.9-0.3-3.3-0.8-4.2c-0.2-0.4-0.4-0.7-0.4-0.9c0-0.2,0-0.3,0.1-0.4c0.1-0.1,0.4-0.1,0.7-0.1c0.9,0,1.5,0.9,1.8,2.8
				c0.1,0.5,0.1,1,0.1,1.5c0,1.3-0.3,2.7-0.8,4c-0.7,1.8-1.9,2.8-3.5,2.8c-0.9,0-1.6-0.3-2.2-0.9c-1.1-1.2-1.7-3-1.7-5.4
				c0-1.1,0.1-1.9,0.2-2.4s0.3-0.9,0.4-1.1c0.1-0.2,0.2-0.3,0.4-0.5s0.3-0.2,0.5-0.2C558.8,32.2,559.1,32.2,559.3,32.3z"/>
			<path d="M569.7,40.5l0.1,1.3c0,0.3-0.1,0.5-0.3,0.7c-0.2,0.1-0.4,0.2-0.5,0.2c-0.2,0-0.4,0-0.6-0.1c-0.3-1.7-0.6-3.8-0.7-6.4
				c-0.2-2.5-0.3-4-0.3-4.3c0.2-0.2,0.5-0.3,0.7-0.3s0.5,0,0.6,0.1c0.1,0.4,0.1,1.4,0.1,2.8s0.1,2.4,0.1,2.7
				c0.2-1.2,0.6-2.4,1.1-3.5c0.3-0.6,0.7-1.1,1.2-1.4c0.5-0.4,1-0.5,1.5-0.5c0.6,0,1.1,0.2,1.5,0.7c0.5,0.5,0.7,0.9,0.7,1.3
				c0,0.1-0.1,0.3-0.3,0.3s-0.4,0.1-0.6,0.1s-0.4-0.1-0.5-0.2c-0.1-0.2-0.2-0.3-0.2-0.5c0-0.2-0.1-0.4-0.3-0.5
				c-0.1-0.2-0.3-0.2-0.6-0.2c-0.7,0-1.2,0.6-1.7,1.8C570.1,36.3,569.7,38.3,569.7,40.5z"/>
			<path d="M583.5,34.4c-0.3,0.3-0.6,0.4-0.8,0.4c-0.3,0-0.5-0.1-0.7-0.4c-0.2-0.2-0.3-0.5-0.4-0.8c-0.1-0.3-0.3-0.6-0.6-0.8
				c-0.3-0.2-0.6-0.4-1-0.4c-0.6,0.1-1.1,0.5-1.6,1.2s-0.8,1.6-1,2.5c-0.2,0.9-0.3,1.8-0.3,2.6s0.2,1.5,0.7,2.1
				c0.4,0.6,1.1,0.9,1.8,0.9c0.9,0,1.6-0.3,2.1-0.9c0.2-0.3,0.4-0.5,0.6-0.8c0.5-0.6,0.9-0.9,1.3-0.9c0.1,0,0.3,0,0.6,0.1
				c0,0.5-0.5,1.3-1.5,2.1c-1,0.9-2.1,1.3-3.2,1.3c-1.2,0-2.1-0.4-2.7-1.1s-1-1.7-1-2.9c0-1.5,0.4-3,1.1-4.5
				c0.4-0.7,0.9-1.3,1.5-1.8c0.6-0.5,1.3-0.7,2.1-0.7s1.4,0.3,1.9,0.8C582.8,32.9,583.2,33.6,583.5,34.4z"/>
			<path d="M587.1,38.2c0,0.3,0,0.5,0,0.6c0,0.9,0.3,1.6,0.8,2c0.5,0.5,1.2,0.7,1.9,0.7s1.3-0.1,1.8-0.3c0.5-0.2,0.8-0.4,1-0.7
				c0.5-0.7,1-1,1.5-1c0.2,0,0.4,0,0.6,0.1c-0.1,0.7-0.7,1.4-1.7,2c-1,0.6-2.2,0.9-3.6,0.9c-1,0-1.9-0.3-2.7-1
				c-0.7-0.7-1.1-1.5-1.1-2.7s0.2-2.2,0.7-3.3c0.4-1.1,1.1-2,1.9-2.7s1.7-1.1,2.6-1.1c0.9,0,1.6,0.2,2.1,0.5
				c0.5,0.4,0.8,0.9,0.8,1.6c0,1.3-0.6,2.3-1.7,3.2c-1.1,0.8-2.3,1.2-3.6,1.2C587.9,38.3,587.5,38.3,587.1,38.2z M588.7,37.5
				c0.7,0,1.3-0.2,1.8-0.7c0.5-0.4,0.9-0.9,1.2-1.4c0.2-0.5,0.3-0.9,0.3-1.3s-0.2-0.7-0.5-1c-0.3-0.3-0.7-0.5-1.1-0.5
				c-0.7,0-1.4,0.5-2,1.5c-0.6,1-1.1,2.1-1.3,3.1C587.8,37.4,588.3,37.5,588.7,37.5z"/>
			<path d="M601.9,33.9c-0.1-0.3-0.4-0.6-0.7-0.8c-0.4-0.2-0.8-0.3-1.4-0.3c-0.5,0-1.1,0.2-1.5,0.5c-0.5,0.3-0.7,0.8-0.7,1.3
				c0,0.5,0.2,1,0.7,1.3c0.4,0.3,1,0.6,1.6,0.7c0.6,0.2,1.3,0.3,1.9,0.5c0.6,0.2,1.2,0.5,1.6,0.9s0.7,1,0.7,1.6c0,1-0.4,1.7-1.2,2.2
				c-0.8,0.5-1.8,0.8-2.9,0.8c-0.7,0-1.6-0.2-2.7-0.5c-1.1-0.4-1.6-0.8-1.6-1.3c0-0.4,0.3-0.6,1-0.6c0.2,0,0.4,0.1,0.7,0.4
				c0.9,0.7,1.9,1,2.9,1c0.5,0,1-0.1,1.4-0.3c0.7-0.3,1.1-0.9,1.1-1.6c0-0.5-0.2-0.8-0.7-1.1c-0.4-0.3-1-0.5-1.6-0.7
				c-0.6-0.2-1.3-0.3-1.9-0.5s-1.2-0.5-1.6-1s-0.7-1-0.7-1.7c0-0.9,0.4-1.6,1.2-2.2c0.8-0.6,1.8-0.8,3-0.8c0.8,0,1.5,0.2,2.2,0.6
				c0.7,0.4,1,1,1,1.8c0,0.5-0.3,0.8-0.9,0.8c-0.3,0-0.4,0-0.5-0.1s-0.1-0.2-0.1-0.5C601.9,34.1,601.9,34,601.9,33.9z"/>
			<path d="M17.5,59.8c-0.7,0-1.1-0.2-1.3-0.5c0-0.2,0.1-0.4,0.3-0.5c0.2-0.1,0.4-0.2,0.6-0.3c0.2,0,0.6-0.1,1.1-0.1
				c0-0.4,0.1-0.9,0.1-1.5c0-0.6,0-1.2,0-1.6c0-1.2,0.2-1.9,0.5-2.1c0.1-0.1,0.3-0.2,0.4-0.2c0.2,0,0.3,0,0.4,0
				c0,1.1,0.1,1.7,0.1,1.9l-0.1,3.3c0,0,0.1,0,0.2,0l1.6-0.1c1.1,0,1.7,0.2,1.7,0.5c0,0.5-0.2,0.8-0.6,0.9c-0.2,0-0.4,0.1-0.7,0.1
				c-0.3,0-0.6,0-1-0.1c-0.4-0.1-0.7-0.1-0.9-0.1s-0.3,0-0.4,0c0,0.4-0.1,0.8-0.1,1.3s0,0.9,0,1.6c0,0.6,0.1,1.4,0.2,2.2
				c0.1,0.9,0.3,1.6,0.6,2.2c0.3,0.6,0.7,0.9,1.2,0.9c0.2,0,0.5-0.1,0.9-0.3c0.3-0.2,0.6-0.3,0.8-0.3s0.3,0,0.5,0.1
				c0.1,0.1,0.2,0.2,0.2,0.3c0,0.3-0.3,0.6-0.9,0.9c-0.6,0.3-1.2,0.4-1.6,0.4c-1.6,0-2.6-1.5-3-4.6c-0.1-0.9-0.2-2.4-0.3-4.5
				C18,59.8,17.8,59.8,17.5,59.8z"/>
			<path d="M25.5,64.5l0.2-9.9c0-0.8,0-1.3-0.1-1.6c0.3-0.2,0.7-0.4,1.2-0.4c0.2,1.6,0.3,3.6,0.3,6.1c0,0.7-0.1,2.4-0.2,5.1
				c0.7-3.7,1.9-5.6,3.7-5.6c0.6,0,1.1,0.3,1.5,1c0.3,0.7,0.6,1.5,0.6,2.4c0.1,1,0.2,1.9,0.2,2.9c0.1,2.3,0.6,3.4,1.2,3.4
				c0,0,0.2,0,0.4-0.1c0.6-0.2,0.9-0.2,1-0.1c0,0.2-0.2,0.4-0.7,0.6c-0.5,0.2-0.9,0.4-1.3,0.4c-0.6,0-1.1-0.3-1.5-1
				s-0.6-1.5-0.6-2.4c-0.1-1-0.1-1.9-0.2-2.8c0-0.9-0.1-1.8-0.3-2.4c-0.2-0.7-0.4-1-0.8-1c-0.5,0-0.9,0.5-1.3,1.5S28.2,62.7,28,64
				c-0.2,1.2-0.5,2.4-0.8,3.4s-0.6,1.5-1,1.5C25.7,68.9,25.5,67.4,25.5,64.5z"/>
			<path d="M43,62.7l-0.1,2.5c0,1.3,0.1,2.1,0.4,2.6c0.2,0.3,0.4,0.4,0.7,0.4c0.1,0,0.2,0,0.4-0.1c0.3-0.1,0.6,0,0.8,0.1
				c-0.1,0.5-0.6,0.8-1.5,0.8c-0.6,0-1-0.3-1.3-0.8c-0.2-0.4-0.3-0.9-0.4-1.5c-0.1-0.6-0.1-1-0.2-1.2c-1,1.8-1.9,2.9-2.8,3.3
				c-0.5,0.2-1,0.3-1.6,0.3c-0.6,0-1.1-0.3-1.4-0.9c-0.3-0.6-0.5-1.4-0.5-2.5c0-1.1,0.2-2.3,0.5-3.5c0.4-1.2,0.9-2.3,1.6-3.1
				c0.7-0.8,1.5-1.3,2.3-1.3c1.2,0,2,0.5,2.4,1.5C42.9,60.3,43,61.4,43,62.7z M37.6,62c-0.2,0.8-0.4,1.6-0.5,2.3
				C37.1,65,37,65.6,37,66.2s0.1,1,0.3,1.4c0.2,0.4,0.5,0.6,0.9,0.6c0.8,0,1.6-0.7,2.3-2.2s1.1-2.9,1.1-4.2c0-0.8-0.2-1.5-0.7-2.1
				c-0.3-0.4-0.7-0.5-1.2-0.5s-0.9,0.3-1.3,0.8C38.1,60.5,37.8,61.2,37.6,62z"/>
			<path d="M46,59.8c-0.7,0-1.1-0.2-1.3-0.5c0-0.2,0.1-0.4,0.3-0.5c0.2-0.1,0.4-0.2,0.6-0.3c0.2,0,0.6-0.1,1.1-0.1
				c0-0.4,0.1-0.9,0.1-1.5c0-0.6,0-1.2,0-1.6c0-1.2,0.2-1.9,0.5-2.1c0.1-0.1,0.3-0.2,0.4-0.2c0.2,0,0.3,0,0.4,0
				c0,1.1,0.1,1.7,0.1,1.9l-0.1,3.3c0,0,0.1,0,0.2,0l1.6-0.1c1.1,0,1.7,0.2,1.7,0.5c0,0.5-0.2,0.8-0.6,0.9c-0.2,0-0.4,0.1-0.7,0.1
				c-0.3,0-0.6,0-1-0.1c-0.4-0.1-0.7-0.1-0.9-0.1s-0.3,0-0.4,0c0,0.4-0.1,0.8-0.1,1.3s0,0.9,0,1.6c0,0.6,0.1,1.4,0.2,2.2
				c0.1,0.9,0.3,1.6,0.6,2.2c0.3,0.6,0.7,0.9,1.2,0.9c0.2,0,0.5-0.1,0.9-0.3c0.3-0.2,0.6-0.3,0.8-0.3s0.3,0,0.5,0.1
				c0.1,0.1,0.2,0.2,0.2,0.3c0,0.3-0.3,0.6-0.9,0.9c-0.6,0.3-1.2,0.4-1.6,0.4c-1.6,0-2.6-1.5-3-4.6c-0.1-0.9-0.2-2.4-0.3-4.5
				C46.5,59.8,46.2,59.8,46,59.8z"/>
			<path d="M64.7,66.5c-0.2,0.7-0.7,1.2-1.4,1.7c-0.7,0.5-1.4,0.7-2.2,0.7c-0.8,0-1.4-0.4-1.8-1.2c-0.4-0.8-0.6-1.9-0.6-3.3
				c0-3.9,0.6-5.9,1.7-5.9c0.1,0,0.3,0,0.5,0.1c0,0.2-0.1,0.7-0.3,1.3c-0.3,1.3-0.5,2.4-0.5,3.4c0,1,0.1,2,0.4,3.1
				c0.3,1.1,0.7,1.6,1.2,1.6c0.3,0,0.5-0.2,0.8-0.5c0.2-0.3,0.4-0.7,0.6-1.1s0.3-0.8,0.5-1.3s0.3-0.8,0.3-0.9
				c-0.2-0.9-0.3-1.7-0.3-2.6c0,0,0-0.2,0-0.4s0-0.5,0-0.7c0-0.2,0.1-0.5,0.1-0.8c0.1-0.6,0.5-0.9,1.2-0.9c0.5,0,0.8,0.8,0.8,2.5
				c0,0.3,0,0.7-0.1,1.3c-0.1,0.6-0.1,0.9-0.1,1.2c0,0.7,0.3,1.5,1,2.6c0.6,1.1,1.3,1.6,1.8,1.6c0.6,0,1-0.3,1.2-1
				c0.3-0.6,0.4-1.4,0.4-2.2c0-0.9-0.1-1.6-0.2-2.1c-0.2-0.5-0.2-0.8-0.3-0.9c0-0.1-0.1-0.4-0.3-0.7c-0.2-0.3-0.3-0.5-0.3-0.6
				c0-0.1-0.2-0.3-0.3-0.6c-0.2-0.3-0.3-0.5-0.3-0.6c-0.4-0.7-0.7-1.2-0.7-1.2c0.4-0.3,0.7-0.5,1-0.5c0.9,0.6,1.6,1.7,2.1,3.2
				c0.5,1.5,0.8,2.8,0.8,4c0,1.2-0.3,2.1-0.8,2.8c-0.5,0.7-1.3,1-2.4,1c-0.7,0-1.5-0.2-2.1-0.6S65,67.2,64.7,66.5z"/>
			<path d="M74.7,64.6c0,0.3,0,0.5,0,0.6c0,0.9,0.3,1.6,0.8,2c0.5,0.5,1.2,0.7,1.9,0.7s1.3-0.1,1.8-0.3c0.5-0.2,0.8-0.4,1-0.7
				c0.5-0.7,1-1,1.5-1c0.2,0,0.4,0,0.6,0.1c-0.1,0.7-0.7,1.4-1.7,2c-1,0.6-2.2,0.9-3.6,0.9c-1,0-1.9-0.3-2.7-1
				c-0.7-0.7-1.1-1.5-1.1-2.7c0-1.1,0.2-2.2,0.7-3.3c0.4-1.1,1.1-2,1.9-2.7c0.8-0.8,1.7-1.1,2.6-1.1c0.9,0,1.6,0.2,2.1,0.5
				c0.5,0.4,0.8,0.9,0.8,1.6c0,1.3-0.6,2.3-1.7,3.2c-1.1,0.8-2.3,1.2-3.6,1.2C75.6,64.7,75.2,64.7,74.7,64.6z M76.4,63.9
				c0.7,0,1.3-0.2,1.8-0.7c0.5-0.4,0.9-0.9,1.2-1.4c0.2-0.5,0.3-0.9,0.3-1.3c0-0.4-0.2-0.7-0.5-1C79,59.2,78.6,59,78.2,59
				c-0.7,0-1.4,0.5-2,1.5c-0.6,1-1.1,2.1-1.3,3.1C75.5,63.8,76,63.9,76.4,63.9z"/>
			<path d="M94.5,60.3c-0.1-0.3-0.4-0.6-0.7-0.8c-0.4-0.2-0.8-0.3-1.4-0.3c-0.5,0-1.1,0.2-1.5,0.5s-0.7,0.8-0.7,1.3s0.2,1,0.7,1.3
				s1,0.6,1.6,0.7c0.6,0.2,1.3,0.3,1.9,0.5c0.6,0.2,1.2,0.5,1.6,0.9c0.4,0.4,0.7,1,0.7,1.6c0,1-0.4,1.7-1.2,2.2
				c-0.8,0.5-1.8,0.8-2.9,0.8c-0.7,0-1.6-0.2-2.7-0.5c-1.1-0.4-1.6-0.8-1.6-1.3c0-0.4,0.3-0.6,1-0.6c0.2,0,0.4,0.1,0.7,0.4
				c0.9,0.7,1.9,1,2.9,1c0.5,0,1-0.1,1.4-0.3c0.7-0.3,1.1-0.9,1.1-1.6c0-0.5-0.2-0.8-0.7-1.1c-0.4-0.3-1-0.5-1.6-0.7
				c-0.6-0.2-1.3-0.3-1.9-0.5s-1.2-0.5-1.6-1s-0.7-1-0.7-1.7c0-0.9,0.4-1.6,1.2-2.2s1.8-0.8,3-0.8c0.8,0,1.5,0.2,2.2,0.6s1,1,1,1.8
				c0,0.5-0.3,0.8-0.9,0.8c-0.3,0-0.4,0-0.5-0.1s-0.1-0.2-0.1-0.5C94.5,60.5,94.5,60.4,94.5,60.3z"/>
			<path d="M98.7,64.5l0.2-9.9c0-0.8,0-1.3-0.1-1.6c0.3-0.2,0.7-0.4,1.2-0.4c0.2,1.6,0.3,3.6,0.3,6.1c0,0.7-0.1,2.4-0.2,5.1
				c0.7-3.7,1.9-5.6,3.7-5.6c0.6,0,1.1,0.3,1.5,1c0.3,0.7,0.6,1.5,0.6,2.4c0.1,1,0.2,1.9,0.2,2.9c0.1,2.3,0.6,3.4,1.2,3.4
				c0,0,0.2,0,0.4-0.1c0.6-0.2,0.9-0.2,1-0.1c0,0.2-0.2,0.4-0.7,0.6c-0.5,0.2-0.9,0.4-1.3,0.4c-0.6,0-1.1-0.3-1.5-1
				s-0.6-1.5-0.6-2.4c-0.1-1-0.1-1.9-0.2-2.8c0-0.9-0.1-1.8-0.3-2.4c-0.2-0.7-0.4-1-0.8-1c-0.5,0-0.9,0.5-1.3,1.5s-0.7,2.1-0.9,3.4
				c-0.2,1.2-0.5,2.4-0.8,3.4s-0.6,1.5-1,1.5C98.9,68.9,98.7,67.4,98.7,64.5z"/>
			<path d="M110.1,59.9c0.7-1.1,1.8-1.7,3.2-1.7s2.5,0.6,3.4,1.7c0.8,1.1,1.3,2.4,1.3,3.9c0,1.5-0.5,2.7-1.4,3.7s-2.1,1.5-3.5,1.5
				s-2.5-0.4-3.1-1.2c-0.6-0.8-1-1.9-1-3.4C108.9,62.6,109.3,61.1,110.1,59.9z M111,61.1c-0.2,0.6-0.3,1.2-0.4,1.7
				c-0.1,0.6-0.1,1.1-0.1,1.6c0,0.5,0,0.9,0.1,1.3s0.2,0.8,0.4,1.2c0.2,0.4,0.4,0.7,0.8,0.9c0.4,0.2,0.8,0.3,1.3,0.3
				c1,0,1.8-0.4,2.5-1.2c0.7-0.8,1-1.8,1-2.9c0-1.1-0.3-2.3-0.9-3.3c-0.6-1.1-1.4-1.6-2.2-1.6c-0.5,0-1,0.2-1.4,0.5
				C111.5,60,111.2,60.5,111,61.1z"/>
			<path d="M121.9,58.7c-0.4,0.7-0.6,1.8-0.6,3.2c0,2.1,0.4,3.8,1.2,5.1c0.5,0.7,1,1.1,1.7,1.1s1.2-0.3,1.6-1c0.5-0.9,0.7-2,0.7-3.5
				c0-1.9-0.3-3.3-0.8-4.2c-0.2-0.4-0.4-0.7-0.4-0.9c0-0.2,0-0.3,0.1-0.4c0.1-0.1,0.4-0.1,0.7-0.1c0.9,0,1.5,0.9,1.8,2.8
				c0.1,0.5,0.1,1,0.1,1.5c0,1.3-0.3,2.7-0.8,4c-0.7,1.8-1.9,2.8-3.5,2.8c-0.9,0-1.6-0.3-2.2-0.9c-1.1-1.2-1.7-3-1.7-5.4
				c0-1.1,0.1-1.9,0.2-2.4s0.3-0.9,0.4-1.1c0.1-0.2,0.2-0.3,0.4-0.5s0.3-0.2,0.5-0.2C121.4,58.6,121.6,58.6,121.9,58.7z"/>
			<path d="M130.9,55.9c0-1.5-0.2-2.4-0.6-2.9c0.2-0.3,0.5-0.4,1-0.4c0.1,0,0.2,0,0.3,0c0.4,0.4,0.5,1.4,0.5,3.2c0,1,0,2.1-0.1,3.3
				c-0.2,2.2-0.3,3.8-0.3,4.8c0,2.8,0.5,4.2,1.6,4.2l0.8-0.2c0.1,0,0.2,0.1,0.3,0.2c0,0.5-0.5,0.8-1.3,0.8c-0.8,0-1.4-0.2-1.9-0.7
				c-0.4-0.5-0.7-1.1-0.8-1.8c-0.1-0.7-0.2-1.4-0.2-1.8c0-0.5,0-1,0-1.6c0-0.6,0.1-1.4,0.2-2.5C130.8,58.2,130.9,56.7,130.9,55.9z"
				/>
			<path d="M143.7,51.4c-0.6,5-0.8,8.6-0.8,10.8c0,2.1,0.2,4.3,0.6,6.4c-0.3,0.3-0.5,0.4-0.8,0.4c-0.2,0-0.4,0-0.5-0.1
				c-0.3-1.1-0.5-2.3-0.5-3.5c-0.4,0.6-0.6,1-0.8,1.2s-0.5,0.6-0.9,1c-0.7,0.9-1.6,1.3-2.7,1.3c-0.8,0-1.3-0.4-1.7-1.1
				s-0.5-1.7-0.5-2.8c0-1.1,0.1-2.2,0.4-3.3s0.7-1.9,1.3-2.7c0.6-0.8,1.4-1.1,2.3-1.1c0.6,0,1.1,0.1,1.5,0.4c0.5,0.2,0.8,0.5,1,0.9
				c0-0.4,0.1-1,0.1-1.8s0.1-1.6,0.1-2.2c0-0.6,0.1-1.3,0.2-1.9c0.2-1.4,0.5-2.1,1.1-2.1C143.2,51.3,143.4,51.3,143.7,51.4z
				 M141.1,60.1c-0.2-0.3-0.4-0.6-0.7-0.7c-0.3-0.2-0.7-0.2-1.2-0.2s-1,0.3-1.4,0.9c-0.9,1.1-1.3,2.8-1.3,4.9c0,0.7,0.1,1.4,0.3,2.1
				c0.2,0.7,0.5,1,1,1c0.6,0,1.2-0.4,1.8-1.2c0.6-0.8,1-1.7,1.4-2.8c0.3-1,0.5-2,0.5-2.8C141.4,60.8,141.3,60.5,141.1,60.1z"/>
			<path d="M151,53.2c0.2-0.3,0.5-0.5,1-0.5c0.1,0,0.2,0,0.3,0c0,0.8,0,2.9,0,6.5c0,0,0.1-0.1,0.2-0.2s0.2-0.2,0.2-0.2
				c0,0,0.1-0.1,0.2-0.2c0.1-0.1,0.2-0.2,0.3-0.2c0.1,0,0.2-0.1,0.3-0.2s0.2-0.1,0.3-0.2c0.1,0,0.2-0.1,0.3-0.1
				c0.2-0.1,0.5-0.1,0.8-0.1c1.1,0,2,0.5,2.6,1.4c0.7,0.9,1,1.9,1,3c0,1.1-0.2,2.2-0.5,3.2c-0.3,1-0.9,1.9-1.6,2.6
				c-0.7,0.7-1.5,1.1-2.5,1.1c-0.9,0-1.7-0.3-2.3-1c-0.6-0.7-0.9-1.5-0.9-2.4s0.1-2.5,0.2-4.9c0.1-2.4,0.2-4.1,0.2-5.2
				C151.1,54.6,151.1,53.8,151,53.2z M154.2,68.1c0.6,0,1.1-0.3,1.5-0.8c0.9-1.1,1.4-2.6,1.4-4.6c0-1.1-0.2-2-0.6-2.8
				c-0.4-0.8-1-1.2-1.7-1.2c-0.4,0-0.8,0.2-1.1,0.6c-0.3,0.4-0.6,1-0.7,1.7c-0.3,1.3-0.5,2.8-0.5,4.4c0,1.3,0.3,2.2,0.8,2.5
				C153.5,68,153.8,68.1,154.2,68.1z"/>
			<path d="M161.8,64.6c0,0.3,0,0.5,0,0.6c0,0.9,0.3,1.6,0.8,2c0.5,0.5,1.2,0.7,1.9,0.7s1.3-0.1,1.8-0.3c0.5-0.2,0.8-0.4,1-0.7
				c0.5-0.7,1-1,1.5-1c0.2,0,0.4,0,0.6,0.1c-0.1,0.7-0.7,1.4-1.7,2c-1,0.6-2.2,0.9-3.6,0.9c-1,0-1.9-0.3-2.7-1
				c-0.7-0.7-1.1-1.5-1.1-2.7c0-1.1,0.2-2.2,0.7-3.3c0.4-1.1,1.1-2,1.9-2.7c0.8-0.8,1.7-1.1,2.6-1.1c0.9,0,1.6,0.2,2.1,0.5
				c0.5,0.4,0.8,0.9,0.8,1.6c0,1.3-0.6,2.3-1.7,3.2c-1.1,0.8-2.3,1.2-3.6,1.2C162.7,64.7,162.3,64.7,161.8,64.6z M163.5,63.9
				c0.7,0,1.3-0.2,1.8-0.7c0.5-0.4,0.9-0.9,1.2-1.4c0.2-0.5,0.3-0.9,0.3-1.3c0-0.4-0.2-0.7-0.5-1c-0.3-0.3-0.7-0.5-1.1-0.5
				c-0.7,0-1.4,0.5-2,1.5c-0.6,1-1.1,2.1-1.3,3.1C162.6,63.8,163.1,63.9,163.5,63.9z"/>
			<path d="M176.8,55.9c0-1.5-0.2-2.4-0.6-2.9c0.2-0.3,0.5-0.4,1-0.4c0.1,0,0.2,0,0.3,0c0.4,0.4,0.5,1.4,0.5,3.2c0,1,0,2.1-0.1,3.3
				c-0.2,2.2-0.3,3.8-0.3,4.8c0,2.8,0.5,4.2,1.6,4.2l0.8-0.2c0.1,0,0.2,0.1,0.3,0.2c0,0.5-0.5,0.8-1.3,0.8c-0.8,0-1.4-0.2-1.9-0.7
				c-0.4-0.5-0.7-1.1-0.8-1.8c-0.1-0.7-0.2-1.4-0.2-1.8c0-0.5,0-1,0-1.6c0-0.6,0.1-1.4,0.2-2.5C176.7,58.2,176.8,56.7,176.8,55.9z"
				/>
			<path d="M182.9,52.9c0,0.3,0,0.7,0,1.1s0,0.8,0.1,1.3c-0.2,0.2-0.5,0.4-0.8,0.4c-0.4,0-0.7-0.4-0.7-1.1c0,0,0-0.1,0-0.3
				c0-0.2,0-0.4,0-0.5c0-0.2,0-0.3,0.1-0.5c0.1-0.4,0.3-0.5,0.7-0.5C182.6,52.6,182.8,52.7,182.9,52.9z M181.5,63.6
				c0-2.9,0.1-4.5,0.4-5c0.1-0.2,0.2-0.2,0.4-0.2s0.4,0.1,0.7,0.2c-0.1,1.2-0.1,2.6-0.1,4.1l0,4.9c0,0.5-0.1,0.8-0.3,1
				c-0.2,0.2-0.4,0.3-0.5,0.3c-0.2,0-0.3,0-0.5-0.1C181.5,66.8,181.5,65.1,181.5,63.6z"/>
			<path d="M194.8,68.4c-0.3,0.3-0.6,0.4-0.9,0.4c-0.6,0-1.1-0.3-1.4-1c-0.3-0.7-0.5-1.5-0.5-2.5c-0.1-1-0.1-1.9-0.1-2.9
				c0-1-0.1-1.8-0.2-2.5c-0.1-0.7-0.4-1-0.8-1c-0.5,0-0.9,0.5-1.3,1.4s-0.6,2-0.8,3.1c-0.4,3.2-0.8,4.9-1.2,5.3
				c-0.3,0.1-0.5,0.2-0.7,0.2c-0.2,0-0.4,0-0.5-0.1c-0.3-1.3-0.5-3.7-0.6-7c0-1.6-0.1-2.7-0.1-3.2c0.3-0.2,0.6-0.3,0.8-0.3
				c0.2,0,0.4,0,0.5,0.1c0.1,0.6,0.1,1.9,0.1,3.9c0,2,0,3.1,0,3.4c0.1-0.3,0.2-0.8,0.3-1.5c0.1-0.7,0.2-1.3,0.3-1.7s0.2-1,0.4-1.6
				c0.2-0.6,0.4-1.1,0.6-1.4c0.2-0.4,0.6-0.7,1-0.9c0.4-0.3,0.9-0.4,1.4-0.4c0.7,0,1.2,0.3,1.5,0.9c0.3,0.6,0.5,1.4,0.5,2.3
				s0,1.9,0.1,2.8c0,1,0.1,1.8,0.4,2.6C193.8,67.7,194.2,68.2,194.8,68.4z"/>
			<path d="M198,52.7c0,1,0,1.8,0,2.3s0,1,0,1.5s0,1.5-0.1,2.9c0,1.4-0.1,2.6-0.1,3.4c0.6-0.4,1.2-1,2-1.8c0.8-0.8,1.5-1.5,2.1-2.1
				c1-0.9,1.7-1.2,2.1-0.8c0.2,0.1,0.2,0.3,0.2,0.4c-0.1,0.3-0.5,0.7-1,1.1c-0.5,0.4-1.1,0.9-1.8,1.5c-0.7,0.6-1.3,1.1-1.7,1.5
				c1.1,0.1,1.9,0.7,2.6,1.8c0.3,0.5,0.6,1,0.8,1.5c0.7,1.3,1.4,2.1,2.2,2.6c-0.3,0.3-0.6,0.4-1,0.4c-0.4,0-0.8-0.2-1.1-0.5
				c-0.4-0.4-0.7-0.8-1-1.3c-0.3-0.5-0.5-1.1-0.8-1.6c-0.6-1.3-1.4-1.9-2.2-1.9c-0.4,0-0.7,0.1-1,0.4c-0.3,0.3-0.4,0.5-0.4,0.8
				c0,1.8,0,3.1-0.1,3.9c-0.2,0.3-0.4,0.4-0.7,0.4c-0.1,0-0.2,0-0.2,0c-0.3-0.1-0.5-0.4-0.5-0.8c0-0.4,0-1.7,0.1-3.7
				c0.2-5.3,0.2-8.7,0.2-10.2c0-0.7,0.1-1.2,0.2-1.4c0.1-0.2,0.3-0.4,0.5-0.4S197.8,52.6,198,52.7z"/>
			<path d="M208.1,52.9c0,0.3,0,0.7,0,1.1s0,0.8,0.1,1.3c-0.2,0.2-0.5,0.4-0.8,0.4c-0.4,0-0.7-0.4-0.7-1.1c0,0,0-0.1,0-0.3
				c0-0.2,0-0.4,0-0.5c0-0.2,0-0.3,0.1-0.5c0.1-0.4,0.3-0.5,0.7-0.5C207.8,52.6,208,52.7,208.1,52.9z M206.7,63.6
				c0-2.9,0.1-4.5,0.4-5c0.1-0.2,0.2-0.2,0.4-0.2s0.4,0.1,0.7,0.2c-0.1,1.2-0.1,2.6-0.1,4.1l0,4.9c0,0.5-0.1,0.8-0.3,1
				c-0.2,0.2-0.4,0.3-0.5,0.3c-0.2,0-0.3,0-0.5-0.1C206.8,66.8,206.7,65.1,206.7,63.6z"/>
			<path d="M220,68.4c-0.3,0.3-0.6,0.4-0.9,0.4c-0.6,0-1.1-0.3-1.4-1c-0.3-0.7-0.5-1.5-0.5-2.5c-0.1-1-0.1-1.9-0.1-2.9
				c0-1-0.1-1.8-0.2-2.5c-0.1-0.7-0.4-1-0.8-1c-0.5,0-0.9,0.5-1.3,1.4s-0.6,2-0.8,3.1c-0.4,3.2-0.8,4.9-1.2,5.3
				c-0.3,0.1-0.5,0.2-0.7,0.2c-0.2,0-0.4,0-0.5-0.1c-0.3-1.3-0.5-3.7-0.6-7c0-1.6-0.1-2.7-0.1-3.2c0.3-0.2,0.6-0.3,0.8-0.3
				c0.2,0,0.4,0,0.5,0.1c0.1,0.6,0.1,1.9,0.1,3.9c0,2,0,3.1,0,3.4c0.1-0.3,0.2-0.8,0.3-1.5c0.1-0.7,0.2-1.3,0.3-1.7s0.2-1,0.4-1.6
				c0.2-0.6,0.4-1.1,0.6-1.4c0.2-0.4,0.6-0.7,1-0.9c0.4-0.3,0.9-0.4,1.4-0.4c0.7,0,1.2,0.3,1.5,0.9c0.3,0.6,0.5,1.4,0.5,2.3
				s0,1.9,0.1,2.8c0,1,0.1,1.8,0.4,2.6C219.1,67.7,219.5,68.2,220,68.4z"/>
			<path d="M225.3,58.1c1.3,0,2.3,0.5,2.8,1.6c0.3,0.6,0.5,1.1,0.7,1.6c0.2,0.5,0.3,1.2,0.4,2.1c0.1,1.4,0.1,2.9,0.1,4.7
				c0,1.7-0.4,3.1-1.2,4.2c-0.8,1-2,1.6-3.6,1.6s-2.9-0.5-4-1.5c0.3-0.3,0.6-0.4,1-0.4c0.3,0,0.8,0.2,1.4,0.5s1.3,0.5,1.9,0.5
				s1.3-0.2,1.7-0.5c0.5-0.3,0.8-0.8,1-1.3c0.4-1,0.5-2.3,0.5-3.7c0-0.2,0-1-0.1-2.4c-0.4,1.2-1,2.2-1.7,3s-1.6,1.2-2.5,1.2
				c-0.9,0-1.6-0.4-2-1.2c-0.4-0.8-0.6-1.8-0.6-2.8c0-1.1,0.1-2.1,0.4-3.1c0.3-1,0.8-1.9,1.4-2.6S224.4,58.1,225.3,58.1z M223,61.4
				c-0.2,0.6-0.3,1.3-0.4,1.8c-0.1,0.6-0.1,1.1-0.1,1.7s0.1,1.2,0.4,1.9s0.6,1.1,1.1,1.1c0.9,0,1.7-0.7,2.5-2.1
				c0.7-1.4,1.1-2.8,1.1-4.2c0-0.5-0.2-1-0.7-1.6c-0.4-0.6-1-0.9-1.7-0.9c-0.5,0-0.9,0.2-1.2,0.7C223.4,60.2,223.2,60.8,223,61.4z"
				/>
			<path d="M232.8,69.7c-0.3,0-0.6-0.1-0.9-0.3c-0.3-0.2-0.5-0.4-0.5-0.7s0.2-0.5,0.5-0.8c0.3-0.3,0.7-0.4,1-0.4
				c0.3,0,0.6,0.1,0.9,0.3c0.2,0.2,0.4,0.4,0.4,0.7s-0.2,0.6-0.5,0.8C233.4,69.6,233.1,69.7,232.8,69.7z"/>
		</g>
	</g>
</g>
</svg>
