<?xml version="1.0" encoding="utf-8"?>
<!-- Generator: Adobe Illustrator 22.1.0, SVG Export Plug-In . SVG Version: 6.00 Build 0)  -->
<svg version="1.1" id="Layer_1" xmlns="http://www.w3.org/2000/svg" xmlns:xlink="http://www.w3.org/1999/xlink" x="0px" y="0px"
	 width="655px" height="224.7px" viewBox="0 0 655 224.7" style="enable-background:new 0 0 655 224.7;" xml:space="preserve">
<style type="text/css">
	.st0{opacity:0.1;fill:#FCEE21;}
	.st1{fill:#FF0000;}
	.st2{fill:#FFFFFF;}
	.st3{fill:#FFFFFF;stroke:#000000;stroke-miterlimit:10;}
</style>
<rect class="st0" width="655" height="224.7"/>
<g>
	<g>
		<g>
			<path d="M18.2,129.1c0-2.4-0.1-4.5-0.4-6.5c0-0.3,0.2-0.5,0.6-0.5c0.4,0,1,0.4,1.7,1.2c0.7,0.8,1.4,1.7,2,2.7
				c0.6,1,1.3,1.9,1.9,2.7c0.7,0.8,1.1,1.2,1.4,1.2c0.3,0,0.7-0.4,1.4-1.3c0.6-0.9,1.2-1.8,1.8-2.8c0.6-1,1.3-2,2-2.8
				c0.7-0.9,1.3-1.3,1.7-1.3s0.6,0.1,0.6,0.4c0.1,1.8,0.2,3.4,0.2,4.8c0,1.4,0,2.6,0,3.5s0,1.5,0,1.9c0,0.4,0,1.3-0.1,2.8
				c0,1.4-0.1,2.3-0.1,2.5c-0.2,0.3-0.5,0.5-0.9,0.5c-0.2,0-0.3,0-0.5-0.1c-0.1-1.8-0.1-3.9-0.1-6.4s0-5,0.1-7.6
				c-0.3,0.2-0.7,0.8-1.2,1.6c-0.5,0.9-1.1,1.7-1.6,2.6c-0.5,0.8-1.1,1.6-1.7,2.3c-0.6,0.7-1.2,1-1.8,1c-0.5,0-1.2-0.4-1.9-1.2
				s-1.5-1.9-2.3-3.2c-0.8-1.4-1.4-2.2-1.7-2.5c0.1,1.2,0.1,2.5,0.1,3.8c0,1.3,0,2.3,0,2.8c0,2.3-0.1,4.5-0.1,6.4
				c-0.2,0.3-0.6,0.5-1.1,0.5c-0.1,0-0.3,0-0.4-0.1L18.2,129.1z"/>
			<path d="M36.9,128.8c0.7-1.1,1.8-1.7,3.2-1.7s2.5,0.6,3.4,1.7c0.8,1.1,1.3,2.4,1.3,3.9c0,1.5-0.5,2.7-1.4,3.7
				c-0.9,1-2.1,1.5-3.5,1.5s-2.5-0.4-3.1-1.2c-0.6-0.8-1-1.9-1-3.4C35.8,131.4,36.2,129.9,36.9,128.8z M37.9,129.9
				c-0.2,0.6-0.3,1.2-0.4,1.7s-0.1,1.1-0.1,1.6s0,0.9,0.1,1.3c0.1,0.4,0.2,0.8,0.4,1.2s0.4,0.7,0.8,0.9c0.4,0.2,0.8,0.3,1.3,0.3
				c1,0,1.8-0.4,2.5-1.2c0.7-0.8,1-1.8,1-2.9c0-1.1-0.3-2.3-0.9-3.3c-0.6-1.1-1.4-1.6-2.2-1.6c-0.5,0-1,0.2-1.4,0.5
				C38.4,128.9,38.1,129.3,37.9,129.9z"/>
			<path d="M49.1,135.7l0.1,1.3c0,0.3-0.1,0.5-0.3,0.7c-0.2,0.1-0.4,0.2-0.5,0.2c-0.2,0-0.4,0-0.6-0.1c-0.3-1.7-0.6-3.8-0.7-6.4
				c-0.2-2.5-0.3-4-0.3-4.3c0.2-0.2,0.5-0.3,0.7-0.3s0.5,0,0.6,0.1c0.1,0.4,0.1,1.4,0.1,2.8s0.1,2.4,0.1,2.7
				c0.2-1.2,0.6-2.4,1.1-3.5c0.3-0.6,0.7-1.1,1.2-1.4c0.5-0.4,1-0.5,1.5-0.5c0.6,0,1.1,0.2,1.5,0.7c0.5,0.5,0.7,0.9,0.7,1.3
				c0,0.1-0.1,0.3-0.3,0.3c-0.2,0.1-0.4,0.1-0.6,0.1s-0.4-0.1-0.5-0.2s-0.2-0.3-0.2-0.5c0-0.2-0.1-0.4-0.3-0.5
				c-0.1-0.2-0.3-0.2-0.6-0.2c-0.7,0-1.2,0.6-1.7,1.8C49.5,131.5,49.1,133.5,49.1,135.7z"/>
			<path d="M56.5,133.4c0,0.3,0,0.5,0,0.6c0,0.9,0.3,1.6,0.8,2s1.2,0.7,1.9,0.7s1.3-0.1,1.8-0.3s0.8-0.4,1-0.7c0.5-0.7,1-1,1.5-1
				c0.2,0,0.4,0,0.6,0.1c-0.1,0.7-0.7,1.4-1.7,2c-1,0.6-2.2,0.9-3.6,0.9c-1,0-1.9-0.3-2.7-1s-1.1-1.5-1.1-2.7c0-1.1,0.2-2.2,0.7-3.3
				c0.4-1.1,1.1-2,1.9-2.7c0.8-0.8,1.7-1.1,2.6-1.1c0.9,0,1.6,0.2,2.1,0.5c0.5,0.4,0.8,0.9,0.8,1.6c0,1.3-0.6,2.3-1.7,3.2
				c-1.1,0.8-2.3,1.2-3.6,1.2C57.3,133.5,56.9,133.5,56.5,133.4z M58.1,132.7c0.7,0,1.3-0.2,1.8-0.7c0.5-0.4,0.9-0.9,1.2-1.4
				s0.3-0.9,0.3-1.3c0-0.4-0.2-0.7-0.5-1c-0.3-0.3-0.7-0.5-1.1-0.5c-0.7,0-1.4,0.5-2,1.5c-0.6,1-1.1,2.1-1.3,3.1
				C57.2,132.6,57.8,132.7,58.1,132.7z"/>
			<path d="M71.5,124.7c0-1.5-0.2-2.4-0.6-2.9c0.2-0.3,0.5-0.4,1-0.4c0.1,0,0.2,0,0.3,0c0.4,0.4,0.5,1.4,0.5,3.2c0,1,0,2.1-0.1,3.3
				c-0.2,2.2-0.3,3.8-0.3,4.8c0,2.8,0.5,4.2,1.6,4.2l0.8-0.2c0.1,0,0.2,0.1,0.3,0.2c0,0.5-0.5,0.8-1.3,0.8c-0.8,0-1.4-0.2-1.9-0.7
				c-0.4-0.5-0.7-1.1-0.8-1.8c-0.1-0.7-0.2-1.4-0.2-1.8s0-1,0-1.6s0.1-1.4,0.2-2.5C71.3,127,71.5,125.5,71.5,124.7z"/>
			<path d="M82.9,131.6l-0.1,2.5c0,1.3,0.1,2.1,0.4,2.6c0.2,0.3,0.4,0.4,0.7,0.4c0.1,0,0.2,0,0.4-0.1c0.3-0.1,0.6,0,0.8,0.1
				c-0.1,0.5-0.6,0.8-1.5,0.8c-0.6,0-1-0.3-1.3-0.8c-0.2-0.4-0.3-0.9-0.4-1.5s-0.1-1-0.2-1.2c-1,1.8-1.9,2.9-2.8,3.3
				c-0.5,0.2-1,0.3-1.6,0.3c-0.6,0-1.1-0.3-1.4-0.9c-0.3-0.6-0.5-1.4-0.5-2.5c0-1.1,0.2-2.3,0.5-3.5c0.4-1.2,0.9-2.3,1.6-3.1
				c0.7-0.8,1.5-1.3,2.3-1.3c1.2,0,2,0.5,2.4,1.5C82.7,129.1,82.9,130.2,82.9,131.6z M77.5,130.9c-0.2,0.8-0.4,1.6-0.5,2.3
				c-0.1,0.7-0.2,1.3-0.2,1.9c0,0.6,0.1,1,0.3,1.4c0.2,0.4,0.5,0.6,0.9,0.6c0.8,0,1.6-0.7,2.3-2.2s1.1-2.9,1.1-4.2
				c0-0.8-0.2-1.5-0.7-2.1c-0.3-0.4-0.7-0.5-1.2-0.5s-0.9,0.3-1.3,0.8S77.7,130.1,77.5,130.9z"/>
			<path d="M94.9,137.3c-0.3,0.3-0.6,0.4-0.9,0.4c-0.6,0-1.1-0.3-1.4-1c-0.3-0.7-0.5-1.5-0.5-2.5c-0.1-1-0.1-1.9-0.1-2.9
				s-0.1-1.8-0.2-2.5c-0.1-0.7-0.4-1-0.8-1c-0.5,0-0.9,0.5-1.3,1.4s-0.6,2-0.8,3.1c-0.4,3.2-0.8,4.9-1.2,5.3
				c-0.3,0.1-0.5,0.2-0.7,0.2c-0.2,0-0.4,0-0.5-0.1c-0.3-1.3-0.5-3.7-0.6-7c0-1.6-0.1-2.7-0.1-3.2c0.3-0.2,0.6-0.3,0.8-0.3
				c0.2,0,0.4,0,0.5,0.1c0.1,0.6,0.1,1.9,0.1,3.9c0,2,0,3.1,0,3.4c0.1-0.3,0.2-0.8,0.3-1.5c0.1-0.7,0.2-1.3,0.3-1.7
				c0.1-0.4,0.2-1,0.4-1.6c0.2-0.6,0.4-1.1,0.6-1.4s0.6-0.7,1-0.9c0.4-0.3,0.9-0.4,1.4-0.4c0.7,0,1.2,0.3,1.5,0.9
				c0.3,0.6,0.5,1.4,0.5,2.3c0,0.9,0,1.9,0.1,2.8c0,1,0.1,1.8,0.4,2.6S94.3,137.1,94.9,137.3z"/>
			<path d="M100.2,126.9c1.3,0,2.3,0.5,2.8,1.6c0.3,0.6,0.5,1.1,0.7,1.6c0.2,0.5,0.3,1.2,0.4,2.1c0.1,1.4,0.1,2.9,0.1,4.7
				c0,1.7-0.4,3.1-1.2,4.2c-0.8,1-2,1.6-3.6,1.6s-2.9-0.5-4-1.5c0.3-0.3,0.6-0.4,1-0.4c0.3,0,0.8,0.2,1.4,0.5
				c0.6,0.3,1.3,0.5,1.9,0.5s1.3-0.2,1.7-0.5c0.5-0.3,0.8-0.8,1-1.3c0.4-1,0.5-2.3,0.5-3.7c0-0.2,0-1-0.1-2.4c-0.4,1.2-1,2.2-1.7,3
				c-0.7,0.8-1.6,1.2-2.5,1.2c-0.9,0-1.6-0.4-2-1.2c-0.4-0.8-0.6-1.8-0.6-2.8s0.1-2.1,0.4-3.1c0.3-1,0.8-1.9,1.4-2.6
				C98.5,127.3,99.3,126.9,100.2,126.9z M97.8,130.2c-0.2,0.6-0.3,1.3-0.4,1.8c-0.1,0.6-0.1,1.1-0.1,1.7c0,0.6,0.1,1.2,0.4,1.9
				c0.2,0.7,0.6,1.1,1.1,1.1c0.9,0,1.7-0.7,2.5-2.1s1.1-2.8,1.1-4.2c0-0.5-0.2-1-0.7-1.6c-0.4-0.6-1-0.9-1.7-0.9
				c-0.5,0-0.9,0.2-1.2,0.7C98.3,129.1,98,129.6,97.8,130.2z"/>
			<path d="M108.4,127.6c-0.4,0.7-0.6,1.8-0.6,3.2c0,2.1,0.4,3.9,1.2,5.1c0.5,0.7,1,1.1,1.7,1.1s1.2-0.3,1.6-1
				c0.5-0.9,0.7-2,0.7-3.5c0-1.9-0.3-3.3-0.8-4.2c-0.2-0.4-0.4-0.7-0.4-0.9c0-0.2,0-0.3,0.1-0.4c0.1-0.1,0.4-0.1,0.7-0.1
				c0.9,0,1.5,0.9,1.8,2.8c0.1,0.5,0.1,1,0.1,1.5c0,1.3-0.3,2.7-0.8,4c-0.7,1.8-1.9,2.8-3.5,2.8c-0.9,0-1.6-0.3-2.2-0.9
				c-1.1-1.2-1.7-3-1.7-5.4c0-1.1,0.1-1.9,0.2-2.4s0.3-0.9,0.4-1.1c0.1-0.2,0.2-0.3,0.4-0.5s0.3-0.2,0.5-0.2
				C107.9,127.4,108.1,127.5,108.4,127.6z"/>
			<path d="M123.6,131.6l-0.1,2.5c0,1.3,0.1,2.1,0.4,2.6c0.2,0.3,0.4,0.4,0.7,0.4c0.1,0,0.2,0,0.4-0.1c0.3-0.1,0.6,0,0.8,0.1
				c-0.1,0.5-0.6,0.8-1.5,0.8c-0.6,0-1-0.3-1.3-0.8c-0.2-0.4-0.3-0.9-0.4-1.5s-0.1-1-0.2-1.2c-1,1.8-1.9,2.9-2.8,3.3
				c-0.5,0.2-1,0.3-1.6,0.3c-0.6,0-1.1-0.3-1.4-0.9c-0.3-0.6-0.5-1.4-0.5-2.5c0-1.1,0.2-2.3,0.5-3.5c0.4-1.2,0.9-2.3,1.6-3.1
				c0.7-0.8,1.5-1.3,2.3-1.3c1.2,0,2,0.5,2.4,1.5C123.4,129.1,123.6,130.2,123.6,131.6z M118.2,130.9c-0.2,0.8-0.4,1.6-0.5,2.3
				c-0.1,0.7-0.2,1.3-0.2,1.9c0,0.6,0.1,1,0.3,1.4c0.2,0.4,0.5,0.6,0.9,0.6c0.8,0,1.6-0.7,2.3-2.2s1.1-2.9,1.1-4.2
				c0-0.8-0.2-1.5-0.7-2.1c-0.3-0.4-0.7-0.5-1.2-0.5s-0.9,0.3-1.3,0.8S118.4,130.1,118.2,130.9z"/>
			<path d="M130.4,126.9c1.3,0,2.3,0.5,2.8,1.6c0.3,0.6,0.5,1.1,0.7,1.6c0.2,0.5,0.3,1.2,0.4,2.1c0.1,1.4,0.1,2.9,0.1,4.7
				c0,1.7-0.4,3.1-1.2,4.2c-0.8,1-2,1.6-3.6,1.6s-2.9-0.5-4-1.5c0.3-0.3,0.6-0.4,1-0.4c0.3,0,0.8,0.2,1.4,0.5
				c0.6,0.3,1.3,0.5,1.9,0.5s1.3-0.2,1.7-0.5c0.5-0.3,0.8-0.8,1-1.3c0.4-1,0.5-2.3,0.5-3.7c0-0.2,0-1-0.1-2.4c-0.4,1.2-1,2.2-1.7,3
				c-0.7,0.8-1.6,1.2-2.5,1.2c-0.9,0-1.6-0.4-2-1.2c-0.4-0.8-0.6-1.8-0.6-2.8s0.1-2.1,0.4-3.1c0.3-1,0.8-1.9,1.4-2.6
				C128.7,127.3,129.5,126.9,130.4,126.9z M128,130.2c-0.2,0.6-0.3,1.3-0.4,1.8c-0.1,0.6-0.1,1.1-0.1,1.7c0,0.6,0.1,1.2,0.4,1.9
				c0.2,0.7,0.6,1.1,1.1,1.1c0.9,0,1.7-0.7,2.5-2.1s1.1-2.8,1.1-4.2c0-0.5-0.2-1-0.7-1.6c-0.4-0.6-1-0.9-1.7-0.9
				c-0.5,0-0.9,0.2-1.2,0.7C128.5,129.1,128.2,129.6,128,130.2z"/>
			<path d="M137.9,133.4c0,0.3,0,0.5,0,0.6c0,0.9,0.3,1.6,0.8,2s1.2,0.7,1.9,0.7s1.3-0.1,1.8-0.3s0.8-0.4,1-0.7c0.5-0.7,1-1,1.5-1
				c0.2,0,0.4,0,0.6,0.1c-0.1,0.7-0.7,1.4-1.7,2c-1,0.6-2.2,0.9-3.6,0.9c-1,0-1.9-0.3-2.7-1s-1.1-1.5-1.1-2.7c0-1.1,0.2-2.2,0.7-3.3
				c0.4-1.1,1.1-2,1.9-2.7c0.8-0.8,1.7-1.1,2.6-1.1c0.9,0,1.6,0.2,2.1,0.5c0.5,0.4,0.8,0.9,0.8,1.6c0,1.3-0.6,2.3-1.7,3.2
				c-1.1,0.8-2.3,1.2-3.6,1.2C138.8,133.5,138.4,133.5,137.9,133.4z M139.6,132.7c0.7,0,1.3-0.2,1.8-0.7c0.5-0.4,0.9-0.9,1.2-1.4
				s0.3-0.9,0.3-1.3c0-0.4-0.2-0.7-0.5-1c-0.3-0.3-0.7-0.5-1.1-0.5c-0.7,0-1.4,0.5-2,1.5c-0.6,1-1.1,2.1-1.3,3.1
				C138.6,132.6,139.2,132.7,139.6,132.7z"/>
			<path d="M151.1,127.3c0.1-0.3,0.4-0.4,0.9-0.4c0.2,0,0.4,0,0.5,0.1c0.4,1.1,0.8,2.3,1.2,3.4c0.7,2.1,1.4,3.8,2.1,5
				c0.3-1.8,0.9-3.6,1.8-5.4c0.9-1.8,1.7-2.7,2.4-2.7c0.2,0,0.4,0.1,0.7,0.2c-1.7,2.2-2.9,5.1-3.6,8.8c-0.1,0.9-0.3,1.3-0.5,1.5
				c-0.2,0.1-0.4,0.2-0.6,0.2c-0.2,0-0.4,0-0.5-0.1c-0.1-0.1-0.2-0.2-0.2-0.3c-0.1-0.1-0.1-0.2-0.2-0.4c-0.1-0.2-0.1-0.3-0.2-0.4
				C153.3,133.8,152.1,130.7,151.1,127.3z"/>
			<path d="M162.7,133.4c0,0.3,0,0.5,0,0.6c0,0.9,0.3,1.6,0.8,2s1.2,0.7,1.9,0.7s1.3-0.1,1.8-0.3s0.8-0.4,1-0.7c0.5-0.7,1-1,1.5-1
				c0.2,0,0.4,0,0.6,0.1c-0.1,0.7-0.7,1.4-1.7,2c-1,0.6-2.2,0.9-3.6,0.9c-1,0-1.9-0.3-2.7-1s-1.1-1.5-1.1-2.7c0-1.1,0.2-2.2,0.7-3.3
				c0.4-1.1,1.1-2,1.9-2.7c0.8-0.8,1.7-1.1,2.6-1.1c0.9,0,1.6,0.2,2.1,0.5c0.5,0.4,0.8,0.9,0.8,1.6c0,1.3-0.6,2.3-1.7,3.2
				c-1.1,0.8-2.3,1.2-3.6,1.2C163.6,133.5,163.2,133.5,162.7,133.4z M164.4,132.7c0.7,0,1.3-0.2,1.8-0.7c0.5-0.4,0.9-0.9,1.2-1.4
				s0.3-0.9,0.3-1.3c0-0.4-0.2-0.7-0.5-1c-0.3-0.3-0.7-0.5-1.1-0.5c-0.7,0-1.4,0.5-2,1.5c-0.6,1-1.1,2.1-1.3,3.1
				C163.5,132.6,164,132.7,164.4,132.7z"/>
			<path d="M174.2,135.7l0.1,1.3c0,0.3-0.1,0.5-0.3,0.7c-0.2,0.1-0.4,0.2-0.5,0.2c-0.2,0-0.4,0-0.6-0.1c-0.3-1.7-0.6-3.8-0.7-6.4
				c-0.2-2.5-0.3-4-0.3-4.3c0.2-0.2,0.5-0.3,0.7-0.3s0.5,0,0.6,0.1c0.1,0.4,0.1,1.4,0.1,2.8s0.1,2.4,0.1,2.7
				c0.2-1.2,0.6-2.4,1.1-3.5c0.3-0.6,0.7-1.1,1.2-1.4c0.5-0.4,1-0.5,1.5-0.5c0.6,0,1.1,0.2,1.5,0.7c0.5,0.5,0.7,0.9,0.7,1.3
				c0,0.1-0.1,0.3-0.3,0.3c-0.2,0.1-0.4,0.1-0.6,0.1s-0.4-0.1-0.5-0.2s-0.2-0.3-0.2-0.5c0-0.2-0.1-0.4-0.3-0.5
				c-0.1-0.2-0.3-0.2-0.6-0.2c-0.7,0-1.2,0.6-1.7,1.8C174.5,131.5,174.2,133.5,174.2,135.7z"/>
			<path d="M186.3,129.1c-0.1-0.3-0.4-0.6-0.7-0.8c-0.4-0.2-0.8-0.3-1.4-0.3c-0.5,0-1.1,0.2-1.5,0.5c-0.5,0.3-0.7,0.8-0.7,1.3
				c0,0.5,0.2,1,0.7,1.3c0.4,0.3,1,0.6,1.6,0.7c0.6,0.2,1.3,0.3,1.9,0.5c0.6,0.2,1.2,0.5,1.6,0.9s0.7,1,0.7,1.6c0,1-0.4,1.7-1.2,2.2
				c-0.8,0.5-1.8,0.8-2.9,0.8c-0.7,0-1.6-0.2-2.7-0.5c-1.1-0.4-1.6-0.8-1.6-1.3c0-0.4,0.3-0.6,1-0.6c0.2,0,0.4,0.1,0.7,0.4
				c0.9,0.7,1.9,1,2.9,1c0.5,0,1-0.1,1.4-0.3c0.7-0.3,1.1-0.9,1.1-1.6c0-0.5-0.2-0.8-0.7-1.1c-0.4-0.3-1-0.5-1.6-0.7
				c-0.6-0.2-1.3-0.3-1.9-0.5s-1.2-0.5-1.6-1s-0.7-1-0.7-1.7c0-0.9,0.4-1.6,1.2-2.2c0.8-0.6,1.8-0.8,3-0.8c0.8,0,1.5,0.2,2.2,0.6
				c0.7,0.4,1,1,1,1.8c0,0.5-0.3,0.8-0.9,0.8c-0.3,0-0.4,0-0.5-0.1s-0.1-0.2-0.1-0.5C186.3,129.4,186.3,129.2,186.3,129.1z"/>
			<path d="M191.9,121.7c0,0.3,0,0.7,0,1.1c0,0.4,0,0.8,0.1,1.3c-0.2,0.2-0.5,0.4-0.8,0.4c-0.4,0-0.7-0.4-0.7-1.1c0,0,0-0.1,0-0.3
				s0-0.4,0-0.5c0-0.2,0-0.3,0.1-0.5c0.1-0.4,0.3-0.5,0.7-0.5C191.6,121.5,191.8,121.6,191.9,121.7z M190.5,132.5
				c0-2.9,0.1-4.5,0.4-5c0.1-0.2,0.2-0.2,0.4-0.2s0.4,0.1,0.7,0.2c-0.1,1.2-0.1,2.6-0.1,4.1l0,4.9c0,0.5-0.1,0.8-0.3,1
				s-0.4,0.3-0.5,0.3c-0.2,0-0.3,0-0.5-0.1C190.5,135.6,190.5,134,190.5,132.5z"/>
			<path d="M195.5,128.8c0.7-1.1,1.8-1.7,3.2-1.7s2.5,0.6,3.4,1.7c0.8,1.1,1.3,2.4,1.3,3.9c0,1.5-0.5,2.7-1.4,3.7
				c-0.9,1-2.1,1.5-3.5,1.5s-2.5-0.4-3.1-1.2c-0.6-0.8-1-1.9-1-3.4C194.4,131.4,194.8,129.9,195.5,128.8z M196.5,129.9
				c-0.2,0.6-0.3,1.2-0.4,1.7s-0.1,1.1-0.1,1.6s0,0.9,0.1,1.3c0.1,0.4,0.2,0.8,0.4,1.2s0.4,0.7,0.8,0.9c0.4,0.2,0.8,0.3,1.3,0.3
				c1,0,1.8-0.4,2.5-1.2c0.7-0.8,1-1.8,1-2.9c0-1.1-0.3-2.3-0.9-3.3c-0.6-1.1-1.4-1.6-2.2-1.6c-0.5,0-1,0.2-1.4,0.5
				C197,128.9,196.7,129.3,196.5,129.9z"/>
			<path d="M214.6,137.3c-0.3,0.3-0.6,0.4-0.9,0.4c-0.6,0-1.1-0.3-1.4-1c-0.3-0.7-0.5-1.5-0.5-2.5c-0.1-1-0.1-1.9-0.1-2.9
				s-0.1-1.8-0.2-2.5c-0.1-0.7-0.4-1-0.8-1c-0.5,0-0.9,0.5-1.3,1.4s-0.6,2-0.8,3.1c-0.4,3.2-0.8,4.9-1.2,5.3
				c-0.3,0.1-0.5,0.2-0.7,0.2c-0.2,0-0.4,0-0.5-0.1c-0.3-1.3-0.5-3.7-0.6-7c0-1.6-0.1-2.7-0.1-3.2c0.3-0.2,0.6-0.3,0.8-0.3
				c0.2,0,0.4,0,0.5,0.1c0.1,0.6,0.1,1.9,0.1,3.9c0,2,0,3.1,0,3.4c0.1-0.3,0.2-0.8,0.3-1.5c0.1-0.7,0.2-1.3,0.3-1.7
				c0.1-0.4,0.2-1,0.4-1.6c0.2-0.6,0.4-1.1,0.6-1.4s0.6-0.7,1-0.9c0.4-0.3,0.9-0.4,1.4-0.4c0.7,0,1.2,0.3,1.5,0.9
				c0.3,0.6,0.5,1.4,0.5,2.3c0,0.9,0,1.9,0.1,2.8c0,1,0.1,1.8,0.4,2.6S214,137.1,214.6,137.3z"/>
			<path d="M221.5,129.1c-0.1-0.3-0.4-0.6-0.7-0.8c-0.4-0.2-0.8-0.3-1.4-0.3c-0.5,0-1.1,0.2-1.5,0.5c-0.5,0.3-0.7,0.8-0.7,1.3
				c0,0.5,0.2,1,0.7,1.3c0.4,0.3,1,0.6,1.6,0.7c0.6,0.2,1.3,0.3,1.9,0.5c0.6,0.2,1.2,0.5,1.6,0.9s0.7,1,0.7,1.6c0,1-0.4,1.7-1.2,2.2
				c-0.8,0.5-1.8,0.8-2.9,0.8c-0.7,0-1.6-0.2-2.7-0.5c-1.1-0.4-1.6-0.8-1.6-1.3c0-0.4,0.3-0.6,1-0.6c0.2,0,0.4,0.1,0.7,0.4
				c0.9,0.7,1.9,1,2.9,1c0.5,0,1-0.1,1.4-0.3c0.7-0.3,1.1-0.9,1.1-1.6c0-0.5-0.2-0.8-0.7-1.1c-0.4-0.3-1-0.5-1.6-0.7
				c-0.6-0.2-1.3-0.3-1.9-0.5s-1.2-0.5-1.6-1s-0.7-1-0.7-1.7c0-0.9,0.4-1.6,1.2-2.2c0.8-0.6,1.8-0.8,3-0.8c0.8,0,1.5,0.2,2.2,0.6
				c0.7,0.4,1,1,1,1.8c0,0.5-0.3,0.8-0.9,0.8c-0.3,0-0.4,0-0.5-0.1s-0.1-0.2-0.1-0.5C221.6,129.4,221.5,129.2,221.5,129.1z"/>
			<path d="M236.5,135.4c-0.2,0.7-0.7,1.2-1.4,1.7c-0.7,0.5-1.4,0.7-2.2,0.7c-0.8,0-1.4-0.4-1.8-1.2c-0.4-0.8-0.6-1.9-0.6-3.3
				c0-3.9,0.6-5.9,1.7-5.9c0.1,0,0.3,0,0.5,0.1c0,0.2-0.1,0.7-0.3,1.3c-0.3,1.3-0.5,2.4-0.5,3.4s0.1,2,0.4,3.1s0.7,1.6,1.2,1.6
				c0.3,0,0.5-0.2,0.8-0.5c0.2-0.3,0.4-0.7,0.6-1.1s0.3-0.8,0.5-1.3c0.2-0.5,0.3-0.8,0.3-0.9c-0.2-0.9-0.3-1.7-0.3-2.6
				c0,0,0-0.2,0-0.4c0-0.2,0-0.5,0-0.7s0.1-0.5,0.1-0.8c0.1-0.6,0.5-0.9,1.2-0.9c0.5,0,0.8,0.8,0.8,2.5c0,0.3,0,0.7-0.1,1.3
				c-0.1,0.6-0.1,0.9-0.1,1.2c0,0.7,0.3,1.5,1,2.6c0.6,1.1,1.3,1.6,1.8,1.6c0.6,0,1-0.3,1.2-1c0.3-0.6,0.4-1.4,0.4-2.2
				c0-0.9-0.1-1.6-0.2-2.1c-0.2-0.5-0.2-0.8-0.3-0.9c0-0.1-0.1-0.4-0.3-0.7c-0.2-0.3-0.3-0.5-0.3-0.6c0-0.1-0.2-0.3-0.3-0.6
				c-0.2-0.3-0.3-0.5-0.3-0.6c-0.4-0.7-0.7-1.2-0.7-1.2c0.4-0.3,0.7-0.5,1-0.5c0.9,0.6,1.6,1.7,2.1,3.2c0.5,1.5,0.8,2.8,0.8,4
				c0,1.2-0.3,2.1-0.8,2.8c-0.5,0.7-1.3,1-2.4,1c-0.7,0-1.5-0.2-2.1-0.6S236.8,136,236.5,135.4z"/>
			<path d="M246.9,121.7c0,0.3,0,0.7,0,1.1c0,0.4,0,0.8,0.1,1.3c-0.2,0.2-0.5,0.4-0.8,0.4c-0.4,0-0.7-0.4-0.7-1.1c0,0,0-0.1,0-0.3
				s0-0.4,0-0.5c0-0.2,0-0.3,0.1-0.5c0.1-0.4,0.3-0.5,0.7-0.5C246.6,121.5,246.8,121.6,246.9,121.7z M245.5,132.5
				c0-2.9,0.1-4.5,0.4-5c0.1-0.2,0.2-0.2,0.4-0.2s0.4,0.1,0.7,0.2c-0.1,1.2-0.1,2.6-0.1,4.1l0,4.9c0,0.5-0.1,0.8-0.3,1
				s-0.4,0.3-0.5,0.3c-0.2,0-0.3,0-0.5-0.1C245.5,135.6,245.5,134,245.5,132.5z"/>
			<path d="M250.5,124.7c0-1.5-0.2-2.4-0.6-2.9c0.2-0.3,0.5-0.4,1-0.4c0.1,0,0.2,0,0.3,0c0.4,0.4,0.5,1.4,0.5,3.2c0,1,0,2.1-0.1,3.3
				c-0.2,2.2-0.3,3.8-0.3,4.8c0,2.8,0.5,4.2,1.6,4.2l0.8-0.2c0.1,0,0.2,0.1,0.3,0.2c0,0.5-0.5,0.8-1.3,0.8c-0.8,0-1.4-0.2-1.9-0.7
				c-0.4-0.5-0.7-1.1-0.8-1.8c-0.1-0.7-0.2-1.4-0.2-1.8s0-1,0-1.6s0.1-1.4,0.2-2.5C250.4,127,250.5,125.5,250.5,124.7z"/>
			<path d="M255.7,124.7c0-1.5-0.2-2.4-0.6-2.9c0.2-0.3,0.5-0.4,1-0.4c0.1,0,0.2,0,0.3,0c0.4,0.4,0.5,1.4,0.5,3.2c0,1,0,2.1-0.1,3.3
				c-0.2,2.2-0.3,3.8-0.3,4.8c0,2.8,0.5,4.2,1.6,4.2l0.8-0.2c0.1,0,0.2,0.1,0.3,0.2c0,0.5-0.5,0.8-1.3,0.8c-0.8,0-1.4-0.2-1.9-0.7
				c-0.4-0.5-0.7-1.1-0.8-1.8c-0.1-0.7-0.2-1.4-0.2-1.8s0-1,0-1.6s0.1-1.4,0.2-2.5C255.6,127,255.7,125.5,255.7,124.7z"/>
			<path d="M265.4,122.1c0.2-0.3,0.5-0.5,1-0.5c0.1,0,0.2,0,0.3,0c0,0.8,0,2.9,0,6.5c0,0,0.1-0.1,0.2-0.2c0.1-0.1,0.2-0.2,0.2-0.2
				c0,0,0.1-0.1,0.2-0.2c0.1-0.1,0.2-0.2,0.3-0.2c0.1,0,0.2-0.1,0.3-0.2c0.1-0.1,0.2-0.1,0.3-0.2c0.1,0,0.2-0.1,0.3-0.1
				c0.2-0.1,0.5-0.1,0.8-0.1c1.1,0,2,0.5,2.6,1.4c0.7,0.9,1,1.9,1,3c0,1.1-0.2,2.2-0.5,3.2c-0.3,1-0.9,1.9-1.6,2.6
				c-0.7,0.7-1.5,1.1-2.5,1.1c-0.9,0-1.7-0.3-2.3-1c-0.6-0.7-0.9-1.5-0.9-2.4c0-0.9,0.1-2.5,0.2-4.9c0.1-2.4,0.2-4.1,0.2-5.2
				S265.5,122.7,265.4,122.1z M268.6,137c0.6,0,1.1-0.3,1.5-0.8c0.9-1.1,1.4-2.6,1.4-4.6c0-1.1-0.2-2-0.6-2.8
				c-0.4-0.8-1-1.2-1.7-1.2c-0.4,0-0.8,0.2-1.1,0.6c-0.3,0.4-0.6,1-0.7,1.7c-0.3,1.3-0.5,2.8-0.5,4.4c0,1.3,0.3,2.2,0.8,2.5
				C267.9,136.8,268.2,136.9,268.6,137z"/>
			<path d="M276.3,133.4c0,0.3,0,0.5,0,0.6c0,0.9,0.3,1.6,0.8,2s1.2,0.7,1.9,0.7s1.3-0.1,1.8-0.3s0.8-0.4,1-0.7c0.5-0.7,1-1,1.5-1
				c0.2,0,0.4,0,0.6,0.1c-0.1,0.7-0.7,1.4-1.7,2c-1,0.6-2.2,0.9-3.6,0.9c-1,0-1.9-0.3-2.7-1s-1.1-1.5-1.1-2.7c0-1.1,0.2-2.2,0.7-3.3
				c0.4-1.1,1.1-2,1.9-2.7c0.8-0.8,1.7-1.1,2.6-1.1c0.9,0,1.6,0.2,2.1,0.5c0.5,0.4,0.8,0.9,0.8,1.6c0,1.3-0.6,2.3-1.7,3.2
				c-1.1,0.8-2.3,1.2-3.6,1.2C277.1,133.5,276.7,133.5,276.3,133.4z M277.9,132.7c0.7,0,1.3-0.2,1.8-0.7c0.5-0.4,0.9-0.9,1.2-1.4
				s0.3-0.9,0.3-1.3c0-0.4-0.2-0.7-0.5-1c-0.3-0.3-0.7-0.5-1.1-0.5c-0.7,0-1.4,0.5-2,1.5c-0.6,1-1.1,2.1-1.3,3.1
				C277,132.6,277.5,132.7,277.9,132.7z"/>
			<path d="M297.5,131.6l-0.1,2.5c0,1.3,0.1,2.1,0.4,2.6c0.2,0.3,0.4,0.4,0.7,0.4c0.1,0,0.2,0,0.4-0.1c0.3-0.1,0.6,0,0.8,0.1
				c-0.1,0.5-0.6,0.8-1.5,0.8c-0.6,0-1-0.3-1.3-0.8c-0.2-0.4-0.3-0.9-0.4-1.5s-0.1-1-0.2-1.2c-1,1.8-1.9,2.9-2.8,3.3
				c-0.5,0.2-1,0.3-1.6,0.3c-0.6,0-1.1-0.3-1.4-0.9c-0.3-0.6-0.5-1.4-0.5-2.5c0-1.1,0.2-2.3,0.5-3.5c0.4-1.2,0.9-2.3,1.6-3.1
				c0.7-0.8,1.5-1.3,2.3-1.3c1.2,0,2,0.5,2.4,1.5C297.3,129.1,297.5,130.2,297.5,131.6z M292.1,130.9c-0.2,0.8-0.4,1.6-0.5,2.3
				c-0.1,0.7-0.2,1.3-0.2,1.9c0,0.6,0.1,1,0.3,1.4c0.2,0.4,0.5,0.6,0.9,0.6c0.8,0,1.6-0.7,2.3-2.2s1.1-2.9,1.1-4.2
				c0-0.8-0.2-1.5-0.7-2.1c-0.3-0.4-0.7-0.5-1.2-0.5s-0.9,0.3-1.3,0.8S292.3,130.1,292.1,130.9z"/>
			<path d="M308.7,120.3c-0.6,5-0.8,8.6-0.8,10.8s0.2,4.3,0.6,6.4c-0.3,0.3-0.5,0.4-0.8,0.4c-0.2,0-0.4,0-0.5-0.1
				c-0.3-1.1-0.5-2.3-0.5-3.5c-0.4,0.6-0.6,1-0.8,1.2c-0.2,0.2-0.5,0.6-0.9,1c-0.7,0.9-1.6,1.3-2.7,1.3c-0.8,0-1.3-0.4-1.7-1.1
				c-0.3-0.7-0.5-1.7-0.5-2.8s0.1-2.2,0.4-3.3c0.3-1,0.7-1.9,1.3-2.7c0.6-0.8,1.4-1.1,2.3-1.1c0.6,0,1.1,0.1,1.5,0.4
				c0.5,0.2,0.8,0.5,1,0.9c0-0.4,0.1-1,0.1-1.8s0.1-1.6,0.1-2.2c0-0.6,0.1-1.3,0.2-1.9c0.2-1.4,0.5-2.1,1.1-2.1
				C308.2,120.1,308.4,120.2,308.7,120.3z M306.1,129c-0.2-0.3-0.4-0.6-0.7-0.7c-0.3-0.2-0.7-0.2-1.2-0.2s-1,0.3-1.4,0.9
				c-0.9,1.1-1.3,2.8-1.3,4.9c0,0.7,0.1,1.4,0.3,2.1s0.5,1,1,1c0.6,0,1.2-0.4,1.8-1.2c0.6-0.8,1-1.7,1.4-2.8s0.5-2,0.5-2.8
				C306.4,129.7,306.3,129.3,306.1,129z"/>
			<path d="M319.1,120.3c-0.6,5-0.8,8.6-0.8,10.8s0.2,4.3,0.6,6.4c-0.3,0.3-0.5,0.4-0.8,0.4c-0.2,0-0.4,0-0.5-0.1
				c-0.3-1.1-0.5-2.3-0.5-3.5c-0.4,0.6-0.6,1-0.8,1.2c-0.2,0.2-0.5,0.6-0.9,1c-0.7,0.9-1.6,1.3-2.7,1.3c-0.8,0-1.3-0.4-1.7-1.1
				c-0.3-0.7-0.5-1.7-0.5-2.8s0.1-2.2,0.4-3.3c0.3-1,0.7-1.9,1.3-2.7c0.6-0.8,1.4-1.1,2.3-1.1c0.6,0,1.1,0.1,1.5,0.4
				c0.5,0.2,0.8,0.5,1,0.9c0-0.4,0.1-1,0.1-1.8s0.1-1.6,0.1-2.2c0-0.6,0.1-1.3,0.2-1.9c0.2-1.4,0.5-2.1,1.1-2.1
				C318.6,120.1,318.8,120.2,319.1,120.3z M316.5,129c-0.2-0.3-0.4-0.6-0.7-0.7c-0.3-0.2-0.7-0.2-1.2-0.2s-1,0.3-1.4,0.9
				c-0.9,1.1-1.3,2.8-1.3,4.9c0,0.7,0.1,1.4,0.3,2.1s0.5,1,1,1c0.6,0,1.2-0.4,1.8-1.2c0.6-0.8,1-1.7,1.4-2.8s0.5-2,0.5-2.8
				C316.8,129.7,316.7,129.3,316.5,129z"/>
			<path d="M322.3,133.4c0,0.3,0,0.5,0,0.6c0,0.9,0.3,1.6,0.8,2s1.2,0.7,1.9,0.7s1.3-0.1,1.8-0.3s0.8-0.4,1-0.7c0.5-0.7,1-1,1.5-1
				c0.2,0,0.4,0,0.6,0.1c-0.1,0.7-0.7,1.4-1.7,2c-1,0.6-2.2,0.9-3.6,0.9c-1,0-1.9-0.3-2.7-1s-1.1-1.5-1.1-2.7c0-1.1,0.2-2.2,0.7-3.3
				c0.4-1.1,1.1-2,1.9-2.7c0.8-0.8,1.7-1.1,2.6-1.1c0.9,0,1.6,0.2,2.1,0.5c0.5,0.4,0.8,0.9,0.8,1.6c0,1.3-0.6,2.3-1.7,3.2
				c-1.1,0.8-2.3,1.2-3.6,1.2C323.2,133.5,322.8,133.5,322.3,133.4z M324,132.7c0.7,0,1.3-0.2,1.8-0.7c0.5-0.4,0.9-0.9,1.2-1.4
				s0.3-0.9,0.3-1.3c0-0.4-0.2-0.7-0.5-1c-0.3-0.3-0.7-0.5-1.1-0.5c-0.7,0-1.4,0.5-2,1.5c-0.6,1-1.1,2.1-1.3,3.1
				C323.1,132.6,323.6,132.7,324,132.7z"/>
			<path d="M339.9,120.3c-0.6,5-0.8,8.6-0.8,10.8s0.2,4.3,0.6,6.4c-0.3,0.3-0.5,0.4-0.8,0.4c-0.2,0-0.4,0-0.5-0.1
				c-0.3-1.1-0.5-2.3-0.5-3.5c-0.4,0.6-0.6,1-0.8,1.2c-0.2,0.2-0.5,0.6-0.9,1c-0.7,0.9-1.6,1.3-2.7,1.3c-0.8,0-1.3-0.4-1.7-1.1
				c-0.3-0.7-0.5-1.7-0.5-2.8s0.1-2.2,0.4-3.3c0.3-1,0.7-1.9,1.3-2.7c0.6-0.8,1.4-1.1,2.3-1.1c0.6,0,1.1,0.1,1.5,0.4
				c0.5,0.2,0.8,0.5,1,0.9c0-0.4,0.1-1,0.1-1.8s0.1-1.6,0.1-2.2c0-0.6,0.1-1.3,0.2-1.9c0.2-1.4,0.5-2.1,1.1-2.1
				C339.5,120.1,339.7,120.2,339.9,120.3z M337.3,129c-0.2-0.3-0.4-0.6-0.7-0.7c-0.3-0.2-0.7-0.2-1.2-0.2s-1,0.3-1.4,0.9
				c-0.9,1.1-1.3,2.8-1.3,4.9c0,0.7,0.1,1.4,0.3,2.1s0.5,1,1,1c0.6,0,1.2-0.4,1.8-1.2c0.6-0.8,1-1.7,1.4-2.8s0.5-2,0.5-2.8
				C337.6,129.7,337.5,129.3,337.3,129z"/>
			<path d="M348.5,121.7c0,0.3,0,0.7,0,1.1c0,0.4,0,0.8,0.1,1.3c-0.2,0.2-0.5,0.4-0.8,0.4c-0.4,0-0.7-0.4-0.7-1.1c0,0,0-0.1,0-0.3
				s0-0.4,0-0.5c0-0.2,0-0.3,0.1-0.5c0.1-0.4,0.3-0.5,0.7-0.5C348.2,121.5,348.4,121.6,348.5,121.7z M347.1,132.5
				c0-2.9,0.1-4.5,0.4-5c0.1-0.2,0.2-0.2,0.4-0.2s0.4,0.1,0.7,0.2c-0.1,1.2-0.1,2.6-0.1,4.1l0,4.9c0,0.5-0.1,0.8-0.3,1
				s-0.4,0.3-0.5,0.3c-0.2,0-0.3,0-0.5-0.1C347.2,135.6,347.1,134,347.1,132.5z"/>
			<path d="M360.4,137.3c-0.3,0.3-0.6,0.4-0.9,0.4c-0.6,0-1.1-0.3-1.4-1c-0.3-0.7-0.5-1.5-0.5-2.5c-0.1-1-0.1-1.9-0.1-2.9
				s-0.1-1.8-0.2-2.5c-0.1-0.7-0.4-1-0.8-1c-0.5,0-0.9,0.5-1.3,1.4s-0.6,2-0.8,3.1c-0.4,3.2-0.8,4.9-1.2,5.3
				c-0.3,0.1-0.5,0.2-0.7,0.2c-0.2,0-0.4,0-0.5-0.1c-0.3-1.3-0.5-3.7-0.6-7c0-1.6-0.1-2.7-0.1-3.2c0.3-0.2,0.6-0.3,0.8-0.3
				c0.2,0,0.4,0,0.5,0.1c0.1,0.6,0.1,1.9,0.1,3.9c0,2,0,3.1,0,3.4c0.1-0.3,0.2-0.8,0.3-1.5c0.1-0.7,0.2-1.3,0.3-1.7
				c0.1-0.4,0.2-1,0.4-1.6c0.2-0.6,0.4-1.1,0.6-1.4s0.6-0.7,1-0.9c0.4-0.3,0.9-0.4,1.4-0.4c0.7,0,1.2,0.3,1.5,0.9
				c0.3,0.6,0.5,1.4,0.5,2.3c0,0.9,0,1.9,0.1,2.8c0,1,0.1,1.8,0.4,2.6S359.9,137.1,360.4,137.3z"/>
			<path d="M370.1,120.3c-0.6,5-0.8,8.6-0.8,10.8s0.2,4.3,0.6,6.4c-0.3,0.3-0.5,0.4-0.8,0.4c-0.2,0-0.4,0-0.5-0.1
				c-0.3-1.1-0.5-2.3-0.5-3.5c-0.4,0.6-0.6,1-0.8,1.2c-0.2,0.2-0.5,0.6-0.9,1c-0.7,0.9-1.6,1.3-2.7,1.3c-0.8,0-1.3-0.4-1.7-1.1
				c-0.3-0.7-0.5-1.7-0.5-2.8s0.1-2.2,0.4-3.3c0.3-1,0.7-1.9,1.3-2.7c0.6-0.8,1.4-1.1,2.3-1.1c0.6,0,1.1,0.1,1.5,0.4
				c0.5,0.2,0.8,0.5,1,0.9c0-0.4,0.1-1,0.1-1.8s0.1-1.6,0.1-2.2c0-0.6,0.1-1.3,0.2-1.9c0.2-1.4,0.5-2.1,1.1-2.1
				C369.7,120.1,369.9,120.2,370.1,120.3z M367.6,129c-0.2-0.3-0.4-0.6-0.7-0.7c-0.3-0.2-0.7-0.2-1.2-0.2s-1,0.3-1.4,0.9
				c-0.9,1.1-1.3,2.8-1.3,4.9c0,0.7,0.1,1.4,0.3,2.1s0.5,1,1,1c0.6,0,1.2-0.4,1.8-1.2c0.6-0.8,1-1.7,1.4-2.8s0.5-2,0.5-2.8
				C367.8,129.7,367.7,129.3,367.6,129z"/>
			<path d="M373.4,133.4c0,0.3,0,0.5,0,0.6c0,0.9,0.3,1.6,0.8,2s1.2,0.7,1.9,0.7s1.3-0.1,1.8-0.3s0.8-0.4,1-0.7c0.5-0.7,1-1,1.5-1
				c0.2,0,0.4,0,0.6,0.1c-0.1,0.7-0.7,1.4-1.7,2c-1,0.6-2.2,0.9-3.6,0.9c-1,0-1.9-0.3-2.7-1s-1.1-1.5-1.1-2.7c0-1.1,0.2-2.2,0.7-3.3
				c0.4-1.1,1.1-2,1.9-2.7c0.8-0.8,1.7-1.1,2.6-1.1c0.9,0,1.6,0.2,2.1,0.5c0.5,0.4,0.8,0.9,0.8,1.6c0,1.3-0.6,2.3-1.7,3.2
				c-1.1,0.8-2.3,1.2-3.6,1.2C374.3,133.5,373.9,133.5,373.4,133.4z M375.1,132.7c0.7,0,1.3-0.2,1.8-0.7c0.5-0.4,0.9-0.9,1.2-1.4
				s0.3-0.9,0.3-1.3c0-0.4-0.2-0.7-0.5-1c-0.3-0.3-0.7-0.5-1.1-0.5c-0.7,0-1.4,0.5-2,1.5c-0.6,1-1.1,2.1-1.3,3.1
				C374.1,132.6,374.7,132.7,375.1,132.7z"/>
			<path d="M384.2,138.1c-0.3,0-0.4-2.2-0.4-6.7c0-1.9,0-3,0-3.4h-0.4c-0.2,0-0.4,0-0.5,0c-0.1,0-0.3,0-0.5,0c-0.2,0-0.3,0-0.4-0.1
				c-0.1,0-0.2-0.1-0.3-0.1c-0.2-0.1-0.3-0.2-0.3-0.5c0-0.3,0.5-0.4,1.4-0.4c0.4,0,0.8,0,1.1,0c0-0.3,0-0.7,0-1.1c0-0.5,0-0.8,0-1.1
				s0-0.6,0.1-0.9c0-0.4,0.1-0.7,0.1-0.9s0.1-0.4,0.2-0.7s0.2-0.5,0.4-0.6c0.1-0.1,0.3-0.3,0.5-0.4c0.3-0.3,0.9-0.4,1.7-0.4
				s1.4,0.2,1.7,0.6s0.7,1,1,2c-0.2,0.3-0.5,0.4-0.8,0.4c-0.1,0-0.2,0-0.3,0c-0.3-0.7-0.5-1.2-0.7-1.4c-0.2-0.2-0.5-0.4-0.9-0.4
				c-0.4,0-0.6,0.1-0.8,0.2s-0.3,0.3-0.4,0.5c-0.2,0.4-0.3,1.5-0.3,3.2c0,0.1,0,0.2,0,0.4s0,0.4,0,0.5l1.9-0.2
				c0.7,0,1.1,0.2,1.1,0.5c0,0.2-0.2,0.4-0.5,0.4c-0.4,0.1-0.8,0.1-1.3,0.1c-0.5,0-0.9,0.1-1.1,0.1c0,0.4,0,1,0,1.6
				c0,0.7,0,1.7,0.1,3.2c0.1,1.4,0.1,2.5,0.1,3.3s-0.1,1.3-0.2,1.6C385,137.9,384.7,138.1,384.2,138.1z"/>
			<path d="M391.3,121.7c0,0.3,0,0.7,0,1.1c0,0.4,0,0.8,0.1,1.3c-0.2,0.2-0.5,0.4-0.8,0.4c-0.4,0-0.7-0.4-0.7-1.1c0,0,0-0.1,0-0.3
				s0-0.4,0-0.5c0-0.2,0-0.3,0.1-0.5c0.1-0.4,0.3-0.5,0.7-0.5C391,121.5,391.2,121.6,391.3,121.7z M389.9,132.5c0-2.9,0.1-4.5,0.4-5
				c0.1-0.2,0.2-0.2,0.4-0.2s0.4,0.1,0.7,0.2c-0.1,1.2-0.1,2.6-0.1,4.1l0,4.9c0,0.5-0.1,0.8-0.3,1s-0.4,0.3-0.5,0.3
				c-0.2,0-0.3,0-0.5-0.1C389.9,135.6,389.9,134,389.9,132.5z"/>
			<path d="M403.2,137.3c-0.3,0.3-0.6,0.4-0.9,0.4c-0.6,0-1.1-0.3-1.4-1c-0.3-0.7-0.5-1.5-0.5-2.5c-0.1-1-0.1-1.9-0.1-2.9
				s-0.1-1.8-0.2-2.5c-0.1-0.7-0.4-1-0.8-1c-0.5,0-0.9,0.5-1.3,1.4s-0.6,2-0.8,3.1c-0.4,3.2-0.8,4.9-1.2,5.3
				c-0.3,0.1-0.5,0.2-0.7,0.2c-0.2,0-0.4,0-0.5-0.1c-0.3-1.3-0.5-3.7-0.6-7c0-1.6-0.1-2.7-0.1-3.2c0.3-0.2,0.6-0.3,0.8-0.3
				c0.2,0,0.4,0,0.5,0.1c0.1,0.6,0.1,1.9,0.1,3.9c0,2,0,3.1,0,3.4c0.1-0.3,0.2-0.8,0.3-1.5c0.1-0.7,0.2-1.3,0.3-1.7
				c0.1-0.4,0.2-1,0.4-1.6c0.2-0.6,0.4-1.1,0.6-1.4s0.6-0.7,1-0.9c0.4-0.3,0.9-0.4,1.4-0.4c0.7,0,1.2,0.3,1.5,0.9
				c0.3,0.6,0.5,1.4,0.5,2.3c0,0.9,0,1.9,0.1,2.8c0,1,0.1,1.8,0.4,2.6S402.6,137.1,403.2,137.3z"/>
			<path d="M406.2,121.7c0,0.3,0,0.7,0,1.1c0,0.4,0,0.8,0.1,1.3c-0.2,0.2-0.5,0.4-0.8,0.4c-0.4,0-0.7-0.4-0.7-1.1c0,0,0-0.1,0-0.3
				s0-0.4,0-0.5c0-0.2,0-0.3,0.1-0.5c0.1-0.4,0.3-0.5,0.7-0.5C405.9,121.5,406.1,121.6,406.2,121.7z M404.8,132.5
				c0-2.9,0.1-4.5,0.4-5c0.1-0.2,0.2-0.2,0.4-0.2s0.4,0.1,0.7,0.2c-0.1,1.2-0.1,2.6-0.1,4.1l0,4.9c0,0.5-0.1,0.8-0.3,1
				s-0.4,0.3-0.5,0.3c-0.2,0-0.3,0-0.5-0.1C404.8,135.6,404.8,134,404.8,132.5z"/>
			<path d="M409,128.7c-0.7,0-1.1-0.2-1.3-0.5c0-0.2,0.1-0.4,0.3-0.5c0.2-0.1,0.4-0.2,0.6-0.3c0.2,0,0.6-0.1,1.1-0.1
				c0-0.4,0.1-0.9,0.1-1.5c0-0.6,0-1.2,0-1.6c0-1.2,0.2-1.9,0.5-2.1c0.1-0.1,0.3-0.2,0.4-0.2c0.2,0,0.3,0,0.4,0
				c0,1.1,0.1,1.7,0.1,1.9l-0.1,3.3c0,0,0.1,0,0.2,0l1.6-0.1c1.1,0,1.7,0.2,1.7,0.5c0,0.5-0.2,0.8-0.6,0.9c-0.2,0-0.4,0.1-0.7,0.1
				c-0.3,0-0.6,0-1-0.1s-0.7-0.1-0.9-0.1s-0.3,0-0.4,0c0,0.4-0.1,0.8-0.1,1.3c0,0.4,0,0.9,0,1.6c0,0.6,0.1,1.4,0.2,2.2
				c0.1,0.9,0.3,1.6,0.6,2.2c0.3,0.6,0.7,0.9,1.2,0.9c0.2,0,0.5-0.1,0.9-0.3c0.3-0.2,0.6-0.3,0.8-0.3s0.3,0,0.5,0.1
				c0.1,0.1,0.2,0.2,0.2,0.3c0,0.3-0.3,0.6-0.9,0.9c-0.6,0.3-1.2,0.4-1.6,0.4c-1.6,0-2.6-1.5-3-4.6c-0.1-0.9-0.2-2.4-0.3-4.5
				C409.6,128.7,409.3,128.7,409,128.7z"/>
			<path d="M418,133.4c0,0.3,0,0.5,0,0.6c0,0.9,0.3,1.6,0.8,2s1.2,0.7,1.9,0.7s1.3-0.1,1.8-0.3s0.8-0.4,1-0.7c0.5-0.7,1-1,1.5-1
				c0.2,0,0.4,0,0.6,0.1c-0.1,0.7-0.7,1.4-1.7,2c-1,0.6-2.2,0.9-3.6,0.9c-1,0-1.9-0.3-2.7-1s-1.1-1.5-1.1-2.7c0-1.1,0.2-2.2,0.7-3.3
				c0.4-1.1,1.1-2,1.9-2.7c0.8-0.8,1.7-1.1,2.6-1.1c0.9,0,1.6,0.2,2.1,0.5c0.5,0.4,0.8,0.9,0.8,1.6c0,1.3-0.6,2.3-1.7,3.2
				c-1.1,0.8-2.3,1.2-3.6,1.2C418.9,133.5,418.5,133.5,418,133.4z M419.7,132.7c0.7,0,1.3-0.2,1.8-0.7c0.5-0.4,0.9-0.9,1.2-1.4
				s0.3-0.9,0.3-1.3c0-0.4-0.2-0.7-0.5-1c-0.3-0.3-0.7-0.5-1.1-0.5c-0.7,0-1.4,0.5-2,1.5c-0.6,1-1.1,2.1-1.3,3.1
				C418.8,132.6,419.3,132.7,419.7,132.7z"/>
			<path d="M428,124.7c0-1.5-0.2-2.4-0.6-2.9c0.2-0.3,0.5-0.4,1-0.4c0.1,0,0.2,0,0.3,0c0.4,0.4,0.5,1.4,0.5,3.2c0,1,0,2.1-0.1,3.3
				c-0.2,2.2-0.3,3.8-0.3,4.8c0,2.8,0.5,4.2,1.6,4.2l0.8-0.2c0.1,0,0.2,0.1,0.3,0.2c0,0.5-0.5,0.8-1.3,0.8c-0.8,0-1.4-0.2-1.9-0.7
				c-0.4-0.5-0.7-1.1-0.8-1.8c-0.1-0.7-0.2-1.4-0.2-1.8s0-1,0-1.6s0.1-1.4,0.2-2.5C427.9,127,428,125.5,428,124.7z"/>
			<path d="M437.8,128.7c0-1.1,0.3-1.6,1-1.6c0.1,0,0.3,0,0.4,0c0,0.2,0,0.7,0,1.4c0,0.8,0.1,2.3,0.3,4.7c0.2,2.3,0.3,4.1,0.3,5.2
				c0,1.8-0.3,3.1-1,3.8c-0.6,0.7-1.7,1.1-3.3,1.1c-1.5,0-3-0.5-4.4-1.5c0.3-0.3,0.6-0.5,1-0.5c0.2,0,0.4,0.1,0.8,0.3
				c1,0.6,1.9,0.9,2.6,0.9c1,0,1.8-0.3,2.2-1c0.4-0.6,0.6-1.7,0.6-3.3c0-0.4,0-1.7-0.1-4c0,0-0.1,0.2-0.2,0.6s-0.2,0.5-0.2,0.6
				c0,0.1-0.1,0.3-0.2,0.6c-0.1,0.3-0.2,0.5-0.3,0.6c-0.1,0.1-0.3,0.3-0.5,0.4c-0.3,0.3-0.7,0.4-1.2,0.4s-0.9-0.1-1.2-0.2
				c-0.3-0.1-0.5-0.3-0.7-0.6c-0.2-0.3-0.4-0.6-0.5-0.9c-0.2-0.3-0.3-0.7-0.4-1.2c-0.1-0.5-0.2-0.9-0.2-1.3
				c-0.1-0.4-0.1-0.9-0.1-1.5c0-0.6,0-1,0-1.4c0-0.4,0-0.9,0-1.5v-1.3c0.1-0.2,0.4-0.4,0.8-0.4c0.5,0,0.8,0.2,0.8,0.6l-0.1,2.1
				c0,1.9,0.2,3.5,0.6,4.8c0.4,1.3,0.8,2,1.2,2c0.3,0,0.6-0.2,0.9-0.5c0.2-0.4,0.4-0.8,0.6-1.5c0.1-0.6,0.2-1.2,0.3-1.8
				c0.1-0.6,0.1-1.2,0.2-2C437.8,130,437.8,129.2,437.8,128.7z"/>
			<path d="M447.3,128.7c-0.7,0-1.1-0.2-1.3-0.5c0-0.2,0.1-0.4,0.3-0.5c0.2-0.1,0.4-0.2,0.6-0.3c0.2,0,0.6-0.1,1.1-0.1
				c0-0.4,0.1-0.9,0.1-1.5c0-0.6,0-1.2,0-1.6c0-1.2,0.2-1.9,0.5-2.1c0.1-0.1,0.3-0.2,0.4-0.2c0.2,0,0.3,0,0.4,0
				c0,1.1,0.1,1.7,0.1,1.9l-0.1,3.3c0,0,0.1,0,0.2,0l1.6-0.1c1.1,0,1.7,0.2,1.7,0.5c0,0.5-0.2,0.8-0.6,0.9c-0.2,0-0.4,0.1-0.7,0.1
				c-0.3,0-0.6,0-1-0.1s-0.7-0.1-0.9-0.1s-0.3,0-0.4,0c0,0.4-0.1,0.8-0.1,1.3c0,0.4,0,0.9,0,1.6c0,0.6,0.1,1.4,0.2,2.2
				c0.1,0.9,0.3,1.6,0.6,2.2c0.3,0.6,0.7,0.9,1.2,0.9c0.2,0,0.5-0.1,0.9-0.3c0.3-0.2,0.6-0.3,0.8-0.3s0.3,0,0.5,0.1
				c0.1,0.1,0.2,0.2,0.2,0.3c0,0.3-0.3,0.6-0.9,0.9c-0.6,0.3-1.2,0.4-1.6,0.4c-1.6,0-2.6-1.5-3-4.6c-0.1-0.9-0.2-2.4-0.3-4.5
				C447.8,128.7,447.5,128.7,447.3,128.7z"/>
			<path d="M455.9,128.8c0.7-1.1,1.8-1.7,3.2-1.7s2.5,0.6,3.4,1.7c0.8,1.1,1.3,2.4,1.3,3.9c0,1.5-0.5,2.7-1.4,3.7
				c-0.9,1-2.1,1.5-3.5,1.5s-2.5-0.4-3.1-1.2c-0.6-0.8-1-1.9-1-3.4C454.8,131.4,455.1,129.9,455.9,128.8z M456.8,129.9
				c-0.2,0.6-0.3,1.2-0.4,1.7s-0.1,1.1-0.1,1.6s0,0.9,0.1,1.3c0.1,0.4,0.2,0.8,0.4,1.2s0.4,0.7,0.8,0.9c0.4,0.2,0.8,0.3,1.3,0.3
				c1,0,1.8-0.4,2.5-1.2c0.7-0.8,1-1.8,1-2.9c0-1.1-0.3-2.3-0.9-3.3c-0.6-1.1-1.4-1.6-2.2-1.6c-0.5,0-1,0.2-1.4,0.5
				C457.3,128.9,457,129.3,456.8,129.9z"/>
			<path d="M471.6,128.8c0.7-1.1,1.8-1.7,3.2-1.7s2.5,0.6,3.4,1.7c0.8,1.1,1.3,2.4,1.3,3.9c0,1.5-0.5,2.7-1.4,3.7
				c-0.9,1-2.1,1.5-3.5,1.5s-2.5-0.4-3.1-1.2c-0.6-0.8-1-1.9-1-3.4C470.5,131.4,470.9,129.9,471.6,128.8z M472.6,129.9
				c-0.2,0.6-0.3,1.2-0.4,1.7s-0.1,1.1-0.1,1.6s0,0.9,0.1,1.3c0.1,0.4,0.2,0.8,0.4,1.2s0.4,0.7,0.8,0.9c0.4,0.2,0.8,0.3,1.3,0.3
				c1,0,1.8-0.4,2.5-1.2c0.7-0.8,1-1.8,1-2.9c0-1.1-0.3-2.3-0.9-3.3c-0.6-1.1-1.4-1.6-2.2-1.6c-0.5,0-1,0.2-1.4,0.5
				C473.1,128.9,472.8,129.3,472.6,129.9z"/>
			<path d="M483.4,127.6c-0.4,0.7-0.6,1.8-0.6,3.2c0,2.1,0.4,3.9,1.2,5.1c0.5,0.7,1,1.1,1.7,1.1s1.2-0.3,1.6-1
				c0.5-0.9,0.7-2,0.7-3.5c0-1.9-0.3-3.3-0.8-4.2c-0.2-0.4-0.4-0.7-0.4-0.9c0-0.2,0-0.3,0.1-0.4c0.1-0.1,0.4-0.1,0.7-0.1
				c0.9,0,1.5,0.9,1.8,2.8c0.1,0.5,0.1,1,0.1,1.5c0,1.3-0.3,2.7-0.8,4c-0.7,1.8-1.9,2.8-3.5,2.8c-0.9,0-1.6-0.3-2.2-0.9
				c-1.1-1.2-1.7-3-1.7-5.4c0-1.1,0.1-1.9,0.2-2.4s0.3-0.9,0.4-1.1c0.1-0.2,0.2-0.3,0.4-0.5s0.3-0.2,0.5-0.2
				C483,127.4,483.2,127.5,483.4,127.6z"/>
			<path d="M493.9,135.7l0.1,1.3c0,0.3-0.1,0.5-0.3,0.7c-0.2,0.1-0.4,0.2-0.5,0.2c-0.2,0-0.4,0-0.6-0.1c-0.3-1.7-0.6-3.8-0.7-6.4
				c-0.2-2.5-0.3-4-0.3-4.3c0.2-0.2,0.5-0.3,0.7-0.3s0.5,0,0.6,0.1c0.1,0.4,0.1,1.4,0.1,2.8s0.1,2.4,0.1,2.7
				c0.2-1.2,0.6-2.4,1.1-3.5c0.3-0.6,0.7-1.1,1.2-1.4c0.5-0.4,1-0.5,1.5-0.5c0.6,0,1.1,0.2,1.5,0.7c0.5,0.5,0.7,0.9,0.7,1.3
				c0,0.1-0.1,0.3-0.3,0.3c-0.2,0.1-0.4,0.1-0.6,0.1s-0.4-0.1-0.5-0.2s-0.2-0.3-0.2-0.5c0-0.2-0.1-0.4-0.3-0.5
				c-0.1-0.2-0.3-0.2-0.6-0.2c-0.7,0-1.2,0.6-1.7,1.8C494.2,131.5,493.9,133.5,493.9,135.7z"/>
			<path d="M513.7,120.3c-0.6,5-0.8,8.6-0.8,10.8s0.2,4.3,0.6,6.4c-0.3,0.3-0.5,0.4-0.8,0.4c-0.2,0-0.4,0-0.5-0.1
				c-0.3-1.1-0.5-2.3-0.5-3.5c-0.4,0.6-0.6,1-0.8,1.2c-0.2,0.2-0.5,0.6-0.9,1c-0.7,0.9-1.6,1.3-2.7,1.3c-0.8,0-1.3-0.4-1.7-1.1
				c-0.3-0.7-0.5-1.7-0.5-2.8s0.1-2.2,0.4-3.3c0.3-1,0.7-1.9,1.3-2.7c0.6-0.8,1.4-1.1,2.3-1.1c0.6,0,1.1,0.1,1.5,0.4
				c0.5,0.2,0.8,0.5,1,0.9c0-0.4,0.1-1,0.1-1.8s0.1-1.6,0.1-2.2c0-0.6,0.1-1.3,0.2-1.9c0.2-1.4,0.5-2.1,1.1-2.1
				C513.3,120.1,513.5,120.2,513.7,120.3z M511.2,129c-0.2-0.3-0.4-0.6-0.7-0.7c-0.3-0.2-0.7-0.2-1.2-0.2s-1,0.3-1.4,0.9
				c-0.9,1.1-1.3,2.8-1.3,4.9c0,0.7,0.1,1.4,0.3,2.1s0.5,1,1,1c0.6,0,1.2-0.4,1.8-1.2c0.6-0.8,1-1.7,1.4-2.8s0.5-2,0.5-2.8
				C511.4,129.7,511.3,129.3,511.2,129z"/>
			<path d="M522.8,131.6l-0.1,2.5c0,1.3,0.1,2.1,0.4,2.6c0.2,0.3,0.4,0.4,0.7,0.4c0.1,0,0.2,0,0.4-0.1c0.3-0.1,0.6,0,0.8,0.1
				c-0.1,0.5-0.6,0.8-1.5,0.8c-0.6,0-1-0.3-1.3-0.8c-0.2-0.4-0.3-0.9-0.4-1.5s-0.1-1-0.2-1.2c-1,1.8-1.9,2.9-2.8,3.3
				c-0.5,0.2-1,0.3-1.6,0.3c-0.6,0-1.1-0.3-1.4-0.9c-0.3-0.6-0.5-1.4-0.5-2.5c0-1.1,0.2-2.3,0.5-3.5c0.4-1.2,0.9-2.3,1.6-3.1
				c0.7-0.8,1.5-1.3,2.3-1.3c1.2,0,2,0.5,2.4,1.5C522.6,129.1,522.8,130.2,522.8,131.6z M517.4,130.9c-0.2,0.8-0.4,1.6-0.5,2.3
				c-0.1,0.7-0.2,1.3-0.2,1.9c0,0.6,0.1,1,0.3,1.4c0.2,0.4,0.5,0.6,0.9,0.6c0.8,0,1.6-0.7,2.3-2.2s1.1-2.9,1.1-4.2
				c0-0.8-0.2-1.5-0.7-2.1c-0.3-0.4-0.7-0.5-1.2-0.5s-0.9,0.3-1.3,0.8S517.6,130.1,517.4,130.9z"/>
			<path d="M525.8,128.7c-0.7,0-1.1-0.2-1.3-0.5c0-0.2,0.1-0.4,0.3-0.5c0.2-0.1,0.4-0.2,0.6-0.3c0.2,0,0.6-0.1,1.1-0.1
				c0-0.4,0.1-0.9,0.1-1.5c0-0.6,0-1.2,0-1.6c0-1.2,0.2-1.9,0.5-2.1c0.1-0.1,0.3-0.2,0.4-0.2c0.2,0,0.3,0,0.4,0
				c0,1.1,0.1,1.7,0.1,1.9l-0.1,3.3c0,0,0.1,0,0.2,0l1.6-0.1c1.1,0,1.7,0.2,1.7,0.5c0,0.5-0.2,0.8-0.6,0.9c-0.2,0-0.4,0.1-0.7,0.1
				c-0.3,0-0.6,0-1-0.1s-0.7-0.1-0.9-0.1s-0.3,0-0.4,0c0,0.4-0.1,0.8-0.1,1.3c0,0.4,0,0.9,0,1.6c0,0.6,0.1,1.4,0.2,2.2
				c0.1,0.9,0.3,1.6,0.6,2.2c0.3,0.6,0.7,0.9,1.2,0.9c0.2,0,0.5-0.1,0.9-0.3c0.3-0.2,0.6-0.3,0.8-0.3s0.3,0,0.5,0.1
				c0.1,0.1,0.2,0.2,0.2,0.3c0,0.3-0.3,0.6-0.9,0.9c-0.6,0.3-1.2,0.4-1.6,0.4c-1.6,0-2.6-1.5-3-4.6c-0.1-0.9-0.2-2.4-0.3-4.5
				C526.3,128.7,526,128.7,525.8,128.7z"/>
			<path d="M540.6,131.6l-0.1,2.5c0,1.3,0.1,2.1,0.4,2.6c0.2,0.3,0.4,0.4,0.7,0.4c0.1,0,0.2,0,0.4-0.1c0.3-0.1,0.6,0,0.8,0.1
				c-0.1,0.5-0.6,0.8-1.5,0.8c-0.6,0-1-0.3-1.3-0.8c-0.2-0.4-0.3-0.9-0.4-1.5s-0.1-1-0.2-1.2c-1,1.8-1.9,2.9-2.8,3.3
				c-0.5,0.2-1,0.3-1.6,0.3c-0.6,0-1.1-0.3-1.4-0.9c-0.3-0.6-0.5-1.4-0.5-2.5c0-1.1,0.2-2.3,0.5-3.5c0.4-1.2,0.9-2.3,1.6-3.1
				c0.7-0.8,1.5-1.3,2.3-1.3c1.2,0,2,0.5,2.4,1.5C540.4,129.1,540.6,130.2,540.6,131.6z M535.2,130.9c-0.2,0.8-0.4,1.6-0.5,2.3
				c-0.1,0.7-0.2,1.3-0.2,1.9c0,0.6,0.1,1,0.3,1.4c0.2,0.4,0.5,0.6,0.9,0.6c0.8,0,1.6-0.7,2.3-2.2s1.1-2.9,1.1-4.2
				c0-0.8-0.2-1.5-0.7-2.1c-0.3-0.4-0.7-0.5-1.2-0.5s-0.9,0.3-1.3,0.8S535.4,130.1,535.2,130.9z"/>
			<path d="M554,129.1c-0.1-0.3-0.4-0.6-0.7-0.8c-0.4-0.2-0.8-0.3-1.4-0.3c-0.5,0-1.1,0.2-1.5,0.5c-0.5,0.3-0.7,0.8-0.7,1.3
				c0,0.5,0.2,1,0.7,1.3c0.4,0.3,1,0.6,1.6,0.7c0.6,0.2,1.3,0.3,1.9,0.5c0.6,0.2,1.2,0.5,1.6,0.9s0.7,1,0.7,1.6c0,1-0.4,1.7-1.2,2.2
				c-0.8,0.5-1.8,0.8-2.9,0.8c-0.7,0-1.6-0.2-2.7-0.5c-1.1-0.4-1.6-0.8-1.6-1.3c0-0.4,0.3-0.6,1-0.6c0.2,0,0.4,0.1,0.7,0.4
				c0.9,0.7,1.9,1,2.9,1c0.5,0,1-0.1,1.4-0.3c0.7-0.3,1.1-0.9,1.1-1.6c0-0.5-0.2-0.8-0.7-1.1c-0.4-0.3-1-0.5-1.6-0.7
				c-0.6-0.2-1.3-0.3-1.9-0.5s-1.2-0.5-1.6-1s-0.7-1-0.7-1.7c0-0.9,0.4-1.6,1.2-2.2c0.8-0.6,1.8-0.8,3-0.8c0.8,0,1.5,0.2,2.2,0.6
				c0.7,0.4,1,1,1,1.8c0,0.5-0.3,0.8-0.9,0.8c-0.3,0-0.4,0-0.5-0.1s-0.1-0.2-0.1-0.5C554,129.4,554,129.2,554,129.1z"/>
			<path d="M559.2,133.4c0,0.3,0,0.5,0,0.6c0,0.9,0.3,1.6,0.8,2s1.2,0.7,1.9,0.7s1.3-0.1,1.8-0.3s0.8-0.4,1-0.7c0.5-0.7,1-1,1.5-1
				c0.2,0,0.4,0,0.6,0.1c-0.1,0.7-0.7,1.4-1.7,2c-1,0.6-2.2,0.9-3.6,0.9c-1,0-1.9-0.3-2.7-1s-1.1-1.5-1.1-2.7c0-1.1,0.2-2.2,0.7-3.3
				c0.4-1.1,1.1-2,1.9-2.7c0.8-0.8,1.7-1.1,2.6-1.1c0.9,0,1.6,0.2,2.1,0.5c0.5,0.4,0.8,0.9,0.8,1.6c0,1.3-0.6,2.3-1.7,3.2
				c-1.1,0.8-2.3,1.2-3.6,1.2C560,133.5,559.6,133.5,559.2,133.4z M560.8,132.7c0.7,0,1.3-0.2,1.8-0.7c0.5-0.4,0.9-0.9,1.2-1.4
				s0.3-0.9,0.3-1.3c0-0.4-0.2-0.7-0.5-1c-0.3-0.3-0.7-0.5-1.1-0.5c-0.7,0-1.4,0.5-2,1.5c-0.6,1-1.1,2.1-1.3,3.1
				C559.9,132.6,560.4,132.7,560.8,132.7z"/>
			<path d="M568.5,128.7c-0.7,0-1.1-0.2-1.3-0.5c0-0.2,0.1-0.4,0.3-0.5c0.2-0.1,0.4-0.2,0.6-0.3c0.2,0,0.6-0.1,1.1-0.1
				c0-0.4,0.1-0.9,0.1-1.5c0-0.6,0-1.2,0-1.6c0-1.2,0.2-1.9,0.5-2.1c0.1-0.1,0.3-0.2,0.4-0.2c0.2,0,0.3,0,0.4,0
				c0,1.1,0.1,1.7,0.1,1.9l-0.1,3.3c0,0,0.1,0,0.2,0l1.6-0.1c1.1,0,1.7,0.2,1.7,0.5c0,0.5-0.2,0.8-0.6,0.9c-0.2,0-0.4,0.1-0.7,0.1
				c-0.3,0-0.6,0-1-0.1s-0.7-0.1-0.9-0.1s-0.3,0-0.4,0c0,0.4-0.1,0.8-0.1,1.3c0,0.4,0,0.9,0,1.6c0,0.6,0.1,1.4,0.2,2.2
				c0.1,0.9,0.3,1.6,0.6,2.2c0.3,0.6,0.7,0.9,1.2,0.9c0.2,0,0.5-0.1,0.9-0.3c0.3-0.2,0.6-0.3,0.8-0.3s0.3,0,0.5,0.1
				c0.1,0.1,0.2,0.2,0.2,0.3c0,0.3-0.3,0.6-0.9,0.9c-0.6,0.3-1.2,0.4-1.6,0.4c-1.6,0-2.6-1.5-3-4.6c-0.1-0.9-0.2-2.4-0.3-4.5
				C569,128.7,568.7,128.7,568.5,128.7z"/>
			<path d="M586.8,129.1c-0.1-0.3-0.4-0.6-0.7-0.8c-0.4-0.2-0.8-0.3-1.4-0.3c-0.5,0-1.1,0.2-1.5,0.5c-0.5,0.3-0.7,0.8-0.7,1.3
				c0,0.5,0.2,1,0.7,1.3c0.4,0.3,1,0.6,1.6,0.7c0.6,0.2,1.3,0.3,1.9,0.5c0.6,0.2,1.2,0.5,1.6,0.9s0.7,1,0.7,1.6c0,1-0.4,1.7-1.2,2.2
				c-0.8,0.5-1.8,0.8-2.9,0.8c-0.7,0-1.6-0.2-2.7-0.5c-1.1-0.4-1.6-0.8-1.6-1.3c0-0.4,0.3-0.6,1-0.6c0.2,0,0.4,0.1,0.7,0.4
				c0.9,0.7,1.9,1,2.9,1c0.5,0,1-0.1,1.4-0.3c0.7-0.3,1.1-0.9,1.1-1.6c0-0.5-0.2-0.8-0.7-1.1c-0.4-0.3-1-0.5-1.6-0.7
				c-0.6-0.2-1.3-0.3-1.9-0.5s-1.2-0.5-1.6-1s-0.7-1-0.7-1.7c0-0.9,0.4-1.6,1.2-2.2c0.8-0.6,1.8-0.8,3-0.8c0.8,0,1.5,0.2,2.2,0.6
				c0.7,0.4,1,1,1,1.8c0,0.5-0.3,0.8-0.9,0.8c-0.3,0-0.4,0-0.5-0.1s-0.1-0.2-0.1-0.5C586.9,129.4,586.9,129.2,586.8,129.1z"/>
			<path d="M591.7,128.8c0.7-1.1,1.8-1.7,3.2-1.7s2.5,0.6,3.4,1.7c0.8,1.1,1.3,2.4,1.3,3.9c0,1.5-0.5,2.7-1.4,3.7
				c-0.9,1-2.1,1.5-3.5,1.5s-2.5-0.4-3.1-1.2c-0.6-0.8-1-1.9-1-3.4C590.5,131.4,590.9,129.9,591.7,128.8z M592.6,129.9
				c-0.2,0.6-0.3,1.2-0.4,1.7s-0.1,1.1-0.1,1.6s0,0.9,0.1,1.3c0.1,0.4,0.2,0.8,0.4,1.2s0.4,0.7,0.8,0.9c0.4,0.2,0.8,0.3,1.3,0.3
				c1,0,1.8-0.4,2.5-1.2c0.7-0.8,1-1.8,1-2.9c0-1.1-0.3-2.3-0.9-3.3c-0.6-1.1-1.4-1.6-2.2-1.6c-0.5,0-1,0.2-1.4,0.5
				C593.1,128.9,592.8,129.3,592.6,129.9z"/>
			<path d="M24.4,158l-0.1,2.5c0,1.3,0.1,2.1,0.4,2.6c0.2,0.3,0.4,0.4,0.7,0.4c0.1,0,0.2,0,0.4-0.1c0.3-0.1,0.6,0,0.8,0.1
				c-0.1,0.5-0.6,0.8-1.5,0.8c-0.6,0-1-0.3-1.3-0.8c-0.2-0.4-0.3-0.9-0.4-1.5c-0.1-0.6-0.1-1-0.2-1.2c-1,1.8-1.9,2.9-2.8,3.3
				c-0.5,0.2-1,0.3-1.6,0.3c-0.6,0-1.1-0.3-1.4-0.9c-0.3-0.6-0.5-1.4-0.5-2.5c0-1.1,0.2-2.3,0.5-3.5c0.4-1.2,0.9-2.3,1.6-3.1
				c0.7-0.8,1.5-1.3,2.3-1.3c1.2,0,2,0.5,2.4,1.5C24.3,155.5,24.4,156.6,24.4,158z M19,157.3c-0.2,0.8-0.4,1.6-0.5,2.3
				c-0.1,0.7-0.2,1.3-0.2,1.9s0.1,1,0.3,1.4c0.2,0.4,0.5,0.6,0.9,0.6c0.8,0,1.6-0.7,2.3-2.2s1.1-2.9,1.1-4.2c0-0.8-0.2-1.5-0.7-2.1
				c-0.3-0.4-0.7-0.5-1.2-0.5s-0.9,0.3-1.3,0.8C19.5,155.8,19.2,156.5,19,157.3z"/>
			<path d="M32.9,155.5c-0.1-0.3-0.4-0.6-0.7-0.8c-0.4-0.2-0.8-0.3-1.4-0.3c-0.5,0-1.1,0.2-1.5,0.5s-0.7,0.8-0.7,1.3s0.2,1,0.7,1.3
				s1,0.6,1.6,0.7c0.6,0.2,1.3,0.3,1.9,0.5c0.6,0.2,1.2,0.5,1.6,0.9s0.7,1,0.7,1.6c0,1-0.4,1.7-1.2,2.2c-0.8,0.5-1.8,0.8-2.9,0.8
				c-0.7,0-1.6-0.2-2.7-0.5c-1.1-0.4-1.6-0.8-1.6-1.3c0-0.4,0.3-0.6,1-0.6c0.2,0,0.4,0.1,0.7,0.4c0.9,0.7,1.9,1,2.9,1
				c0.5,0,1-0.1,1.4-0.3c0.7-0.3,1.1-0.9,1.1-1.6c0-0.5-0.2-0.8-0.7-1.1c-0.4-0.3-1-0.5-1.6-0.7c-0.6-0.2-1.3-0.3-1.9-0.5
				s-1.2-0.5-1.6-1s-0.7-1-0.7-1.7c0-0.9,0.4-1.6,1.2-2.2s1.8-0.8,3-0.8c0.8,0,1.5,0.2,2.2,0.6s1,1,1,1.8c0,0.5-0.3,0.8-0.9,0.8
				c-0.3,0-0.4,0-0.5-0.1s-0.1-0.2-0.1-0.5C32.9,155.8,32.9,155.6,32.9,155.5z"/>
			<path d="M41.9,155.1c-0.7,0-1.1-0.2-1.3-0.5c0-0.2,0.1-0.4,0.3-0.5c0.2-0.1,0.4-0.2,0.6-0.3c0.2,0,0.6-0.1,1.1-0.1
				c0-0.4,0.1-0.9,0.1-1.5c0-0.6,0-1.2,0-1.6c0-1.2,0.2-1.9,0.5-2.1c0.1-0.1,0.3-0.2,0.4-0.2c0.2,0,0.3,0,0.4,0
				c0,1.1,0.1,1.7,0.1,1.9l-0.1,3.3c0,0,0.1,0,0.2,0l1.6-0.1c1.1,0,1.7,0.2,1.7,0.5c0,0.5-0.2,0.8-0.6,0.9c-0.2,0-0.4,0.1-0.7,0.1
				c-0.3,0-0.6,0-1-0.1c-0.4-0.1-0.7-0.1-0.9-0.1s-0.3,0-0.4,0c0,0.4-0.1,0.8-0.1,1.3s0,0.9,0,1.6c0,0.6,0.1,1.4,0.2,2.2
				c0.1,0.9,0.3,1.6,0.6,2.2c0.3,0.6,0.7,0.9,1.2,0.9c0.2,0,0.5-0.1,0.9-0.3c0.3-0.2,0.6-0.3,0.8-0.3s0.3,0,0.5,0.1
				c0.1,0.1,0.2,0.2,0.2,0.3c0,0.3-0.3,0.6-0.9,0.9c-0.6,0.3-1.2,0.4-1.6,0.4c-1.6,0-2.6-1.5-3-4.6c-0.1-0.9-0.2-2.4-0.3-4.5
				C42.4,155.1,42.2,155.1,41.9,155.1z"/>
			<path d="M50.5,155.2c0.7-1.1,1.8-1.7,3.2-1.7s2.5,0.6,3.4,1.7c0.8,1.1,1.3,2.4,1.3,3.9s-0.5,2.7-1.4,3.7s-2.1,1.5-3.5,1.5
				s-2.5-0.4-3.1-1.2c-0.6-0.8-1-1.9-1-3.4C49.4,157.8,49.8,156.3,50.5,155.2z M51.5,156.3c-0.2,0.6-0.3,1.2-0.4,1.7
				c-0.1,0.6-0.1,1.1-0.1,1.6s0,0.9,0.1,1.3s0.2,0.8,0.4,1.2c0.2,0.4,0.4,0.7,0.8,0.9c0.4,0.2,0.8,0.3,1.3,0.3c1,0,1.8-0.4,2.5-1.2
				c0.7-0.8,1-1.8,1-2.9c0-1.1-0.3-2.3-0.9-3.3c-0.6-1.1-1.4-1.6-2.2-1.6c-0.5,0-1,0.2-1.4,0.5C52,155.3,51.7,155.8,51.5,156.3z"/>
			<path d="M65.8,148.5c0.2-0.3,0.5-0.5,1-0.5c0.1,0,0.2,0,0.3,0c0,0.8,0,2.9,0,6.5c0,0,0.1-0.1,0.2-0.2s0.2-0.2,0.2-0.2
				c0,0,0.1-0.1,0.2-0.2c0.1-0.1,0.2-0.2,0.3-0.2c0.1,0,0.2-0.1,0.3-0.2s0.2-0.1,0.3-0.2c0.1,0,0.2-0.1,0.3-0.1
				c0.2-0.1,0.5-0.1,0.8-0.1c1.1,0,2,0.5,2.6,1.4c0.7,0.9,1,1.9,1,3c0,1.1-0.2,2.2-0.5,3.2c-0.3,1-0.9,1.9-1.6,2.6
				c-0.7,0.7-1.5,1.1-2.5,1.1c-0.9,0-1.7-0.3-2.3-1c-0.6-0.7-0.9-1.5-0.9-2.4s0.1-2.5,0.2-4.9c0.1-2.4,0.2-4.1,0.2-5.2
				C65.8,149.9,65.8,149.1,65.8,148.5z M68.9,163.4c0.6,0,1.1-0.3,1.5-0.8c0.9-1.1,1.4-2.6,1.4-4.6c0-1.1-0.2-2-0.6-2.8
				c-0.4-0.8-1-1.2-1.7-1.2c-0.4,0-0.8,0.2-1.1,0.6c-0.3,0.4-0.6,1-0.7,1.7c-0.3,1.3-0.5,2.8-0.5,4.4c0,1.3,0.3,2.2,0.8,2.5
				C68.2,163.2,68.6,163.3,68.9,163.4z"/>
			<path d="M77.3,154c-0.4,0.7-0.6,1.8-0.6,3.2c0,2.1,0.4,3.8,1.2,5.1c0.5,0.7,1,1.1,1.7,1.1s1.2-0.3,1.6-1c0.5-0.9,0.7-2,0.7-3.5
				c0-1.9-0.3-3.3-0.8-4.2c-0.2-0.4-0.4-0.7-0.4-0.9c0-0.2,0-0.3,0.1-0.4c0.1-0.1,0.4-0.1,0.7-0.1c0.9,0,1.5,0.9,1.8,2.8
				c0.1,0.5,0.1,1,0.1,1.5c0,1.3-0.3,2.7-0.8,4c-0.7,1.8-1.9,2.8-3.5,2.8c-0.9,0-1.6-0.3-2.2-0.9c-1.1-1.2-1.7-3-1.7-5.4
				c0-1.1,0.1-1.9,0.2-2.4s0.3-0.9,0.4-1.1c0.1-0.2,0.2-0.3,0.4-0.5s0.3-0.2,0.5-0.2C76.8,153.8,77,153.9,77.3,154z"/>
			<path d="M87.1,148.1c0,0.3,0,0.7,0,1.1c0,0.4,0,0.8,0.1,1.3c-0.2,0.2-0.5,0.4-0.8,0.4c-0.4,0-0.7-0.4-0.7-1.1c0,0,0-0.1,0-0.3
				c0-0.2,0-0.4,0-0.5c0-0.2,0-0.3,0.1-0.5c0.1-0.4,0.3-0.5,0.7-0.5C86.8,147.9,87,148,87.1,148.1z M85.7,158.9c0-2.9,0.1-4.5,0.4-5
				c0.1-0.2,0.2-0.2,0.4-0.2s0.4,0.1,0.7,0.2c-0.1,1.2-0.1,2.6-0.1,4.1l0,4.9c0,0.5-0.1,0.8-0.3,1c-0.2,0.2-0.4,0.3-0.5,0.3
				c-0.2,0-0.3,0-0.5-0.1C85.7,162,85.7,160.4,85.7,158.9z"/>
			<path d="M90.7,151.1c0-1.5-0.2-2.4-0.6-2.9c0.2-0.3,0.5-0.4,1-0.4c0.1,0,0.2,0,0.3,0c0.4,0.4,0.5,1.4,0.5,3.2c0,1,0,2.1-0.1,3.3
				c-0.2,2.2-0.3,3.8-0.3,4.8c0,2.8,0.5,4.2,1.6,4.2l0.8-0.2c0.1,0,0.2,0.1,0.3,0.2c0,0.5-0.5,0.8-1.3,0.8c-0.8,0-1.4-0.2-1.9-0.7
				c-0.4-0.5-0.7-1.1-0.8-1.8c-0.1-0.7-0.2-1.4-0.2-1.8c0-0.5,0-1,0-1.6c0-0.6,0.1-1.4,0.2-2.5C90.6,153.4,90.7,151.9,90.7,151.1z"
				/>
			<path d="M103.5,146.7c-0.6,5-0.8,8.6-0.8,10.8c0,2.1,0.2,4.3,0.6,6.4c-0.3,0.3-0.5,0.4-0.8,0.4c-0.2,0-0.4,0-0.5-0.1
				c-0.3-1.1-0.5-2.3-0.5-3.5c-0.4,0.6-0.6,1-0.8,1.2s-0.5,0.6-0.9,1c-0.7,0.9-1.6,1.3-2.7,1.3c-0.8,0-1.3-0.4-1.7-1.1
				s-0.5-1.7-0.5-2.8s0.1-2.2,0.4-3.3s0.7-1.9,1.3-2.7c0.6-0.8,1.4-1.1,2.3-1.1c0.6,0,1.1,0.1,1.5,0.4c0.5,0.2,0.8,0.5,1,0.9
				c0-0.4,0.1-1,0.1-1.8s0.1-1.6,0.1-2.2c0-0.6,0.1-1.3,0.2-1.9c0.2-1.4,0.5-2.1,1.1-2.1C103,146.5,103.2,146.6,103.5,146.7z
				 M100.9,155.4c-0.2-0.3-0.4-0.6-0.7-0.7c-0.3-0.2-0.7-0.2-1.2-0.2s-1,0.3-1.4,0.9c-0.9,1.1-1.3,2.8-1.3,4.9
				c0,0.7,0.1,1.4,0.3,2.1c0.2,0.7,0.5,1,1,1c0.6,0,1.2-0.4,1.8-1.2c0.6-0.8,1-1.7,1.4-2.8c0.3-1,0.5-2,0.5-2.8
				C101.2,156.1,101.1,155.7,100.9,155.4z"/>
			<path d="M117.5,158l-0.1,2.5c0,1.3,0.1,2.1,0.4,2.6c0.2,0.3,0.4,0.4,0.7,0.4c0.1,0,0.2,0,0.4-0.1c0.3-0.1,0.6,0,0.8,0.1
				c-0.1,0.5-0.6,0.8-1.5,0.8c-0.6,0-1-0.3-1.3-0.8c-0.2-0.4-0.3-0.9-0.4-1.5c-0.1-0.6-0.1-1-0.2-1.2c-1,1.8-1.9,2.9-2.8,3.3
				c-0.5,0.2-1,0.3-1.6,0.3c-0.6,0-1.1-0.3-1.4-0.9c-0.3-0.6-0.5-1.4-0.5-2.5c0-1.1,0.2-2.3,0.5-3.5c0.4-1.2,0.9-2.3,1.6-3.1
				c0.7-0.8,1.5-1.3,2.3-1.3c1.2,0,2,0.5,2.4,1.5C117.4,155.5,117.5,156.6,117.5,158z M112.1,157.3c-0.2,0.8-0.4,1.6-0.5,2.3
				c-0.1,0.7-0.2,1.3-0.2,1.9s0.1,1,0.3,1.4c0.2,0.4,0.5,0.6,0.9,0.6c0.8,0,1.6-0.7,2.3-2.2s1.1-2.9,1.1-4.2c0-0.8-0.2-1.5-0.7-2.1
				c-0.3-0.4-0.7-0.5-1.2-0.5s-0.9,0.3-1.3,0.8C112.6,155.8,112.3,156.5,112.1,157.3z"/>
			<path d="M132.8,156.1c-0.3,0.3-0.6,0.4-0.8,0.4c-0.3,0-0.5-0.1-0.7-0.4c-0.2-0.2-0.3-0.5-0.4-0.8c-0.1-0.3-0.3-0.6-0.6-0.8
				c-0.3-0.2-0.6-0.4-1-0.4c-0.6,0.1-1.1,0.5-1.6,1.2c-0.5,0.8-0.8,1.6-1,2.5c-0.2,0.9-0.3,1.8-0.3,2.6c0,0.8,0.2,1.5,0.7,2.1
				c0.4,0.6,1.1,0.9,1.8,0.9c0.9,0,1.6-0.3,2.1-0.9c0.2-0.3,0.4-0.5,0.6-0.8c0.5-0.6,0.9-0.9,1.3-0.9c0.1,0,0.3,0,0.6,0.1
				c0,0.5-0.5,1.3-1.5,2.1s-2.1,1.3-3.2,1.3c-1.2,0-2.1-0.4-2.7-1.1c-0.7-0.7-1-1.7-1-2.9c0-1.5,0.4-3,1.1-4.5
				c0.4-0.7,0.9-1.3,1.5-1.8c0.6-0.5,1.3-0.7,2.1-0.7s1.4,0.3,1.9,0.8C132.1,154.6,132.5,155.2,132.8,156.1z"/>
			<path d="M136,155.2c0.7-1.1,1.8-1.7,3.2-1.7s2.5,0.6,3.4,1.7c0.8,1.1,1.3,2.4,1.3,3.9s-0.5,2.7-1.4,3.7s-2.1,1.5-3.5,1.5
				s-2.5-0.4-3.1-1.2c-0.6-0.8-1-1.9-1-3.4C134.9,157.8,135.3,156.3,136,155.2z M137,156.3c-0.2,0.6-0.3,1.2-0.4,1.7
				c-0.1,0.6-0.1,1.1-0.1,1.6s0,0.9,0.1,1.3s0.2,0.8,0.4,1.2c0.2,0.4,0.4,0.7,0.8,0.9c0.4,0.2,0.8,0.3,1.3,0.3c1,0,1.8-0.4,2.5-1.2
				c0.7-0.8,1-1.8,1-2.9c0-1.1-0.3-2.3-0.9-3.3c-0.6-1.1-1.4-1.6-2.2-1.6c-0.5,0-1,0.2-1.4,0.5C137.5,155.3,137.2,155.8,137,156.3z"
				/>
			<path d="M155.1,163.7c-0.3,0.3-0.6,0.4-0.9,0.4c-0.6,0-1.1-0.3-1.4-1c-0.3-0.7-0.5-1.5-0.5-2.5c-0.1-1-0.1-1.9-0.1-2.9
				c0-1-0.1-1.8-0.2-2.5c-0.1-0.7-0.4-1-0.8-1c-0.5,0-0.9,0.5-1.3,1.4s-0.6,2-0.8,3.1c-0.4,3.2-0.8,4.9-1.2,5.3
				c-0.3,0.1-0.5,0.2-0.7,0.2c-0.2,0-0.4,0-0.5-0.1c-0.3-1.3-0.5-3.7-0.6-7c0-1.6-0.1-2.7-0.1-3.2c0.3-0.2,0.6-0.3,0.8-0.3
				c0.2,0,0.4,0,0.5,0.1c0.1,0.6,0.1,1.9,0.1,3.9c0,2,0,3.1,0,3.4c0.1-0.3,0.2-0.8,0.3-1.5c0.1-0.7,0.2-1.3,0.3-1.7s0.2-1,0.4-1.6
				c0.2-0.6,0.4-1.1,0.6-1.4c0.2-0.4,0.6-0.7,1-0.9c0.4-0.3,0.9-0.4,1.4-0.4c0.7,0,1.2,0.3,1.5,0.9c0.3,0.6,0.5,1.4,0.5,2.3
				s0,1.9,0.1,2.8c0,1,0.1,1.8,0.4,2.6C154.1,162.9,154.5,163.5,155.1,163.7z"/>
			<path d="M155.5,153.7c0.1-0.3,0.4-0.4,0.9-0.4c0.2,0,0.4,0,0.5,0.1c0.4,1.1,0.8,2.3,1.2,3.4c0.7,2.1,1.4,3.8,2.1,5
				c0.3-1.8,0.9-3.6,1.8-5.4c0.9-1.8,1.7-2.7,2.4-2.7c0.2,0,0.4,0.1,0.7,0.2c-1.7,2.2-2.9,5.1-3.6,8.8c-0.1,0.9-0.3,1.3-0.5,1.5
				c-0.2,0.1-0.4,0.2-0.6,0.2c-0.2,0-0.4,0-0.5-0.1c-0.1-0.1-0.2-0.2-0.2-0.3c-0.1-0.1-0.1-0.2-0.2-0.4c-0.1-0.2-0.1-0.3-0.2-0.4
				C157.7,160.2,156.4,157.1,155.5,153.7z"/>
			<path d="M167,159.8c0,0.3,0,0.5,0,0.6c0,0.9,0.3,1.6,0.8,2c0.5,0.5,1.2,0.7,1.9,0.7s1.3-0.1,1.8-0.3c0.5-0.2,0.8-0.4,1-0.7
				c0.5-0.7,1-1,1.5-1c0.2,0,0.4,0,0.6,0.1c-0.1,0.7-0.7,1.4-1.7,2c-1,0.6-2.2,0.9-3.6,0.9c-1,0-1.9-0.3-2.7-1
				c-0.7-0.7-1.1-1.5-1.1-2.7c0-1.1,0.2-2.2,0.7-3.3c0.4-1.1,1.1-2,1.9-2.7c0.8-0.8,1.7-1.1,2.6-1.1c0.9,0,1.6,0.2,2.1,0.5
				c0.5,0.4,0.8,0.9,0.8,1.6c0,1.3-0.6,2.3-1.7,3.2c-1.1,0.8-2.3,1.2-3.6,1.2C167.9,159.9,167.5,159.9,167,159.8z M168.7,159.1
				c0.7,0,1.3-0.2,1.8-0.7c0.5-0.4,0.9-0.9,1.2-1.4c0.2-0.5,0.3-0.9,0.3-1.3c0-0.4-0.2-0.7-0.5-1c-0.3-0.3-0.7-0.5-1.1-0.5
				c-0.7,0-1.4,0.5-2,1.5c-0.6,1-1.1,2.1-1.3,3.1C167.8,159,168.3,159.1,168.7,159.1z"/>
			<path d="M185.4,163.7c-0.3,0.3-0.6,0.4-0.9,0.4c-0.6,0-1.1-0.3-1.4-1c-0.3-0.7-0.5-1.5-0.5-2.5c-0.1-1-0.1-1.9-0.1-2.9
				c0-1-0.1-1.8-0.2-2.5c-0.1-0.7-0.4-1-0.8-1c-0.5,0-0.9,0.5-1.3,1.4s-0.6,2-0.8,3.1c-0.4,3.2-0.8,4.9-1.2,5.3
				c-0.3,0.1-0.5,0.2-0.7,0.2c-0.2,0-0.4,0-0.5-0.1c-0.3-1.3-0.5-3.7-0.6-7c0-1.6-0.1-2.7-0.1-3.2c0.3-0.2,0.6-0.3,0.8-0.3
				c0.2,0,0.4,0,0.5,0.1c0.1,0.6,0.1,1.9,0.1,3.9c0,2,0,3.1,0,3.4c0.1-0.3,0.2-0.8,0.3-1.5c0.1-0.7,0.2-1.3,0.3-1.7s0.2-1,0.4-1.6
				c0.2-0.6,0.4-1.1,0.6-1.4c0.2-0.4,0.6-0.7,1-0.9c0.4-0.3,0.9-0.4,1.4-0.4c0.7,0,1.2,0.3,1.5,0.9c0.3,0.6,0.5,1.4,0.5,2.3
				s0,1.9,0.1,2.8c0,1,0.1,1.8,0.4,2.6C184.4,162.9,184.8,163.5,185.4,163.7z"/>
			<path d="M188.4,148.1c0,0.3,0,0.7,0,1.1c0,0.4,0,0.8,0.1,1.3c-0.2,0.2-0.5,0.4-0.8,0.4c-0.4,0-0.7-0.4-0.7-1.1c0,0,0-0.1,0-0.3
				c0-0.2,0-0.4,0-0.5c0-0.2,0-0.3,0.1-0.5c0.1-0.4,0.3-0.5,0.7-0.5C188,147.9,188.3,148,188.4,148.1z M187,158.9
				c0-2.9,0.1-4.5,0.4-5c0.1-0.2,0.2-0.2,0.4-0.2s0.4,0.1,0.7,0.2c-0.1,1.2-0.1,2.6-0.1,4.1l0,4.9c0,0.5-0.1,0.8-0.3,1
				c-0.2,0.2-0.4,0.3-0.5,0.3c-0.2,0-0.3,0-0.5-0.1C187,162,187,160.4,187,158.9z"/>
			<path d="M192.3,159.8c0,0.3,0,0.5,0,0.6c0,0.9,0.3,1.6,0.8,2c0.5,0.5,1.2,0.7,1.9,0.7s1.3-0.1,1.8-0.3c0.5-0.2,0.8-0.4,1-0.7
				c0.5-0.7,1-1,1.5-1c0.2,0,0.4,0,0.6,0.1c-0.1,0.7-0.7,1.4-1.7,2c-1,0.6-2.2,0.9-3.6,0.9c-1,0-1.9-0.3-2.7-1
				c-0.7-0.7-1.1-1.5-1.1-2.7c0-1.1,0.2-2.2,0.7-3.3c0.4-1.1,1.1-2,1.9-2.7c0.8-0.8,1.7-1.1,2.6-1.1c0.9,0,1.6,0.2,2.1,0.5
				c0.5,0.4,0.8,0.9,0.8,1.6c0,1.3-0.6,2.3-1.7,3.2c-1.1,0.8-2.3,1.2-3.6,1.2C193.2,159.9,192.8,159.9,192.3,159.8z M194,159.1
				c0.7,0,1.3-0.2,1.8-0.7c0.5-0.4,0.9-0.9,1.2-1.4c0.2-0.5,0.3-0.9,0.3-1.3c0-0.4-0.2-0.7-0.5-1c-0.3-0.3-0.7-0.5-1.1-0.5
				c-0.7,0-1.4,0.5-2,1.5c-0.6,1-1.1,2.1-1.3,3.1C193.1,159,193.6,159.1,194,159.1z"/>
			<path d="M210.7,163.7c-0.3,0.3-0.6,0.4-0.9,0.4c-0.6,0-1.1-0.3-1.4-1c-0.3-0.7-0.5-1.5-0.5-2.5c-0.1-1-0.1-1.9-0.1-2.9
				c0-1-0.1-1.8-0.2-2.5c-0.1-0.7-0.4-1-0.8-1c-0.5,0-0.9,0.5-1.3,1.4s-0.6,2-0.8,3.1c-0.4,3.2-0.8,4.9-1.2,5.3
				c-0.3,0.1-0.5,0.2-0.7,0.2c-0.2,0-0.4,0-0.5-0.1c-0.3-1.3-0.5-3.7-0.6-7c0-1.6-0.1-2.7-0.1-3.2c0.3-0.2,0.6-0.3,0.8-0.3
				c0.2,0,0.4,0,0.5,0.1c0.1,0.6,0.1,1.9,0.1,3.9c0,2,0,3.1,0,3.4c0.1-0.3,0.2-0.8,0.3-1.5c0.1-0.7,0.2-1.3,0.3-1.7s0.2-1,0.4-1.6
				c0.2-0.6,0.4-1.1,0.6-1.4c0.2-0.4,0.6-0.7,1-0.9c0.4-0.3,0.9-0.4,1.4-0.4c0.7,0,1.2,0.3,1.5,0.9c0.3,0.6,0.5,1.4,0.5,2.3
				s0,1.9,0.1,2.8c0,1,0.1,1.8,0.4,2.6C209.7,162.9,210.1,163.5,210.7,163.7z"/>
			<path d="M212.1,155.1c-0.7,0-1.1-0.2-1.3-0.5c0-0.2,0.1-0.4,0.3-0.5c0.2-0.1,0.4-0.2,0.6-0.3c0.2,0,0.6-0.1,1.1-0.1
				c0-0.4,0.1-0.9,0.1-1.5c0-0.6,0-1.2,0-1.6c0-1.2,0.2-1.9,0.5-2.1c0.1-0.1,0.3-0.2,0.4-0.2c0.2,0,0.3,0,0.4,0
				c0,1.1,0.1,1.7,0.1,1.9l-0.1,3.3c0,0,0.1,0,0.2,0l1.6-0.1c1.1,0,1.7,0.2,1.7,0.5c0,0.5-0.2,0.8-0.6,0.9c-0.2,0-0.4,0.1-0.7,0.1
				c-0.3,0-0.6,0-1-0.1c-0.4-0.1-0.7-0.1-0.9-0.1s-0.3,0-0.4,0c0,0.4-0.1,0.8-0.1,1.3s0,0.9,0,1.6c0,0.6,0.1,1.4,0.2,2.2
				c0.1,0.9,0.3,1.6,0.6,2.2c0.3,0.6,0.7,0.9,1.2,0.9c0.2,0,0.5-0.1,0.9-0.3c0.3-0.2,0.6-0.3,0.8-0.3s0.3,0,0.5,0.1
				c0.1,0.1,0.2,0.2,0.2,0.3c0,0.3-0.3,0.6-0.9,0.9c-0.6,0.3-1.2,0.4-1.6,0.4c-1.6,0-2.6-1.5-3-4.6c-0.1-0.9-0.2-2.4-0.3-4.5
				C212.6,155.1,212.4,155.1,212.1,155.1z"/>
			<path d="M231.9,158l-0.1,2.5c0,1.3,0.1,2.1,0.4,2.6c0.2,0.3,0.4,0.4,0.7,0.4c0.1,0,0.2,0,0.4-0.1c0.3-0.1,0.6,0,0.8,0.1
				c-0.1,0.5-0.6,0.8-1.5,0.8c-0.6,0-1-0.3-1.3-0.8c-0.2-0.4-0.3-0.9-0.4-1.5c-0.1-0.6-0.1-1-0.2-1.2c-1,1.8-1.9,2.9-2.8,3.3
				c-0.5,0.2-1,0.3-1.6,0.3c-0.6,0-1.1-0.3-1.4-0.9c-0.3-0.6-0.5-1.4-0.5-2.5c0-1.1,0.2-2.3,0.5-3.5c0.4-1.2,0.9-2.3,1.6-3.1
				c0.7-0.8,1.5-1.3,2.3-1.3c1.2,0,2,0.5,2.4,1.5C231.7,155.5,231.9,156.6,231.9,158z M226.5,157.3c-0.2,0.8-0.4,1.6-0.5,2.3
				c-0.1,0.7-0.2,1.3-0.2,1.9s0.1,1,0.3,1.4c0.2,0.4,0.5,0.6,0.9,0.6c0.8,0,1.6-0.7,2.3-2.2s1.1-2.9,1.1-4.2c0-0.8-0.2-1.5-0.7-2.1
				c-0.3-0.4-0.7-0.5-1.2-0.5s-0.9,0.3-1.3,0.8C227,155.8,226.7,156.5,226.5,157.3z"/>
			<path d="M243.8,163.7c-0.3,0.3-0.6,0.4-0.9,0.4c-0.6,0-1.1-0.3-1.4-1c-0.3-0.7-0.5-1.5-0.5-2.5c-0.1-1-0.1-1.9-0.1-2.9
				c0-1-0.1-1.8-0.2-2.5c-0.1-0.7-0.4-1-0.8-1c-0.5,0-0.9,0.5-1.3,1.4s-0.6,2-0.8,3.1c-0.4,3.2-0.8,4.9-1.2,5.3
				c-0.3,0.1-0.5,0.2-0.7,0.2c-0.2,0-0.4,0-0.5-0.1c-0.3-1.3-0.5-3.7-0.6-7c0-1.6-0.1-2.7-0.1-3.2c0.3-0.2,0.6-0.3,0.8-0.3
				c0.2,0,0.4,0,0.5,0.1c0.1,0.6,0.1,1.9,0.1,3.9c0,2,0,3.1,0,3.4c0.1-0.3,0.2-0.8,0.3-1.5c0.1-0.7,0.2-1.3,0.3-1.7s0.2-1,0.4-1.6
				c0.2-0.6,0.4-1.1,0.6-1.4c0.2-0.4,0.6-0.7,1-0.9c0.4-0.3,0.9-0.4,1.4-0.4c0.7,0,1.2,0.3,1.5,0.9c0.3,0.6,0.5,1.4,0.5,2.3
				s0,1.9,0.1,2.8c0,1,0.1,1.8,0.4,2.6C242.9,162.9,243.3,163.5,243.8,163.7z"/>
			<path d="M253.6,146.7c-0.6,5-0.8,8.6-0.8,10.8c0,2.1,0.2,4.3,0.6,6.4c-0.3,0.3-0.5,0.4-0.8,0.4c-0.2,0-0.4,0-0.5-0.1
				c-0.3-1.1-0.5-2.3-0.5-3.5c-0.4,0.6-0.6,1-0.8,1.2s-0.5,0.6-0.9,1c-0.7,0.9-1.6,1.3-2.7,1.3c-0.8,0-1.3-0.4-1.7-1.1
				s-0.5-1.7-0.5-2.8s0.1-2.2,0.4-3.3s0.7-1.9,1.3-2.7c0.6-0.8,1.4-1.1,2.3-1.1c0.6,0,1.1,0.1,1.5,0.4c0.5,0.2,0.8,0.5,1,0.9
				c0-0.4,0.1-1,0.1-1.8s0.1-1.6,0.1-2.2c0-0.6,0.1-1.3,0.2-1.9c0.2-1.4,0.5-2.1,1.1-2.1C253.1,146.5,253.3,146.6,253.6,146.7z
				 M251,155.4c-0.2-0.3-0.4-0.6-0.7-0.7c-0.3-0.2-0.7-0.2-1.2-0.2s-1,0.3-1.4,0.9c-0.9,1.1-1.3,2.8-1.3,4.9c0,0.7,0.1,1.4,0.3,2.1
				c0.2,0.7,0.5,1,1,1c0.6,0,1.2-0.4,1.8-1.2c0.6-0.8,1-1.7,1.4-2.8c0.3-1,0.5-2,0.5-2.8C251.3,156.1,251.2,155.7,251,155.4z"/>
			<path d="M261.8,159.8c0,0.3,0,0.5,0,0.6c0,0.9,0.3,1.6,0.8,2c0.5,0.5,1.2,0.7,1.9,0.7s1.3-0.1,1.8-0.3c0.5-0.2,0.8-0.4,1-0.7
				c0.5-0.7,1-1,1.5-1c0.2,0,0.4,0,0.6,0.1c-0.1,0.7-0.7,1.4-1.7,2c-1,0.6-2.2,0.9-3.6,0.9c-1,0-1.9-0.3-2.7-1
				c-0.7-0.7-1.1-1.5-1.1-2.7c0-1.1,0.2-2.2,0.7-3.3c0.4-1.1,1.1-2,1.9-2.7c0.8-0.8,1.7-1.1,2.6-1.1c0.9,0,1.6,0.2,2.1,0.5
				c0.5,0.4,0.8,0.9,0.8,1.6c0,1.3-0.6,2.3-1.7,3.2c-1.1,0.8-2.3,1.2-3.6,1.2C262.6,159.9,262.2,159.9,261.8,159.8z M263.4,159.1
				c0.7,0,1.3-0.2,1.8-0.7c0.5-0.4,0.9-0.9,1.2-1.4c0.2-0.5,0.3-0.9,0.3-1.3c0-0.4-0.2-0.7-0.5-1c-0.3-0.3-0.7-0.5-1.1-0.5
				c-0.7,0-1.4,0.5-2,1.5c-0.6,1-1.1,2.1-1.3,3.1C262.5,159,263.1,159.1,263.4,159.1z"/>
			<path d="M278,158l-0.1,2.5c0,1.3,0.1,2.1,0.4,2.6c0.2,0.3,0.4,0.4,0.7,0.4c0.1,0,0.2,0,0.4-0.1c0.3-0.1,0.6,0,0.8,0.1
				c-0.1,0.5-0.6,0.8-1.5,0.8c-0.6,0-1-0.3-1.3-0.8c-0.2-0.4-0.3-0.9-0.4-1.5c-0.1-0.6-0.1-1-0.2-1.2c-1,1.8-1.9,2.9-2.8,3.3
				c-0.5,0.2-1,0.3-1.6,0.3c-0.6,0-1.1-0.3-1.4-0.9c-0.3-0.6-0.5-1.4-0.5-2.5c0-1.1,0.2-2.3,0.5-3.5c0.4-1.2,0.9-2.3,1.6-3.1
				c0.7-0.8,1.5-1.3,2.3-1.3c1.2,0,2,0.5,2.4,1.5C277.8,155.5,278,156.6,278,158z M272.6,157.3c-0.2,0.8-0.4,1.6-0.5,2.3
				c-0.1,0.7-0.2,1.3-0.2,1.9s0.1,1,0.3,1.4c0.2,0.4,0.5,0.6,0.9,0.6c0.8,0,1.6-0.7,2.3-2.2s1.1-2.9,1.1-4.2c0-0.8-0.2-1.5-0.7-2.1
				c-0.3-0.4-0.7-0.5-1.2-0.5s-0.9,0.3-1.3,0.8C273.1,155.8,272.8,156.5,272.6,157.3z"/>
			<path d="M286.5,155.5c-0.1-0.3-0.4-0.6-0.7-0.8c-0.4-0.2-0.8-0.3-1.4-0.3c-0.5,0-1.1,0.2-1.5,0.5s-0.7,0.8-0.7,1.3s0.2,1,0.7,1.3
				s1,0.6,1.6,0.7c0.6,0.2,1.3,0.3,1.9,0.5c0.6,0.2,1.2,0.5,1.6,0.9s0.7,1,0.7,1.6c0,1-0.4,1.7-1.2,2.2c-0.8,0.5-1.8,0.8-2.9,0.8
				c-0.7,0-1.6-0.2-2.7-0.5c-1.1-0.4-1.6-0.8-1.6-1.3c0-0.4,0.3-0.6,1-0.6c0.2,0,0.4,0.1,0.7,0.4c0.9,0.7,1.9,1,2.9,1
				c0.5,0,1-0.1,1.4-0.3c0.7-0.3,1.1-0.9,1.1-1.6c0-0.5-0.2-0.8-0.7-1.1c-0.4-0.3-1-0.5-1.6-0.7c-0.6-0.2-1.3-0.3-1.9-0.5
				s-1.2-0.5-1.6-1s-0.7-1-0.7-1.7c0-0.9,0.4-1.6,1.2-2.2s1.8-0.8,3-0.8c0.8,0,1.5,0.2,2.2,0.6s1,1,1,1.8c0,0.5-0.3,0.8-0.9,0.8
				c-0.3,0-0.4,0-0.5-0.1s-0.1-0.2-0.1-0.5C286.5,155.8,286.5,155.6,286.5,155.5z"/>
			<path d="M295.8,155.1c0-1.1,0.3-1.6,1-1.6c0.1,0,0.3,0,0.4,0c0,0.2,0,0.7,0,1.4s0.1,2.3,0.3,4.7c0.2,2.3,0.3,4.1,0.3,5.2
				c0,1.8-0.3,3.1-1,3.8c-0.6,0.7-1.7,1.1-3.3,1.1c-1.5,0-3-0.5-4.4-1.5c0.3-0.3,0.6-0.5,1-0.5c0.2,0,0.4,0.1,0.8,0.3
				c1,0.6,1.9,0.9,2.6,0.9c1,0,1.8-0.3,2.2-1c0.4-0.6,0.6-1.7,0.6-3.3c0-0.4,0-1.7-0.1-4c0,0-0.1,0.2-0.2,0.6s-0.2,0.5-0.2,0.6
				s-0.1,0.3-0.2,0.6c-0.1,0.3-0.2,0.5-0.3,0.6s-0.3,0.3-0.5,0.4c-0.3,0.3-0.7,0.4-1.2,0.4s-0.9-0.1-1.2-0.2
				c-0.3-0.1-0.5-0.3-0.7-0.6s-0.4-0.6-0.5-0.9c-0.2-0.3-0.3-0.7-0.4-1.2c-0.1-0.5-0.2-0.9-0.2-1.3c-0.1-0.4-0.1-0.9-0.1-1.5
				c0-0.6,0-1,0-1.4c0-0.4,0-0.9,0-1.5v-1.3c0.1-0.2,0.4-0.4,0.8-0.4c0.5,0,0.8,0.2,0.8,0.6l-0.1,2.1c0,1.9,0.2,3.5,0.6,4.8
				c0.4,1.3,0.8,2,1.2,2c0.3,0,0.6-0.2,0.9-0.5c0.2-0.4,0.4-0.8,0.6-1.5c0.1-0.6,0.2-1.2,0.3-1.8c0.1-0.6,0.1-1.2,0.2-2
				C295.8,156.4,295.8,155.6,295.8,155.1z"/>
			<path d="M311.1,161.8c-0.2,0.7-0.7,1.2-1.4,1.7c-0.7,0.5-1.4,0.7-2.2,0.7c-0.8,0-1.4-0.4-1.8-1.2c-0.4-0.8-0.6-1.9-0.6-3.3
				c0-3.9,0.6-5.9,1.7-5.9c0.1,0,0.3,0,0.5,0.1c0,0.2-0.1,0.7-0.3,1.3c-0.3,1.3-0.5,2.4-0.5,3.4s0.1,2,0.4,3.1
				c0.3,1.1,0.7,1.6,1.2,1.6c0.3,0,0.5-0.2,0.8-0.5c0.2-0.3,0.4-0.7,0.6-1.1s0.3-0.8,0.5-1.3s0.3-0.8,0.3-0.9
				c-0.2-0.9-0.3-1.7-0.3-2.6c0,0,0-0.2,0-0.4s0-0.5,0-0.7c0-0.2,0.1-0.5,0.1-0.8c0.1-0.6,0.5-0.9,1.2-0.9c0.5,0,0.8,0.8,0.8,2.5
				c0,0.3,0,0.7-0.1,1.3c-0.1,0.6-0.1,0.9-0.1,1.2c0,0.7,0.3,1.5,1,2.6c0.6,1.1,1.3,1.6,1.8,1.6c0.6,0,1-0.3,1.2-1
				c0.3-0.6,0.4-1.4,0.4-2.2c0-0.9-0.1-1.6-0.2-2.1c-0.2-0.5-0.2-0.8-0.3-0.9c0-0.1-0.1-0.4-0.3-0.7c-0.2-0.3-0.3-0.5-0.3-0.6
				c0-0.1-0.2-0.3-0.3-0.6c-0.2-0.3-0.3-0.5-0.3-0.6c-0.4-0.7-0.7-1.2-0.7-1.2c0.4-0.3,0.7-0.5,1-0.5c0.9,0.6,1.6,1.7,2.1,3.2
				c0.5,1.5,0.8,2.8,0.8,4s-0.3,2.1-0.8,2.8c-0.5,0.7-1.3,1-2.4,1c-0.7,0-1.5-0.2-2.1-0.6S311.4,162.4,311.1,161.8z"/>
			<path d="M327,158l-0.1,2.5c0,1.3,0.1,2.1,0.4,2.6c0.2,0.3,0.4,0.4,0.7,0.4c0.1,0,0.2,0,0.4-0.1c0.3-0.1,0.6,0,0.8,0.1
				c-0.1,0.5-0.6,0.8-1.5,0.8c-0.6,0-1-0.3-1.3-0.8c-0.2-0.4-0.3-0.9-0.4-1.5c-0.1-0.6-0.1-1-0.2-1.2c-1,1.8-1.9,2.9-2.8,3.3
				c-0.5,0.2-1,0.3-1.6,0.3c-0.6,0-1.1-0.3-1.4-0.9c-0.3-0.6-0.5-1.4-0.5-2.5c0-1.1,0.2-2.3,0.5-3.5c0.4-1.2,0.9-2.3,1.6-3.1
				c0.7-0.8,1.5-1.3,2.3-1.3c1.2,0,2,0.5,2.4,1.5C326.8,155.5,327,156.6,327,158z M321.6,157.3c-0.2,0.8-0.4,1.6-0.5,2.3
				c-0.1,0.7-0.2,1.3-0.2,1.9s0.1,1,0.3,1.4c0.2,0.4,0.5,0.6,0.9,0.6c0.8,0,1.6-0.7,2.3-2.2s1.1-2.9,1.1-4.2c0-0.8-0.2-1.5-0.7-2.1
				c-0.3-0.4-0.7-0.5-1.2-0.5s-0.9,0.3-1.3,0.8C322.1,155.8,321.8,156.5,321.6,157.3z"/>
			<path d="M335.1,155.1c0-1.1,0.3-1.6,1-1.6c0.1,0,0.3,0,0.4,0c0,0.2,0,0.7,0,1.4s0.1,2.3,0.3,4.7c0.2,2.3,0.3,4.1,0.3,5.2
				c0,1.8-0.3,3.1-1,3.8c-0.6,0.7-1.7,1.1-3.3,1.1c-1.5,0-3-0.5-4.4-1.5c0.3-0.3,0.6-0.5,1-0.5c0.2,0,0.4,0.1,0.8,0.3
				c1,0.6,1.9,0.9,2.6,0.9c1,0,1.8-0.3,2.2-1c0.4-0.6,0.6-1.7,0.6-3.3c0-0.4,0-1.7-0.1-4c0,0-0.1,0.2-0.2,0.6s-0.2,0.5-0.2,0.6
				s-0.1,0.3-0.2,0.6c-0.1,0.3-0.2,0.5-0.3,0.6s-0.3,0.3-0.5,0.4c-0.3,0.3-0.7,0.4-1.2,0.4s-0.9-0.1-1.2-0.2
				c-0.3-0.1-0.5-0.3-0.7-0.6s-0.4-0.6-0.5-0.9c-0.2-0.3-0.3-0.7-0.4-1.2c-0.1-0.5-0.2-0.9-0.2-1.3c-0.1-0.4-0.1-0.9-0.1-1.5
				c0-0.6,0-1,0-1.4c0-0.4,0-0.9,0-1.5v-1.3c0.1-0.2,0.4-0.4,0.8-0.4c0.5,0,0.8,0.2,0.8,0.6l-0.1,2.1c0,1.9,0.2,3.5,0.6,4.8
				c0.4,1.3,0.8,2,1.2,2c0.3,0,0.6-0.2,0.9-0.5c0.2-0.4,0.4-0.8,0.6-1.5c0.1-0.6,0.2-1.2,0.3-1.8c0.1-0.6,0.1-1.2,0.2-2
				C335.1,156.4,335.1,155.6,335.1,155.1z"/>
			<path d="M345.3,155.2c0.7-1.1,1.8-1.7,3.2-1.7s2.5,0.6,3.4,1.7c0.8,1.1,1.3,2.4,1.3,3.9s-0.5,2.7-1.4,3.7s-2.1,1.5-3.5,1.5
				s-2.5-0.4-3.1-1.2c-0.6-0.8-1-1.9-1-3.4C344.2,157.8,344.6,156.3,345.3,155.2z M346.3,156.3c-0.2,0.6-0.3,1.2-0.4,1.7
				c-0.1,0.6-0.1,1.1-0.1,1.6s0,0.9,0.1,1.3s0.2,0.8,0.4,1.2c0.2,0.4,0.4,0.7,0.8,0.9c0.4,0.2,0.8,0.3,1.3,0.3c1,0,1.8-0.4,2.5-1.2
				c0.7-0.8,1-1.8,1-2.9c0-1.1-0.3-2.3-0.9-3.3c-0.6-1.1-1.4-1.6-2.2-1.6c-0.5,0-1,0.2-1.4,0.5C346.8,155.3,346.5,155.8,346.3,156.3
				z"/>
			<path d="M356.8,164.5c-0.3,0-0.4-2.2-0.4-6.7c0-1.9,0-3,0-3.4h-0.4c-0.2,0-0.4,0-0.5,0c-0.1,0-0.3,0-0.5,0c-0.2,0-0.3,0-0.4-0.1
				c-0.1,0-0.2-0.1-0.3-0.1c-0.2-0.1-0.3-0.2-0.3-0.5c0-0.3,0.5-0.4,1.4-0.4c0.4,0,0.8,0,1.1,0c0-0.3,0-0.7,0-1.1c0-0.5,0-0.8,0-1.1
				c0-0.3,0-0.6,0.1-0.9c0-0.4,0.1-0.7,0.1-0.9c0.1-0.2,0.1-0.4,0.2-0.7s0.2-0.5,0.4-0.6c0.1-0.1,0.3-0.3,0.5-0.4
				c0.3-0.2,0.9-0.4,1.7-0.4s1.4,0.2,1.7,0.6s0.7,1,1,2c-0.2,0.3-0.5,0.4-0.8,0.4c-0.1,0-0.2,0-0.3,0c-0.3-0.7-0.5-1.2-0.7-1.4
				c-0.2-0.2-0.5-0.4-0.9-0.4c-0.4,0-0.6,0.1-0.8,0.2s-0.3,0.3-0.4,0.5c-0.2,0.4-0.3,1.5-0.3,3.2c0,0.1,0,0.2,0,0.4
				c0,0.2,0,0.4,0,0.5l1.9-0.2c0.7,0,1.1,0.2,1.1,0.5c0,0.2-0.2,0.4-0.5,0.4c-0.4,0.1-0.8,0.1-1.3,0.1c-0.5,0-0.9,0.1-1.1,0.1
				c0,0.4,0,1,0,1.6s0,1.7,0.1,3.2c0.1,1.4,0.1,2.5,0.1,3.3c0,0.8-0.1,1.3-0.2,1.6C357.6,164.3,357.2,164.5,356.8,164.5z"/>
			<path d="M368,154.7c0.2,0,0.2,1,0.2,2.9c0,0.3,0,0.8,0,1.5c0,0.7,0,1,0,1.1c0.1-1.7,0.3-2.8,0.5-3.4s0.3-1.1,0.5-1.6
				c0.2-0.4,0.3-0.8,0.5-1c0.5-0.6,1-0.9,1.6-0.9c0.8,0,1.4,0.4,1.7,1.2s0.6,1.8,0.6,3.1c0.4-2.7,1.3-4,2.9-4c0.7,0,1.2,0.3,1.4,1
				c0.3,0.7,0.4,1.5,0.4,2.5l-0.1,3.3c0,2.2,0.5,3.3,1.4,3.3l1.3-0.2c0.1,0,0.1,0,0.2,0c-0.1,0.2-0.4,0.4-0.8,0.5
				c-0.4,0.1-0.8,0.2-1.2,0.2c-0.7,0-1.3-0.3-1.7-1c-0.4-0.7-0.6-1.4-0.6-2.1c0-0.7,0-1.4,0-1.9l0-2c0-0.6,0-1.3-0.1-1.8
				c-0.1-0.6-0.3-0.9-0.6-0.9c-0.5,0-1,1-1.4,3.1s-0.7,4.1-0.8,6c-0.3,0.3-0.6,0.4-0.9,0.4c-0.1,0-0.2,0-0.3-0.1
				c-0.1-0.8-0.2-2-0.2-3.8c0-1.8-0.1-3.2-0.3-4.3c-0.2-1.1-0.6-1.6-1.2-1.6c-0.4,0-0.7,0.5-1,1.4c-0.4,1.4-0.8,3.6-1.1,6.6
				c-0.1,0.7-0.2,1.2-0.2,1.5c-0.3,0.3-0.6,0.4-0.9,0.4l-0.3,0c-0.2-2.4-0.3-5.5-0.3-9.1C367.2,154.8,367.5,154.7,368,154.7z"/>
			<path d="M383.5,154c-0.4,0.7-0.6,1.8-0.6,3.2c0,2.1,0.4,3.8,1.2,5.1c0.5,0.7,1,1.1,1.7,1.1s1.2-0.3,1.6-1c0.5-0.9,0.7-2,0.7-3.5
				c0-1.9-0.3-3.3-0.8-4.2c-0.2-0.4-0.4-0.7-0.4-0.9c0-0.2,0-0.3,0.1-0.4c0.1-0.1,0.4-0.1,0.7-0.1c0.9,0,1.5,0.9,1.8,2.8
				c0.1,0.5,0.1,1,0.1,1.5c0,1.3-0.3,2.7-0.8,4c-0.7,1.8-1.9,2.8-3.5,2.8c-0.9,0-1.6-0.3-2.2-0.9c-1.1-1.2-1.7-3-1.7-5.4
				c0-1.1,0.1-1.9,0.2-2.4s0.3-0.9,0.4-1.1c0.1-0.2,0.2-0.3,0.4-0.5s0.3-0.2,0.5-0.2C383,153.8,383.2,153.9,383.5,154z"/>
			<path d="M392.5,151.1c0-1.5-0.2-2.4-0.6-2.9c0.2-0.3,0.5-0.4,1-0.4c0.1,0,0.2,0,0.3,0c0.4,0.4,0.5,1.4,0.5,3.2c0,1,0,2.1-0.1,3.3
				c-0.2,2.2-0.3,3.8-0.3,4.8c0,2.8,0.5,4.2,1.6,4.2l0.8-0.2c0.1,0,0.2,0.1,0.3,0.2c0,0.5-0.5,0.8-1.3,0.8c-0.8,0-1.4-0.2-1.9-0.7
				c-0.4-0.5-0.7-1.1-0.8-1.8c-0.1-0.7-0.2-1.4-0.2-1.8c0-0.5,0-1,0-1.6c0-0.6,0.1-1.4,0.2-2.5C392.4,153.4,392.5,151.9,392.5,151.1
				z"/>
			<path d="M397,155.1c-0.7,0-1.1-0.2-1.3-0.5c0-0.2,0.1-0.4,0.3-0.5c0.2-0.1,0.4-0.2,0.6-0.3c0.2,0,0.6-0.1,1.1-0.1
				c0-0.4,0.1-0.9,0.1-1.5c0-0.6,0-1.2,0-1.6c0-1.2,0.2-1.9,0.5-2.1c0.1-0.1,0.3-0.2,0.4-0.2c0.2,0,0.3,0,0.4,0
				c0,1.1,0.1,1.7,0.1,1.9l-0.1,3.3c0,0,0.1,0,0.2,0l1.6-0.1c1.1,0,1.7,0.2,1.7,0.5c0,0.5-0.2,0.8-0.6,0.9c-0.2,0-0.4,0.1-0.7,0.1
				c-0.3,0-0.6,0-1-0.1c-0.4-0.1-0.7-0.1-0.9-0.1s-0.3,0-0.4,0c0,0.4-0.1,0.8-0.1,1.3s0,0.9,0,1.6c0,0.6,0.1,1.4,0.2,2.2
				c0.1,0.9,0.3,1.6,0.6,2.2c0.3,0.6,0.7,0.9,1.2,0.9c0.2,0,0.5-0.1,0.9-0.3c0.3-0.2,0.6-0.3,0.8-0.3s0.3,0,0.5,0.1
				c0.1,0.1,0.2,0.2,0.2,0.3c0,0.3-0.3,0.6-0.9,0.9c-0.6,0.3-1.2,0.4-1.6,0.4c-1.6,0-2.6-1.5-3-4.6c-0.1-0.9-0.2-2.4-0.3-4.5
				C397.5,155.1,397.3,155.1,397,155.1z"/>
			<path d="M406.4,148.1c0,0.3,0,0.7,0,1.1c0,0.4,0,0.8,0.1,1.3c-0.2,0.2-0.5,0.4-0.8,0.4c-0.4,0-0.7-0.4-0.7-1.1c0,0,0-0.1,0-0.3
				c0-0.2,0-0.4,0-0.5c0-0.2,0-0.3,0.1-0.5c0.1-0.4,0.3-0.5,0.7-0.5C406.1,147.9,406.3,148,406.4,148.1z M405,158.9
				c0-2.9,0.1-4.5,0.4-5c0.1-0.2,0.2-0.2,0.4-0.2s0.4,0.1,0.7,0.2c-0.1,1.2-0.1,2.6-0.1,4.1l0,4.9c0,0.5-0.1,0.8-0.3,1
				c-0.2,0.2-0.4,0.3-0.5,0.3c-0.2,0-0.3,0-0.5-0.1C405.1,162,405,160.4,405,158.9z"/>
			<path d="M410,151.1c0-1.5-0.2-2.4-0.6-2.9c0.2-0.3,0.5-0.4,1-0.4c0.1,0,0.2,0,0.3,0c0.4,0.4,0.5,1.4,0.5,3.2c0,1,0,2.1-0.1,3.3
				c-0.2,2.2-0.3,3.8-0.3,4.8c0,2.8,0.5,4.2,1.6,4.2l0.8-0.2c0.1,0,0.2,0.1,0.3,0.2c0,0.5-0.5,0.8-1.3,0.8c-0.8,0-1.4-0.2-1.9-0.7
				c-0.4-0.5-0.7-1.1-0.8-1.8c-0.1-0.7-0.2-1.4-0.2-1.8c0-0.5,0-1,0-1.6c0-0.6,0.1-1.4,0.2-2.5C409.9,153.4,410,151.9,410,151.1z"/>
			<path d="M416.1,148.1c0,0.3,0,0.7,0,1.1c0,0.4,0,0.8,0.1,1.3c-0.2,0.2-0.5,0.4-0.8,0.4c-0.4,0-0.7-0.4-0.7-1.1c0,0,0-0.1,0-0.3
				c0-0.2,0-0.4,0-0.5c0-0.2,0-0.3,0.1-0.5c0.1-0.4,0.3-0.5,0.7-0.5C415.7,147.9,416,148,416.1,148.1z M414.7,158.9
				c0-2.9,0.1-4.5,0.4-5c0.1-0.2,0.2-0.2,0.4-0.2s0.4,0.1,0.7,0.2c-0.1,1.2-0.1,2.6-0.1,4.1l0,4.9c0,0.5-0.1,0.8-0.3,1
				c-0.2,0.2-0.4,0.3-0.5,0.3c-0.2,0-0.3,0-0.5-0.1C414.7,162,414.7,160.4,414.7,158.9z"/>
			<path d="M427.9,163.7c-0.3,0.3-0.6,0.4-0.9,0.4c-0.6,0-1.1-0.3-1.4-1c-0.3-0.7-0.5-1.5-0.5-2.5c-0.1-1-0.1-1.9-0.1-2.9
				c0-1-0.1-1.8-0.2-2.5c-0.1-0.7-0.4-1-0.8-1c-0.5,0-0.9,0.5-1.3,1.4s-0.6,2-0.8,3.1c-0.4,3.2-0.8,4.9-1.2,5.3
				c-0.3,0.1-0.5,0.2-0.7,0.2c-0.2,0-0.4,0-0.5-0.1c-0.3-1.3-0.5-3.7-0.6-7c0-1.6-0.1-2.7-0.1-3.2c0.3-0.2,0.6-0.3,0.8-0.3
				c0.2,0,0.4,0,0.5,0.1c0.1,0.6,0.1,1.9,0.1,3.9c0,2,0,3.1,0,3.4c0.1-0.3,0.2-0.8,0.3-1.5c0.1-0.7,0.2-1.3,0.3-1.7s0.2-1,0.4-1.6
				c0.2-0.6,0.4-1.1,0.6-1.4c0.2-0.4,0.6-0.7,1-0.9c0.4-0.3,0.9-0.4,1.4-0.4c0.7,0,1.2,0.3,1.5,0.9c0.3,0.6,0.5,1.4,0.5,2.3
				s0,1.9,0.1,2.8c0,1,0.1,1.8,0.4,2.6C427,162.9,427.4,163.5,427.9,163.7z"/>
			<path d="M433.2,153.3c1.3,0,2.3,0.5,2.8,1.6c0.3,0.6,0.5,1.1,0.7,1.6c0.2,0.5,0.3,1.2,0.4,2.1c0.1,1.4,0.1,2.9,0.1,4.7
				c0,1.7-0.4,3.1-1.2,4.2c-0.8,1-2,1.6-3.6,1.6s-2.9-0.5-4-1.5c0.3-0.3,0.6-0.4,1-0.4c0.3,0,0.8,0.2,1.4,0.5s1.3,0.5,1.9,0.5
				s1.3-0.2,1.7-0.5c0.5-0.3,0.8-0.8,1-1.3c0.4-1,0.5-2.3,0.5-3.7c0-0.2,0-1-0.1-2.4c-0.4,1.2-1,2.2-1.7,3s-1.6,1.2-2.5,1.2
				c-0.9,0-1.6-0.4-2-1.2c-0.4-0.8-0.6-1.8-0.6-2.8c0-1.1,0.1-2.1,0.4-3.1c0.3-1,0.8-1.9,1.4-2.6S432.3,153.3,433.2,153.3z
				 M430.9,156.6c-0.2,0.6-0.3,1.3-0.4,1.8c-0.1,0.6-0.1,1.1-0.1,1.7s0.1,1.2,0.4,1.9s0.6,1.1,1.1,1.1c0.9,0,1.7-0.7,2.5-2.1
				c0.7-1.4,1.1-2.8,1.1-4.2c0-0.5-0.2-1-0.7-1.6c-0.4-0.6-1-0.9-1.7-0.9c-0.5,0-0.9,0.2-1.2,0.7C431.4,155.5,431.1,156,430.9,156.6
				z"/>
			<path d="M441.4,154c-0.4,0.7-0.6,1.8-0.6,3.2c0,2.1,0.4,3.8,1.2,5.1c0.5,0.7,1,1.1,1.7,1.1s1.2-0.3,1.6-1c0.5-0.9,0.7-2,0.7-3.5
				c0-1.9-0.3-3.3-0.8-4.2c-0.2-0.4-0.4-0.7-0.4-0.9c0-0.2,0-0.3,0.1-0.4c0.1-0.1,0.4-0.1,0.7-0.1c0.9,0,1.5,0.9,1.8,2.8
				c0.1,0.5,0.1,1,0.1,1.5c0,1.3-0.3,2.7-0.8,4c-0.7,1.8-1.9,2.8-3.5,2.8c-0.9,0-1.6-0.3-2.2-0.9c-1.1-1.2-1.7-3-1.7-5.4
				c0-1.1,0.1-1.9,0.2-2.4s0.3-0.9,0.4-1.1c0.1-0.2,0.2-0.3,0.4-0.5s0.3-0.2,0.5-0.2C441,153.8,441.2,153.9,441.4,154z"/>
			<path d="M456.7,158l-0.1,2.5c0,1.3,0.1,2.1,0.4,2.6c0.2,0.3,0.4,0.4,0.7,0.4c0.1,0,0.2,0,0.4-0.1c0.3-0.1,0.6,0,0.8,0.1
				c-0.1,0.5-0.6,0.8-1.5,0.8c-0.6,0-1-0.3-1.3-0.8c-0.2-0.4-0.3-0.9-0.4-1.5c-0.1-0.6-0.1-1-0.2-1.2c-1,1.8-1.9,2.9-2.8,3.3
				c-0.5,0.2-1,0.3-1.6,0.3c-0.6,0-1.1-0.3-1.4-0.9c-0.3-0.6-0.5-1.4-0.5-2.5c0-1.1,0.2-2.3,0.5-3.5c0.4-1.2,0.9-2.3,1.6-3.1
				c0.7-0.8,1.5-1.3,2.3-1.3c1.2,0,2,0.5,2.4,1.5C456.5,155.5,456.7,156.6,456.7,158z M451.3,157.3c-0.2,0.8-0.4,1.6-0.5,2.3
				c-0.1,0.7-0.2,1.3-0.2,1.9s0.1,1,0.3,1.4c0.2,0.4,0.5,0.6,0.9,0.6c0.8,0,1.6-0.7,2.3-2.2s1.1-2.9,1.1-4.2c0-0.8-0.2-1.5-0.7-2.1
				c-0.3-0.4-0.7-0.5-1.2-0.5s-0.9,0.3-1.3,0.8C451.8,155.8,451.5,156.5,451.3,157.3z"/>
			<path d="M460.3,151.1c0-1.5-0.2-2.4-0.6-2.9c0.2-0.3,0.5-0.4,1-0.4c0.1,0,0.2,0,0.3,0c0.4,0.4,0.5,1.4,0.5,3.2c0,1,0,2.1-0.1,3.3
				c-0.2,2.2-0.3,3.8-0.3,4.8c0,2.8,0.5,4.2,1.6,4.2l0.8-0.2c0.1,0,0.2,0.1,0.3,0.2c0,0.5-0.5,0.8-1.3,0.8c-0.8,0-1.4-0.2-1.9-0.7
				c-0.4-0.5-0.7-1.1-0.8-1.8c-0.1-0.7-0.2-1.4-0.2-1.8c0-0.5,0-1,0-1.6c0-0.6,0.1-1.4,0.2-2.5C460.2,153.4,460.3,151.9,460.3,151.1
				z"/>
			<path d="M470.9,159.8c0,0.3,0,0.5,0,0.6c0,0.9,0.3,1.6,0.8,2c0.5,0.5,1.2,0.7,1.9,0.7s1.3-0.1,1.8-0.3c0.5-0.2,0.8-0.4,1-0.7
				c0.5-0.7,1-1,1.5-1c0.2,0,0.4,0,0.6,0.1c-0.1,0.7-0.7,1.4-1.7,2c-1,0.6-2.2,0.9-3.6,0.9c-1,0-1.9-0.3-2.7-1
				c-0.7-0.7-1.1-1.5-1.1-2.7c0-1.1,0.2-2.2,0.7-3.3c0.4-1.1,1.1-2,1.9-2.7c0.8-0.8,1.7-1.1,2.6-1.1c0.9,0,1.6,0.2,2.1,0.5
				c0.5,0.4,0.8,0.9,0.8,1.6c0,1.3-0.6,2.3-1.7,3.2c-1.1,0.8-2.3,1.2-3.6,1.2C471.8,159.9,471.4,159.9,470.9,159.8z M472.6,159.1
				c0.7,0,1.3-0.2,1.8-0.7c0.5-0.4,0.9-0.9,1.2-1.4c0.2-0.5,0.3-0.9,0.3-1.3c0-0.4-0.2-0.7-0.5-1c-0.3-0.3-0.7-0.5-1.1-0.5
				c-0.7,0-1.4,0.5-2,1.5c-0.6,1-1.1,2.1-1.3,3.1C471.7,159,472.2,159.1,472.6,159.1z"/>
			<path d="M479.5,154c0.2-0.3,0.6-0.5,0.9-0.5c0.1,0,0.3,0,0.4,0.1c0.3,2,1,3.8,1.9,5.4c0.6-1.2,1.4-2.9,2.3-5.1
				c0.4-0.2,0.6-0.3,0.8-0.3s0.4,0,0.5,0.1c-0.3,1-0.6,1.8-1,2.7c-0.4,0.8-0.8,1.6-1.1,2.3c-0.4,0.7-0.6,1.2-0.8,1.5
				c0.4,0.5,0.8,0.9,1,1.2c0.3,0.3,0.7,0.6,1.2,0.9c0.7,0.4,1.3,0.7,1.9,0.7c0.3,0,0.5,0.1,0.6,0.2c-0.2,0.5-0.6,0.7-1.2,0.7
				c-1,0-2.1-0.4-3.1-1.2c-0.4-0.3-0.6-0.5-0.7-0.6c-0.1-0.1-0.3-0.3-0.6-0.6c-0.1,0.2-0.3,0.5-0.5,0.9c-0.2,0.4-0.4,0.8-0.5,1
				c-0.1,0.3-0.3,0.5-0.6,0.6c-0.3,0.1-0.5,0.2-0.6,0.2s-0.4,0-0.5-0.1c0.2-0.5,0.6-1.1,1-2s0.8-1.4,0.9-1.7
				c-0.7-1.1-1.3-2.2-1.7-3.2C479.9,156.3,479.6,155.2,479.5,154z"/>
			<path d="M490,163.6c0,1.2,0.2,2.9,0.4,5c-0.3,0.3-0.6,0.4-1,0.4c-0.1,0-0.2,0-0.2,0c0-0.6-0.1-1.9-0.3-3.9
				c-0.2-2-0.3-3.6-0.3-4.7s0.1-2,0.2-2.8s0.4-1.5,0.7-2.2c0.7-1.4,1.9-2.1,3.7-2.1c1.1,0,2,0.6,2.7,1.8c0.7,1.2,1.1,2.6,1.1,4.2
				c0,1.3-0.4,2.4-1.2,3.3c-0.8,1-2,1.4-3.4,1.4C491.3,164.1,490.6,163.9,490,163.6z M492.9,154.5c-1.2,0-2.1,0.6-2.5,1.9
				c-0.4,1.1-0.5,2.6-0.5,4.6c0,0.7,0,1.2,0,1.6c1.3,0.3,2.2,0.4,2.7,0.4c0.8,0,1.5-0.3,2-1c0.5-0.7,0.7-1.5,0.7-2.5
				c0-1.5-0.2-2.6-0.6-3.6C494.3,155,493.7,154.5,492.9,154.5z"/>
			<path d="M499.8,155.2c0.7-1.1,1.8-1.7,3.2-1.7s2.5,0.6,3.4,1.7c0.8,1.1,1.3,2.4,1.3,3.9s-0.5,2.7-1.4,3.7s-2.1,1.5-3.5,1.5
				s-2.5-0.4-3.1-1.2c-0.6-0.8-1-1.9-1-3.4C498.7,157.8,499.1,156.3,499.8,155.2z M500.8,156.3c-0.2,0.6-0.3,1.2-0.4,1.7
				c-0.1,0.6-0.1,1.1-0.1,1.6s0,0.9,0.1,1.3s0.2,0.8,0.4,1.2c0.2,0.4,0.4,0.7,0.8,0.9c0.4,0.2,0.8,0.3,1.3,0.3c1,0,1.8-0.4,2.5-1.2
				c0.7-0.8,1-1.8,1-2.9c0-1.1-0.3-2.3-0.9-3.3c-0.6-1.1-1.4-1.6-2.2-1.6c-0.5,0-1,0.2-1.4,0.5C501.3,155.3,501,155.8,500.8,156.3z"
				/>
			<path d="M515.4,155.5c-0.1-0.3-0.4-0.6-0.7-0.8c-0.4-0.2-0.8-0.3-1.4-0.3c-0.5,0-1.1,0.2-1.5,0.5s-0.7,0.8-0.7,1.3s0.2,1,0.7,1.3
				s1,0.6,1.6,0.7c0.6,0.2,1.3,0.3,1.9,0.5c0.6,0.2,1.2,0.5,1.6,0.9s0.7,1,0.7,1.6c0,1-0.4,1.7-1.2,2.2c-0.8,0.5-1.8,0.8-2.9,0.8
				c-0.7,0-1.6-0.2-2.7-0.5c-1.1-0.4-1.6-0.8-1.6-1.3c0-0.4,0.3-0.6,1-0.6c0.2,0,0.4,0.1,0.7,0.4c0.9,0.7,1.9,1,2.9,1
				c0.5,0,1-0.1,1.4-0.3c0.7-0.3,1.1-0.9,1.1-1.6c0-0.5-0.2-0.8-0.7-1.1c-0.4-0.3-1-0.5-1.6-0.7c-0.6-0.2-1.3-0.3-1.9-0.5
				s-1.2-0.5-1.6-1s-0.7-1-0.7-1.7c0-0.9,0.4-1.6,1.2-2.2s1.8-0.8,3-0.8c0.8,0,1.5,0.2,2.2,0.6s1,1,1,1.8c0,0.5-0.3,0.8-0.9,0.8
				c-0.3,0-0.4,0-0.5-0.1s-0.1-0.2-0.1-0.5C515.4,155.8,515.4,155.6,515.4,155.5z"/>
			<path d="M521.2,154c-0.4,0.7-0.6,1.8-0.6,3.2c0,2.1,0.4,3.8,1.2,5.1c0.5,0.7,1,1.1,1.7,1.1s1.2-0.3,1.6-1c0.5-0.9,0.7-2,0.7-3.5
				c0-1.9-0.3-3.3-0.8-4.2c-0.2-0.4-0.4-0.7-0.4-0.9c0-0.2,0-0.3,0.1-0.4c0.1-0.1,0.4-0.1,0.7-0.1c0.9,0,1.5,0.9,1.8,2.8
				c0.1,0.5,0.1,1,0.1,1.5c0,1.3-0.3,2.7-0.8,4c-0.7,1.8-1.9,2.8-3.5,2.8c-0.9,0-1.6-0.3-2.2-0.9c-1.1-1.2-1.7-3-1.7-5.4
				c0-1.1,0.1-1.9,0.2-2.4s0.3-0.9,0.4-1.1c0.1-0.2,0.2-0.3,0.4-0.5s0.3-0.2,0.5-0.2C520.8,153.8,521,153.9,521.2,154z"/>
			<path d="M531.7,162.1l0.1,1.3c0,0.3-0.1,0.5-0.3,0.7c-0.2,0.1-0.4,0.2-0.5,0.2c-0.2,0-0.4,0-0.6-0.1c-0.3-1.7-0.6-3.8-0.7-6.4
				c-0.2-2.5-0.3-4-0.3-4.3c0.2-0.2,0.5-0.3,0.7-0.3s0.5,0,0.6,0.1c0.1,0.4,0.1,1.4,0.1,2.8s0.1,2.4,0.1,2.7
				c0.2-1.2,0.6-2.4,1.1-3.5c0.3-0.6,0.7-1.1,1.2-1.4c0.5-0.4,1-0.5,1.5-0.5c0.6,0,1.1,0.2,1.5,0.7s0.7,0.9,0.7,1.3
				c0,0.1-0.1,0.3-0.3,0.3c-0.2,0.1-0.4,0.1-0.6,0.1s-0.4-0.1-0.5-0.2c-0.1-0.2-0.2-0.3-0.2-0.5c0-0.2-0.1-0.4-0.3-0.5
				c-0.1-0.2-0.3-0.2-0.6-0.2c-0.7,0-1.2,0.6-1.7,1.8C532,157.9,531.7,159.9,531.7,162.1z"/>
			<path d="M539,159.8c0,0.3,0,0.5,0,0.6c0,0.9,0.3,1.6,0.8,2c0.5,0.5,1.2,0.7,1.9,0.7s1.3-0.1,1.8-0.3c0.5-0.2,0.8-0.4,1-0.7
				c0.5-0.7,1-1,1.5-1c0.2,0,0.4,0,0.6,0.1c-0.1,0.7-0.7,1.4-1.7,2c-1,0.6-2.2,0.9-3.6,0.9c-1,0-1.9-0.3-2.7-1
				c-0.7-0.7-1.1-1.5-1.1-2.7c0-1.1,0.2-2.2,0.7-3.3c0.4-1.1,1.1-2,1.9-2.7c0.8-0.8,1.7-1.1,2.6-1.1c0.9,0,1.6,0.2,2.1,0.5
				c0.5,0.4,0.8,0.9,0.8,1.6c0,1.3-0.6,2.3-1.7,3.2c-1.1,0.8-2.3,1.2-3.6,1.2C539.9,159.9,539.5,159.9,539,159.8z M540.7,159.1
				c0.7,0,1.3-0.2,1.8-0.7c0.5-0.4,0.9-0.9,1.2-1.4c0.2-0.5,0.3-0.9,0.3-1.3c0-0.4-0.2-0.7-0.5-1c-0.3-0.3-0.7-0.5-1.1-0.5
				c-0.7,0-1.4,0.5-2,1.5c-0.6,1-1.1,2.1-1.3,3.1C539.8,159,540.3,159.1,540.7,159.1z"/>
			<path d="M554.9,164.5c-0.3,0-0.4-2.2-0.4-6.7c0-1.9,0-3,0-3.4h-0.4c-0.2,0-0.4,0-0.5,0c-0.1,0-0.3,0-0.5,0c-0.2,0-0.3,0-0.4-0.1
				c-0.1,0-0.2-0.1-0.3-0.1c-0.2-0.1-0.3-0.2-0.3-0.5c0-0.3,0.5-0.4,1.4-0.4c0.4,0,0.8,0,1.1,0c0-0.3,0-0.7,0-1.1c0-0.5,0-0.8,0-1.1
				c0-0.3,0-0.6,0.1-0.9c0-0.4,0.1-0.7,0.1-0.9c0.1-0.2,0.1-0.4,0.2-0.7s0.2-0.5,0.4-0.6c0.1-0.1,0.3-0.3,0.5-0.4
				c0.3-0.2,0.9-0.4,1.7-0.4s1.4,0.2,1.7,0.6s0.7,1,1,2c-0.2,0.3-0.5,0.4-0.8,0.4c-0.1,0-0.2,0-0.3,0c-0.3-0.7-0.5-1.2-0.7-1.4
				c-0.2-0.2-0.5-0.4-0.9-0.4c-0.4,0-0.6,0.1-0.8,0.2s-0.3,0.3-0.4,0.5c-0.2,0.4-0.3,1.5-0.3,3.2c0,0.1,0,0.2,0,0.4
				c0,0.2,0,0.4,0,0.5l1.9-0.2c0.7,0,1.1,0.2,1.1,0.5c0,0.2-0.2,0.4-0.5,0.4c-0.4,0.1-0.8,0.1-1.3,0.1c-0.5,0-0.9,0.1-1.1,0.1
				c0,0.4,0,1,0,1.6s0,1.7,0.1,3.2c0.1,1.4,0.1,2.5,0.1,3.3c0,0.8-0.1,1.3-0.2,1.6C555.7,164.3,555.4,164.5,554.9,164.5z"/>
			<path d="M560.6,155.2c0.7-1.1,1.8-1.7,3.2-1.7s2.5,0.6,3.4,1.7c0.8,1.1,1.3,2.4,1.3,3.9s-0.5,2.7-1.4,3.7s-2.1,1.5-3.5,1.5
				s-2.5-0.4-3.1-1.2c-0.6-0.8-1-1.9-1-3.4C559.5,157.8,559.8,156.3,560.6,155.2z M561.6,156.3c-0.2,0.6-0.3,1.2-0.4,1.7
				c-0.1,0.6-0.1,1.1-0.1,1.6s0,0.9,0.1,1.3s0.2,0.8,0.4,1.2c0.2,0.4,0.4,0.7,0.8,0.9c0.4,0.2,0.8,0.3,1.3,0.3c1,0,1.8-0.4,2.5-1.2
				c0.7-0.8,1-1.8,1-2.9c0-1.1-0.3-2.3-0.9-3.3c-0.6-1.1-1.4-1.6-2.2-1.6c-0.5,0-1,0.2-1.4,0.5C562.1,155.3,561.8,155.8,561.6,156.3
				z"/>
			<path d="M572.8,162.1l0.1,1.3c0,0.3-0.1,0.5-0.3,0.7c-0.2,0.1-0.4,0.2-0.5,0.2c-0.2,0-0.4,0-0.6-0.1c-0.3-1.7-0.6-3.8-0.7-6.4
				c-0.2-2.5-0.3-4-0.3-4.3c0.2-0.2,0.5-0.3,0.7-0.3s0.5,0,0.6,0.1c0.1,0.4,0.1,1.4,0.1,2.8s0.1,2.4,0.1,2.7
				c0.2-1.2,0.6-2.4,1.1-3.5c0.3-0.6,0.7-1.1,1.2-1.4c0.5-0.4,1-0.5,1.5-0.5c0.6,0,1.1,0.2,1.5,0.7s0.7,0.9,0.7,1.3
				c0,0.1-0.1,0.3-0.3,0.3c-0.2,0.1-0.4,0.1-0.6,0.1s-0.4-0.1-0.5-0.2c-0.1-0.2-0.2-0.3-0.2-0.5c0-0.2-0.1-0.4-0.3-0.5
				c-0.1-0.2-0.3-0.2-0.6-0.2c-0.7,0-1.2,0.6-1.7,1.8C573.1,157.9,572.8,159.9,572.8,162.1z"/>
			<path d="M585.1,155.2c0.7-1.1,1.8-1.7,3.2-1.7s2.5,0.6,3.4,1.7c0.8,1.1,1.3,2.4,1.3,3.9s-0.5,2.7-1.4,3.7s-2.1,1.5-3.5,1.5
				s-2.5-0.4-3.1-1.2c-0.6-0.8-1-1.9-1-3.4C584,157.8,584.4,156.3,585.1,155.2z M586.1,156.3c-0.2,0.6-0.3,1.2-0.4,1.7
				c-0.1,0.6-0.1,1.1-0.1,1.6s0,0.9,0.1,1.3s0.2,0.8,0.4,1.2c0.2,0.4,0.4,0.7,0.8,0.9c0.4,0.2,0.8,0.3,1.3,0.3c1,0,1.8-0.4,2.5-1.2
				c0.7-0.8,1-1.8,1-2.9c0-1.1-0.3-2.3-0.9-3.3c-0.6-1.1-1.4-1.6-2.2-1.6c-0.5,0-1,0.2-1.4,0.5C586.6,155.3,586.3,155.8,586.1,156.3
				z"/>
			<path d="M596.9,154c-0.4,0.7-0.6,1.8-0.6,3.2c0,2.1,0.4,3.8,1.2,5.1c0.5,0.7,1,1.1,1.7,1.1s1.2-0.3,1.6-1c0.5-0.9,0.7-2,0.7-3.5
				c0-1.9-0.3-3.3-0.8-4.2c-0.2-0.4-0.4-0.7-0.4-0.9c0-0.2,0-0.3,0.1-0.4c0.1-0.1,0.4-0.1,0.7-0.1c0.9,0,1.5,0.9,1.8,2.8
				c0.1,0.5,0.1,1,0.1,1.5c0,1.3-0.3,2.7-0.8,4c-0.7,1.8-1.9,2.8-3.5,2.8c-0.9,0-1.6-0.3-2.2-0.9c-1.1-1.2-1.7-3-1.7-5.4
				c0-1.1,0.1-1.9,0.2-2.4s0.3-0.9,0.4-1.1c0.1-0.2,0.2-0.3,0.4-0.5s0.3-0.2,0.5-0.2C596.5,153.8,596.7,153.9,596.9,154z"/>
			<path d="M607.4,162.1l0.1,1.3c0,0.3-0.1,0.5-0.3,0.7c-0.2,0.1-0.4,0.2-0.5,0.2c-0.2,0-0.4,0-0.6-0.1c-0.3-1.7-0.6-3.8-0.7-6.4
				c-0.2-2.5-0.3-4-0.3-4.3c0.2-0.2,0.5-0.3,0.7-0.3s0.5,0,0.6,0.1c0.1,0.4,0.1,1.4,0.1,2.8s0.1,2.4,0.1,2.7
				c0.2-1.2,0.6-2.4,1.1-3.5c0.3-0.6,0.7-1.1,1.2-1.4c0.5-0.4,1-0.5,1.5-0.5c0.6,0,1.1,0.2,1.5,0.7s0.7,0.9,0.7,1.3
				c0,0.1-0.1,0.3-0.3,0.3c-0.2,0.1-0.4,0.1-0.6,0.1s-0.4-0.1-0.5-0.2c-0.1-0.2-0.2-0.3-0.2-0.5c0-0.2-0.1-0.4-0.3-0.5
				c-0.1-0.2-0.3-0.2-0.6-0.2c-0.7,0-1.2,0.6-1.7,1.8C607.7,157.9,607.4,159.9,607.4,162.1z"/>
			<path d="M19.3,180.4c-0.4,0.7-0.6,1.8-0.6,3.2c0,2.1,0.4,3.8,1.2,5.1c0.5,0.7,1,1.1,1.7,1.1s1.2-0.3,1.6-1c0.5-0.9,0.7-2,0.7-3.5
				c0-1.9-0.3-3.3-0.8-4.2c-0.2-0.4-0.4-0.7-0.4-0.9c0-0.2,0-0.3,0.1-0.4c0.1-0.1,0.4-0.1,0.7-0.1c0.9,0,1.5,0.9,1.8,2.8
				c0.1,0.5,0.1,1,0.1,1.5c0,1.3-0.3,2.7-0.8,4c-0.7,1.8-1.9,2.8-3.5,2.8c-0.9,0-1.6-0.3-2.2-0.9c-1.1-1.2-1.7-3-1.7-5.4
				c0-1.1,0.1-1.9,0.2-2.4s0.3-0.9,0.4-1.1c0.1-0.2,0.2-0.3,0.4-0.5s0.3-0.2,0.5-0.2C18.8,180.2,19,180.3,19.3,180.4z"/>
			<path d="M33.1,181.9c-0.1-0.3-0.4-0.6-0.7-0.8c-0.4-0.2-0.8-0.3-1.4-0.3c-0.5,0-1.1,0.2-1.5,0.5s-0.7,0.8-0.7,1.3s0.2,1,0.7,1.3
				s1,0.6,1.6,0.7c0.6,0.2,1.3,0.3,1.9,0.5c0.6,0.2,1.2,0.5,1.6,0.9s0.7,1,0.7,1.6c0,1-0.4,1.7-1.2,2.2c-0.8,0.5-1.8,0.8-2.9,0.8
				c-0.7,0-1.6-0.2-2.7-0.5c-1.1-0.4-1.6-0.8-1.6-1.3c0-0.4,0.3-0.6,1-0.6c0.2,0,0.4,0.1,0.7,0.4c0.9,0.7,1.9,1,2.9,1
				c0.5,0,1-0.1,1.4-0.3c0.7-0.3,1.1-0.9,1.1-1.6c0-0.5-0.2-0.8-0.7-1.1c-0.4-0.3-1-0.5-1.6-0.7c-0.6-0.2-1.3-0.3-1.9-0.5
				s-1.2-0.5-1.6-1s-0.7-1-0.7-1.7c0-0.9,0.4-1.6,1.2-2.2s1.8-0.8,3-0.8c0.8,0,1.5,0.2,2.2,0.6s1,1,1,1.8c0,0.5-0.3,0.8-0.9,0.8
				c-0.3,0-0.4,0-0.5-0.1s-0.1-0.2-0.1-0.5C33.1,182.2,33.1,182,33.1,181.9z"/>
			<path d="M38.3,186.2c0,0.3,0,0.5,0,0.6c0,0.9,0.3,1.6,0.8,2c0.5,0.5,1.2,0.7,1.9,0.7s1.3-0.1,1.8-0.3c0.5-0.2,0.8-0.4,1-0.7
				c0.5-0.7,1-1,1.5-1c0.2,0,0.4,0,0.6,0.1c-0.1,0.7-0.7,1.4-1.7,2c-1,0.6-2.2,0.9-3.6,0.9c-1,0-1.9-0.3-2.7-1
				c-0.7-0.7-1.1-1.5-1.1-2.7c0-1.1,0.2-2.2,0.7-3.3c0.4-1.1,1.1-2,1.9-2.7c0.8-0.8,1.7-1.1,2.6-1.1c0.9,0,1.6,0.2,2.1,0.5
				c0.5,0.4,0.8,0.9,0.8,1.6c0,1.3-0.6,2.3-1.7,3.2c-1.1,0.8-2.3,1.2-3.6,1.2C39.1,186.3,38.7,186.3,38.3,186.2z M39.9,185.5
				c0.7,0,1.3-0.2,1.8-0.7c0.5-0.4,0.9-0.9,1.2-1.4c0.2-0.5,0.3-0.9,0.3-1.3c0-0.4-0.2-0.7-0.5-1c-0.3-0.3-0.7-0.5-1.1-0.5
				c-0.7,0-1.4,0.5-2,1.5c-0.6,1-1.1,2.1-1.3,3.1C39,185.4,39.5,185.5,39.9,185.5z"/>
			<path d="M49.7,188.5l0.1,1.3c0,0.3-0.1,0.5-0.3,0.7c-0.2,0.1-0.4,0.2-0.5,0.2c-0.2,0-0.4,0-0.6-0.1c-0.3-1.7-0.6-3.8-0.7-6.4
				c-0.2-2.5-0.3-4-0.3-4.3c0.2-0.2,0.5-0.3,0.7-0.3s0.5,0,0.6,0.1c0.1,0.4,0.1,1.4,0.1,2.8s0.1,2.4,0.1,2.7
				c0.2-1.2,0.6-2.4,1.1-3.5c0.3-0.6,0.7-1.1,1.2-1.4c0.5-0.4,1-0.5,1.5-0.5c0.6,0,1.1,0.2,1.5,0.7s0.7,0.9,0.7,1.3
				c0,0.1-0.1,0.3-0.3,0.3c-0.2,0.1-0.4,0.1-0.6,0.1s-0.4-0.1-0.5-0.2c-0.1-0.2-0.2-0.3-0.2-0.5c0-0.2-0.1-0.4-0.3-0.5
				c-0.1-0.2-0.3-0.2-0.6-0.2c-0.7,0-1.2,0.6-1.7,1.8C50.1,184.3,49.7,186.3,49.7,188.5z"/>
			<path d="M61.8,181.9c-0.1-0.3-0.4-0.6-0.7-0.8c-0.4-0.2-0.8-0.3-1.4-0.3c-0.5,0-1.1,0.2-1.5,0.5s-0.7,0.8-0.7,1.3s0.2,1,0.7,1.3
				s1,0.6,1.6,0.7c0.6,0.2,1.3,0.3,1.9,0.5c0.6,0.2,1.2,0.5,1.6,0.9s0.7,1,0.7,1.6c0,1-0.4,1.7-1.2,2.2c-0.8,0.5-1.8,0.8-2.9,0.8
				c-0.7,0-1.6-0.2-2.7-0.5c-1.1-0.4-1.6-0.8-1.6-1.3c0-0.4,0.3-0.6,1-0.6c0.2,0,0.4,0.1,0.7,0.4c0.9,0.7,1.9,1,2.9,1
				c0.5,0,1-0.1,1.4-0.3c0.7-0.3,1.1-0.9,1.1-1.6c0-0.5-0.2-0.8-0.7-1.1c-0.4-0.3-1-0.5-1.6-0.7c-0.6-0.2-1.3-0.3-1.9-0.5
				s-1.2-0.5-1.6-1s-0.7-1-0.7-1.7c0-0.9,0.4-1.6,1.2-2.2s1.8-0.8,3-0.8c0.8,0,1.5,0.2,2.2,0.6s1,1,1,1.8c0,0.5-0.3,0.8-0.9,0.8
				c-0.3,0-0.4,0-0.5-0.1s-0.1-0.2-0.1-0.5C61.9,182.2,61.9,182,61.8,181.9z"/>
			<path d="M67,191.4c-0.3,0-0.6-0.1-0.9-0.3c-0.3-0.2-0.5-0.4-0.5-0.7s0.2-0.5,0.5-0.8c0.3-0.3,0.7-0.4,1-0.4
				c0.3,0,0.6,0.1,0.9,0.3c0.2,0.2,0.4,0.4,0.4,0.7s-0.2,0.6-0.5,0.8C67.6,191.2,67.3,191.4,67,191.4z"/>
		</g>
	</g>
</g>
<g>
	<circle class="st1" cx="101.1" cy="70.4" r="29.5"/>
	<g>
		<path class="st2" d="M94.9,69.8c-0.1,0-0.1-0.1-0.2-0.1s-0.1-0.1-0.2-0.2c-0.1-0.1-0.1-0.1-0.2-0.2s-0.1-0.2-0.2-0.2
			C94.1,69.1,94,69,94,68.9c-0.1-0.1-0.2-0.1-0.3-0.2c-0.1-0.1-0.2-0.1-0.3-0.2c-0.1-0.1-0.2-0.1-0.4-0.2c-0.3-0.1-0.6-0.2-0.9-0.3
			C91.7,68,91.3,68,90.9,68c-1,0-2,0.2-2.7,0.6c-0.8,0.4-1.4,0.9-2,1.6s-0.9,1.5-1.2,2.3s-0.4,1.6-0.4,2.5c0,0,0,0.1,0,0.1v0
			c0,0.8,0.1,1.5,0.4,2.2c0.3,0.7,0.7,1.4,1.2,2c0.5,0.6,1.2,1.1,2,1.4c0.8,0.3,1.7,0.5,2.7,0.5c1.1,0,2-0.1,2.7-0.4
			c0.7-0.3,1.3-0.6,1.7-1.1c0.4-0.5,0.7-1.2,1-1.9c0.3-0.7,0.6-1.5,0.8-2.4v0l0,0v0l3.5,0.2c0,0.1,0,0.1,0,0.1s0,0.1,0,0.1
			c0,0.1,0,0.1,0,0.1c0,0,0,0.1,0,0.1c0,0,0,0.1,0,0.1s0,0.1,0,0.1c0,0.1,0,0.1,0,0.1c0,0,0,0.1,0,0.1c0,0.2,0,0.4,0,0.7
			s-0.1,0.5-0.1,0.7c0,0.1-0.1,0.2-0.1,0.4c0,0.1-0.1,0.3-0.1,0.4c-0.1,0.1-0.1,0.3-0.1,0.4c0,0.1-0.1,0.2-0.1,0.4
			c-0.3,0.7-0.7,1.3-1.3,2c-0.5,0.6-1.2,1.2-2,1.8c-0.7,0.6-1.6,1-2.6,1.3c-1,0.3-2.1,0.4-3.3,0.4c-1.4,0-2.7-0.2-3.9-0.7
			c-1.2-0.4-2.3-1.1-3.2-2c-1-0.9-1.7-2-2.2-3.1c-0.5-1.2-0.7-2.4-0.7-3.9c0-1.5,0.2-2.8,0.6-4c0.4-1.1,1-2.1,1.8-3
			c0.8-0.8,1.6-1.5,2.5-2c0.9-0.5,1.8-0.9,2.8-1.2c0.1,0,0.2,0,0.3-0.1c0.1,0,0.2,0,0.3-0.1c0.1,0,0.2,0,0.3,0c0.1,0,0.2,0,0.3-0.1
			c0.2,0,0.4,0,0.6-0.1c0.2,0,0.4,0,0.6,0c1.1,0,2.1,0.2,3.1,0.5c0.9,0.3,1.8,0.8,2.6,1.4c0.8,0.6,1.5,1.3,2.1,2
			c0.6,0.7,1.2,1.5,1.7,2.4L87.1,78l-1.6-2.8L94.9,69.8z"/>
		<path class="st2" d="M104.4,72.4c0-1.1,0.2-2.1,0.6-3c0.4-0.9,0.9-1.8,1.7-2.7c0.8-0.8,1.7-1.4,2.7-1.8c1-0.4,2.2-0.6,3.6-0.6
			c0.2,0,0.4,0,0.7,0c0.3,0,0.5,0.1,0.8,0.1c0.3,0.1,0.6,0.1,0.9,0.2c0.3,0.1,0.6,0.2,0.9,0.3c0.6,0.2,1.1,0.5,1.6,0.9
			c0.5,0.4,1,0.8,1.5,1.4c0.5,0.5,0.8,1.1,1.1,1.9c0.2,0.7,0.4,1.6,0.4,2.6c0,0,0,0.1,0,0.1s0,0.1,0,0.1c0,0,0,0.1,0,0.1
			c0,0,0,0.1,0,0.1V84H117V72.7c0-0.6-0.1-1.2-0.3-1.7c-0.2-0.6-0.4-1.1-0.8-1.6c-0.3-0.5-0.8-0.9-1.4-1.2c-0.6-0.3-1.2-0.4-2-0.4
			c-0.7,0-1.4,0.1-1.9,0.4c-0.5,0.2-1,0.6-1.4,1.1c-0.4,0.5-0.7,1-0.9,1.5s-0.4,1.1-0.5,1.7V84h-3.5V72.4z"/>
	</g>
</g>
<g>
	<circle class="st3" cx="191.1" cy="70.4" r="29.5"/>
	<g>
		<path d="M189.2,56.3v18c0,0.1,0,0.1,0,0.1c0,0,0,0.1,0,0.1c0,0,0,0.1,0,0.1c0,0,0,0.1,0,0.1c0,0,0,0,0,0.1c0,0,0,0,0,0.1
			c0,0,0,0.1,0,0.1c0,0,0,0.1,0,0.1c0,0.3,0,0.6-0.1,0.9c0,0.3-0.1,0.7-0.2,1c-0.1,0.3-0.2,0.7-0.3,1.1c-0.1,0.4-0.2,0.8-0.4,1.1
			c-0.3,0.7-0.7,1.4-1.2,2c-0.5,0.6-1.1,1.3-1.7,1.8c-0.7,0.6-1.5,1-2.4,1.3c-0.9,0.3-1.9,0.4-3.1,0.4c0,0-0.1,0-0.1,0s-0.1,0-0.1,0
			c0,0-0.1,0-0.1,0s-0.1,0-0.1,0c-1.6-0.1-3-0.3-4.2-0.8s-2.1-1.1-2.9-1.9c-0.7-0.8-1.3-1.7-1.8-2.6c-0.4-0.9-0.7-1.9-0.8-2.8
			c0-0.1-0.1-0.3-0.1-0.4c0-0.1,0-0.3,0-0.4s0-0.3,0-0.4s0-0.3,0-0.4c0,0,0,0,0-0.1c0,0,0,0,0-0.1c0,0,0-0.1,0-0.1c0,0,0-0.1,0-0.1
			c0,0,0,0,0-0.1c0,0,0,0,0-0.1c0,0,0-0.1,0-0.1c0,0,0-0.1,0-0.1c0-1.3,0.1-2.4,0.4-3.4c0.3-1,0.8-1.9,1.4-2.6
			c0.6-0.7,1.3-1.4,2-1.9s1.5-0.9,2.2-1.2c0.2-0.1,0.4-0.2,0.7-0.2c0.2-0.1,0.5-0.1,0.7-0.1c0.2-0.1,0.4-0.1,0.7-0.1
			c0.2,0,0.4,0,0.7,0c0.9,0,1.6,0,2.2,0.1c0.6,0.1,1.1,0.2,1.5,0.3c0.4,0.1,0.8,0.2,1.1,0.4c0.3,0.1,0.6,0.3,0.8,0.5v3.7
			c-0.1,0-0.1,0-0.2-0.1s-0.1-0.1-0.2-0.1c0,0-0.1-0.1-0.1-0.1c-0.1,0-0.1-0.1-0.1-0.1c-0.1,0-0.1,0-0.1,0c0,0-0.1-0.1-0.1-0.1
			c-0.3-0.1-0.6-0.3-0.9-0.4c-0.3-0.1-0.7-0.2-1.1-0.3c-0.4-0.1-0.8-0.2-1.2-0.3c-0.4-0.1-0.8-0.1-1.2-0.1c-0.1,0-0.1,0-0.2,0
			s-0.1,0-0.2,0c0,0-0.1,0-0.1,0s-0.1,0-0.1,0c0,0-0.1,0-0.1,0c0,0-0.1,0-0.1,0c-0.6,0.1-1.2,0.3-1.8,0.6c-0.6,0.3-1.1,0.7-1.7,1.3
			c-0.5,0.5-0.9,1.2-1.2,1.9c-0.3,0.7-0.4,1.6-0.4,2.5c0,0,0,0.1,0,0.1c0,0,0,0.1,0,0.1c0,0,0,0.1,0,0.1c0,0,0,0.1,0,0.1
			c0,0,0,0.1,0,0.1c0,0,0,0.1,0,0.1c0,0,0,0.1,0,0.1c0,0,0,0.1,0,0.1c0.1,0.9,0.3,1.7,0.5,2.3c0.3,0.7,0.6,1.2,1,1.6
			c0.4,0.4,0.8,0.8,1.2,1c0.4,0.3,0.9,0.5,1.4,0.6c0.2,0.1,0.4,0.1,0.7,0.2c0.2,0.1,0.4,0.1,0.7,0.1c0.2,0,0.4,0,0.6,0s0.4,0,0.6,0
			c1,0,1.9-0.2,2.6-0.6s1.3-1,1.7-1.8c0.4-0.8,0.7-1.7,1-2.6c0.2-1,0.3-2,0.3-3.1V56.3H189.2z"/>
		<path d="M206.2,69.8c-0.1,0-0.1-0.1-0.2-0.1s-0.1-0.1-0.2-0.2c-0.1-0.1-0.1-0.1-0.2-0.2s-0.1-0.2-0.2-0.2
			c-0.1-0.1-0.2-0.1-0.3-0.2c-0.1-0.1-0.2-0.1-0.3-0.2c-0.1-0.1-0.2-0.1-0.3-0.2c-0.1-0.1-0.2-0.1-0.4-0.2c-0.3-0.1-0.6-0.2-0.9-0.3
			c-0.4-0.1-0.8-0.1-1.2-0.1c-1,0-2,0.2-2.7,0.6c-0.8,0.4-1.4,0.9-2,1.6s-0.9,1.5-1.2,2.3s-0.4,1.6-0.4,2.5c0,0,0,0.1,0,0.1v0
			c0,0.8,0.1,1.5,0.4,2.2c0.3,0.7,0.7,1.4,1.2,2c0.5,0.6,1.2,1.1,2,1.4c0.8,0.3,1.7,0.5,2.7,0.5c1.1,0,2-0.1,2.7-0.4
			c0.7-0.3,1.3-0.6,1.7-1.1c0.4-0.5,0.7-1.2,1-1.9c0.3-0.7,0.6-1.5,0.8-2.4v0l0,0v0l3.5,0.2c0,0.1,0,0.1,0,0.1s0,0.1,0,0.1
			c0,0.1,0,0.1,0,0.1c0,0,0,0.1,0,0.1c0,0,0,0.1,0,0.1s0,0.1,0,0.1c0,0.1,0,0.1,0,0.1c0,0,0,0.1,0,0.1c0,0.2,0,0.4,0,0.7
			s-0.1,0.5-0.1,0.7c0,0.1-0.1,0.2-0.1,0.4c0,0.1-0.1,0.3-0.1,0.4c-0.1,0.1-0.1,0.3-0.1,0.4c0,0.1-0.1,0.2-0.1,0.4
			c-0.3,0.7-0.7,1.3-1.3,2c-0.5,0.6-1.2,1.2-2,1.8c-0.7,0.6-1.6,1-2.6,1.3c-1,0.3-2.1,0.4-3.3,0.4c-1.4,0-2.7-0.2-3.9-0.7
			c-1.2-0.4-2.3-1.1-3.2-2c-1-0.9-1.7-2-2.2-3.1c-0.5-1.2-0.7-2.4-0.7-3.9c0-1.5,0.2-2.8,0.6-4c0.4-1.1,1-2.1,1.8-3
			c0.8-0.8,1.6-1.5,2.5-2c0.9-0.5,1.8-0.9,2.8-1.2c0.1,0,0.2,0,0.3-0.1c0.1,0,0.2,0,0.3-0.1c0.1,0,0.2,0,0.3,0c0.1,0,0.2,0,0.3-0.1
			c0.2,0,0.4,0,0.6-0.1c0.2,0,0.4,0,0.6,0c1.1,0,2.1,0.2,3.1,0.5c0.9,0.3,1.8,0.8,2.6,1.4c0.8,0.6,1.5,1.3,2.1,2
			c0.6,0.7,1.2,1.5,1.7,2.4L198.3,78l-1.6-2.8L206.2,69.8z"/>
	</g>
</g>
<g>
	<circle class="st3" cx="371.1" cy="70.4" r="29.5"/>
	<g>
		<path d="M362.2,63.2c0-1,0.1-1.8,0.3-2.5c0.2-0.7,0.5-1.3,0.9-1.8c0.4-0.5,0.8-0.9,1.3-1.2c0.5-0.3,0.9-0.6,1.4-0.8
			c0.1-0.1,0.3-0.1,0.4-0.1c0.1,0,0.2-0.1,0.4-0.1c0.1,0,0.2-0.1,0.3-0.1c0.1,0,0.2-0.1,0.3-0.1c0.2-0.1,0.5-0.1,0.7-0.1
			c0.2,0,0.4,0,0.6,0l3.2-0.1v3.5h-2.5c-0.8,0.1-1.5,0.2-2,0.4c-0.5,0.2-0.9,0.5-1.1,0.9c-0.2,0.4-0.4,0.8-0.5,1.2
			c-0.1,0.4-0.2,0.9-0.2,1.4c0,0.1,0,0.2,0,0.3c0,0.1,0,0.2,0,0.3c0,0.1,0,0.2,0,0.3c0,0.1,0,0.2,0,0.2c0,0,0,0.1,0,0.1
			c0,0,0,0.1,0,0.1c0,0,0,0.1,0,0.1s0,0.1,0,0.1l5.6-0.1v3.4h-5.6V84h-3.5V63.2z"/>
		<path d="M376.1,64.8v1.9c0.1,0,0.1-0.1,0.1-0.1c0-0.1,0.1-0.1,0.2-0.2c0.1-0.1,0.1-0.2,0.2-0.2c0.1-0.1,0.2-0.2,0.2-0.2
			c0.2-0.2,0.4-0.4,0.7-0.6c0.3-0.2,0.6-0.4,0.9-0.5c0.3-0.2,0.7-0.3,1.1-0.4c0.4-0.1,0.8-0.1,1.3-0.1l1.3-0.1v3.5h-1
			c-0.7,0.1-1.4,0.3-1.9,0.6c-0.5,0.3-1,0.6-1.4,1c-0.3,0.4-0.6,0.8-0.9,1.3s-0.4,0.9-0.5,1.3c-0.1,0.3-0.2,0.7-0.2,1
			c-0.1,0.3-0.1,0.6-0.1,0.9c0,0.3,0,0.6,0,0.8c0,0.2,0,0.5,0,0.7V84h-3.5V64.8H376.1z"/>
	</g>
</g>
<g>
	<circle class="st1" cx="281.1" cy="70.4" r="29.5"/>
	<g>
		<path class="st2" d="M263,84.4h1.6c0.1,0,0.1,0,0.1,0c0,0,0.1,0,0.1,0s0,0,0.1,0c0,0,0,0,0.1,0c0,0,0,0,0.1,0c0,0,0,0,0.1,0
			s0,0,0.1,0c0,0,0,0,0.1,0c0.5,0,0.9-0.1,1.3-0.2c0.4-0.2,0.7-0.4,0.9-0.7c0.2-0.3,0.4-0.7,0.5-1c0.1-0.3,0.3-0.7,0.3-1.1
			c0-0.2,0-0.3,0.1-0.5c0-0.2,0-0.3,0-0.4c0-0.1,0-0.2,0-0.2c0-0.1,0-0.1,0-0.2c0-0.1,0-0.2,0-0.2c0-0.1,0-0.1,0-0.2V59.8h3.4v21.7
			c0,0.8-0.1,1.5-0.4,2.2c-0.3,0.7-0.7,1.4-1.4,2c-0.6,0.6-1.3,1.1-2.2,1.4c-0.9,0.3-1.8,0.6-2.9,0.6h-2V84.4z M268.2,54.7
			c0.1-0.3,0.3-0.5,0.5-0.7c0.2-0.2,0.4-0.4,0.7-0.5c0.3-0.1,0.5-0.1,0.8-0.1c0.3,0,0.6,0,0.8,0.1c0.2,0.1,0.5,0.2,0.7,0.4
			c0.2,0.2,0.4,0.4,0.5,0.7c0.1,0.3,0.2,0.6,0.2,1c0,0.3-0.1,0.7-0.2,0.9c-0.1,0.3-0.3,0.5-0.5,0.7c-0.2,0.2-0.5,0.3-0.7,0.4
			c-0.2,0.1-0.5,0.1-0.8,0.1c-0.3,0-0.5,0-0.8-0.1c-0.3-0.1-0.5-0.2-0.8-0.4c-0.2-0.2-0.4-0.4-0.5-0.7c-0.1-0.3-0.2-0.6-0.2-0.9
			v-0.1C268,55.3,268.1,55,268.2,54.7z"/>
		<path class="st2" d="M275.9,69.2c0-1.4,0.2-2.6,0.5-3.7s0.9-2,1.6-2.8c0.7-0.8,1.5-1.4,2.3-1.9c0.8-0.5,1.6-0.9,2.5-1.2
			c0.2-0.1,0.5-0.1,0.7-0.2c0.2-0.1,0.5-0.1,0.7-0.1c0.1,0,0.3,0,0.4-0.1c0.1,0,0.2,0,0.4,0c0.1,0,0.2,0,0.3,0c0.1,0,0.2,0,0.3,0
			c1.4,0,2.7,0.2,3.7,0.5c1.1,0.3,2,0.8,2.7,1.5c0.7,0.7,1.3,1.4,1.9,2.1c0.5,0.7,0.9,1.5,1.2,2.3c0.1,0.3,0.2,0.6,0.3,1
			c0.1,0.3,0.1,0.6,0.2,1c0.1,0.3,0.1,0.6,0.1,0.9c0,0.3,0,0.6,0,0.8c0,0.3,0,0.6,0,0.9c0,0.3-0.1,0.6-0.1,0.9c0,0.3-0.1,0.6-0.2,1
			c-0.1,0.3-0.2,0.6-0.3,1c-0.3,0.8-0.6,1.5-1.1,2.2c-0.5,0.7-1,1.4-1.7,2.1c-0.7,0.7-1.5,1.2-2.5,1.6c-1,0.4-2.2,0.6-3.5,0.7
			c-0.4,0-0.8,0-1.2-0.1c-0.4-0.1-0.8-0.1-1.3-0.2c-0.4-0.1-0.9-0.3-1.5-0.4c-0.5-0.2-1.1-0.4-1.7-0.8v-3.8c0.4,0.2,0.8,0.4,1.1,0.6
			c0.3,0.2,0.6,0.3,0.9,0.4c0.3,0.1,0.5,0.2,0.8,0.3c0.3,0.1,0.5,0.1,0.7,0.2c0.1,0,0.3,0.1,0.4,0.1c0.1,0,0.3,0,0.5,0
			c0.1,0,0.3,0,0.4,0s0.3,0,0.5,0c1,0,1.9-0.2,2.7-0.5c0.8-0.3,1.4-0.8,1.9-1.4c0.5-0.6,0.8-1.4,1.1-2.1c0.3-0.8,0.4-1.6,0.4-2.6
			c0-1-0.2-1.9-0.5-2.7c-0.3-0.8-0.8-1.5-1.5-2.1c-0.7-0.6-1.4-1-2.1-1.3s-1.5-0.4-2.2-0.4c-0.2,0-0.4,0-0.6,0
			c-0.2,0-0.4,0.1-0.6,0.1c-0.2,0-0.4,0.1-0.6,0.2c-0.2,0.1-0.4,0.2-0.6,0.3c-0.5,0.2-0.9,0.6-1.4,0.9c-0.4,0.4-0.9,0.8-1.3,1.4
			c-0.4,0.5-0.7,1.1-0.9,1.8c-0.2,0.7-0.3,1.5-0.3,2.5v17.6h-3.5V69.2z"/>
	</g>
</g>
<g>
	<circle class="st1" cx="461.1" cy="70.4" r="29.5"/>
	<g>
		<path class="st2" d="M447.9,70.8c0.1-0.3,0.3-0.5,0.5-0.8c0.2-0.2,0.5-0.4,0.8-0.5c0.3-0.1,0.5-0.2,0.8-0.2h0c0,0,0.1,0,0.1,0
			c0.3,0,0.6,0,0.8,0.1c0.3,0.1,0.5,0.2,0.7,0.5c0.2,0.2,0.4,0.4,0.5,0.8c0.1,0.3,0.2,0.7,0.2,1.1c0,0.4-0.1,0.8-0.2,1.1
			c-0.1,0.3-0.3,0.6-0.5,0.8c-0.2,0.2-0.5,0.3-0.8,0.4c-0.3,0.1-0.5,0.2-0.8,0.2s-0.6,0-0.9-0.1s-0.5-0.2-0.8-0.4
			c-0.3-0.2-0.5-0.5-0.6-0.8c-0.1-0.3-0.2-0.7-0.2-1.1v-0.1C447.7,71.4,447.7,71.1,447.9,70.8z"/>
		<path class="st2" d="M458.9,70.8c0.1-0.3,0.3-0.5,0.5-0.8c0.2-0.2,0.5-0.4,0.8-0.5c0.3-0.1,0.5-0.2,0.8-0.2h0c0,0,0.1,0,0.1,0
			c0.3,0,0.6,0,0.8,0.1c0.3,0.1,0.5,0.2,0.7,0.5c0.2,0.2,0.4,0.4,0.5,0.8c0.1,0.3,0.2,0.7,0.2,1.1c0,0.4-0.1,0.8-0.2,1.1
			c-0.1,0.3-0.3,0.6-0.5,0.8c-0.2,0.2-0.5,0.3-0.8,0.4c-0.3,0.1-0.5,0.2-0.8,0.2s-0.6,0-0.9-0.1s-0.5-0.2-0.8-0.4
			c-0.3-0.2-0.5-0.5-0.6-0.8c-0.1-0.3-0.2-0.7-0.2-1.1v-0.1C458.7,71.4,458.8,71.1,458.9,70.8z"/>
		<path class="st2" d="M469.9,70.8c0.1-0.3,0.3-0.5,0.5-0.8c0.2-0.2,0.5-0.4,0.8-0.5c0.3-0.1,0.5-0.2,0.8-0.2h0c0,0,0.1,0,0.1,0
			c0.3,0,0.6,0,0.8,0.1c0.3,0.1,0.5,0.2,0.7,0.5c0.2,0.2,0.4,0.4,0.5,0.8c0.1,0.3,0.2,0.7,0.2,1.1c0,0.4-0.1,0.8-0.2,1.1
			c-0.1,0.3-0.3,0.6-0.5,0.8c-0.2,0.2-0.5,0.3-0.8,0.4c-0.3,0.1-0.5,0.2-0.8,0.2s-0.6,0-0.9-0.1s-0.5-0.2-0.8-0.4
			c-0.3-0.2-0.5-0.5-0.6-0.8c-0.1-0.3-0.2-0.7-0.2-1.1v-0.1C469.8,71.4,469.8,71.1,469.9,70.8z"/>
	</g>
</g>
<g>
</g>
<g>
</g>
<g>
</g>
<g>
</g>
<g>
</g>
</svg>
