<?xml version="1.0" encoding="utf-8"?>
<!-- Generator: Adobe Illustrator 22.1.0, SVG Export Plug-In . SVG Version: 6.00 Build 0)  -->
<svg version="1.1" xmlns="http://www.w3.org/2000/svg" xmlns:xlink="http://www.w3.org/1999/xlink" x="0px" y="0px"
	 viewBox="0 0 70.8 49.5" style="enable-background:new 0 0 70.8 49.5;" xml:space="preserve">
<style type="text/css">
	.st0{display:none;}
	.st1{display:inline;}
	.st2{fill:#FFFF00;}
	.st3{fill:none;stroke:#000000;stroke-width:2.0891;stroke-miterlimit:10;}
	.st4{stroke:#000000;stroke-width:1.0446;stroke-miterlimit:10;}
	.st5{fill:#FFFFFF;stroke:#000000;stroke-width:2;stroke-miterlimit:10;}
</style>
<g id="Layer_1" class="st0">
	<g class="st1">
		<g>
			<path class="st2" d="M55.3,2.4c4.4-1.5,6.7,0.8,5.2,5.2s0.9,9,5.3,10.4c4.4,1.3,4.9,4.6,1.1,7.2c-3.8,2.6-4.6,7.8-1.8,11.5
				c2.8,3.7,1.3,6.6-3.3,6.5s-8.3,3.6-8.2,8.2s-2.8,6.1-6.5,3.3c-3.7-2.8-8.9-2-11.5,1.8c-2.6,3.8-5.9,3.3-7.2-1.1
				c-1.3-4.4-6-6.8-10.4-5.3c-4.4,1.5-6.7-0.8-5.2-5.2s-0.9-9-5.3-10.4C3,33.2,2.5,30,6.3,27.3s4.6-7.8,1.8-11.5s-1.3-6.6,3.3-6.5
				s8.3-3.6,8.2-8.2s2.8-6.1,6.5-3.3s8.9,2,11.5-1.8s5.9-3.3,7.2,1.1S50.9,3.9,55.3,2.4z"/>
			<path class="st3" d="M55.3,2.4c4.4-1.5,6.7,0.8,5.2,5.2s0.9,9,5.3,10.4c4.4,1.3,4.9,4.6,1.1,7.2c-3.8,2.6-4.6,7.8-1.8,11.5
				c2.8,3.7,1.3,6.6-3.3,6.5s-8.3,3.6-8.2,8.2s-2.8,6.1-6.5,3.3c-3.7-2.8-8.9-2-11.5,1.8c-2.6,3.8-5.9,3.3-7.2-1.1
				c-1.3-4.4-6-6.8-10.4-5.3c-4.4,1.5-6.7-0.8-5.2-5.2s-0.9-9-5.3-10.4C3,33.2,2.5,30,6.3,27.3s4.6-7.8,1.8-11.5s-1.3-6.6,3.3-6.5
				s8.3-3.6,8.2-8.2s2.8-6.1,6.5-3.3s8.9,2,11.5-1.8s5.9-3.3,7.2,1.1S50.9,3.9,55.3,2.4z"/>
		</g>
		<g>
			<g>
				<path class="st4" d="M16.9,19.9h1.8v13h-1.8V19.9z M17.8,19.9h7.3v1.7h-7.3V19.9z M17.8,25.7h6.3v1.7h-6.3V25.7z"/>
				<path class="st4" d="M27.1,19.9H29v13h-1.8V19.9z M27.9,25.7h4.4c0.3,0,0.7-0.1,0.9-0.2c0.3-0.2,0.5-0.4,0.6-0.7
					c0.1-0.3,0.2-0.7,0.2-1.1c0-0.4-0.1-0.8-0.2-1.1c-0.1-0.3-0.4-0.5-0.6-0.7c-0.3-0.2-0.6-0.3-0.9-0.3h-4.4v-1.7h4.4
					c0.7,0,1.4,0.2,2,0.5c0.6,0.3,1,0.7,1.3,1.3c0.3,0.6,0.5,1.2,0.5,2c0,0.7-0.2,1.4-0.5,2c-0.3,0.6-0.8,1-1.3,1.3
					c-0.6,0.3-1.2,0.5-2,0.5h-4.4V25.7z M31.5,27l1.8-0.4l3.3,6.3h-2.2L31.5,27z"/>
				<path class="st4" d="M39.1,19.9h1.8v13h-1.8V19.9z M39.9,19.9h7.5v1.7h-7.5V19.9z M39.9,25.6h6.5v1.7h-6.5V25.6z M39.9,31.2h7.5
					v1.7h-7.5V31.2z"/>
				<path class="st4" d="M50,19.9h1.8v13H50V19.9z M50.9,19.9h7.5v1.7h-7.5V19.9z M50.9,25.6h6.5v1.7h-6.5V25.6z M50.9,31.2h7.5v1.7
					h-7.5V31.2z"/>
			</g>
		</g>
	</g>
</g>
<g id="Layer_2">
	<g>
		<rect x="1" y="1" class="st5" width="68.8" height="47.5"/>
		<g>
			<path d="M30.7,36.5c-0.3,0-0.5-0.1-0.7-0.3c-3.6-3.6-3.6-9.3,0-12.9c0.4-0.4,1.1-0.4,1.5,0c0.4,0.4,0.4,1.1,0,1.5
				c-2.7,2.7-2.7,7.2,0,10c0.4,0.4,0.4,1.1,0,1.5C31.2,36.3,31,36.5,30.7,36.5L30.7,36.5z"/>
			<path d="M34.6,33.3c-0.3,0-0.5-0.1-0.7-0.3c-1.8-1.8-1.8-4.7,0-6.5c0.4-0.4,1.1-0.4,1.5,0c0.4,0.4,0.4,1.1,0,1.5
				c-1,1-1,2.6,0,3.6c0.4,0.4,0.4,1.1,0,1.5C35.1,33.2,34.8,33.3,34.6,33.3L34.6,33.3z"/>
			<path d="M26.8,39.6c-0.3,0-0.5-0.1-0.7-0.3c-5.3-5.3-5.3-13.8,0-19.1c0.4-0.4,1.1-0.4,1.5,0c0.4,0.4,0.4,1.1,0,1.5
				c-4.5,4.5-4.5,11.7,0,16.2c0.4,0.4,0.4,1.1,0,1.5C27.3,39.5,27.1,39.6,26.8,39.6z"/>
			<path d="M53.7,42c-0.4,0-0.8-0.2-0.9-0.6l-1.4-3.1c-0.2-0.5-0.7-0.8-1.2-0.8c-1.8,0-4.1,0.1-5.2,0c-1.2,0-2-0.5-2.3-1
				c-0.5-0.6-0.8-1.4-0.7-2.3c0.1-0.5-0.1-0.7-0.4-1c-0.2-0.3-0.5-0.6-0.6-1.1c-0.2-0.7,0.1-1.5,0.7-2c0,0,0.1,0,0.1-0.1l2.1-1.3
				l-3.1-1.2c0,0-0.1,0-0.1,0c-0.7-0.4-1.2-1.2-1-2l0.4-2.1c0-0.2,0-0.4-0.1-0.6c-0.1-0.2-0.3-0.3-0.5-0.3l-2-0.3
				c-0.6-0.1-1.1-0.4-1.3-1c-0.2-0.5-0.2-1.1,0.1-1.6l3.9-6.6c0.6-1,0.8-2.2,0.7-3.4l-0.3-1.8c-0.1-0.6,0.3-1.1,0.9-1.2
				c0.6-0.1,1.1,0.3,1.2,0.9l0.3,1.8c0.2,1.6-0.1,3.3-0.9,4.7l-3.6,6.2l1.5,0.2c0.8,0.1,1.5,0.5,1.9,1.2c0.5,0.6,0.6,1.4,0.5,2.2
				l-0.4,1.9l3.5,1.3c0.6,0.2,1,0.8,1.1,1.4c0.1,0.7-0.2,1.3-0.8,1.6l-2.5,1.6c0,0.1,0.1,0.1,0.1,0.2c0.4,0.4,0.9,1.2,0.8,2.5
				c0,0.2,0,0.5,0.2,0.7c0.2,0.2,0.6,0.3,0.8,0.3c1.1,0,3.3,0,5.2,0c1.4,0,2.6,0.8,3.1,2l1.4,3.1c0.2,0.5,0,1.1-0.5,1.4
				C54,42,53.8,42,53.7,42L53.7,42z M44.4,29L44.4,29L44.4,29z"/>
		</g>
	</g>
</g>
</svg>
