<?xml version="1.0" encoding="utf-8"?>
<!-- Generator: Adobe Illustrator 22.1.0, SVG Export Plug-In . SVG Version: 6.00 Build 0)  -->
<svg version="1.1" id="Layer_1" xmlns="http://www.w3.org/2000/svg" xmlns:xlink="http://www.w3.org/1999/xlink" x="0px" y="0px"
	 viewBox="0 0 67.8 67.8" style="enable-background:new 0 0 67.8 67.8;" xml:space="preserve">
<style type="text/css">
	.st0{fill:#FFFF00;}
	.st1{fill:none;stroke:#000000;stroke-width:2.0891;stroke-miterlimit:10;}
	.st2{stroke:#000000;stroke-width:1.0446;stroke-miterlimit:10;}
</style>
<g>
	<g>
		<path class="st0" d="M52.6,10c4.4-1.5,6.7,0.8,5.2,5.2c-1.5,4.4,0.9,9,5.3,10.4c4.4,1.3,4.9,4.6,1.1,7.2
			c-3.8,2.6-4.6,7.8-1.8,11.5c2.8,3.7,1.3,6.6-3.3,6.5s-8.3,3.6-8.2,8.2s-2.8,6.1-6.5,3.3c-3.7-2.8-8.9-2-11.5,1.8
			c-2.6,3.8-5.9,3.3-7.2-1.1c-1.3-4.4-6-6.8-10.4-5.3c-4.4,1.5-6.7-0.8-5.2-5.2s-0.9-9-5.3-10.4c-4.4-1.3-4.9-4.6-1.1-7.2
			s4.6-7.8,1.8-11.5S4.1,16.9,8.7,17c4.6,0.1,8.3-3.6,8.2-8.2c-0.1-4.6,2.8-6.1,6.5-3.3s8.9,2,11.5-1.8s5.9-3.3,7.2,1.1
			C43.5,9.2,48.2,11.5,52.6,10z"/>
		<path class="st1" d="M52.6,10c4.4-1.5,6.7,0.8,5.2,5.2c-1.5,4.4,0.9,9,5.3,10.4c4.4,1.3,4.9,4.6,1.1,7.2
			c-3.8,2.6-4.6,7.8-1.8,11.5c2.8,3.7,1.3,6.6-3.3,6.5s-8.3,3.6-8.2,8.2s-2.8,6.1-6.5,3.3c-3.7-2.8-8.9-2-11.5,1.8
			c-2.6,3.8-5.9,3.3-7.2-1.1c-1.3-4.4-6-6.8-10.4-5.3c-4.4,1.5-6.7-0.8-5.2-5.2s-0.9-9-5.3-10.4c-4.4-1.3-4.9-4.6-1.1-7.2
			s4.6-7.8,1.8-11.5S4.1,16.9,8.7,17c4.6,0.1,8.3-3.6,8.2-8.2c-0.1-4.6,2.8-6.1,6.5-3.3s8.9,2,11.5-1.8s5.9-3.3,7.2,1.1
			C43.5,9.2,48.2,11.5,52.6,10z"/>
	</g>
	<g>
		<g>
			<path class="st2" d="M14.2,27.6H16v13h-1.8V27.6z M15.1,27.6h7.3v1.7h-7.3V27.6z M15.1,33.4h6.3v1.7h-6.3V33.4z"/>
			<path class="st2" d="M24.4,27.6h1.8v13h-1.8V27.6z M25.2,33.3h4.4c0.3,0,0.7-0.1,0.9-0.2c0.3-0.2,0.5-0.4,0.6-0.7
				c0.1-0.3,0.2-0.7,0.2-1.1c0-0.4-0.1-0.8-0.2-1.1c-0.1-0.3-0.4-0.5-0.6-0.7c-0.3-0.2-0.6-0.3-0.9-0.3h-4.4v-1.7h4.4
				c0.7,0,1.4,0.2,2,0.5c0.6,0.3,1,0.7,1.3,1.3c0.3,0.6,0.5,1.2,0.5,2c0,0.7-0.2,1.4-0.5,2c-0.3,0.6-0.8,1-1.3,1.3
				c-0.6,0.3-1.2,0.5-2,0.5h-4.4V33.3z M28.7,34.7l1.8-0.4l3.3,6.3h-2.2L28.7,34.7z"/>
			<path class="st2" d="M36.3,27.6h1.8v13h-1.8V27.6z M37.2,27.6h7.5v1.7h-7.5V27.6z M37.2,33.2h6.5V35h-6.5V33.2z M37.2,38.8h7.5
				v1.7h-7.5V38.8z"/>
			<path class="st2" d="M47.2,27.6h1.8v13h-1.8V27.6z M48.1,27.6h7.5v1.7h-7.5V27.6z M48.1,33.2h6.5V35h-6.5V33.2z M48.1,38.8h7.5
				v1.7h-7.5V38.8z"/>
		</g>
	</g>
</g>
</svg>
