<?xml version="1.0" encoding="utf-8"?>
<!-- Generator: Adobe Illustrator 22.1.0, SVG Export Plug-In . SVG Version: 6.00 Build 0)  -->
<svg version="1.1" xmlns="http://www.w3.org/2000/svg" xmlns:xlink="http://www.w3.org/1999/xlink" x="0px" y="0px"
	 viewBox="0 0 147.4 50.8" style="enable-background:new 0 0 147.4 50.8;" xml:space="preserve">
<style type="text/css">
	.st0{display:none;}
	.st1{display:inline;}
	.st2{fill:#FFFF00;}
	.st3{fill:none;stroke:#000000;stroke-width:2.0891;stroke-miterlimit:10;}
	.st4{stroke:#000000;stroke-width:1.0446;stroke-miterlimit:10;}
	.st5{fill:#FFFFFF;stroke:#000000;stroke-width:2;stroke-miterlimit:10;}
	.st6{fill:#FFFFFF;}
	.st7{fill:url(#SVGID_3_);}
	.st8{font-family:'MyriadPro-Regular';}
	.st9{font-size:14px;}
	.st10{fill:none;stroke:#FFFFFF;stroke-width:5;}
	.st11{fill:none;stroke:#000000;stroke-width:0.5;}
	.st12{fill:#F7B12F;}
	.st13{fill:#FFCF4B;}
	.st14{fill:#6E7789;}
	.st15{fill:#FCFCFC;}
	.st16{clip-path:url(#SVGID_5_);}
	.st17{fill:#51B0E0;}
	.st18{fill:#F44E72;}
	.st19{clip-path:url(#SVGID_7_);fill:none;stroke:#000000;stroke-width:0.1334;stroke-miterlimit:10;}
	.st20{fill:none;stroke:#000000;stroke-miterlimit:10;}
	.st21{fill:#FFFFFF;stroke:#000000;stroke-width:0.6133;stroke-miterlimit:10;}
	.st22{fill:#CACACA;stroke:#000000;stroke-width:0.6133;stroke-miterlimit:10;}
	.st23{fill:#CACACA;}
	.st24{fill:#979797;}
	.st25{fill:#808080;}
	.st26{fill:#FFCDAC;}
	.st27{fill:none;stroke:#000000;stroke-width:0.7321;stroke-miterlimit:10;}
</style>
<g id="Layer_1" class="st0">
	<g class="st1">
		<g>
			<path class="st2" d="M108-10.1c4.4-1.5,6.7,0.8,5.2,5.2s0.9,9,5.3,10.4s4.9,4.6,1.1,7.2c-3.8,2.6-4.6,7.8-1.8,11.5
				c2.8,3.7,1.3,6.6-3.3,6.5c-4.6-0.1-8.3,3.6-8.2,8.2c0.1,4.6-2.8,6.1-6.5,3.3c-3.7-2.8-8.9-2-11.5,1.8S82.3,47.4,81,43
				c-1.3-4.4-6-6.8-10.4-5.3c-4.4,1.5-6.7-0.8-5.2-5.2c1.5-4.4-0.9-9-5.3-10.4c-4.4-1.3-4.9-4.6-1.1-7.2s4.6-7.8,1.8-11.5
				s-1.3-6.6,3.3-6.5c4.6,0.1,8.3-3.6,8.2-8.2c-0.1-4.6,2.8-6.1,6.5-3.3c3.7,2.8,8.9,2,11.5-1.8s5.9-3.3,7.2,1.1
				C99-10.9,103.7-8.5,108-10.1z"/>
			<path class="st3" d="M108-10.1c4.4-1.5,6.7,0.8,5.2,5.2s0.9,9,5.3,10.4s4.9,4.6,1.1,7.2c-3.8,2.6-4.6,7.8-1.8,11.5
				c2.8,3.7,1.3,6.6-3.3,6.5c-4.6-0.1-8.3,3.6-8.2,8.2c0.1,4.6-2.8,6.1-6.5,3.3c-3.7-2.8-8.9-2-11.5,1.8S82.3,47.4,81,43
				c-1.3-4.4-6-6.8-10.4-5.3c-4.4,1.5-6.7-0.8-5.2-5.2c1.5-4.4-0.9-9-5.3-10.4c-4.4-1.3-4.9-4.6-1.1-7.2s4.6-7.8,1.8-11.5
				s-1.3-6.6,3.3-6.5c4.6,0.1,8.3-3.6,8.2-8.2c-0.1-4.6,2.8-6.1,6.5-3.3c3.7,2.8,8.9,2,11.5-1.8s5.9-3.3,7.2,1.1
				C99-10.9,103.7-8.5,108-10.1z"/>
		</g>
		<g>
			<g>
				<path class="st4" d="M69.6,7.5h1.8v13h-1.8V7.5z M70.5,7.5h7.3v1.7h-7.3V7.5z M70.5,13.3h6.3V15h-6.3V13.3z"/>
				<path class="st4" d="M79.9,7.5h1.8v13h-1.8V7.5z M80.7,13.3h4.4c0.3,0,0.7-0.1,0.9-0.2c0.3-0.2,0.5-0.4,0.6-0.7
					c0.1-0.3,0.2-0.7,0.2-1.1c0-0.4-0.1-0.8-0.2-1.1c-0.1-0.3-0.4-0.5-0.6-0.7c-0.3-0.2-0.6-0.3-0.9-0.3h-4.4V7.5H85
					c0.7,0,1.4,0.2,2,0.5c0.6,0.3,1,0.7,1.3,1.3c0.3,0.6,0.5,1.2,0.5,2c0,0.7-0.2,1.4-0.5,2c-0.3,0.6-0.8,1-1.3,1.3
					c-0.6,0.3-1.2,0.5-2,0.5h-4.4V13.3z M84.2,14.6l1.8-0.4l3.3,6.3h-2.2L84.2,14.6z"/>
				<path class="st4" d="M91.8,7.5h1.8v13h-1.8V7.5z M92.7,7.5h7.5v1.7h-7.5V7.5z M92.7,13.2h6.5v1.7h-6.5V13.2z M92.7,18.8h7.5v1.7
					h-7.5V18.8z"/>
				<path class="st4" d="M102.7,7.5h1.8v13h-1.8V7.5z M103.6,7.5h7.5v1.7h-7.5V7.5z M103.6,13.2h6.5v1.7h-6.5V13.2z M103.6,18.8h7.5
					v1.7h-7.5V18.8z"/>
			</g>
		</g>
	</g>
</g>
<g id="Layer_2" class="st0">
	<g class="st1">
		<rect x="53.7" y="-11.4" class="st5" width="68.8" height="47.5"/>
		<g>
			<path d="M83.4,24c-0.3,0-0.5-0.1-0.7-0.3c-3.6-3.6-3.6-9.3,0-12.9c0.4-0.4,1.1-0.4,1.5,0c0.4,0.4,0.4,1.1,0,1.5
				c-2.7,2.7-2.7,7.2,0,10c0.4,0.4,0.4,1.1,0,1.5C84,23.9,83.7,24,83.4,24L83.4,24z"/>
			<path d="M87.3,20.8c-0.3,0-0.5-0.1-0.7-0.3c-1.8-1.8-1.8-4.7,0-6.5c0.4-0.4,1.1-0.4,1.5,0c0.4,0.4,0.4,1.1,0,1.5
				c-1,1-1,2.6,0,3.6c0.4,0.4,0.4,1.1,0,1.5C87.8,20.7,87.6,20.8,87.3,20.8L87.3,20.8z"/>
			<path d="M79.5,27.1c-0.3,0-0.5-0.1-0.7-0.3c-5.3-5.3-5.3-13.8,0-19.1c0.4-0.4,1.1-0.4,1.5,0c0.4,0.4,0.4,1.1,0,1.5
				c-4.5,4.5-4.5,11.7,0,16.2c0.4,0.4,0.4,1.1,0,1.5C80.1,27,79.8,27.1,79.5,27.1z"/>
			<path d="M106.4,29.6c-0.4,0-0.8-0.2-0.9-0.6l-1.4-3.1c-0.2-0.5-0.7-0.8-1.2-0.8c-1.8,0-4.1,0.1-5.2,0c-1.2,0-2-0.5-2.3-1
				c-0.5-0.6-0.8-1.4-0.7-2.3c0.1-0.5-0.1-0.7-0.4-1c-0.2-0.3-0.5-0.6-0.6-1.1c-0.2-0.7,0.1-1.5,0.7-2c0,0,0.1,0,0.1-0.1l2.1-1.3
				l-3.1-1.2c0,0-0.1,0-0.1,0c-0.7-0.4-1.2-1.2-1-2l0.4-2.1c0-0.2,0-0.4-0.1-0.6c-0.1-0.2-0.3-0.3-0.5-0.3l-2-0.3
				c-0.6-0.1-1.1-0.4-1.3-1c-0.2-0.5-0.2-1.1,0.1-1.6l3.9-6.6c0.6-1,0.8-2.2,0.7-3.4L93-4.5c-0.1-0.6,0.3-1.1,0.9-1.2
				c0.6-0.1,1.1,0.3,1.2,0.9L95.4-3c0.2,1.6-0.1,3.3-0.9,4.7l-3.6,6.2l1.5,0.2c0.8,0.1,1.5,0.5,1.9,1.2c0.5,0.6,0.6,1.4,0.5,2.2
				l-0.4,1.9l3.5,1.3c0.6,0.2,1,0.8,1.1,1.4c0.1,0.7-0.2,1.3-0.8,1.6l-2.5,1.6c0,0.1,0.1,0.1,0.1,0.2c0.4,0.4,0.9,1.2,0.8,2.5
				c0,0.2,0,0.5,0.2,0.7c0.2,0.2,0.6,0.3,0.8,0.3c1.1,0,3.3,0,5.2,0c1.4,0,2.6,0.8,3.1,2l1.4,3.1c0.2,0.5,0,1.1-0.5,1.4
				C106.7,29.6,106.5,29.6,106.4,29.6L106.4,29.6z M97.1,16.6L97.1,16.6L97.1,16.6z"/>
		</g>
	</g>
</g>
<g id="Layer_3" class="st0">
	<g class="st1">
		<path class="st6" d="M70,2.9V0c0-1.7,1.4-3.2,3.2-3.2h33.2c1.7,0,3.2,1.4,3.2,3.2v46.4c0,1.7-1.4,3.2-3.2,3.2H73.2
			c-1.7,0-3.2-1.4-3.2-3.2V6.2V2.9z"/>
		<g>
			<path class="st6" d="M60.9,47.1c0,1-0.8,1.9-1.9,1.9H34c-1,0-1.9-0.8-1.9-1.9v-4.5h28.8V47.1z"/>
			<g>
				<path class="st6" d="M32.1-0.8c0-1,0.8-1.9,1.9-1.9H59c1,0,1.9,0.8,1.9,1.9v41.1H32.1L32.1-0.8z"/>
				<g>
					<g>
						<defs>
							<rect id="SVGID_1_" x="73.3" y="2.7" width="34.7" height="39.7"/>
						</defs>
						<clipPath id="SVGID_2_">
							<use xlink:href="#SVGID_1_"  style="overflow:visible;"/>
						</clipPath>
						<g style="clip-path:url(#SVGID_2_);">
							
								<image style="overflow:visible;" width="1372" height="1795" xlink:href="I:\00 Sensai\80 webpages\05 online\50 qna\supprts\cat-chart-thinW-V-A2-59_2.jpg"  transform="matrix(7.086501e-02 0 0 7.086501e-02 50.8264 -50.9)">
							</image>
						</g>
					</g>
					<g>
						<g>
							<g>
								<g>
									
										<linearGradient id="SVGID_3_" gradientUnits="userSpaceOnUse" x1="46.491" y1="19.8835" x2="46.491" y2="1.1431" gradientTransform="matrix(1 0 0 -1 0 25.9511)">
										<stop  offset="0" style="stop-color:#2AF598"/>
										<stop  offset="1" style="stop-color:#009EFD"/>
									</linearGradient>
									<path class="st7" d="M35.9,12.7h1.7v5.5h-1.7V12.7z M39.2,21.5h1.7V9.4h-1.7V21.5z M42.4,24.8H44V6.1h-1.7V24.8z
										 M45.6,18.2h1.7v-5.5h-1.7V18.2z M48.9,22.7h1.7V8.1h-1.7V22.7z M55.4,12.7v5.9h1.7v-5.9H55.4z M52.2,24.8h1.7V6.1h-1.7
										V24.8z"/>
								</g>
							</g>
							<g>
								<path d="M59-4.8H34c-2.2,0-4.1,1.8-4.1,4.1v47.9c0,2.2,1.8,4.1,4.1,4.1H59c2.2,0,4.1-1.8,4.1-4.1V-0.8
									C63.1-3,61.3-4.8,59-4.8L59-4.8z M32.1-0.8c0-1,0.8-1.9,1.9-1.9H59c1,0,1.9,0.8,1.9,1.9v41.1H32.1L32.1-0.8z M60.9,47.1
									c0,1-0.8,1.9-1.9,1.9H34c-1,0-1.9-0.8-1.9-1.9v-4.5h28.8V47.1z"/>
								<path d="M45.4,1.8h2.1c0.6,0,1.1-0.5,1.1-1.1s-0.5-1.1-1.1-1.1h-2.1c-0.6,0-1.1,0.5-1.1,1.1S44.8,1.8,45.4,1.8z"/>
								<path d="M45.4,46.9h2.1c0.6,0,1.1-0.5,1.1-1.1s-0.5-1.1-1.1-1.1h-2.1c-0.6,0-1.1,0.5-1.1,1.1S44.8,46.9,45.4,46.9z"/>
							</g>
						</g>
						<g>
							<path d="M106.4-4.8H73.2c-2.6,0-4.8,2.2-4.8,4.8v2.9c0,0.5,0.4,0.8,0.8,0.8s0.8-0.4,0.8-0.8V0c0-1.7,1.4-3.2,3.2-3.2h33.2
								c1.7,0,3.2,1.4,3.2,3.2v46.4c0,1.7-1.4,3.2-3.2,3.2H73.2c-1.7,0-3.2-1.4-3.2-3.2V6.2c0-0.5-0.4-0.8-0.8-0.8s-0.8,0.4-0.8,0.8
								v40.2c0,2.6,2.2,4.8,4.8,4.8h33.2c2.6,0,4.8-2.2,4.8-4.8V0C111.2-2.7,109.1-4.8,106.4-4.8z"/>
							<path d="M71.7,1.9v31c0,0.5,0.4,0.8,0.8,0.8c0.5,0,0.8-0.4,0.8-0.8V2.7h33V14c0,0.5,0.4,0.8,0.8,0.8s0.8-0.4,0.8-0.8V1.9
								c0-0.5-0.4-0.8-0.8-0.8H72.5C72,1.1,71.7,1.5,71.7,1.9z"/>
							<path d="M71.7,42.4c0,0.5,0.4,0.8,0.8,0.8h34.7c0.5,0,0.8-0.4,0.8-0.8V17.2c0-0.5-0.4-0.8-0.8-0.8s-0.8,0.4-0.8,0.8v24.3h-33
								v-5.4c0-0.5-0.4-0.8-0.8-0.8c-0.5,0-0.8,0.4-0.8,0.8V42.4z"/>
							<path d="M87.3,46.2c0,1.4,1.1,2.5,2.5,2.5s2.5-1.1,2.5-2.5c0-1.4-1.1-2.5-2.5-2.5C88.5,43.7,87.3,44.8,87.3,46.2z M90.7,46.2
								c0,0.5-0.4,0.9-0.9,0.9c-0.5,0-0.9-0.4-0.9-0.9c0-0.5,0.4-0.9,0.9-0.9C90.3,45.3,90.7,45.7,90.7,46.2z"/>
							<path d="M93.4-0.2c0.5,0,0.8-0.4,0.8-0.8s-0.4-0.8-0.8-0.8h-3.7c-0.5,0-0.8,0.4-0.8,0.8s0.4,0.8,0.8,0.8H93.4z"/>
							<circle cx="86.5" cy="-1.1" r="0.8"/>
						</g>
						<g>
							<text transform="matrix(1 0 0 1 40.536 33.7012)" class="st8 st9">any device</text>
							<text transform="matrix(1 0 0 1 40.536 33.7012)" class="st10 st8 st9">any device</text>
							<text transform="matrix(1 0 0 1 40.536 33.7012)" class="st11 st8 st9">any device</text>
							<text transform="matrix(1 0 0 1 40.536 33.7012)" class="st8 st9">any device</text>
						</g>
					</g>
				</g>
			</g>
		</g>
	</g>
</g>
<g id="Layer_4">
	<g>
		<path class="st6" d="M141.4,4.4h-19.8c-1.8,0-3.2,1.4-3.2,3.2v37.8c0,1.8,1.4,3.2,3.2,3.2h19.8c1.8,0,3.2-1.4,3.2-3.2V7.6
			C144.6,5.8,143.2,4.4,141.4,4.4L141.4,4.4z"/>
		<g>
			<g>
				<g>
				</g>
			</g>
			<g>
				<g>
					<g>
						<path class="st12" d="M37.3,3.5h-1.7c-0.5,0-1,0.4-1,1v4.3c0,0.5,0.4,1,1,1h1.7c0.5,0,1-0.4,1-1V4.5
							C38.2,3.9,37.8,3.5,37.3,3.5z"/>
						<path class="st12" d="M14.5,3.5h-1.7c-0.5,0-1,0.4-1,1v4.3c0,0.5,0.4,1,1,1h1.7c0.5,0,1-0.4,1-1V4.5C15.4,3.9,15,3.5,14.5,3.5
							z"/>
					</g>
					<g>
						<circle class="st13" cx="25" cy="24.8" r="21.3"/>
						<path class="st14" d="M41.9,7.7v30c-0.8,1-1.7,2-2.6,2.8c-1.9,1.7-4,3.1-6.4,4c-2.5,1-5.1,1.5-8,1.5s-5.5-0.5-8-1.5
							c-2.4-1-4.5-2.3-6.4-4c-1-0.9-1.8-1.8-2.6-2.8v-30c0-0.7,0.6-1.3,1.3-1.3h31.3C41.4,6.4,41.9,7,41.9,7.7z"/>
						<path class="st15" d="M39.3,8.9v31.5c-1.9,1.7-4,3.1-6.4,4c-2.5,1-5.1,1.5-8,1.5s-5.5-0.5-8-1.5c-2.4-1-4.5-2.3-6.4-4V8.9
							H39.3z"/>
						<g>
							<defs>
								<circle id="SVGID_4_" cx="25" cy="24.8" r="21.3"/>
							</defs>
							<clipPath id="SVGID_5_">
								<use xlink:href="#SVGID_4_"  style="overflow:visible;"/>
							</clipPath>
							<g class="st16">
								<g>
									<path class="st17" d="M24.9,33.5c0-0.3,0.2-0.6,0.6-0.6h2.7c1.8,0,3.2,0.7,3.2,2.8c0,1.4-0.7,2.3-1.6,2.6l1.6,2.8
										c0,0.1,0.1,0.2,0.1,0.2c0,0.5-0.7,1-1.3,1c-0.3,0-0.5-0.1-0.6-0.4l-1.8-3.4h-0.9v3.1c0,0.4-0.5,0.6-1,0.6s-1-0.2-1-0.6
										L24.9,33.5L24.9,33.5z M26.9,34.6V37h1.3c0.7,0,1.2-0.3,1.2-1.2s-0.4-1.2-1.2-1.2L26.9,34.6L26.9,34.6z"/>
									<g>
										<g>
											<path class="st18" d="M18,13.2c0-0.3,0.3-0.6,0.7-0.6h2.7c1.7,0,3,0.8,3,3v0.1c0,2.2-1.4,3-3.2,3H20v2.8
												c0,0.4-0.5,0.6-1,0.6c-0.5,0-1-0.2-1-0.6L18,13.2L18,13.2L18,13.2z M20,14.3V17h1.3c0.7,0,1.2-0.4,1.2-1.3v-0.1
												c0-0.9-0.4-1.3-1.2-1.3L20,14.3L20,14.3z"/>
											<path class="st18" d="M25.2,19v-3.4c0-2.2,1.4-3,3.2-3c1.8,0,3.2,0.8,3.2,3V19c0,2.2-1.4,3-3.2,3S25.2,21.2,25.2,19z
												 M29.5,15.6c0-0.9-0.4-1.3-1.2-1.3c-0.7,0-1.1,0.4-1.1,1.3V19c0,0.9,0.4,1.3,1.1,1.3c0.7,0,1.2-0.4,1.2-1.3V15.6z"/>
											<path class="st18" d="M21.8,29.6c0-1.6-4.1-1.3-4.1-4.3c0-1.9,1.7-2.7,3.3-2.7c0.7,0,2.6,0.1,2.6,1.1
												c0,0.3-0.2,1.1-0.8,1.1c-0.5,0-0.7-0.5-1.8-0.5c-0.9,0-1.3,0.4-1.3,0.8c0,1.3,4.1,1,4.1,4.3c0,1.9-1.4,2.9-3.2,2.9
												c-1.7,0-3.1-0.8-3.1-1.7c0-0.4,0.4-1.1,0.9-1.1c0.6,0,1,1,2.2,1C21.2,30.5,21.8,30.2,21.8,29.6z"/>
										</g>
										<g>
											<path class="st13" d="M30.4,22.7c0.4,0,0.6,0.5,0.6,0.9c0,0.5-0.2,0.9-0.6,0.9h-1.8v7c0,0.4-0.5,0.6-1,0.6
												c-0.5,0-1-0.2-1-0.6v-7h-1.8c-0.4,0-0.6-0.4-0.6-0.9c0-0.4,0.2-0.9,0.6-0.9L30.4,22.7L30.4,22.7z"/>
											<path class="st13" d="M20,36.8h1.9c0.4,0,0.6,0.4,0.6,0.8c0,0.3-0.2,0.8-0.6,0.8H20v2.2h3.5c0.4,0,0.6,0.4,0.6,0.9
												c0,0.4-0.2,0.9-0.6,0.9h-4.6c-0.4,0-0.9-0.2-0.9-0.6v-8.2c0-0.4,0.4-0.6,0.9-0.6h4.6c0.4,0,0.6,0.4,0.6,0.9
												c0,0.5-0.2,0.9-0.6,0.9H20V36.8z"/>
										</g>
									</g>
								</g>
							</g>
						</g>
					</g>
				</g>
				<g>
					<g>
						<defs>
							<circle id="SVGID_6_" cx="37.1" cy="11.4" r="1.8"/>
						</defs>
						<clipPath id="SVGID_7_">
							<use xlink:href="#SVGID_6_"  style="overflow:visible;"/>
						</clipPath>
						<circle class="st19" cx="37.1" cy="11.4" r="1.8"/>
					</g>
				</g>
			</g>
			<line class="st20" x1="37.1" y1="9.5" x2="78.4" y2="8"/>
			<line class="st20" x1="37.1" y1="13.2" x2="75" y2="27.7"/>
		</g>
		<g>
			<g>
				<g>
					<path d="M141.4,4.4h-19.8c-1.8,0-3.2,1.4-3.2,3.2v37.8c0,1.8,1.4,3.2,3.2,3.2h19.8c1.8,0,3.2-1.4,3.2-3.2V7.6
						C144.6,5.8,143.2,4.4,141.4,4.4L141.4,4.4z M120.2,7.6c0-0.8,0.7-1.5,1.5-1.5h19.8c0.8,0,1.5,0.7,1.5,1.5v32.5h-22.7V7.6z
						 M142.9,45.4c0,0.8-0.7,1.5-1.5,1.5h-19.8c-0.8,0-1.5-0.7-1.5-1.5v-3.6h22.7V45.4z"/>
					<path d="M130.7,9.6h1.7c0.5,0,0.9-0.4,0.9-0.9s-0.4-0.9-0.9-0.9h-1.7c-0.5,0-0.9,0.4-0.9,0.9S130.3,9.6,130.7,9.6z"/>
					<path d="M130.7,45.2h1.7c0.5,0,0.9-0.4,0.9-0.9c0-0.5-0.4-0.9-0.9-0.9h-1.7c-0.5,0-0.9,0.4-0.9,0.9
						C129.9,44.9,130.3,45.2,130.7,45.2z"/>
				</g>
				<g>
					<g>
						<rect x="126.8" y="14.6" class="st21" width="15" height="17.3"/>
						<rect x="121.3" y="14.6" class="st21" width="4.1" height="17.3"/>
						<g>
							<rect x="127.9" y="15.8" class="st22" width="3.5" height="3.5"/>
							<rect x="132.6" y="15.8" class="st22" width="3.5" height="3.5"/>
							<rect x="137.3" y="15.8" class="st22" width="3.5" height="3.5"/>
							<rect x="127.9" y="20.2" class="st22" width="3.5" height="3.5"/>
							<rect x="132.6" y="20.2" class="st22" width="3.5" height="3.5"/>
							<rect x="137.3" y="20.2" class="st22" width="3.5" height="3.5"/>
							<rect x="127.9" y="24.6" class="st22" width="3.5" height="3.5"/>
							<rect x="132.6" y="24.6" class="st22" width="3.5" height="3.5"/>
							<rect x="137.3" y="24.6" class="st22" width="3.5" height="3.5"/>
						</g>
					</g>
					<g>
						<g>
							<path class="st23" d="M124.3,17.9c0.1,0.3-0.3,0.4-0.5,0.4c-0.2,0-0.5-0.1-0.5-0.1s-0.3,0-0.5,0.1c-0.2,0-0.5,0-0.5-0.4
								c0.1-0.3,0.4-0.3,0.5-0.8c0.1-0.5,0.5-0.4,0.5-0.4s0.4,0,0.5,0.4C123.9,17.6,124.3,17.6,124.3,17.9z M123.7,16.7
								c0.2,0.1,0.4-0.1,0.5-0.4c0.1-0.3,0-0.5-0.2-0.6c-0.2-0.1-0.4,0.1-0.5,0.4C123.4,16.4,123.5,16.6,123.7,16.7z M124.6,16.6
								c-0.2-0.1-0.4,0.1-0.5,0.3c-0.1,0.2,0,0.5,0.2,0.6c0.2,0.1,0.4-0.1,0.5-0.3C124.8,16.9,124.8,16.7,124.6,16.6z M123,16.7
								c0.2-0.1,0.3-0.3,0.2-0.6c-0.1-0.3-0.3-0.4-0.5-0.4c-0.2,0.1-0.3,0.3-0.2,0.6C122.6,16.6,122.8,16.7,123,16.7z M122.6,17.5
								c0.2-0.1,0.3-0.3,0.2-0.6s-0.3-0.4-0.5-0.3c-0.2,0.1-0.3,0.3-0.2,0.6C122.1,17.4,122.4,17.5,122.6,17.5z"/>
						</g>
						<g>
							<path class="st24" d="M124.3,21.8c0.1,0.3-0.3,0.4-0.5,0.4c-0.2,0-0.5-0.1-0.5-0.1s-0.3,0-0.5,0.1c-0.2,0-0.5,0-0.5-0.4
								c0.1-0.3,0.4-0.3,0.5-0.8c0.1-0.5,0.5-0.4,0.5-0.4s0.4,0,0.5,0.4C123.9,21.4,124.3,21.4,124.3,21.8z M123.7,20.5
								c0.2,0.1,0.4-0.1,0.5-0.4c0.1-0.3,0-0.5-0.2-0.6c-0.2-0.1-0.4,0.1-0.5,0.4C123.4,20.2,123.5,20.4,123.7,20.5z M124.6,20.4
								c-0.2-0.1-0.4,0.1-0.5,0.3c-0.1,0.2,0,0.5,0.2,0.6c0.2,0.1,0.4-0.1,0.5-0.3C124.8,20.8,124.8,20.5,124.6,20.4z M123,20.5
								c0.2-0.1,0.3-0.3,0.2-0.6s-0.3-0.4-0.5-0.4c-0.2,0.1-0.3,0.3-0.2,0.6C122.6,20.4,122.8,20.6,123,20.5z M122.6,21.3
								c0.2-0.1,0.3-0.3,0.2-0.6s-0.3-0.4-0.5-0.3c-0.2,0.1-0.3,0.3-0.2,0.6C122.1,21.2,122.4,21.4,122.6,21.3z"/>
						</g>
						<g>
							<path class="st25" d="M124.3,25.6c0.1,0.3-0.3,0.4-0.5,0.4c-0.2,0-0.5-0.1-0.5-0.1s-0.3,0-0.5,0.1c-0.2,0-0.5,0-0.5-0.4
								c0.1-0.3,0.4-0.3,0.5-0.8c0.1-0.5,0.5-0.4,0.5-0.4s0.4,0,0.5,0.4C123.9,25.3,124.3,25.3,124.3,25.6z M123.7,24.3
								c0.2,0.1,0.4-0.1,0.5-0.4c0.1-0.3,0-0.5-0.2-0.6c-0.2-0.1-0.4,0.1-0.5,0.4C123.4,24,123.5,24.3,123.7,24.3z M124.6,24.2
								c-0.2-0.1-0.4,0.1-0.5,0.3c-0.1,0.2,0,0.5,0.2,0.6c0.2,0.1,0.4-0.1,0.5-0.3C124.8,24.6,124.8,24.3,124.6,24.2z M123,24.3
								c0.2-0.1,0.3-0.3,0.2-0.6c-0.1-0.3-0.3-0.4-0.5-0.4c-0.2,0.1-0.3,0.3-0.2,0.6C122.6,24.2,122.8,24.4,123,24.3z M122.6,25.1
								c0.2-0.1,0.3-0.3,0.2-0.6s-0.3-0.4-0.5-0.3c-0.2,0.1-0.3,0.3-0.2,0.6C122.1,25.1,122.4,25.2,122.6,25.1z"/>
						</g>
						<g>
							<path d="M124.3,29.4c0.1,0.3-0.3,0.4-0.5,0.4c-0.2,0-0.5-0.1-0.5-0.1s-0.3,0-0.5,0.1c-0.2,0-0.5,0-0.5-0.4
								c0.1-0.3,0.4-0.3,0.5-0.8c0.1-0.5,0.5-0.4,0.5-0.4s0.4,0,0.5,0.4C123.9,29.1,124.3,29.1,124.3,29.4z M123.7,28.2
								c0.2,0.1,0.4-0.1,0.5-0.4c0.1-0.3,0-0.5-0.2-0.6c-0.2-0.1-0.4,0.1-0.5,0.4C123.4,27.9,123.5,28.1,123.7,28.2z M124.6,28.1
								c-0.2-0.1-0.4,0.1-0.5,0.3c-0.1,0.2,0,0.5,0.2,0.6c0.2,0.1,0.4-0.1,0.5-0.3C124.8,28.4,124.8,28.2,124.6,28.1z M123,28.2
								c0.2-0.1,0.3-0.3,0.2-0.6s-0.3-0.4-0.5-0.4c-0.2,0.1-0.3,0.3-0.2,0.6C122.6,28.1,122.8,28.2,123,28.2z M122.6,29
								c0.2-0.1,0.3-0.3,0.2-0.6s-0.3-0.4-0.5-0.3c-0.2,0.1-0.3,0.3-0.2,0.6C122.1,28.9,122.4,29.1,122.6,29z"/>
						</g>
					</g>
				</g>
			</g>
			<g>
				<path class="st26" d="M143,18L143,18c-0.3,0.2-0.4,0.5-0.2,0.8l-0.2-0.4c-0.2-0.3-0.5-0.4-0.8-0.2l0,0c-0.3,0.2-0.4,0.5-0.2,0.8
					c-0.2-0.3-0.5-0.4-0.8-0.2l0,0c-0.3,0.2-0.4,0.5-0.2,0.8l-1.1-1.9c-0.2-0.3-0.5-0.4-0.8-0.2l0,0c-0.3,0.2-0.4,0.5-0.2,0.8
					l0.9,1.6l1.4,2.5l-1.2-0.7c-0.3-0.2-0.7-0.1-0.8,0.2l0,0c-0.2,0.3-0.1,0.6,0.2,0.8l1.9,1.3c0.9,0.6,2.1,0.7,3,0.2l0,0
					c1.4-0.8,1.9-2.5,1.1-3.9l-1.1-2C143.7,17.9,143.3,17.8,143,18z"/>
				<path d="M142.9,17.8c-0.1,0.1-0.2,0.2-0.3,0.3c-0.2-0.2-0.6-0.3-0.9-0.1c-0.2,0.1-0.3,0.3-0.4,0.5c-0.2-0.1-0.4-0.1-0.6,0.1
					c-0.1,0.1-0.2,0.2-0.3,0.3l-0.7-1.3c-0.2-0.4-0.7-0.5-1.1-0.3c-0.4,0.2-0.5,0.7-0.3,1.1l0.5,1c0.1,0.1,0.2,0.1,0.3,0.1
					c0.1-0.1,0.1-0.2,0.1-0.3l-0.5-1c-0.1-0.2,0-0.4,0.1-0.5c0.2-0.1,0.4,0,0.5,0.1l1.7,3.2c0.1,0.1,0.2,0.1,0.3,0.1
					s0.1-0.2,0.1-0.3l-0.7-1.2c-0.1-0.2,0-0.4,0.1-0.5c0.2-0.1,0.4,0,0.5,0.1l0.1,0.2l0.6,1.1c0.1,0.1,0.2,0.1,0.3,0.1
					c0.1-0.1,0.1-0.2,0.1-0.3l-0.6-1.1l-0.1-0.2c-0.1-0.2,0-0.4,0.1-0.5c0.2-0.1,0.4,0,0.5,0.1l0.2,0.4l0.2,0.3l0.3,0.5
					c0.1,0.1,0.2,0.1,0.3,0.1s0.1-0.2,0.1-0.3l-0.3-0.5l-0.2-0.3c-0.1-0.2,0-0.4,0.1-0.5c0.2-0.1,0.4,0,0.5,0.1l1.1,2
					c0.1,0.1,0.1,0.3,0.2,0.4c0,0.1,0.2,0.2,0.3,0.1c0,0,0,0,0,0c0.1,0,0.1-0.2,0.1-0.3c-0.1-0.2-0.1-0.3-0.2-0.5l-1.1-2
					C143.8,17.7,143.3,17.6,142.9,17.8z"/>
				<path d="M144.9,22.4c-0.2,0.6-0.6,1.2-1.2,1.5c-0.9,0.5-2,0.4-2.8-0.2l-1.9-1.3c-0.2-0.1-0.2-0.4-0.1-0.5
					c0.1-0.2,0.3-0.2,0.5-0.1l1.2,0.7c0.1,0,0.2,0,0.3,0c0.1-0.1,0.1-0.2,0-0.3l-1-1.9c-0.1-0.1-0.2-0.1-0.3-0.1
					c-0.1,0.1-0.1,0.2-0.1,0.3l0.6,1.2l-0.5-0.3c-0.4-0.2-0.9-0.1-1.1,0.3c-0.2,0.4-0.1,0.9,0.2,1.1l1.9,1.3c0.5,0.3,1,0.5,1.6,0.6
					c0.6,0,1.2-0.1,1.7-0.4c0.7-0.4,1.2-1,1.4-1.7c0-0.1,0-0.2-0.1-0.3C145.1,22.2,145,22.3,144.9,22.4z"/>
				<path d="M145.2,21.4c0,0-0.1,0.1-0.1,0.1c0,0.1,0,0.1,0,0.2c0,0,0.1,0.1,0.1,0.1c0.1,0,0.1,0,0.2,0c0,0,0.1-0.1,0.1-0.1
					c0-0.1,0-0.1,0-0.2c0,0-0.1-0.1-0.1-0.1C145.3,21.3,145.2,21.3,145.2,21.4z"/>
				<path d="M139.5,20c0,0,0.1-0.1,0.1-0.1c0-0.1,0-0.1,0-0.2s-0.1-0.1-0.1-0.1c-0.1,0-0.1,0-0.2,0c0,0-0.1,0.1-0.1,0.1
					c0,0.1,0,0.1,0,0.2s0.1,0.1,0.1,0.1C139.4,20,139.4,20,139.5,20z"/>
			</g>
		</g>
		<line class="st20" x1="82.3" y1="8.8" x2="119.6" y2="5.2"/>
		<line class="st20" x1="80.5" y1="28.5" x2="119.6" y2="40.7"/>
		<circle class="st27" cx="78.4" cy="18.1" r="10.1"/>
		<g>
			<g>
				<rect x="71.4" y="11.2" class="st6" width="13.9" height="13.9"/>
				<g>
					<path d="M84.3,10.7h-2.1c-0.2,0-0.4,0.2-0.4,0.4c0,0.2,0.2,0.4,0.4,0.4h2.1c0.4,0,0.7,0.3,0.7,0.7v2.1c0,0.2,0.2,0.4,0.4,0.4
						s0.4-0.2,0.4-0.4v-2.1C85.9,11.4,85.2,10.7,84.3,10.7z"/>
					<path d="M71.4,14.8c0.2,0,0.4-0.2,0.4-0.4v-2.1c0-0.4,0.3-0.7,0.7-0.7h2.1c0.2,0,0.4-0.2,0.4-0.4c0-0.2-0.2-0.4-0.4-0.4h-2.1
						c-0.9,0-1.6,0.7-1.6,1.6v2.1C71,14.6,71.2,14.8,71.4,14.8z"/>
					<path d="M74.7,24.7h-2.1c-0.4,0-0.7-0.3-0.7-0.7v-2.1c0-0.2-0.2-0.4-0.4-0.4S71,21.6,71,21.9V24c0,0.9,0.7,1.6,1.6,1.6h2.1
						c0.2,0,0.4-0.2,0.4-0.4S74.9,24.7,74.7,24.7z"/>
					<path d="M85.4,21.4c-0.2,0-0.4,0.2-0.4,0.4V24c0,0.4-0.3,0.7-0.7,0.7h-2.1c-0.2,0-0.4,0.2-0.4,0.4s0.2,0.4,0.4,0.4h2.1
						c0.9,0,1.6-0.7,1.6-1.6v-2.1C85.9,21.6,85.7,21.4,85.4,21.4z"/>
					<path d="M80.9,13.9h1.4c0.2,0,0.3,0.2,0.3,0.3v1.4c0,0.2,0.2,0.4,0.4,0.4s0.4-0.2,0.4-0.4v-1.4c0-0.7-0.5-1.2-1.2-1.2h-1.4
						c-0.2,0-0.4,0.2-0.4,0.4C80.5,13.7,80.7,13.9,80.9,13.9z"/>
					<path d="M73.3,14.2v1.4c0,0.2,0.2,0.4,0.4,0.4s0.4-0.2,0.4-0.4v-1.4c0-0.2,0.2-0.3,0.3-0.3h1.4c0.2,0,0.4-0.2,0.4-0.4
						c0-0.2-0.2-0.4-0.4-0.4h-1.4C73.9,13,73.3,13.5,73.3,14.2z"/>
					<path d="M75.9,22.3h-1.4c-0.2,0-0.3-0.2-0.3-0.3v-1.4c0-0.2-0.2-0.4-0.4-0.4s-0.4,0.2-0.4,0.4V22c0,0.7,0.5,1.2,1.2,1.2h1.4
						c0.2,0,0.4-0.2,0.4-0.4S76.2,22.3,75.9,22.3z"/>
					<path d="M83.5,22v-1.4c0-0.2-0.2-0.4-0.4-0.4s-0.4,0.2-0.4,0.4V22c0,0.2-0.2,0.3-0.3,0.3h-1.4c-0.2,0-0.4,0.2-0.4,0.4
						s0.2,0.4,0.4,0.4h1.4C83,23.2,83.5,22.6,83.5,22z"/>
					<path d="M71,18.1c0,0.2,0.2,0.4,0.4,0.4h14c0.2,0,0.4-0.2,0.4-0.4c0-0.2-0.2-0.4-0.4-0.4h-14C71.2,17.7,71,17.9,71,18.1z"/>
				</g>
			</g>
			<circle class="st20" cx="78.4" cy="18.1" r="10.1"/>
		</g>
	</g>
</g>
</svg>
